<?xml version="1.0" encoding="UTF-8" standalone="no"?>
<!DOCTYPE svg PUBLIC "-//W3C//DTD SVG 1.1//EN"
 "http://www.w3.org/Graphics/SVG/1.1/DTD/svg11.dtd">
<!-- Generated by graphviz version 12.2.0 (20241103.1931)
 -->
<!-- Pages: 1 -->
<svg width="1016pt" height="802pt"
 viewBox="0.00 0.00 1015.94 801.50" xmlns="http://www.w3.org/2000/svg" xmlns:xlink="http://www.w3.org/1999/xlink">
<g id="graph0" class="graph" transform="scale(1 1) rotate(0) translate(4 797.5)">
<polygon fill="white" stroke="none" points="-4,4 -4,-797.5 1011.94,-797.5 1011.94,4 -4,4"/>
<!-- node_000001d8f1b29460 -->
<g id="node1" class="node">
<title>node_000001d8f1b29460</title>
<path fill="#ecfd74" stroke="#ffc500" d="M181.62,-678.5C181.62,-678.5 470.88,-678.5 470.88,-678.5 476.88,-678.5 482.88,-684.5 482.88,-690.5 482.88,-690.5 482.88,-781 482.88,-781 482.88,-787 476.88,-793 470.88,-793 470.88,-793 181.62,-793 181.62,-793 175.62,-793 169.62,-787 169.62,-781 169.62,-781 169.62,-690.5 169.62,-690.5 169.62,-684.5 175.62,-678.5 181.62,-678.5"/>
<text text-anchor="middle" x="326.25" y="-775.7" font-family="Times New Roman,serif" font-size="14.00">addr: 000001d8f1b29460</text>
<polyline fill="none" stroke="#ffc500" points="169.62,-768.5 482.88,-768.5"/>
<text text-anchor="middle" x="326.25" y="-751.2" font-family="Times New Roman,serif" font-size="14.00">val = &#39;*&#39;</text>
<polyline fill="none" stroke="#ffc500" points="169.62,-744 482.88,-744"/>
<text text-anchor="middle" x="326.25" y="-726.7" font-family="Times New Roman,serif" font-size="14.00">type = OP</text>
<polyline fill="none" stroke="#ffc500" points="169.62,-719.5 482.88,-719.5"/>
<text text-anchor="middle" x="247.75" y="-702.2" font-family="Times New Roman,serif" font-size="14.00">L:</text>
<text text-anchor="middle" x="247.75" y="-685.7" font-family="Times New Roman,serif" font-size="14.00"> addr: 000001d8f1c06070</text>
<polyline fill="none" stroke="#ffc500" points="325.88,-678.5 325.88,-719.5"/>
<text text-anchor="middle" x="404.38" y="-702.2" font-family="Times New Roman,serif" font-size="14.00">R: </text>
<text text-anchor="middle" x="404.38" y="-685.7" font-family="Times New Roman,serif" font-size="14.00"> addr: 000001d8f1b29430</text>
</g>
<!-- node_000001d8f1c06070 -->
<g id="node4" class="node">
<title>node_000001d8f1c06070</title>
<path fill="#ff5fe0" stroke="#d408ac" d="M12,-527C12,-527 306.5,-527 306.5,-527 312.5,-527 318.5,-533 318.5,-539 318.5,-539 318.5,-629.5 318.5,-629.5 318.5,-635.5 312.5,-641.5 306.5,-641.5 306.5,-641.5 12,-641.5 12,-641.5 6,-641.5 0,-635.5 0,-629.5 0,-629.5 0,-539 0,-539 0,-533 6,-527 12,-527"/>
<text text-anchor="middle" x="159.25" y="-624.2" font-family="Times New Roman,serif" font-size="14.00">addr: 000001d8f1c06070</text>
<polyline fill="none" stroke="#d408ac" points="0,-617 318.5,-617"/>
<text text-anchor="middle" x="159.25" y="-599.7" font-family="Times New Roman,serif" font-size="14.00">val = &#39;x&#39;</text>
<polyline fill="none" stroke="#d408ac" points="0,-592.5 318.5,-592.5"/>
<text text-anchor="middle" x="159.25" y="-575.2" font-family="Times New Roman,serif" font-size="14.00">type = VAR</text>
<polyline fill="none" stroke="#d408ac" points="0,-568 318.5,-568"/>
<text text-anchor="middle" x="79.62" y="-550.7" font-family="Times New Roman,serif" font-size="14.00">L:</text>
<text text-anchor="middle" x="79.62" y="-534.2" font-family="Times New Roman,serif" font-size="14.00"> addr: 0000000000000000</text>
<polyline fill="none" stroke="#d408ac" points="159.25,-527 159.25,-568"/>
<text text-anchor="middle" x="238.88" y="-550.7" font-family="Times New Roman,serif" font-size="14.00">R: </text>
<text text-anchor="middle" x="238.88" y="-534.2" font-family="Times New Roman,serif" font-size="14.00"> addr: 0000000000000000</text>
</g>
<!-- node_000001d8f1b29460&#45;&gt;node_000001d8f1c06070 -->
<g id="edge2" class="edge">
<title>node_000001d8f1b29460&#45;&gt;node_000001d8f1c06070</title>
<path fill="none" stroke="#ff0000" d="M263.11,-678.23C252.62,-668.84 241.67,-659.03 230.98,-649.46"/>
<polygon fill="#ff0000" stroke="#ff0000" points="233.39,-646.92 223.6,-642.86 228.72,-652.14 233.39,-646.92"/>
</g>
<!-- node_000001d8f1b29430 -->
<g id="node5" class="node">
<title>node_000001d8f1b29430</title>
<path fill="#ecfd74" stroke="#ffc500" d="M349,-527C349,-527 637.5,-527 637.5,-527 643.5,-527 649.5,-533 649.5,-539 649.5,-539 649.5,-629.5 649.5,-629.5 649.5,-635.5 643.5,-641.5 637.5,-641.5 637.5,-641.5 349,-641.5 349,-641.5 343,-641.5 337,-635.5 337,-629.5 337,-629.5 337,-539 337,-539 337,-533 343,-527 349,-527"/>
<text text-anchor="middle" x="493.25" y="-624.2" font-family="Times New Roman,serif" font-size="14.00">addr: 000001d8f1b29430</text>
<polyline fill="none" stroke="#ffc500" points="337,-617 649.5,-617"/>
<text text-anchor="middle" x="493.25" y="-599.7" font-family="Times New Roman,serif" font-size="14.00">val = &#39;&#45;&#39;</text>
<polyline fill="none" stroke="#ffc500" points="337,-592.5 649.5,-592.5"/>
<text text-anchor="middle" x="493.25" y="-575.2" font-family="Times New Roman,serif" font-size="14.00">type = OP</text>
<polyline fill="none" stroke="#ffc500" points="337,-568 649.5,-568"/>
<text text-anchor="middle" x="415.12" y="-550.7" font-family="Times New Roman,serif" font-size="14.00">L:</text>
<text text-anchor="middle" x="415.12" y="-534.2" font-family="Times New Roman,serif" font-size="14.00"> addr: 000001d8f1c06160</text>
<polyline fill="none" stroke="#ffc500" points="493.25,-527 493.25,-568"/>
<text text-anchor="middle" x="571.38" y="-550.7" font-family="Times New Roman,serif" font-size="14.00">R: </text>
<text text-anchor="middle" x="571.38" y="-534.2" font-family="Times New Roman,serif" font-size="14.00"> addr: 000001d8f1c06190</text>
</g>
<!-- node_000001d8f1b29460&#45;&gt;node_000001d8f1b29430 -->
<g id="edge3" class="edge">
<title>node_000001d8f1b29460&#45;&gt;node_000001d8f1b29430</title>
<path fill="none" stroke="#ff0000" d="M389.39,-678.23C399.88,-668.84 410.83,-659.03 421.52,-649.46"/>
<polygon fill="#ff0000" stroke="#ff0000" points="423.78,-652.14 428.9,-642.86 419.11,-646.92 423.78,-652.14"/>
</g>
<!-- 1 -->
<g id="node2" class="node">
<title>1</title>
<ellipse fill="#fe5656" stroke="#581845" cx="987.25" cy="-735.75" rx="18" ry="18"/>
<text text-anchor="middle" x="987.25" y="-730.7" font-family="Times New Roman,serif" font-size="14.00">1</text>
</g>
<!-- 2 -->
<g id="node3" class="node">
<title>2</title>
<ellipse fill="#fe5656" stroke="#581845" cx="987.25" cy="-584.25" rx="18" ry="18"/>
<text text-anchor="middle" x="987.25" y="-579.2" font-family="Times New Roman,serif" font-size="14.00">2</text>
</g>
<!-- 1&#45;&gt;2 -->
<g id="edge1" class="edge">
<title>1&#45;&gt;2</title>
<path fill="none" stroke="white" d="M982.79,-717.89C980.09,-692.41 979.78,-643.8 981.86,-613.03"/>
<polygon fill="white" stroke="white" points="985.33,-613.59 982.69,-603.33 978.35,-612.99 985.33,-613.59"/>
</g>
<!-- 1&#45;&gt;2 -->
<g id="edge4" class="edge">
<title>1&#45;&gt;2</title>
<path fill="none" stroke="white" d="M991.71,-717.89C994.41,-692.41 994.72,-643.8 992.64,-613.03"/>
<polygon fill="white" stroke="white" points="996.15,-612.99 991.81,-603.33 989.17,-613.59 996.15,-612.99"/>
</g>
<!-- 3 -->
<g id="node6" class="node">
<title>3</title>
<ellipse fill="#fe5656" stroke="#581845" cx="987.25" cy="-432.75" rx="18" ry="18"/>
<text text-anchor="middle" x="987.25" y="-427.7" font-family="Times New Roman,serif" font-size="14.00">3</text>
</g>
<!-- 2&#45;&gt;3 -->
<g id="edge5" class="edge">
<title>2&#45;&gt;3</title>
<path fill="none" stroke="white" d="M975.21,-570.24C965.46,-545.05 964.4,-489.26 972,-457.35"/>
<polygon fill="white" stroke="white" points="975.33,-458.44 974.9,-447.86 968.64,-456.4 975.33,-458.44"/>
</g>
<!-- 2&#45;&gt;3 -->
<g id="edge8" class="edge">
<title>2&#45;&gt;3</title>
<path fill="none" stroke="white" d="M982.79,-566.39C980.09,-540.91 979.78,-492.3 981.86,-461.53"/>
<polygon fill="white" stroke="white" points="985.33,-462.09 982.69,-451.83 978.35,-461.49 985.33,-462.09"/>
</g>
<!-- 2&#45;&gt;3 -->
<g id="edge9" class="edge">
<title>2&#45;&gt;3</title>
<path fill="none" stroke="white" d="M991.71,-566.39C994.41,-540.91 994.72,-492.3 992.64,-461.53"/>
<polygon fill="white" stroke="white" points="996.15,-461.49 991.81,-451.83 989.17,-462.09 996.15,-461.49"/>
</g>
<!-- 2&#45;&gt;3 -->
<g id="edge12" class="edge">
<title>2&#45;&gt;3</title>
<path fill="none" stroke="white" d="M999.29,-570.24C1009.04,-545.05 1010.1,-489.26 1002.5,-457.35"/>
<polygon fill="white" stroke="white" points="1005.86,-456.4 999.6,-447.86 999.17,-458.44 1005.86,-456.4"/>
</g>
<!-- node_l_null_000001d8f1c06070 -->
<g id="node7" class="node">
<title>node_l_null_000001d8f1c06070</title>
<ellipse fill="#a2f0f8" stroke="#007cff" cx="122.25" cy="-432.75" rx="27.81" ry="18"/>
<text text-anchor="middle" x="122.25" y="-427.7" font-family="Times New Roman,serif" font-size="14.00"> null</text>
</g>
<!-- node_000001d8f1c06070&#45;&gt;node_l_null_000001d8f1c06070 -->
<g id="edge6" class="edge">
<title>node_000001d8f1c06070&#45;&gt;node_l_null_000001d8f1c06070</title>
<path fill="none" stroke="#007cff" d="M145.26,-526.73C139.79,-504.62 133.76,-480.24 129.24,-461.99"/>
<polygon fill="#007cff" stroke="#007cff" points="132.68,-461.31 126.88,-452.44 125.88,-462.99 132.68,-461.31"/>
</g>
<!-- node_r_null_000001d8f1c06070 -->
<g id="node8" class="node">
<title>node_r_null_000001d8f1c06070</title>
<ellipse fill="#a2f0f8" stroke="#007cff" cx="196.25" cy="-432.75" rx="27.81" ry="18"/>
<text text-anchor="middle" x="196.25" y="-427.7" font-family="Times New Roman,serif" font-size="14.00"> null</text>
</g>
<!-- node_000001d8f1c06070&#45;&gt;node_r_null_000001d8f1c06070 -->
<g id="edge7" class="edge">
<title>node_000001d8f1c06070&#45;&gt;node_r_null_000001d8f1c06070</title>
<path fill="none" stroke="#007cff" d="M173.24,-526.73C178.71,-504.62 184.74,-480.24 189.26,-461.99"/>
<polygon fill="#007cff" stroke="#007cff" points="192.62,-462.99 191.62,-452.44 185.82,-461.31 192.62,-462.99"/>
</g>
<!-- node_000001d8f1c06160 -->
<g id="node9" class="node">
<title>node_000001d8f1c06160</title>
<path fill="#ecfd74" stroke="#ffc500" d="M301.38,-375.5C301.38,-375.5 589.12,-375.5 589.12,-375.5 595.12,-375.5 601.12,-381.5 601.12,-387.5 601.12,-387.5 601.12,-478 601.12,-478 601.12,-484 595.12,-490 589.12,-490 589.12,-490 301.38,-490 301.38,-490 295.38,-490 289.38,-484 289.38,-478 289.38,-478 289.38,-387.5 289.38,-387.5 289.38,-381.5 295.38,-375.5 301.38,-375.5"/>
<text text-anchor="middle" x="445.25" y="-472.7" font-family="Times New Roman,serif" font-size="14.00">addr: 000001d8f1c06160</text>
<polyline fill="none" stroke="#ffc500" points="289.38,-465.5 601.12,-465.5"/>
<text text-anchor="middle" x="445.25" y="-448.2" font-family="Times New Roman,serif" font-size="14.00">val = &#39;+&#39;</text>
<polyline fill="none" stroke="#ffc500" points="289.38,-441 601.12,-441"/>
<text text-anchor="middle" x="445.25" y="-423.7" font-family="Times New Roman,serif" font-size="14.00">type = OP</text>
<polyline fill="none" stroke="#ffc500" points="289.38,-416.5 601.12,-416.5"/>
<text text-anchor="middle" x="367.12" y="-399.2" font-family="Times New Roman,serif" font-size="14.00">L:</text>
<text text-anchor="middle" x="367.12" y="-382.7" font-family="Times New Roman,serif" font-size="14.00"> addr: 000001d8f1c060a0</text>
<polyline fill="none" stroke="#ffc500" points="444.88,-375.5 444.88,-416.5"/>
<text text-anchor="middle" x="523" y="-399.2" font-family="Times New Roman,serif" font-size="14.00">R: </text>
<text text-anchor="middle" x="523" y="-382.7" font-family="Times New Roman,serif" font-size="14.00"> addr: 000001d8f1c06130</text>
</g>
<!-- node_000001d8f1b29430&#45;&gt;node_000001d8f1c06160 -->
<g id="edge10" class="edge">
<title>node_000001d8f1b29430&#45;&gt;node_000001d8f1c06160</title>
<path fill="none" stroke="#ff0000" d="M475.1,-526.73C472.42,-518.36 469.62,-509.66 466.87,-501.1"/>
<polygon fill="#ff0000" stroke="#ff0000" points="470.27,-500.24 463.89,-491.79 463.61,-502.38 470.27,-500.24"/>
</g>
<!-- node_000001d8f1c06190 -->
<g id="node10" class="node">
<title>node_000001d8f1c06190</title>
<path fill="#a2f8a4" stroke="#18ca1c" d="M631,-375.5C631,-375.5 925.5,-375.5 925.5,-375.5 931.5,-375.5 937.5,-381.5 937.5,-387.5 937.5,-387.5 937.5,-478 937.5,-478 937.5,-484 931.5,-490 925.5,-490 925.5,-490 631,-490 631,-490 625,-490 619,-484 619,-478 619,-478 619,-387.5 619,-387.5 619,-381.5 625,-375.5 631,-375.5"/>
<text text-anchor="middle" x="778.25" y="-472.7" font-family="Times New Roman,serif" font-size="14.00">addr: 000001d8f1c06190</text>
<polyline fill="none" stroke="#18ca1c" points="619,-465.5 937.5,-465.5"/>
<text text-anchor="middle" x="778.25" y="-448.2" font-family="Times New Roman,serif" font-size="14.00">val = 6</text>
<polyline fill="none" stroke="#18ca1c" points="619,-441 937.5,-441"/>
<text text-anchor="middle" x="778.25" y="-423.7" font-family="Times New Roman,serif" font-size="14.00">type = NUM</text>
<polyline fill="none" stroke="#18ca1c" points="619,-416.5 937.5,-416.5"/>
<text text-anchor="middle" x="698.62" y="-399.2" font-family="Times New Roman,serif" font-size="14.00">L:</text>
<text text-anchor="middle" x="698.62" y="-382.7" font-family="Times New Roman,serif" font-size="14.00"> addr: 0000000000000000</text>
<polyline fill="none" stroke="#18ca1c" points="778.25,-375.5 778.25,-416.5"/>
<text text-anchor="middle" x="857.88" y="-399.2" font-family="Times New Roman,serif" font-size="14.00">R: </text>
<text text-anchor="middle" x="857.88" y="-382.7" font-family="Times New Roman,serif" font-size="14.00"> addr: 0000000000000000</text>
</g>
<!-- node_000001d8f1b29430&#45;&gt;node_000001d8f1c06190 -->
<g id="edge11" class="edge">
<title>node_000001d8f1b29430&#45;&gt;node_000001d8f1c06190</title>
<path fill="none" stroke="#ff0000" d="M601.4,-526.52C620.58,-516.46 640.64,-505.94 660.07,-495.74"/>
<polygon fill="#ff0000" stroke="#ff0000" points="661.6,-498.89 668.83,-491.15 658.35,-492.69 661.6,-498.89"/>
</g>
<!-- 4 -->
<g id="node11" class="node">
<title>4</title>
<ellipse fill="#fe5656" stroke="#581845" cx="987.25" cy="-281.25" rx="18" ry="18"/>
<text text-anchor="middle" x="987.25" y="-276.2" font-family="Times New Roman,serif" font-size="14.00">4</text>
</g>
<!-- 3&#45;&gt;4 -->
<g id="edge13" class="edge">
<title>3&#45;&gt;4</title>
<path fill="none" stroke="white" d="M975.21,-418.74C965.46,-393.55 964.4,-337.76 972,-305.85"/>
<polygon fill="white" stroke="white" points="975.33,-306.94 974.9,-296.36 968.64,-304.9 975.33,-306.94"/>
</g>
<!-- 3&#45;&gt;4 -->
<g id="edge16" class="edge">
<title>3&#45;&gt;4</title>
<path fill="none" stroke="white" d="M982.79,-414.89C980.09,-389.41 979.78,-340.8 981.86,-310.03"/>
<polygon fill="white" stroke="white" points="985.33,-310.59 982.69,-300.33 978.35,-309.99 985.33,-310.59"/>
</g>
<!-- 3&#45;&gt;4 -->
<g id="edge33" class="edge">
<title>3&#45;&gt;4</title>
<path fill="none" stroke="white" d="M991.71,-414.89C994.41,-389.41 994.72,-340.8 992.64,-310.03"/>
<polygon fill="white" stroke="white" points="996.15,-309.99 991.81,-300.33 989.17,-310.59 996.15,-309.99"/>
</g>
<!-- 3&#45;&gt;4 -->
<g id="edge36" class="edge">
<title>3&#45;&gt;4</title>
<path fill="none" stroke="white" d="M999.29,-418.74C1009.04,-393.55 1010.1,-337.76 1002.5,-305.85"/>
<polygon fill="white" stroke="white" points="1005.86,-304.9 999.6,-296.36 999.17,-306.94 1005.86,-304.9"/>
</g>
<!-- node_000001d8f1c060a0 -->
<g id="node12" class="node">
<title>node_000001d8f1c060a0</title>
<path fill="#a2f8a4" stroke="#18ca1c" d="M22,-224C22,-224 316.5,-224 316.5,-224 322.5,-224 328.5,-230 328.5,-236 328.5,-236 328.5,-326.5 328.5,-326.5 328.5,-332.5 322.5,-338.5 316.5,-338.5 316.5,-338.5 22,-338.5 22,-338.5 16,-338.5 10,-332.5 10,-326.5 10,-326.5 10,-236 10,-236 10,-230 16,-224 22,-224"/>
<text text-anchor="middle" x="169.25" y="-321.2" font-family="Times New Roman,serif" font-size="14.00">addr: 000001d8f1c060a0</text>
<polyline fill="none" stroke="#18ca1c" points="10,-314 328.5,-314"/>
<text text-anchor="middle" x="169.25" y="-296.7" font-family="Times New Roman,serif" font-size="14.00">val = 1</text>
<polyline fill="none" stroke="#18ca1c" points="10,-289.5 328.5,-289.5"/>
<text text-anchor="middle" x="169.25" y="-272.2" font-family="Times New Roman,serif" font-size="14.00">type = NUM</text>
<polyline fill="none" stroke="#18ca1c" points="10,-265 328.5,-265"/>
<text text-anchor="middle" x="89.62" y="-247.7" font-family="Times New Roman,serif" font-size="14.00">L:</text>
<text text-anchor="middle" x="89.62" y="-231.2" font-family="Times New Roman,serif" font-size="14.00"> addr: 0000000000000000</text>
<polyline fill="none" stroke="#18ca1c" points="169.25,-224 169.25,-265"/>
<text text-anchor="middle" x="248.88" y="-247.7" font-family="Times New Roman,serif" font-size="14.00">R: </text>
<text text-anchor="middle" x="248.88" y="-231.2" font-family="Times New Roman,serif" font-size="14.00"> addr: 0000000000000000</text>
</g>
<!-- node_000001d8f1c06160&#45;&gt;node_000001d8f1c060a0 -->
<g id="edge14" class="edge">
<title>node_000001d8f1c06160&#45;&gt;node_000001d8f1c060a0</title>
<path fill="none" stroke="#ff0000" d="M340.51,-375.02C322.03,-365 302.7,-354.53 283.96,-344.38"/>
<polygon fill="#ff0000" stroke="#ff0000" points="285.71,-341.35 275.25,-339.66 282.37,-347.51 285.71,-341.35"/>
</g>
<!-- node_000001d8f1c06130 -->
<g id="node13" class="node">
<title>node_000001d8f1c06130</title>
<path fill="#ecfd74" stroke="#ffc500" d="M359,-224C359,-224 647.5,-224 647.5,-224 653.5,-224 659.5,-230 659.5,-236 659.5,-236 659.5,-326.5 659.5,-326.5 659.5,-332.5 653.5,-338.5 647.5,-338.5 647.5,-338.5 359,-338.5 359,-338.5 353,-338.5 347,-332.5 347,-326.5 347,-326.5 347,-236 347,-236 347,-230 353,-224 359,-224"/>
<text text-anchor="middle" x="503.25" y="-321.2" font-family="Times New Roman,serif" font-size="14.00">addr: 000001d8f1c06130</text>
<polyline fill="none" stroke="#ffc500" points="347,-314 659.5,-314"/>
<text text-anchor="middle" x="503.25" y="-296.7" font-family="Times New Roman,serif" font-size="14.00">val = &#39;*&#39;</text>
<polyline fill="none" stroke="#ffc500" points="347,-289.5 659.5,-289.5"/>
<text text-anchor="middle" x="503.25" y="-272.2" font-family="Times New Roman,serif" font-size="14.00">type = OP</text>
<polyline fill="none" stroke="#ffc500" points="347,-265 659.5,-265"/>
<text text-anchor="middle" x="425.12" y="-247.7" font-family="Times New Roman,serif" font-size="14.00">L:</text>
<text text-anchor="middle" x="425.12" y="-231.2" font-family="Times New Roman,serif" font-size="14.00"> addr: 000001d8f1c060d0</text>
<polyline fill="none" stroke="#ffc500" points="503.25,-224 503.25,-265"/>
<text text-anchor="middle" x="581.38" y="-247.7" font-family="Times New Roman,serif" font-size="14.00">R: </text>
<text text-anchor="middle" x="581.38" y="-231.2" font-family="Times New Roman,serif" font-size="14.00"> addr: 000001d8f1c06100</text>
</g>
<!-- node_000001d8f1c06160&#45;&gt;node_000001d8f1c06130 -->
<g id="edge15" class="edge">
<title>node_000001d8f1c06160&#45;&gt;node_000001d8f1c06130</title>
<path fill="none" stroke="#ff0000" d="M467.18,-375.23C470.46,-366.77 473.87,-357.97 477.23,-349.31"/>
<polygon fill="#ff0000" stroke="#ff0000" points="480.39,-350.85 480.74,-340.26 473.86,-348.32 480.39,-350.85"/>
</g>
<!-- node_l_null_000001d8f1c06190 -->
<g id="node24" class="node">
<title>node_l_null_000001d8f1c06190</title>
<ellipse fill="#a2f0f8" stroke="#007cff" cx="733.25" cy="-281.25" rx="27.81" ry="18"/>
<text text-anchor="middle" x="733.25" y="-276.2" font-family="Times New Roman,serif" font-size="14.00"> null</text>
</g>
<!-- node_000001d8f1c06190&#45;&gt;node_l_null_000001d8f1c06190 -->
<g id="edge34" class="edge">
<title>node_000001d8f1c06190&#45;&gt;node_l_null_000001d8f1c06190</title>
<path fill="none" stroke="#007cff" d="M761.24,-375.23C754.54,-352.98 747.15,-328.44 741.65,-310.16"/>
<polygon fill="#007cff" stroke="#007cff" points="745,-309.15 738.77,-300.59 738.3,-311.17 745,-309.15"/>
</g>
<!-- node_r_null_000001d8f1c06190 -->
<g id="node25" class="node">
<title>node_r_null_000001d8f1c06190</title>
<ellipse fill="#a2f0f8" stroke="#007cff" cx="807.25" cy="-281.25" rx="27.81" ry="18"/>
<text text-anchor="middle" x="807.25" y="-276.2" font-family="Times New Roman,serif" font-size="14.00"> null</text>
</g>
<!-- node_000001d8f1c06190&#45;&gt;node_r_null_000001d8f1c06190 -->
<g id="edge35" class="edge">
<title>node_000001d8f1c06190&#45;&gt;node_r_null_000001d8f1c06190</title>
<path fill="none" stroke="#007cff" d="M789.21,-375.23C793.48,-353.22 798.19,-328.97 801.72,-310.75"/>
<polygon fill="#007cff" stroke="#007cff" points="805.15,-311.44 803.62,-300.96 798.28,-310.11 805.15,-311.44"/>
</g>
<!-- 5 -->
<g id="node14" class="node">
<title>5</title>
<ellipse fill="#fe5656" stroke="#581845" cx="987.25" cy="-129.75" rx="18" ry="18"/>
<text text-anchor="middle" x="987.25" y="-124.7" font-family="Times New Roman,serif" font-size="14.00">5</text>
</g>
<!-- 4&#45;&gt;5 -->
<g id="edge17" class="edge">
<title>4&#45;&gt;5</title>
<path fill="none" stroke="white" d="M975.21,-267.24C965.46,-242.05 964.4,-186.26 972,-154.35"/>
<polygon fill="white" stroke="white" points="975.33,-155.44 974.9,-144.86 968.64,-153.4 975.33,-155.44"/>
</g>
<!-- 4&#45;&gt;5 -->
<g id="edge20" class="edge">
<title>4&#45;&gt;5</title>
<path fill="none" stroke="white" d="M982.79,-263.39C980.09,-237.91 979.78,-189.3 981.86,-158.53"/>
<polygon fill="white" stroke="white" points="985.33,-159.09 982.69,-148.83 978.35,-158.49 985.33,-159.09"/>
</g>
<!-- 4&#45;&gt;5 -->
<g id="edge21" class="edge">
<title>4&#45;&gt;5</title>
<path fill="none" stroke="white" d="M991.71,-263.39C994.41,-237.91 994.72,-189.3 992.64,-158.53"/>
<polygon fill="white" stroke="white" points="996.15,-158.49 991.81,-148.83 989.17,-159.09 996.15,-158.49"/>
</g>
<!-- 4&#45;&gt;5 -->
<g id="edge24" class="edge">
<title>4&#45;&gt;5</title>
<path fill="none" stroke="white" d="M999.29,-267.24C1009.04,-242.05 1010.1,-186.26 1002.5,-154.35"/>
<polygon fill="white" stroke="white" points="1005.86,-153.4 999.6,-144.86 999.17,-155.44 1005.86,-153.4"/>
</g>
<!-- node_l_null_000001d8f1c060a0 -->
<g id="node15" class="node">
<title>node_l_null_000001d8f1c060a0</title>
<ellipse fill="#a2f0f8" stroke="#007cff" cx="125.25" cy="-129.75" rx="27.81" ry="18"/>
<text text-anchor="middle" x="125.25" y="-124.7" font-family="Times New Roman,serif" font-size="14.00"> null</text>
</g>
<!-- node_000001d8f1c060a0&#45;&gt;node_l_null_000001d8f1c060a0 -->
<g id="edge18" class="edge">
<title>node_000001d8f1c060a0&#45;&gt;node_l_null_000001d8f1c060a0</title>
<path fill="none" stroke="#007cff" d="M152.62,-223.73C146.07,-201.48 138.84,-176.94 133.46,-158.66"/>
<polygon fill="#007cff" stroke="#007cff" points="136.83,-157.69 130.65,-149.09 130.11,-159.67 136.83,-157.69"/>
</g>
<!-- node_r_null_000001d8f1c060a0 -->
<g id="node16" class="node">
<title>node_r_null_000001d8f1c060a0</title>
<ellipse fill="#a2f0f8" stroke="#007cff" cx="199.25" cy="-129.75" rx="27.81" ry="18"/>
<text text-anchor="middle" x="199.25" y="-124.7" font-family="Times New Roman,serif" font-size="14.00"> null</text>
</g>
<!-- node_000001d8f1c060a0&#45;&gt;node_r_null_000001d8f1c060a0 -->
<g id="edge19" class="edge">
<title>node_000001d8f1c060a0&#45;&gt;node_r_null_000001d8f1c060a0</title>
<path fill="none" stroke="#007cff" d="M180.59,-223.73C185.01,-201.72 189.87,-177.47 193.53,-159.25"/>
<polygon fill="#007cff" stroke="#007cff" points="196.96,-159.95 195.5,-149.46 190.1,-158.57 196.96,-159.95"/>
</g>
<!-- node_000001d8f1c060d0 -->
<g id="node17" class="node">
<title>node_000001d8f1c060d0</title>
<path fill="#a2f8a4" stroke="#18ca1c" d="M291,-72.5C291,-72.5 585.5,-72.5 585.5,-72.5 591.5,-72.5 597.5,-78.5 597.5,-84.5 597.5,-84.5 597.5,-175 597.5,-175 597.5,-181 591.5,-187 585.5,-187 585.5,-187 291,-187 291,-187 285,-187 279,-181 279,-175 279,-175 279,-84.5 279,-84.5 279,-78.5 285,-72.5 291,-72.5"/>
<text text-anchor="middle" x="438.25" y="-169.7" font-family="Times New Roman,serif" font-size="14.00">addr: 000001d8f1c060d0</text>
<polyline fill="none" stroke="#18ca1c" points="279,-162.5 597.5,-162.5"/>
<text text-anchor="middle" x="438.25" y="-145.2" font-family="Times New Roman,serif" font-size="14.00">val = 2</text>
<polyline fill="none" stroke="#18ca1c" points="279,-138 597.5,-138"/>
<text text-anchor="middle" x="438.25" y="-120.7" font-family="Times New Roman,serif" font-size="14.00">type = NUM</text>
<polyline fill="none" stroke="#18ca1c" points="279,-113.5 597.5,-113.5"/>
<text text-anchor="middle" x="358.62" y="-96.2" font-family="Times New Roman,serif" font-size="14.00">L:</text>
<text text-anchor="middle" x="358.62" y="-79.7" font-family="Times New Roman,serif" font-size="14.00"> addr: 0000000000000000</text>
<polyline fill="none" stroke="#18ca1c" points="438.25,-72.5 438.25,-113.5"/>
<text text-anchor="middle" x="517.88" y="-96.2" font-family="Times New Roman,serif" font-size="14.00">R: </text>
<text text-anchor="middle" x="517.88" y="-79.7" font-family="Times New Roman,serif" font-size="14.00"> addr: 0000000000000000</text>
</g>
<!-- node_000001d8f1c06130&#45;&gt;node_000001d8f1c060d0 -->
<g id="edge22" class="edge">
<title>node_000001d8f1c06130&#45;&gt;node_000001d8f1c060d0</title>
<path fill="none" stroke="#ff0000" d="M478.68,-223.73C475,-215.27 471.17,-206.47 467.41,-197.81"/>
<polygon fill="#ff0000" stroke="#ff0000" points="470.66,-196.51 463.46,-188.74 464.24,-199.3 470.66,-196.51"/>
</g>
<!-- node_000001d8f1c06100 -->
<g id="node18" class="node">
<title>node_000001d8f1c06100</title>
<path fill="#a2f8a4" stroke="#18ca1c" d="M628,-72.5C628,-72.5 922.5,-72.5 922.5,-72.5 928.5,-72.5 934.5,-78.5 934.5,-84.5 934.5,-84.5 934.5,-175 934.5,-175 934.5,-181 928.5,-187 922.5,-187 922.5,-187 628,-187 628,-187 622,-187 616,-181 616,-175 616,-175 616,-84.5 616,-84.5 616,-78.5 622,-72.5 628,-72.5"/>
<text text-anchor="middle" x="775.25" y="-169.7" font-family="Times New Roman,serif" font-size="14.00">addr: 000001d8f1c06100</text>
<polyline fill="none" stroke="#18ca1c" points="616,-162.5 934.5,-162.5"/>
<text text-anchor="middle" x="775.25" y="-145.2" font-family="Times New Roman,serif" font-size="14.00">val = 7</text>
<polyline fill="none" stroke="#18ca1c" points="616,-138 934.5,-138"/>
<text text-anchor="middle" x="775.25" y="-120.7" font-family="Times New Roman,serif" font-size="14.00">type = NUM</text>
<polyline fill="none" stroke="#18ca1c" points="616,-113.5 934.5,-113.5"/>
<text text-anchor="middle" x="695.62" y="-96.2" font-family="Times New Roman,serif" font-size="14.00">L:</text>
<text text-anchor="middle" x="695.62" y="-79.7" font-family="Times New Roman,serif" font-size="14.00"> addr: 0000000000000000</text>
<polyline fill="none" stroke="#18ca1c" points="775.25,-72.5 775.25,-113.5"/>
<text text-anchor="middle" x="854.88" y="-96.2" font-family="Times New Roman,serif" font-size="14.00">R: </text>
<text text-anchor="middle" x="854.88" y="-79.7" font-family="Times New Roman,serif" font-size="14.00"> addr: 0000000000000000</text>
</g>
<!-- node_000001d8f1c06130&#45;&gt;node_000001d8f1c06100 -->
<g id="edge23" class="edge">
<title>node_000001d8f1c06130&#45;&gt;node_000001d8f1c06100</title>
<path fill="none" stroke="#ff0000" d="M606.47,-223.52C624.69,-213.5 643.74,-203.03 662.21,-192.88"/>
<polygon fill="#ff0000" stroke="#ff0000" points="663.7,-196.06 670.77,-188.17 660.33,-189.92 663.7,-196.06"/>
</g>
<!-- 6 -->
<g id="node19" class="node">
<title>6</title>
<ellipse fill="#fe5656" stroke="#581845" cx="987.25" cy="-18" rx="18" ry="18"/>
<text text-anchor="middle" x="987.25" y="-12.95" font-family="Times New Roman,serif" font-size="14.00">6</text>
</g>
<!-- 5&#45;&gt;6 -->
<g id="edge25" class="edge">
<title>5&#45;&gt;6</title>
<path fill="none" stroke="white" d="M974.14,-117C966.02,-99.02 964.83,-64.32 970.55,-41.42"/>
<polygon fill="white" stroke="white" points="973.82,-42.69 973.69,-32.09 967.18,-40.45 973.82,-42.69"/>
</g>
<!-- 5&#45;&gt;6 -->
<g id="edge28" class="edge">
<title>5&#45;&gt;6</title>
<path fill="none" stroke="white" d="M982.24,-112.08C980.29,-94.74 979.98,-67.28 981.3,-46.68"/>
<polygon fill="white" stroke="white" points="984.76,-47.24 982.13,-36.97 977.79,-46.64 984.76,-47.24"/>
</g>
<!-- 5&#45;&gt;6 -->
<g id="edge29" class="edge">
<title>5&#45;&gt;6</title>
<path fill="none" stroke="white" d="M992.26,-112.08C994.21,-94.74 994.52,-67.28 993.2,-46.68"/>
<polygon fill="white" stroke="white" points="996.71,-46.64 992.37,-36.97 989.74,-47.24 996.71,-46.64"/>
</g>
<!-- 5&#45;&gt;6 -->
<g id="edge32" class="edge">
<title>5&#45;&gt;6</title>
<path fill="none" stroke="white" d="M1000.36,-117C1008.48,-99.02 1009.67,-64.32 1003.95,-41.42"/>
<polygon fill="white" stroke="white" points="1007.32,-40.45 1000.81,-32.09 1000.68,-42.69 1007.32,-40.45"/>
</g>
<!-- node_l_null_000001d8f1c060d0 -->
<g id="node20" class="node">
<title>node_l_null_000001d8f1c060d0</title>
<ellipse fill="#a2f0f8" stroke="#007cff" cx="401.25" cy="-18" rx="27.81" ry="18"/>
<text text-anchor="middle" x="401.25" y="-12.95" font-family="Times New Roman,serif" font-size="14.00"> null</text>
</g>
<!-- node_000001d8f1c060d0&#45;&gt;node_l_null_000001d8f1c060d0 -->
<g id="edge26" class="edge">
<title>node_000001d8f1c060d0&#45;&gt;node_l_null_000001d8f1c060d0</title>
<path fill="none" stroke="#007cff" d="M419.21,-72.27C416.21,-63.37 413.23,-54.54 410.59,-46.69"/>
<polygon fill="#007cff" stroke="#007cff" points="413.98,-45.81 407.47,-37.45 407.35,-48.05 413.98,-45.81"/>
</g>
<!-- node_r_null_000001d8f1c060d0 -->
<g id="node21" class="node">
<title>node_r_null_000001d8f1c060d0</title>
<ellipse fill="#a2f0f8" stroke="#007cff" cx="475.25" cy="-18" rx="27.81" ry="18"/>
<text text-anchor="middle" x="475.25" y="-12.95" font-family="Times New Roman,serif" font-size="14.00"> null</text>
</g>
<!-- node_000001d8f1c060d0&#45;&gt;node_r_null_000001d8f1c060d0 -->
<g id="edge27" class="edge">
<title>node_000001d8f1c060d0&#45;&gt;node_r_null_000001d8f1c060d0</title>
<path fill="none" stroke="#007cff" d="M457.29,-72.27C460.29,-63.37 463.27,-54.54 465.91,-46.69"/>
<polygon fill="#007cff" stroke="#007cff" points="469.15,-48.05 469.03,-37.45 462.52,-45.81 469.15,-48.05"/>
</g>
<!-- node_l_null_000001d8f1c06100 -->
<g id="node22" class="node">
<title>node_l_null_000001d8f1c06100</title>
<ellipse fill="#a2f0f8" stroke="#007cff" cx="738.25" cy="-18" rx="27.81" ry="18"/>
<text text-anchor="middle" x="738.25" y="-12.95" font-family="Times New Roman,serif" font-size="14.00"> null</text>
</g>
<!-- node_000001d8f1c06100&#45;&gt;node_l_null_000001d8f1c06100 -->
<g id="edge30" class="edge">
<title>node_000001d8f1c06100&#45;&gt;node_l_null_000001d8f1c06100</title>
<path fill="none" stroke="#007cff" d="M756.21,-72.27C753.21,-63.37 750.23,-54.54 747.59,-46.69"/>
<polygon fill="#007cff" stroke="#007cff" points="750.98,-45.81 744.47,-37.45 744.35,-48.05 750.98,-45.81"/>
</g>
<!-- node_r_null_000001d8f1c06100 -->
<g id="node23" class="node">
<title>node_r_null_000001d8f1c06100</title>
<ellipse fill="#a2f0f8" stroke="#007cff" cx="812.25" cy="-18" rx="27.81" ry="18"/>
<text text-anchor="middle" x="812.25" y="-12.95" font-family="Times New Roman,serif" font-size="14.00"> null</text>
</g>
<!-- node_000001d8f1c06100&#45;&gt;node_r_null_000001d8f1c06100 -->
<g id="edge31" class="edge">
<title>node_000001d8f1c06100&#45;&gt;node_r_null_000001d8f1c06100</title>
<path fill="none" stroke="#007cff" d="M794.29,-72.27C797.29,-63.37 800.27,-54.54 802.91,-46.69"/>
<polygon fill="#007cff" stroke="#007cff" points="806.15,-48.05 806.03,-37.45 799.52,-45.81 806.15,-48.05"/>
</g>
</g>
</svg>
