<?xml version="1.0" encoding="UTF-8" standalone="no"?>
<!DOCTYPE svg PUBLIC "-//W3C//DTD SVG 1.1//EN"
 "http://www.w3.org/Graphics/SVG/1.1/DTD/svg11.dtd">
<!-- Generated by graphviz version 12.2.0 (20241103.1931)
 -->
<!-- Pages: 1 -->
<svg width="799pt" height="499pt"
 viewBox="0.00 0.00 798.94 498.50" xmlns="http://www.w3.org/2000/svg" xmlns:xlink="http://www.w3.org/1999/xlink">
<g id="graph0" class="graph" transform="scale(1 1) rotate(0) translate(4 494.5)">
<polygon fill="white" stroke="none" points="-4,4 -4,-494.5 794.94,-494.5 794.94,4 -4,4"/>
<!-- node_0000020940286110 -->
<g id="node1" class="node">
<title>node_0000020940286110</title>
<path fill="#ecfd74" stroke="#ffc500" d="M391.38,-375.5C391.38,-375.5 685.12,-375.5 685.12,-375.5 691.12,-375.5 697.12,-381.5 697.12,-387.5 697.12,-387.5 697.12,-478 697.12,-478 697.12,-484 691.12,-490 685.12,-490 685.12,-490 391.38,-490 391.38,-490 385.38,-490 379.38,-484 379.38,-478 379.38,-478 379.38,-387.5 379.38,-387.5 379.38,-381.5 385.38,-375.5 391.38,-375.5"/>
<text text-anchor="middle" x="538.25" y="-472.7" font-family="Times New Roman,serif" font-size="14.00">addr: 0000020940286110</text>
<polyline fill="none" stroke="#ffc500" points="379.38,-465.5 697.12,-465.5"/>
<text text-anchor="middle" x="538.25" y="-448.2" font-family="Times New Roman,serif" font-size="14.00">val = &#39;c&#39;</text>
<polyline fill="none" stroke="#ffc500" points="379.38,-441 697.12,-441"/>
<text text-anchor="middle" x="538.25" y="-423.7" font-family="Times New Roman,serif" font-size="14.00">type = OP</text>
<polyline fill="none" stroke="#ffc500" points="379.38,-416.5 697.12,-416.5"/>
<text text-anchor="middle" x="458.62" y="-399.2" font-family="Times New Roman,serif" font-size="14.00">L:</text>
<text text-anchor="middle" x="458.62" y="-382.7" font-family="Times New Roman,serif" font-size="14.00"> addr: 00000209402860e0</text>
<polyline fill="none" stroke="#ffc500" points="537.88,-375.5 537.88,-416.5"/>
<text text-anchor="middle" x="617.5" y="-399.2" font-family="Times New Roman,serif" font-size="14.00">R: </text>
<text text-anchor="middle" x="617.5" y="-382.7" font-family="Times New Roman,serif" font-size="14.00"> addr: 0000000000000000</text>
</g>
<!-- node_00000209402860e0 -->
<g id="node4" class="node">
<title>node_00000209402860e0</title>
<path fill="#ecfd74" stroke="#ffc500" d="M270,-224C270,-224 564.5,-224 564.5,-224 570.5,-224 576.5,-230 576.5,-236 576.5,-236 576.5,-326.5 576.5,-326.5 576.5,-332.5 570.5,-338.5 564.5,-338.5 564.5,-338.5 270,-338.5 270,-338.5 264,-338.5 258,-332.5 258,-326.5 258,-326.5 258,-236 258,-236 258,-230 264,-224 270,-224"/>
<text text-anchor="middle" x="417.25" y="-321.2" font-family="Times New Roman,serif" font-size="14.00">addr: 00000209402860e0</text>
<polyline fill="none" stroke="#ffc500" points="258,-314 576.5,-314"/>
<text text-anchor="middle" x="417.25" y="-296.7" font-family="Times New Roman,serif" font-size="14.00">val = &#39;+&#39;</text>
<polyline fill="none" stroke="#ffc500" points="258,-289.5 576.5,-289.5"/>
<text text-anchor="middle" x="417.25" y="-272.2" font-family="Times New Roman,serif" font-size="14.00">type = OP</text>
<polyline fill="none" stroke="#ffc500" points="258,-265 576.5,-265"/>
<text text-anchor="middle" x="337.62" y="-247.7" font-family="Times New Roman,serif" font-size="14.00">L:</text>
<text text-anchor="middle" x="337.62" y="-231.2" font-family="Times New Roman,serif" font-size="14.00"> addr: 0000020940286080</text>
<polyline fill="none" stroke="#ffc500" points="417.25,-224 417.25,-265"/>
<text text-anchor="middle" x="496.88" y="-247.7" font-family="Times New Roman,serif" font-size="14.00">R: </text>
<text text-anchor="middle" x="496.88" y="-231.2" font-family="Times New Roman,serif" font-size="14.00"> addr: 00000209402860b0</text>
</g>
<!-- node_0000020940286110&#45;&gt;node_00000209402860e0 -->
<g id="edge2" class="edge">
<title>node_0000020940286110&#45;&gt;node_00000209402860e0</title>
<path fill="none" stroke="#ff0000" d="M492.51,-375.23C485.2,-366.21 477.59,-356.81 470.14,-347.6"/>
<polygon fill="#ff0000" stroke="#ff0000" points="473.02,-345.6 464.01,-340.03 467.58,-350 473.02,-345.6"/>
</g>
<!-- node_r_null_0000020940286110 -->
<g id="node5" class="node">
<title>node_r_null_0000020940286110</title>
<ellipse fill="#a2f0f8" stroke="#007cff" cx="622.25" cy="-281.25" rx="27.81" ry="18"/>
<text text-anchor="middle" x="622.25" y="-276.2" font-family="Times New Roman,serif" font-size="14.00"> null</text>
</g>
<!-- node_0000020940286110&#45;&gt;node_r_null_0000020940286110 -->
<g id="edge3" class="edge">
<title>node_0000020940286110&#45;&gt;node_r_null_0000020940286110</title>
<path fill="none" stroke="#007cff" d="M570.01,-375.23C582.9,-352.28 597.17,-326.89 607.53,-308.45"/>
<polygon fill="#007cff" stroke="#007cff" points="610.55,-310.22 612.4,-299.79 604.45,-306.79 610.55,-310.22"/>
</g>
<!-- 1 -->
<g id="node2" class="node">
<title>1</title>
<ellipse fill="#fe5656" stroke="#581845" cx="770.25" cy="-432.75" rx="18" ry="18"/>
<text text-anchor="middle" x="770.25" y="-427.7" font-family="Times New Roman,serif" font-size="14.00">1</text>
</g>
<!-- 2 -->
<g id="node3" class="node">
<title>2</title>
<ellipse fill="#fe5656" stroke="#581845" cx="770.25" cy="-281.25" rx="18" ry="18"/>
<text text-anchor="middle" x="770.25" y="-276.2" font-family="Times New Roman,serif" font-size="14.00">2</text>
</g>
<!-- 1&#45;&gt;2 -->
<g id="edge1" class="edge">
<title>1&#45;&gt;2</title>
<path fill="none" stroke="white" d="M765.79,-414.89C763.09,-389.41 762.78,-340.8 764.86,-310.03"/>
<polygon fill="white" stroke="white" points="768.33,-310.59 765.69,-300.33 761.35,-309.99 768.33,-310.59"/>
</g>
<!-- 1&#45;&gt;2 -->
<g id="edge4" class="edge">
<title>1&#45;&gt;2</title>
<path fill="none" stroke="white" d="M774.71,-414.89C777.41,-389.41 777.72,-340.8 775.64,-310.03"/>
<polygon fill="white" stroke="white" points="779.15,-309.99 774.81,-300.33 772.17,-310.59 779.15,-309.99"/>
</g>
<!-- 3 -->
<g id="node6" class="node">
<title>3</title>
<ellipse fill="#fe5656" stroke="#581845" cx="770.25" cy="-129.75" rx="18" ry="18"/>
<text text-anchor="middle" x="770.25" y="-124.7" font-family="Times New Roman,serif" font-size="14.00">3</text>
</g>
<!-- 2&#45;&gt;3 -->
<g id="edge5" class="edge">
<title>2&#45;&gt;3</title>
<path fill="none" stroke="white" d="M765.79,-263.39C763.09,-237.91 762.78,-189.3 764.86,-158.53"/>
<polygon fill="white" stroke="white" points="768.33,-159.09 765.69,-148.83 761.35,-158.49 768.33,-159.09"/>
</g>
<!-- 2&#45;&gt;3 -->
<g id="edge8" class="edge">
<title>2&#45;&gt;3</title>
<path fill="none" stroke="white" d="M774.71,-263.39C777.41,-237.91 777.72,-189.3 775.64,-158.53"/>
<polygon fill="white" stroke="white" points="779.15,-158.49 774.81,-148.83 772.17,-159.09 779.15,-158.49"/>
</g>
<!-- node_0000020940286080 -->
<g id="node7" class="node">
<title>node_0000020940286080</title>
<path fill="#ff5fe0" stroke="#d408ac" d="M12,-72.5C12,-72.5 306.5,-72.5 306.5,-72.5 312.5,-72.5 318.5,-78.5 318.5,-84.5 318.5,-84.5 318.5,-175 318.5,-175 318.5,-181 312.5,-187 306.5,-187 306.5,-187 12,-187 12,-187 6,-187 0,-181 0,-175 0,-175 0,-84.5 0,-84.5 0,-78.5 6,-72.5 12,-72.5"/>
<text text-anchor="middle" x="159.25" y="-169.7" font-family="Times New Roman,serif" font-size="14.00">addr: 0000020940286080</text>
<polyline fill="none" stroke="#d408ac" points="0,-162.5 318.5,-162.5"/>
<text text-anchor="middle" x="159.25" y="-145.2" font-family="Times New Roman,serif" font-size="14.00">val = &#39;x&#39;</text>
<polyline fill="none" stroke="#d408ac" points="0,-138 318.5,-138"/>
<text text-anchor="middle" x="159.25" y="-120.7" font-family="Times New Roman,serif" font-size="14.00">type = VAR</text>
<polyline fill="none" stroke="#d408ac" points="0,-113.5 318.5,-113.5"/>
<text text-anchor="middle" x="79.62" y="-96.2" font-family="Times New Roman,serif" font-size="14.00">L:</text>
<text text-anchor="middle" x="79.62" y="-79.7" font-family="Times New Roman,serif" font-size="14.00"> addr: 0000000000000000</text>
<polyline fill="none" stroke="#d408ac" points="159.25,-72.5 159.25,-113.5"/>
<text text-anchor="middle" x="238.88" y="-96.2" font-family="Times New Roman,serif" font-size="14.00">R: </text>
<text text-anchor="middle" x="238.88" y="-79.7" font-family="Times New Roman,serif" font-size="14.00"> addr: 0000000000000000</text>
</g>
<!-- node_00000209402860e0&#45;&gt;node_0000020940286080 -->
<g id="edge6" class="edge">
<title>node_00000209402860e0&#45;&gt;node_0000020940286080</title>
<path fill="none" stroke="#ff0000" d="M319.34,-223.52C302.14,-213.55 284.16,-203.13 266.72,-193.02"/>
<polygon fill="#ff0000" stroke="#ff0000" points="268.81,-190.19 258.4,-188.2 265.3,-196.24 268.81,-190.19"/>
</g>
<!-- node_00000209402860b0 -->
<g id="node8" class="node">
<title>node_00000209402860b0</title>
<path fill="#ff5fe0" stroke="#d408ac" d="M349,-72.5C349,-72.5 643.5,-72.5 643.5,-72.5 649.5,-72.5 655.5,-78.5 655.5,-84.5 655.5,-84.5 655.5,-175 655.5,-175 655.5,-181 649.5,-187 643.5,-187 643.5,-187 349,-187 349,-187 343,-187 337,-181 337,-175 337,-175 337,-84.5 337,-84.5 337,-78.5 343,-72.5 349,-72.5"/>
<text text-anchor="middle" x="496.25" y="-169.7" font-family="Times New Roman,serif" font-size="14.00">addr: 00000209402860b0</text>
<polyline fill="none" stroke="#d408ac" points="337,-162.5 655.5,-162.5"/>
<text text-anchor="middle" x="496.25" y="-145.2" font-family="Times New Roman,serif" font-size="14.00">val = &#39;x&#39;</text>
<polyline fill="none" stroke="#d408ac" points="337,-138 655.5,-138"/>
<text text-anchor="middle" x="496.25" y="-120.7" font-family="Times New Roman,serif" font-size="14.00">type = VAR</text>
<polyline fill="none" stroke="#d408ac" points="337,-113.5 655.5,-113.5"/>
<text text-anchor="middle" x="416.62" y="-96.2" font-family="Times New Roman,serif" font-size="14.00">L:</text>
<text text-anchor="middle" x="416.62" y="-79.7" font-family="Times New Roman,serif" font-size="14.00"> addr: 0000000000000000</text>
<polyline fill="none" stroke="#d408ac" points="496.25,-72.5 496.25,-113.5"/>
<text text-anchor="middle" x="575.88" y="-96.2" font-family="Times New Roman,serif" font-size="14.00">R: </text>
<text text-anchor="middle" x="575.88" y="-79.7" font-family="Times New Roman,serif" font-size="14.00"> addr: 0000000000000000</text>
</g>
<!-- node_00000209402860e0&#45;&gt;node_00000209402860b0 -->
<g id="edge7" class="edge">
<title>node_00000209402860e0&#45;&gt;node_00000209402860b0</title>
<path fill="none" stroke="#ff0000" d="M447.12,-223.73C451.64,-215.17 456.34,-206.27 460.96,-197.52"/>
<polygon fill="#ff0000" stroke="#ff0000" points="464.06,-199.16 465.63,-188.69 457.87,-195.89 464.06,-199.16"/>
</g>
<!-- 4 -->
<g id="node9" class="node">
<title>4</title>
<ellipse fill="#fe5656" stroke="#581845" cx="770.25" cy="-18" rx="18" ry="18"/>
<text text-anchor="middle" x="770.25" y="-12.95" font-family="Times New Roman,serif" font-size="14.00">4</text>
</g>
<!-- 3&#45;&gt;4 -->
<g id="edge9" class="edge">
<title>3&#45;&gt;4</title>
<path fill="none" stroke="white" d="M757.14,-117C749.02,-99.02 747.83,-64.32 753.55,-41.42"/>
<polygon fill="white" stroke="white" points="756.82,-42.69 756.69,-32.09 750.18,-40.45 756.82,-42.69"/>
</g>
<!-- 3&#45;&gt;4 -->
<g id="edge12" class="edge">
<title>3&#45;&gt;4</title>
<path fill="none" stroke="white" d="M765.24,-112.08C763.29,-94.74 762.98,-67.28 764.3,-46.68"/>
<polygon fill="white" stroke="white" points="767.76,-47.24 765.13,-36.97 760.79,-46.64 767.76,-47.24"/>
</g>
<!-- 3&#45;&gt;4 -->
<g id="edge13" class="edge">
<title>3&#45;&gt;4</title>
<path fill="none" stroke="white" d="M775.26,-112.08C777.21,-94.74 777.52,-67.28 776.2,-46.68"/>
<polygon fill="white" stroke="white" points="779.71,-46.64 775.37,-36.97 772.74,-47.24 779.71,-46.64"/>
</g>
<!-- 3&#45;&gt;4 -->
<g id="edge16" class="edge">
<title>3&#45;&gt;4</title>
<path fill="none" stroke="white" d="M783.36,-117C791.48,-99.02 792.67,-64.32 786.95,-41.42"/>
<polygon fill="white" stroke="white" points="790.32,-40.45 783.81,-32.09 783.68,-42.69 790.32,-40.45"/>
</g>
<!-- node_l_null_0000020940286080 -->
<g id="node10" class="node">
<title>node_l_null_0000020940286080</title>
<ellipse fill="#a2f0f8" stroke="#007cff" cx="122.25" cy="-18" rx="27.81" ry="18"/>
<text text-anchor="middle" x="122.25" y="-12.95" font-family="Times New Roman,serif" font-size="14.00"> null</text>
</g>
<!-- node_0000020940286080&#45;&gt;node_l_null_0000020940286080 -->
<g id="edge10" class="edge">
<title>node_0000020940286080&#45;&gt;node_l_null_0000020940286080</title>
<path fill="none" stroke="#007cff" d="M140.21,-72.27C137.21,-63.37 134.23,-54.54 131.59,-46.69"/>
<polygon fill="#007cff" stroke="#007cff" points="134.98,-45.81 128.47,-37.45 128.35,-48.05 134.98,-45.81"/>
</g>
<!-- node_r_null_0000020940286080 -->
<g id="node11" class="node">
<title>node_r_null_0000020940286080</title>
<ellipse fill="#a2f0f8" stroke="#007cff" cx="196.25" cy="-18" rx="27.81" ry="18"/>
<text text-anchor="middle" x="196.25" y="-12.95" font-family="Times New Roman,serif" font-size="14.00"> null</text>
</g>
<!-- node_0000020940286080&#45;&gt;node_r_null_0000020940286080 -->
<g id="edge11" class="edge">
<title>node_0000020940286080&#45;&gt;node_r_null_0000020940286080</title>
<path fill="none" stroke="#007cff" d="M178.29,-72.27C181.29,-63.37 184.27,-54.54 186.91,-46.69"/>
<polygon fill="#007cff" stroke="#007cff" points="190.15,-48.05 190.03,-37.45 183.52,-45.81 190.15,-48.05"/>
</g>
<!-- node_l_null_00000209402860b0 -->
<g id="node12" class="node">
<title>node_l_null_00000209402860b0</title>
<ellipse fill="#a2f0f8" stroke="#007cff" cx="459.25" cy="-18" rx="27.81" ry="18"/>
<text text-anchor="middle" x="459.25" y="-12.95" font-family="Times New Roman,serif" font-size="14.00"> null</text>
</g>
<!-- node_00000209402860b0&#45;&gt;node_l_null_00000209402860b0 -->
<g id="edge14" class="edge">
<title>node_00000209402860b0&#45;&gt;node_l_null_00000209402860b0</title>
<path fill="none" stroke="#007cff" d="M477.21,-72.27C474.21,-63.37 471.23,-54.54 468.59,-46.69"/>
<polygon fill="#007cff" stroke="#007cff" points="471.98,-45.81 465.47,-37.45 465.35,-48.05 471.98,-45.81"/>
</g>
<!-- node_r_null_00000209402860b0 -->
<g id="node13" class="node">
<title>node_r_null_00000209402860b0</title>
<ellipse fill="#a2f0f8" stroke="#007cff" cx="533.25" cy="-18" rx="27.81" ry="18"/>
<text text-anchor="middle" x="533.25" y="-12.95" font-family="Times New Roman,serif" font-size="14.00"> null</text>
</g>
<!-- node_00000209402860b0&#45;&gt;node_r_null_00000209402860b0 -->
<g id="edge15" class="edge">
<title>node_00000209402860b0&#45;&gt;node_r_null_00000209402860b0</title>
<path fill="none" stroke="#007cff" d="M515.29,-72.27C518.29,-63.37 521.27,-54.54 523.91,-46.69"/>
<polygon fill="#007cff" stroke="#007cff" points="527.15,-48.05 527.03,-37.45 520.52,-45.81 527.15,-48.05"/>
</g>
</g>
</svg>
