<?xml version="1.0" encoding="UTF-8" standalone="no"?>
<!DOCTYPE svg PUBLIC "-//W3C//DTD SVG 1.1//EN"
 "http://www.w3.org/Graphics/SVG/1.1/DTD/svg11.dtd">
<!-- Generated by graphviz version 12.2.0 (20241103.1931)
 -->
<!-- Pages: 1 -->
<svg width="1017pt" height="802pt"
 viewBox="0.00 0.00 1016.94 801.50" xmlns="http://www.w3.org/2000/svg" xmlns:xlink="http://www.w3.org/1999/xlink">
<g id="graph0" class="graph" transform="scale(1 1) rotate(0) translate(4 797.5)">
<polygon fill="white" stroke="none" points="-4,4 -4,-797.5 1012.94,-797.5 1012.94,4 -4,4"/>
<!-- node_00000191e0109460 -->
<g id="node1" class="node">
<title>node_00000191e0109460</title>
<path fill="#ecfd74" stroke="#ffc500" d="M180.5,-678.5C180.5,-678.5 472,-678.5 472,-678.5 478,-678.5 484,-684.5 484,-690.5 484,-690.5 484,-781 484,-781 484,-787 478,-793 472,-793 472,-793 180.5,-793 180.5,-793 174.5,-793 168.5,-787 168.5,-781 168.5,-781 168.5,-690.5 168.5,-690.5 168.5,-684.5 174.5,-678.5 180.5,-678.5"/>
<text text-anchor="middle" x="326.25" y="-775.7" font-family="Times New Roman,serif" font-size="14.00">addr: 00000191e0109460</text>
<polyline fill="none" stroke="#ffc500" points="168.5,-768.5 484,-768.5"/>
<text text-anchor="middle" x="326.25" y="-751.2" font-family="Times New Roman,serif" font-size="14.00">val = &#39;*&#39;</text>
<polyline fill="none" stroke="#ffc500" points="168.5,-744 484,-744"/>
<text text-anchor="middle" x="326.25" y="-726.7" font-family="Times New Roman,serif" font-size="14.00">type = OP</text>
<polyline fill="none" stroke="#ffc500" points="168.5,-719.5 484,-719.5"/>
<text text-anchor="middle" x="247" y="-702.2" font-family="Times New Roman,serif" font-size="14.00">L:</text>
<text text-anchor="middle" x="247" y="-685.7" font-family="Times New Roman,serif" font-size="14.00"> addr: 00000191deac6070</text>
<polyline fill="none" stroke="#ffc500" points="325.5,-678.5 325.5,-719.5"/>
<text text-anchor="middle" x="404.75" y="-702.2" font-family="Times New Roman,serif" font-size="14.00">R: </text>
<text text-anchor="middle" x="404.75" y="-685.7" font-family="Times New Roman,serif" font-size="14.00"> addr: 00000191e0109430</text>
</g>
<!-- node_00000191deac6070 -->
<g id="node4" class="node">
<title>node_00000191deac6070</title>
<path fill="#ff5fe0" stroke="#d408ac" d="M12,-527C12,-527 306.5,-527 306.5,-527 312.5,-527 318.5,-533 318.5,-539 318.5,-539 318.5,-629.5 318.5,-629.5 318.5,-635.5 312.5,-641.5 306.5,-641.5 306.5,-641.5 12,-641.5 12,-641.5 6,-641.5 0,-635.5 0,-629.5 0,-629.5 0,-539 0,-539 0,-533 6,-527 12,-527"/>
<text text-anchor="middle" x="159.25" y="-624.2" font-family="Times New Roman,serif" font-size="14.00">addr: 00000191deac6070</text>
<polyline fill="none" stroke="#d408ac" points="0,-617 318.5,-617"/>
<text text-anchor="middle" x="159.25" y="-599.7" font-family="Times New Roman,serif" font-size="14.00">val = &#39;x&#39;</text>
<polyline fill="none" stroke="#d408ac" points="0,-592.5 318.5,-592.5"/>
<text text-anchor="middle" x="159.25" y="-575.2" font-family="Times New Roman,serif" font-size="14.00">type = VAR</text>
<polyline fill="none" stroke="#d408ac" points="0,-568 318.5,-568"/>
<text text-anchor="middle" x="79.62" y="-550.7" font-family="Times New Roman,serif" font-size="14.00">L:</text>
<text text-anchor="middle" x="79.62" y="-534.2" font-family="Times New Roman,serif" font-size="14.00"> addr: 0000000000000000</text>
<polyline fill="none" stroke="#d408ac" points="159.25,-527 159.25,-568"/>
<text text-anchor="middle" x="238.88" y="-550.7" font-family="Times New Roman,serif" font-size="14.00">R: </text>
<text text-anchor="middle" x="238.88" y="-534.2" font-family="Times New Roman,serif" font-size="14.00"> addr: 0000000000000000</text>
</g>
<!-- node_00000191e0109460&#45;&gt;node_00000191deac6070 -->
<g id="edge2" class="edge">
<title>node_00000191e0109460&#45;&gt;node_00000191deac6070</title>
<path fill="none" stroke="#ff0000" d="M263.11,-678.23C252.62,-668.84 241.67,-659.03 230.98,-649.46"/>
<polygon fill="#ff0000" stroke="#ff0000" points="233.39,-646.92 223.6,-642.86 228.72,-652.14 233.39,-646.92"/>
</g>
<!-- node_00000191e0109430 -->
<g id="node5" class="node">
<title>node_00000191e0109430</title>
<path fill="#ecfd74" stroke="#ffc500" d="M348.25,-527C348.25,-527 638.25,-527 638.25,-527 644.25,-527 650.25,-533 650.25,-539 650.25,-539 650.25,-629.5 650.25,-629.5 650.25,-635.5 644.25,-641.5 638.25,-641.5 638.25,-641.5 348.25,-641.5 348.25,-641.5 342.25,-641.5 336.25,-635.5 336.25,-629.5 336.25,-629.5 336.25,-539 336.25,-539 336.25,-533 342.25,-527 348.25,-527"/>
<text text-anchor="middle" x="493.25" y="-624.2" font-family="Times New Roman,serif" font-size="14.00">addr: 00000191e0109430</text>
<polyline fill="none" stroke="#ffc500" points="336.25,-617 650.25,-617"/>
<text text-anchor="middle" x="493.25" y="-599.7" font-family="Times New Roman,serif" font-size="14.00">val = &#39;&#45;&#39;</text>
<polyline fill="none" stroke="#ffc500" points="336.25,-592.5 650.25,-592.5"/>
<text text-anchor="middle" x="493.25" y="-575.2" font-family="Times New Roman,serif" font-size="14.00">type = OP</text>
<polyline fill="none" stroke="#ffc500" points="336.25,-568 650.25,-568"/>
<text text-anchor="middle" x="414.75" y="-550.7" font-family="Times New Roman,serif" font-size="14.00">L:</text>
<text text-anchor="middle" x="414.75" y="-534.2" font-family="Times New Roman,serif" font-size="14.00"> addr: 00000191deac6160</text>
<polyline fill="none" stroke="#ffc500" points="493.25,-527 493.25,-568"/>
<text text-anchor="middle" x="571.75" y="-550.7" font-family="Times New Roman,serif" font-size="14.00">R: </text>
<text text-anchor="middle" x="571.75" y="-534.2" font-family="Times New Roman,serif" font-size="14.00"> addr: 00000191deac6190</text>
</g>
<!-- node_00000191e0109460&#45;&gt;node_00000191e0109430 -->
<g id="edge3" class="edge">
<title>node_00000191e0109460&#45;&gt;node_00000191e0109430</title>
<path fill="none" stroke="#ff0000" d="M389.39,-678.23C399.88,-668.84 410.83,-659.03 421.52,-649.46"/>
<polygon fill="#ff0000" stroke="#ff0000" points="423.78,-652.14 428.9,-642.86 419.11,-646.92 423.78,-652.14"/>
</g>
<!-- 1 -->
<g id="node2" class="node">
<title>1</title>
<ellipse fill="#fe5656" stroke="#581845" cx="988.25" cy="-735.75" rx="18" ry="18"/>
<text text-anchor="middle" x="988.25" y="-730.7" font-family="Times New Roman,serif" font-size="14.00">1</text>
</g>
<!-- 2 -->
<g id="node3" class="node">
<title>2</title>
<ellipse fill="#fe5656" stroke="#581845" cx="988.25" cy="-584.25" rx="18" ry="18"/>
<text text-anchor="middle" x="988.25" y="-579.2" font-family="Times New Roman,serif" font-size="14.00">2</text>
</g>
<!-- 1&#45;&gt;2 -->
<g id="edge1" class="edge">
<title>1&#45;&gt;2</title>
<path fill="none" stroke="white" d="M983.79,-717.89C981.09,-692.41 980.78,-643.8 982.86,-613.03"/>
<polygon fill="white" stroke="white" points="986.33,-613.59 983.69,-603.33 979.35,-612.99 986.33,-613.59"/>
</g>
<!-- 1&#45;&gt;2 -->
<g id="edge4" class="edge">
<title>1&#45;&gt;2</title>
<path fill="none" stroke="white" d="M992.71,-717.89C995.41,-692.41 995.72,-643.8 993.64,-613.03"/>
<polygon fill="white" stroke="white" points="997.15,-612.99 992.81,-603.33 990.17,-613.59 997.15,-612.99"/>
</g>
<!-- 3 -->
<g id="node6" class="node">
<title>3</title>
<ellipse fill="#fe5656" stroke="#581845" cx="988.25" cy="-432.75" rx="18" ry="18"/>
<text text-anchor="middle" x="988.25" y="-427.7" font-family="Times New Roman,serif" font-size="14.00">3</text>
</g>
<!-- 2&#45;&gt;3 -->
<g id="edge5" class="edge">
<title>2&#45;&gt;3</title>
<path fill="none" stroke="white" d="M976.21,-570.24C966.46,-545.05 965.4,-489.26 973,-457.35"/>
<polygon fill="white" stroke="white" points="976.33,-458.44 975.9,-447.86 969.64,-456.4 976.33,-458.44"/>
</g>
<!-- 2&#45;&gt;3 -->
<g id="edge8" class="edge">
<title>2&#45;&gt;3</title>
<path fill="none" stroke="white" d="M983.79,-566.39C981.09,-540.91 980.78,-492.3 982.86,-461.53"/>
<polygon fill="white" stroke="white" points="986.33,-462.09 983.69,-451.83 979.35,-461.49 986.33,-462.09"/>
</g>
<!-- 2&#45;&gt;3 -->
<g id="edge9" class="edge">
<title>2&#45;&gt;3</title>
<path fill="none" stroke="white" d="M992.71,-566.39C995.41,-540.91 995.72,-492.3 993.64,-461.53"/>
<polygon fill="white" stroke="white" points="997.15,-461.49 992.81,-451.83 990.17,-462.09 997.15,-461.49"/>
</g>
<!-- 2&#45;&gt;3 -->
<g id="edge12" class="edge">
<title>2&#45;&gt;3</title>
<path fill="none" stroke="white" d="M1000.29,-570.24C1010.04,-545.05 1011.1,-489.26 1003.5,-457.35"/>
<polygon fill="white" stroke="white" points="1006.86,-456.4 1000.6,-447.86 1000.17,-458.44 1006.86,-456.4"/>
</g>
<!-- node_l_null_00000191deac6070 -->
<g id="node7" class="node">
<title>node_l_null_00000191deac6070</title>
<ellipse fill="#a2f0f8" stroke="#007cff" cx="122.25" cy="-432.75" rx="27.81" ry="18"/>
<text text-anchor="middle" x="122.25" y="-427.7" font-family="Times New Roman,serif" font-size="14.00"> null</text>
</g>
<!-- node_00000191deac6070&#45;&gt;node_l_null_00000191deac6070 -->
<g id="edge6" class="edge">
<title>node_00000191deac6070&#45;&gt;node_l_null_00000191deac6070</title>
<path fill="none" stroke="#007cff" d="M145.26,-526.73C139.79,-504.62 133.76,-480.24 129.24,-461.99"/>
<polygon fill="#007cff" stroke="#007cff" points="132.68,-461.31 126.88,-452.44 125.88,-462.99 132.68,-461.31"/>
</g>
<!-- node_r_null_00000191deac6070 -->
<g id="node8" class="node">
<title>node_r_null_00000191deac6070</title>
<ellipse fill="#a2f0f8" stroke="#007cff" cx="196.25" cy="-432.75" rx="27.81" ry="18"/>
<text text-anchor="middle" x="196.25" y="-427.7" font-family="Times New Roman,serif" font-size="14.00"> null</text>
</g>
<!-- node_00000191deac6070&#45;&gt;node_r_null_00000191deac6070 -->
<g id="edge7" class="edge">
<title>node_00000191deac6070&#45;&gt;node_r_null_00000191deac6070</title>
<path fill="none" stroke="#007cff" d="M173.24,-526.73C178.71,-504.62 184.74,-480.24 189.26,-461.99"/>
<polygon fill="#007cff" stroke="#007cff" points="192.62,-462.99 191.62,-452.44 185.82,-461.31 192.62,-462.99"/>
</g>
<!-- node_00000191deac6160 -->
<g id="node9" class="node">
<title>node_00000191deac6160</title>
<path fill="#ecfd74" stroke="#ffc500" d="M300.62,-375.5C300.62,-375.5 589.88,-375.5 589.88,-375.5 595.88,-375.5 601.88,-381.5 601.88,-387.5 601.88,-387.5 601.88,-478 601.88,-478 601.88,-484 595.88,-490 589.88,-490 589.88,-490 300.62,-490 300.62,-490 294.62,-490 288.62,-484 288.62,-478 288.62,-478 288.62,-387.5 288.62,-387.5 288.62,-381.5 294.62,-375.5 300.62,-375.5"/>
<text text-anchor="middle" x="445.25" y="-472.7" font-family="Times New Roman,serif" font-size="14.00">addr: 00000191deac6160</text>
<polyline fill="none" stroke="#ffc500" points="288.62,-465.5 601.88,-465.5"/>
<text text-anchor="middle" x="445.25" y="-448.2" font-family="Times New Roman,serif" font-size="14.00">val = &#39;+&#39;</text>
<polyline fill="none" stroke="#ffc500" points="288.62,-441 601.88,-441"/>
<text text-anchor="middle" x="445.25" y="-423.7" font-family="Times New Roman,serif" font-size="14.00">type = OP</text>
<polyline fill="none" stroke="#ffc500" points="288.62,-416.5 601.88,-416.5"/>
<text text-anchor="middle" x="366.75" y="-399.2" font-family="Times New Roman,serif" font-size="14.00">L:</text>
<text text-anchor="middle" x="366.75" y="-382.7" font-family="Times New Roman,serif" font-size="14.00"> addr: 00000191deac60a0</text>
<polyline fill="none" stroke="#ffc500" points="444.88,-375.5 444.88,-416.5"/>
<text text-anchor="middle" x="523.38" y="-399.2" font-family="Times New Roman,serif" font-size="14.00">R: </text>
<text text-anchor="middle" x="523.38" y="-382.7" font-family="Times New Roman,serif" font-size="14.00"> addr: 00000191deac6130</text>
</g>
<!-- node_00000191e0109430&#45;&gt;node_00000191deac6160 -->
<g id="edge10" class="edge">
<title>node_00000191e0109430&#45;&gt;node_00000191deac6160</title>
<path fill="none" stroke="#ff0000" d="M475.1,-526.73C472.42,-518.36 469.62,-509.66 466.87,-501.1"/>
<polygon fill="#ff0000" stroke="#ff0000" points="470.27,-500.24 463.89,-491.79 463.61,-502.38 470.27,-500.24"/>
</g>
<!-- node_00000191deac6190 -->
<g id="node10" class="node">
<title>node_00000191deac6190</title>
<path fill="#a2f8a4" stroke="#18ca1c" d="M632,-375.5C632,-375.5 926.5,-375.5 926.5,-375.5 932.5,-375.5 938.5,-381.5 938.5,-387.5 938.5,-387.5 938.5,-478 938.5,-478 938.5,-484 932.5,-490 926.5,-490 926.5,-490 632,-490 632,-490 626,-490 620,-484 620,-478 620,-478 620,-387.5 620,-387.5 620,-381.5 626,-375.5 632,-375.5"/>
<text text-anchor="middle" x="779.25" y="-472.7" font-family="Times New Roman,serif" font-size="14.00">addr: 00000191deac6190</text>
<polyline fill="none" stroke="#18ca1c" points="620,-465.5 938.5,-465.5"/>
<text text-anchor="middle" x="779.25" y="-448.2" font-family="Times New Roman,serif" font-size="14.00">val = 6</text>
<polyline fill="none" stroke="#18ca1c" points="620,-441 938.5,-441"/>
<text text-anchor="middle" x="779.25" y="-423.7" font-family="Times New Roman,serif" font-size="14.00">type = NUM</text>
<polyline fill="none" stroke="#18ca1c" points="620,-416.5 938.5,-416.5"/>
<text text-anchor="middle" x="699.62" y="-399.2" font-family="Times New Roman,serif" font-size="14.00">L:</text>
<text text-anchor="middle" x="699.62" y="-382.7" font-family="Times New Roman,serif" font-size="14.00"> addr: 0000000000000000</text>
<polyline fill="none" stroke="#18ca1c" points="779.25,-375.5 779.25,-416.5"/>
<text text-anchor="middle" x="858.88" y="-399.2" font-family="Times New Roman,serif" font-size="14.00">R: </text>
<text text-anchor="middle" x="858.88" y="-382.7" font-family="Times New Roman,serif" font-size="14.00"> addr: 0000000000000000</text>
</g>
<!-- node_00000191e0109430&#45;&gt;node_00000191deac6190 -->
<g id="edge11" class="edge">
<title>node_00000191e0109430&#45;&gt;node_00000191deac6190</title>
<path fill="none" stroke="#ff0000" d="M601.78,-526.52C621.03,-516.46 641.15,-505.94 660.66,-495.74"/>
<polygon fill="#ff0000" stroke="#ff0000" points="662.21,-498.88 669.45,-491.15 658.97,-492.68 662.21,-498.88"/>
</g>
<!-- 4 -->
<g id="node11" class="node">
<title>4</title>
<ellipse fill="#fe5656" stroke="#581845" cx="988.25" cy="-281.25" rx="18" ry="18"/>
<text text-anchor="middle" x="988.25" y="-276.2" font-family="Times New Roman,serif" font-size="14.00">4</text>
</g>
<!-- 3&#45;&gt;4 -->
<g id="edge13" class="edge">
<title>3&#45;&gt;4</title>
<path fill="none" stroke="white" d="M976.21,-418.74C966.46,-393.55 965.4,-337.76 973,-305.85"/>
<polygon fill="white" stroke="white" points="976.33,-306.94 975.9,-296.36 969.64,-304.9 976.33,-306.94"/>
</g>
<!-- 3&#45;&gt;4 -->
<g id="edge16" class="edge">
<title>3&#45;&gt;4</title>
<path fill="none" stroke="white" d="M983.79,-414.89C981.09,-389.41 980.78,-340.8 982.86,-310.03"/>
<polygon fill="white" stroke="white" points="986.33,-310.59 983.69,-300.33 979.35,-309.99 986.33,-310.59"/>
</g>
<!-- 3&#45;&gt;4 -->
<g id="edge33" class="edge">
<title>3&#45;&gt;4</title>
<path fill="none" stroke="white" d="M992.71,-414.89C995.41,-389.41 995.72,-340.8 993.64,-310.03"/>
<polygon fill="white" stroke="white" points="997.15,-309.99 992.81,-300.33 990.17,-310.59 997.15,-309.99"/>
</g>
<!-- 3&#45;&gt;4 -->
<g id="edge36" class="edge">
<title>3&#45;&gt;4</title>
<path fill="none" stroke="white" d="M1000.29,-418.74C1010.04,-393.55 1011.1,-337.76 1003.5,-305.85"/>
<polygon fill="white" stroke="white" points="1006.86,-304.9 1000.6,-296.36 1000.17,-306.94 1006.86,-304.9"/>
</g>
<!-- node_00000191deac60a0 -->
<g id="node12" class="node">
<title>node_00000191deac60a0</title>
<path fill="#a2f8a4" stroke="#18ca1c" d="M23,-224C23,-224 317.5,-224 317.5,-224 323.5,-224 329.5,-230 329.5,-236 329.5,-236 329.5,-326.5 329.5,-326.5 329.5,-332.5 323.5,-338.5 317.5,-338.5 317.5,-338.5 23,-338.5 23,-338.5 17,-338.5 11,-332.5 11,-326.5 11,-326.5 11,-236 11,-236 11,-230 17,-224 23,-224"/>
<text text-anchor="middle" x="170.25" y="-321.2" font-family="Times New Roman,serif" font-size="14.00">addr: 00000191deac60a0</text>
<polyline fill="none" stroke="#18ca1c" points="11,-314 329.5,-314"/>
<text text-anchor="middle" x="170.25" y="-296.7" font-family="Times New Roman,serif" font-size="14.00">val = 1</text>
<polyline fill="none" stroke="#18ca1c" points="11,-289.5 329.5,-289.5"/>
<text text-anchor="middle" x="170.25" y="-272.2" font-family="Times New Roman,serif" font-size="14.00">type = NUM</text>
<polyline fill="none" stroke="#18ca1c" points="11,-265 329.5,-265"/>
<text text-anchor="middle" x="90.62" y="-247.7" font-family="Times New Roman,serif" font-size="14.00">L:</text>
<text text-anchor="middle" x="90.62" y="-231.2" font-family="Times New Roman,serif" font-size="14.00"> addr: 0000000000000000</text>
<polyline fill="none" stroke="#18ca1c" points="170.25,-224 170.25,-265"/>
<text text-anchor="middle" x="249.88" y="-247.7" font-family="Times New Roman,serif" font-size="14.00">R: </text>
<text text-anchor="middle" x="249.88" y="-231.2" font-family="Times New Roman,serif" font-size="14.00"> addr: 0000000000000000</text>
</g>
<!-- node_00000191deac6160&#45;&gt;node_00000191deac60a0 -->
<g id="edge14" class="edge">
<title>node_00000191deac6160&#45;&gt;node_00000191deac60a0</title>
<path fill="none" stroke="#ff0000" d="M340.89,-375.02C322.47,-365 303.21,-354.53 284.54,-344.38"/>
<polygon fill="#ff0000" stroke="#ff0000" points="286.32,-341.37 275.87,-339.67 282.98,-347.52 286.32,-341.37"/>
</g>
<!-- node_00000191deac6130 -->
<g id="node13" class="node">
<title>node_00000191deac6130</title>
<path fill="#ecfd74" stroke="#ffc500" d="M359.25,-224C359.25,-224 649.25,-224 649.25,-224 655.25,-224 661.25,-230 661.25,-236 661.25,-236 661.25,-326.5 661.25,-326.5 661.25,-332.5 655.25,-338.5 649.25,-338.5 649.25,-338.5 359.25,-338.5 359.25,-338.5 353.25,-338.5 347.25,-332.5 347.25,-326.5 347.25,-326.5 347.25,-236 347.25,-236 347.25,-230 353.25,-224 359.25,-224"/>
<text text-anchor="middle" x="504.25" y="-321.2" font-family="Times New Roman,serif" font-size="14.00">addr: 00000191deac6130</text>
<polyline fill="none" stroke="#ffc500" points="347.25,-314 661.25,-314"/>
<text text-anchor="middle" x="504.25" y="-296.7" font-family="Times New Roman,serif" font-size="14.00">val = &#39;*&#39;</text>
<polyline fill="none" stroke="#ffc500" points="347.25,-289.5 661.25,-289.5"/>
<text text-anchor="middle" x="504.25" y="-272.2" font-family="Times New Roman,serif" font-size="14.00">type = OP</text>
<polyline fill="none" stroke="#ffc500" points="347.25,-265 661.25,-265"/>
<text text-anchor="middle" x="425.75" y="-247.7" font-family="Times New Roman,serif" font-size="14.00">L:</text>
<text text-anchor="middle" x="425.75" y="-231.2" font-family="Times New Roman,serif" font-size="14.00"> addr: 00000191deac60d0</text>
<polyline fill="none" stroke="#ffc500" points="504.25,-224 504.25,-265"/>
<text text-anchor="middle" x="582.75" y="-247.7" font-family="Times New Roman,serif" font-size="14.00">R: </text>
<text text-anchor="middle" x="582.75" y="-231.2" font-family="Times New Roman,serif" font-size="14.00"> addr: 00000191deac6100</text>
</g>
<!-- node_00000191deac6160&#45;&gt;node_00000191deac6130 -->
<g id="edge15" class="edge">
<title>node_00000191deac6160&#45;&gt;node_00000191deac6130</title>
<path fill="none" stroke="#ff0000" d="M467.56,-375.23C470.9,-366.77 474.37,-357.97 477.78,-349.31"/>
<polygon fill="#ff0000" stroke="#ff0000" points="480.94,-350.84 481.36,-340.26 474.43,-348.27 480.94,-350.84"/>
</g>
<!-- node_l_null_00000191deac6190 -->
<g id="node24" class="node">
<title>node_l_null_00000191deac6190</title>
<ellipse fill="#a2f0f8" stroke="#007cff" cx="735.25" cy="-281.25" rx="27.81" ry="18"/>
<text text-anchor="middle" x="735.25" y="-276.2" font-family="Times New Roman,serif" font-size="14.00"> null</text>
</g>
<!-- node_00000191deac6190&#45;&gt;node_l_null_00000191deac6190 -->
<g id="edge34" class="edge">
<title>node_00000191deac6190&#45;&gt;node_l_null_00000191deac6190</title>
<path fill="none" stroke="#007cff" d="M762.62,-375.23C756.07,-352.98 748.84,-328.44 743.46,-310.16"/>
<polygon fill="#007cff" stroke="#007cff" points="746.83,-309.19 740.65,-300.59 740.11,-311.17 746.83,-309.19"/>
</g>
<!-- node_r_null_00000191deac6190 -->
<g id="node25" class="node">
<title>node_r_null_00000191deac6190</title>
<ellipse fill="#a2f0f8" stroke="#007cff" cx="809.25" cy="-281.25" rx="27.81" ry="18"/>
<text text-anchor="middle" x="809.25" y="-276.2" font-family="Times New Roman,serif" font-size="14.00"> null</text>
</g>
<!-- node_00000191deac6190&#45;&gt;node_r_null_00000191deac6190 -->
<g id="edge35" class="edge">
<title>node_00000191deac6190&#45;&gt;node_r_null_00000191deac6190</title>
<path fill="none" stroke="#007cff" d="M790.59,-375.23C795.01,-353.22 799.87,-328.97 803.53,-310.75"/>
<polygon fill="#007cff" stroke="#007cff" points="806.96,-311.45 805.5,-300.96 800.1,-310.07 806.96,-311.45"/>
</g>
<!-- 5 -->
<g id="node14" class="node">
<title>5</title>
<ellipse fill="#fe5656" stroke="#581845" cx="988.25" cy="-129.75" rx="18" ry="18"/>
<text text-anchor="middle" x="988.25" y="-124.7" font-family="Times New Roman,serif" font-size="14.00">5</text>
</g>
<!-- 4&#45;&gt;5 -->
<g id="edge17" class="edge">
<title>4&#45;&gt;5</title>
<path fill="none" stroke="white" d="M976.21,-267.24C966.46,-242.05 965.4,-186.26 973,-154.35"/>
<polygon fill="white" stroke="white" points="976.33,-155.44 975.9,-144.86 969.64,-153.4 976.33,-155.44"/>
</g>
<!-- 4&#45;&gt;5 -->
<g id="edge20" class="edge">
<title>4&#45;&gt;5</title>
<path fill="none" stroke="white" d="M983.79,-263.39C981.09,-237.91 980.78,-189.3 982.86,-158.53"/>
<polygon fill="white" stroke="white" points="986.33,-159.09 983.69,-148.83 979.35,-158.49 986.33,-159.09"/>
</g>
<!-- 4&#45;&gt;5 -->
<g id="edge21" class="edge">
<title>4&#45;&gt;5</title>
<path fill="none" stroke="white" d="M992.71,-263.39C995.41,-237.91 995.72,-189.3 993.64,-158.53"/>
<polygon fill="white" stroke="white" points="997.15,-158.49 992.81,-148.83 990.17,-159.09 997.15,-158.49"/>
</g>
<!-- 4&#45;&gt;5 -->
<g id="edge24" class="edge">
<title>4&#45;&gt;5</title>
<path fill="none" stroke="white" d="M1000.29,-267.24C1010.04,-242.05 1011.1,-186.26 1003.5,-154.35"/>
<polygon fill="white" stroke="white" points="1006.86,-153.4 1000.6,-144.86 1000.17,-155.44 1006.86,-153.4"/>
</g>
<!-- node_l_null_00000191deac60a0 -->
<g id="node15" class="node">
<title>node_l_null_00000191deac60a0</title>
<ellipse fill="#a2f0f8" stroke="#007cff" cx="126.25" cy="-129.75" rx="27.81" ry="18"/>
<text text-anchor="middle" x="126.25" y="-124.7" font-family="Times New Roman,serif" font-size="14.00"> null</text>
</g>
<!-- node_00000191deac60a0&#45;&gt;node_l_null_00000191deac60a0 -->
<g id="edge18" class="edge">
<title>node_00000191deac60a0&#45;&gt;node_l_null_00000191deac60a0</title>
<path fill="none" stroke="#007cff" d="M153.62,-223.73C147.07,-201.48 139.84,-176.94 134.46,-158.66"/>
<polygon fill="#007cff" stroke="#007cff" points="137.83,-157.69 131.65,-149.09 131.11,-159.67 137.83,-157.69"/>
</g>
<!-- node_r_null_00000191deac60a0 -->
<g id="node16" class="node">
<title>node_r_null_00000191deac60a0</title>
<ellipse fill="#a2f0f8" stroke="#007cff" cx="200.25" cy="-129.75" rx="27.81" ry="18"/>
<text text-anchor="middle" x="200.25" y="-124.7" font-family="Times New Roman,serif" font-size="14.00"> null</text>
</g>
<!-- node_00000191deac60a0&#45;&gt;node_r_null_00000191deac60a0 -->
<g id="edge19" class="edge">
<title>node_00000191deac60a0&#45;&gt;node_r_null_00000191deac60a0</title>
<path fill="none" stroke="#007cff" d="M181.59,-223.73C186.01,-201.72 190.87,-177.47 194.53,-159.25"/>
<polygon fill="#007cff" stroke="#007cff" points="197.96,-159.95 196.5,-149.46 191.1,-158.57 197.96,-159.95"/>
</g>
<!-- node_00000191deac60d0 -->
<g id="node17" class="node">
<title>node_00000191deac60d0</title>
<path fill="#a2f8a4" stroke="#18ca1c" d="M292,-72.5C292,-72.5 586.5,-72.5 586.5,-72.5 592.5,-72.5 598.5,-78.5 598.5,-84.5 598.5,-84.5 598.5,-175 598.5,-175 598.5,-181 592.5,-187 586.5,-187 586.5,-187 292,-187 292,-187 286,-187 280,-181 280,-175 280,-175 280,-84.5 280,-84.5 280,-78.5 286,-72.5 292,-72.5"/>
<text text-anchor="middle" x="439.25" y="-169.7" font-family="Times New Roman,serif" font-size="14.00">addr: 00000191deac60d0</text>
<polyline fill="none" stroke="#18ca1c" points="280,-162.5 598.5,-162.5"/>
<text text-anchor="middle" x="439.25" y="-145.2" font-family="Times New Roman,serif" font-size="14.00">val = 2</text>
<polyline fill="none" stroke="#18ca1c" points="280,-138 598.5,-138"/>
<text text-anchor="middle" x="439.25" y="-120.7" font-family="Times New Roman,serif" font-size="14.00">type = NUM</text>
<polyline fill="none" stroke="#18ca1c" points="280,-113.5 598.5,-113.5"/>
<text text-anchor="middle" x="359.62" y="-96.2" font-family="Times New Roman,serif" font-size="14.00">L:</text>
<text text-anchor="middle" x="359.62" y="-79.7" font-family="Times New Roman,serif" font-size="14.00"> addr: 0000000000000000</text>
<polyline fill="none" stroke="#18ca1c" points="439.25,-72.5 439.25,-113.5"/>
<text text-anchor="middle" x="518.88" y="-96.2" font-family="Times New Roman,serif" font-size="14.00">R: </text>
<text text-anchor="middle" x="518.88" y="-79.7" font-family="Times New Roman,serif" font-size="14.00"> addr: 0000000000000000</text>
</g>
<!-- node_00000191deac6130&#45;&gt;node_00000191deac60d0 -->
<g id="edge22" class="edge">
<title>node_00000191deac6130&#45;&gt;node_00000191deac60d0</title>
<path fill="none" stroke="#ff0000" d="M479.68,-223.73C476,-215.27 472.17,-206.47 468.41,-197.81"/>
<polygon fill="#ff0000" stroke="#ff0000" points="471.66,-196.51 464.46,-188.74 465.24,-199.3 471.66,-196.51"/>
</g>
<!-- node_00000191deac6100 -->
<g id="node18" class="node">
<title>node_00000191deac6100</title>
<path fill="#a2f8a4" stroke="#18ca1c" d="M629,-72.5C629,-72.5 923.5,-72.5 923.5,-72.5 929.5,-72.5 935.5,-78.5 935.5,-84.5 935.5,-84.5 935.5,-175 935.5,-175 935.5,-181 929.5,-187 923.5,-187 923.5,-187 629,-187 629,-187 623,-187 617,-181 617,-175 617,-175 617,-84.5 617,-84.5 617,-78.5 623,-72.5 629,-72.5"/>
<text text-anchor="middle" x="776.25" y="-169.7" font-family="Times New Roman,serif" font-size="14.00">addr: 00000191deac6100</text>
<polyline fill="none" stroke="#18ca1c" points="617,-162.5 935.5,-162.5"/>
<text text-anchor="middle" x="776.25" y="-145.2" font-family="Times New Roman,serif" font-size="14.00">val = 7</text>
<polyline fill="none" stroke="#18ca1c" points="617,-138 935.5,-138"/>
<text text-anchor="middle" x="776.25" y="-120.7" font-family="Times New Roman,serif" font-size="14.00">type = NUM</text>
<polyline fill="none" stroke="#18ca1c" points="617,-113.5 935.5,-113.5"/>
<text text-anchor="middle" x="696.62" y="-96.2" font-family="Times New Roman,serif" font-size="14.00">L:</text>
<text text-anchor="middle" x="696.62" y="-79.7" font-family="Times New Roman,serif" font-size="14.00"> addr: 0000000000000000</text>
<polyline fill="none" stroke="#18ca1c" points="776.25,-72.5 776.25,-113.5"/>
<text text-anchor="middle" x="855.88" y="-96.2" font-family="Times New Roman,serif" font-size="14.00">R: </text>
<text text-anchor="middle" x="855.88" y="-79.7" font-family="Times New Roman,serif" font-size="14.00"> addr: 0000000000000000</text>
</g>
<!-- node_00000191deac6130&#45;&gt;node_00000191deac6100 -->
<g id="edge23" class="edge">
<title>node_00000191deac6130&#45;&gt;node_00000191deac6100</title>
<path fill="none" stroke="#ff0000" d="M607.47,-223.52C625.69,-213.5 644.74,-203.03 663.21,-192.88"/>
<polygon fill="#ff0000" stroke="#ff0000" points="664.7,-196.06 671.77,-188.17 661.33,-189.92 664.7,-196.06"/>
</g>
<!-- 6 -->
<g id="node19" class="node">
<title>6</title>
<ellipse fill="#fe5656" stroke="#581845" cx="988.25" cy="-18" rx="18" ry="18"/>
<text text-anchor="middle" x="988.25" y="-12.95" font-family="Times New Roman,serif" font-size="14.00">6</text>
</g>
<!-- 5&#45;&gt;6 -->
<g id="edge25" class="edge">
<title>5&#45;&gt;6</title>
<path fill="none" stroke="white" d="M975.14,-117C967.02,-99.02 965.83,-64.32 971.55,-41.42"/>
<polygon fill="white" stroke="white" points="974.82,-42.69 974.69,-32.09 968.18,-40.45 974.82,-42.69"/>
</g>
<!-- 5&#45;&gt;6 -->
<g id="edge28" class="edge">
<title>5&#45;&gt;6</title>
<path fill="none" stroke="white" d="M983.24,-112.08C981.29,-94.74 980.98,-67.28 982.3,-46.68"/>
<polygon fill="white" stroke="white" points="985.76,-47.24 983.13,-36.97 978.79,-46.64 985.76,-47.24"/>
</g>
<!-- 5&#45;&gt;6 -->
<g id="edge29" class="edge">
<title>5&#45;&gt;6</title>
<path fill="none" stroke="white" d="M993.26,-112.08C995.21,-94.74 995.52,-67.28 994.2,-46.68"/>
<polygon fill="white" stroke="white" points="997.71,-46.64 993.37,-36.97 990.74,-47.24 997.71,-46.64"/>
</g>
<!-- 5&#45;&gt;6 -->
<g id="edge32" class="edge">
<title>5&#45;&gt;6</title>
<path fill="none" stroke="white" d="M1001.36,-117C1009.48,-99.02 1010.67,-64.32 1004.95,-41.42"/>
<polygon fill="white" stroke="white" points="1008.32,-40.45 1001.81,-32.09 1001.68,-42.69 1008.32,-40.45"/>
</g>
<!-- node_l_null_00000191deac60d0 -->
<g id="node20" class="node">
<title>node_l_null_00000191deac60d0</title>
<ellipse fill="#a2f0f8" stroke="#007cff" cx="402.25" cy="-18" rx="27.81" ry="18"/>
<text text-anchor="middle" x="402.25" y="-12.95" font-family="Times New Roman,serif" font-size="14.00"> null</text>
</g>
<!-- node_00000191deac60d0&#45;&gt;node_l_null_00000191deac60d0 -->
<g id="edge26" class="edge">
<title>node_00000191deac60d0&#45;&gt;node_l_null_00000191deac60d0</title>
<path fill="none" stroke="#007cff" d="M420.21,-72.27C417.21,-63.37 414.23,-54.54 411.59,-46.69"/>
<polygon fill="#007cff" stroke="#007cff" points="414.98,-45.81 408.47,-37.45 408.35,-48.05 414.98,-45.81"/>
</g>
<!-- node_r_null_00000191deac60d0 -->
<g id="node21" class="node">
<title>node_r_null_00000191deac60d0</title>
<ellipse fill="#a2f0f8" stroke="#007cff" cx="476.25" cy="-18" rx="27.81" ry="18"/>
<text text-anchor="middle" x="476.25" y="-12.95" font-family="Times New Roman,serif" font-size="14.00"> null</text>
</g>
<!-- node_00000191deac60d0&#45;&gt;node_r_null_00000191deac60d0 -->
<g id="edge27" class="edge">
<title>node_00000191deac60d0&#45;&gt;node_r_null_00000191deac60d0</title>
<path fill="none" stroke="#007cff" d="M458.29,-72.27C461.29,-63.37 464.27,-54.54 466.91,-46.69"/>
<polygon fill="#007cff" stroke="#007cff" points="470.15,-48.05 470.03,-37.45 463.52,-45.81 470.15,-48.05"/>
</g>
<!-- node_l_null_00000191deac6100 -->
<g id="node22" class="node">
<title>node_l_null_00000191deac6100</title>
<ellipse fill="#a2f0f8" stroke="#007cff" cx="739.25" cy="-18" rx="27.81" ry="18"/>
<text text-anchor="middle" x="739.25" y="-12.95" font-family="Times New Roman,serif" font-size="14.00"> null</text>
</g>
<!-- node_00000191deac6100&#45;&gt;node_l_null_00000191deac6100 -->
<g id="edge30" class="edge">
<title>node_00000191deac6100&#45;&gt;node_l_null_00000191deac6100</title>
<path fill="none" stroke="#007cff" d="M757.21,-72.27C754.21,-63.37 751.23,-54.54 748.59,-46.69"/>
<polygon fill="#007cff" stroke="#007cff" points="751.98,-45.81 745.47,-37.45 745.35,-48.05 751.98,-45.81"/>
</g>
<!-- node_r_null_00000191deac6100 -->
<g id="node23" class="node">
<title>node_r_null_00000191deac6100</title>
<ellipse fill="#a2f0f8" stroke="#007cff" cx="813.25" cy="-18" rx="27.81" ry="18"/>
<text text-anchor="middle" x="813.25" y="-12.95" font-family="Times New Roman,serif" font-size="14.00"> null</text>
</g>
<!-- node_00000191deac6100&#45;&gt;node_r_null_00000191deac6100 -->
<g id="edge31" class="edge">
<title>node_00000191deac6100&#45;&gt;node_r_null_00000191deac6100</title>
<path fill="none" stroke="#007cff" d="M795.29,-72.27C798.29,-63.37 801.27,-54.54 803.91,-46.69"/>
<polygon fill="#007cff" stroke="#007cff" points="807.15,-48.05 807.03,-37.45 800.52,-45.81 807.15,-48.05"/>
</g>
</g>
</svg>
