<?xml version="1.0" encoding="UTF-8" standalone="no"?>
<!DOCTYPE svg PUBLIC "-//W3C//DTD SVG 1.1//EN"
 "http://www.w3.org/Graphics/SVG/1.1/DTD/svg11.dtd">
<!-- Generated by graphviz version 12.2.0 (20241103.1931)
 -->
<!-- Pages: 1 -->
<svg width="1313pt" height="802pt"
 viewBox="0.00 0.00 1312.94 801.50" xmlns="http://www.w3.org/2000/svg" xmlns:xlink="http://www.w3.org/1999/xlink">
<g id="graph0" class="graph" transform="scale(1 1) rotate(0) translate(4 797.5)">
<polygon fill="white" stroke="none" points="-4,4 -4,-797.5 1308.94,-797.5 1308.94,4 -4,4"/>
<!-- node_000001596b659430 -->
<g id="node1" class="node">
<title>node_000001596b659430</title>
<path fill="#ecfd74" stroke="#ffc500" d="M451,-678.5C451,-678.5 745.5,-678.5 745.5,-678.5 751.5,-678.5 757.5,-684.5 757.5,-690.5 757.5,-690.5 757.5,-781 757.5,-781 757.5,-787 751.5,-793 745.5,-793 745.5,-793 451,-793 451,-793 445,-793 439,-787 439,-781 439,-781 439,-690.5 439,-690.5 439,-684.5 445,-678.5 451,-678.5"/>
<text text-anchor="middle" x="598.25" y="-775.7" font-family="Times New Roman,serif" font-size="14.00">addr: 000001596b659430</text>
<polyline fill="none" stroke="#ffc500" points="439,-768.5 757.5,-768.5"/>
<text text-anchor="middle" x="598.25" y="-751.2" font-family="Times New Roman,serif" font-size="14.00">val = &#39;&#45;&#39;</text>
<polyline fill="none" stroke="#ffc500" points="439,-744 757.5,-744"/>
<text text-anchor="middle" x="598.25" y="-726.7" font-family="Times New Roman,serif" font-size="14.00">type = OP</text>
<polyline fill="none" stroke="#ffc500" points="439,-719.5 757.5,-719.5"/>
<text text-anchor="middle" x="518.62" y="-702.2" font-family="Times New Roman,serif" font-size="14.00">L:</text>
<text text-anchor="middle" x="518.62" y="-685.7" font-family="Times New Roman,serif" font-size="14.00"> addr: 0000015969d66100</text>
<polyline fill="none" stroke="#ffc500" points="598.25,-678.5 598.25,-719.5"/>
<text text-anchor="middle" x="677.88" y="-702.2" font-family="Times New Roman,serif" font-size="14.00">R: </text>
<text text-anchor="middle" x="677.88" y="-685.7" font-family="Times New Roman,serif" font-size="14.00"> addr: 0000015969d66130</text>
</g>
<!-- node_0000015969d66100 -->
<g id="node4" class="node">
<title>node_0000015969d66100</title>
<path fill="#ecfd74" stroke="#ffc500" d="M283.38,-527C283.38,-527 577.12,-527 577.12,-527 583.12,-527 589.12,-533 589.12,-539 589.12,-539 589.12,-629.5 589.12,-629.5 589.12,-635.5 583.12,-641.5 577.12,-641.5 577.12,-641.5 283.38,-641.5 283.38,-641.5 277.38,-641.5 271.38,-635.5 271.38,-629.5 271.38,-629.5 271.38,-539 271.38,-539 271.38,-533 277.38,-527 283.38,-527"/>
<text text-anchor="middle" x="430.25" y="-624.2" font-family="Times New Roman,serif" font-size="14.00">addr: 0000015969d66100</text>
<polyline fill="none" stroke="#ffc500" points="271.38,-617 589.12,-617"/>
<text text-anchor="middle" x="430.25" y="-599.7" font-family="Times New Roman,serif" font-size="14.00">val = &#39;+&#39;</text>
<polyline fill="none" stroke="#ffc500" points="271.38,-592.5 589.12,-592.5"/>
<text text-anchor="middle" x="430.25" y="-575.2" font-family="Times New Roman,serif" font-size="14.00">type = OP</text>
<polyline fill="none" stroke="#ffc500" points="271.38,-568 589.12,-568"/>
<text text-anchor="middle" x="350.62" y="-550.7" font-family="Times New Roman,serif" font-size="14.00">L:</text>
<text text-anchor="middle" x="350.62" y="-534.2" font-family="Times New Roman,serif" font-size="14.00"> addr: 0000015969d66ad0</text>
<polyline fill="none" stroke="#ffc500" points="429.88,-527 429.88,-568"/>
<text text-anchor="middle" x="509.5" y="-550.7" font-family="Times New Roman,serif" font-size="14.00">R: </text>
<text text-anchor="middle" x="509.5" y="-534.2" font-family="Times New Roman,serif" font-size="14.00"> addr: 0000015969d660d0</text>
</g>
<!-- node_000001596b659430&#45;&gt;node_0000015969d66100 -->
<g id="edge2" class="edge">
<title>node_000001596b659430&#45;&gt;node_0000015969d66100</title>
<path fill="none" stroke="#ff0000" d="M534.74,-678.23C524.18,-668.84 513.16,-659.03 502.41,-649.46"/>
<polygon fill="#ff0000" stroke="#ff0000" points="504.78,-646.89 494.98,-642.86 500.13,-652.12 504.78,-646.89"/>
</g>
<!-- node_0000015969d66130 -->
<g id="node5" class="node">
<title>node_0000015969d66130</title>
<path fill="#a2f8a4" stroke="#18ca1c" d="M619,-527C619,-527 913.5,-527 913.5,-527 919.5,-527 925.5,-533 925.5,-539 925.5,-539 925.5,-629.5 925.5,-629.5 925.5,-635.5 919.5,-641.5 913.5,-641.5 913.5,-641.5 619,-641.5 619,-641.5 613,-641.5 607,-635.5 607,-629.5 607,-629.5 607,-539 607,-539 607,-533 613,-527 619,-527"/>
<text text-anchor="middle" x="766.25" y="-624.2" font-family="Times New Roman,serif" font-size="14.00">addr: 0000015969d66130</text>
<polyline fill="none" stroke="#18ca1c" points="607,-617 925.5,-617"/>
<text text-anchor="middle" x="766.25" y="-599.7" font-family="Times New Roman,serif" font-size="14.00">val = 5</text>
<polyline fill="none" stroke="#18ca1c" points="607,-592.5 925.5,-592.5"/>
<text text-anchor="middle" x="766.25" y="-575.2" font-family="Times New Roman,serif" font-size="14.00">type = NUM</text>
<polyline fill="none" stroke="#18ca1c" points="607,-568 925.5,-568"/>
<text text-anchor="middle" x="686.62" y="-550.7" font-family="Times New Roman,serif" font-size="14.00">L:</text>
<text text-anchor="middle" x="686.62" y="-534.2" font-family="Times New Roman,serif" font-size="14.00"> addr: 0000000000000000</text>
<polyline fill="none" stroke="#18ca1c" points="766.25,-527 766.25,-568"/>
<text text-anchor="middle" x="845.88" y="-550.7" font-family="Times New Roman,serif" font-size="14.00">R: </text>
<text text-anchor="middle" x="845.88" y="-534.2" font-family="Times New Roman,serif" font-size="14.00"> addr: 0000000000000000</text>
</g>
<!-- node_000001596b659430&#45;&gt;node_0000015969d66130 -->
<g id="edge3" class="edge">
<title>node_000001596b659430&#45;&gt;node_0000015969d66130</title>
<path fill="none" stroke="#ff0000" d="M661.76,-678.23C672.32,-668.84 683.34,-659.03 694.09,-649.46"/>
<polygon fill="#ff0000" stroke="#ff0000" points="696.37,-652.12 701.52,-642.86 691.72,-646.89 696.37,-652.12"/>
</g>
<!-- 1 -->
<g id="node2" class="node">
<title>1</title>
<ellipse fill="#fe5656" stroke="#581845" cx="1284.25" cy="-735.75" rx="18" ry="18"/>
<text text-anchor="middle" x="1284.25" y="-730.7" font-family="Times New Roman,serif" font-size="14.00">1</text>
</g>
<!-- 2 -->
<g id="node3" class="node">
<title>2</title>
<ellipse fill="#fe5656" stroke="#581845" cx="1284.25" cy="-584.25" rx="18" ry="18"/>
<text text-anchor="middle" x="1284.25" y="-579.2" font-family="Times New Roman,serif" font-size="14.00">2</text>
</g>
<!-- 1&#45;&gt;2 -->
<g id="edge1" class="edge">
<title>1&#45;&gt;2</title>
<path fill="none" stroke="white" d="M1279.79,-717.89C1277.09,-692.41 1276.78,-643.8 1278.86,-613.03"/>
<polygon fill="white" stroke="white" points="1282.33,-613.59 1279.69,-603.33 1275.35,-612.99 1282.33,-613.59"/>
</g>
<!-- 1&#45;&gt;2 -->
<g id="edge4" class="edge">
<title>1&#45;&gt;2</title>
<path fill="none" stroke="white" d="M1288.71,-717.89C1291.41,-692.41 1291.72,-643.8 1289.64,-613.03"/>
<polygon fill="white" stroke="white" points="1293.15,-612.99 1288.81,-603.33 1286.17,-613.59 1293.15,-612.99"/>
</g>
<!-- 3 -->
<g id="node6" class="node">
<title>3</title>
<ellipse fill="#fe5656" stroke="#581845" cx="1284.25" cy="-432.75" rx="18" ry="18"/>
<text text-anchor="middle" x="1284.25" y="-427.7" font-family="Times New Roman,serif" font-size="14.00">3</text>
</g>
<!-- 2&#45;&gt;3 -->
<g id="edge5" class="edge">
<title>2&#45;&gt;3</title>
<path fill="none" stroke="white" d="M1272.21,-570.24C1262.46,-545.05 1261.4,-489.26 1269,-457.35"/>
<polygon fill="white" stroke="white" points="1272.33,-458.44 1271.9,-447.86 1265.64,-456.4 1272.33,-458.44"/>
</g>
<!-- 2&#45;&gt;3 -->
<g id="edge8" class="edge">
<title>2&#45;&gt;3</title>
<path fill="none" stroke="white" d="M1279.79,-566.39C1277.09,-540.91 1276.78,-492.3 1278.86,-461.53"/>
<polygon fill="white" stroke="white" points="1282.33,-462.09 1279.69,-451.83 1275.35,-461.49 1282.33,-462.09"/>
</g>
<!-- 2&#45;&gt;3 -->
<g id="edge33" class="edge">
<title>2&#45;&gt;3</title>
<path fill="none" stroke="white" d="M1288.71,-566.39C1291.41,-540.91 1291.72,-492.3 1289.64,-461.53"/>
<polygon fill="white" stroke="white" points="1293.15,-461.49 1288.81,-451.83 1286.17,-462.09 1293.15,-461.49"/>
</g>
<!-- 2&#45;&gt;3 -->
<g id="edge36" class="edge">
<title>2&#45;&gt;3</title>
<path fill="none" stroke="white" d="M1296.29,-570.24C1306.04,-545.05 1307.1,-489.26 1299.5,-457.35"/>
<polygon fill="white" stroke="white" points="1302.86,-456.4 1296.6,-447.86 1296.17,-458.44 1302.86,-456.4"/>
</g>
<!-- node_0000015969d66ad0 -->
<g id="node7" class="node">
<title>node_0000015969d66ad0</title>
<path fill="#a2f8a4" stroke="#18ca1c" d="M12,-375.5C12,-375.5 306.5,-375.5 306.5,-375.5 312.5,-375.5 318.5,-381.5 318.5,-387.5 318.5,-387.5 318.5,-478 318.5,-478 318.5,-484 312.5,-490 306.5,-490 306.5,-490 12,-490 12,-490 6,-490 0,-484 0,-478 0,-478 0,-387.5 0,-387.5 0,-381.5 6,-375.5 12,-375.5"/>
<text text-anchor="middle" x="159.25" y="-472.7" font-family="Times New Roman,serif" font-size="14.00">addr: 0000015969d66ad0</text>
<polyline fill="none" stroke="#18ca1c" points="0,-465.5 318.5,-465.5"/>
<text text-anchor="middle" x="159.25" y="-448.2" font-family="Times New Roman,serif" font-size="14.00">val = 7</text>
<polyline fill="none" stroke="#18ca1c" points="0,-441 318.5,-441"/>
<text text-anchor="middle" x="159.25" y="-423.7" font-family="Times New Roman,serif" font-size="14.00">type = NUM</text>
<polyline fill="none" stroke="#18ca1c" points="0,-416.5 318.5,-416.5"/>
<text text-anchor="middle" x="79.62" y="-399.2" font-family="Times New Roman,serif" font-size="14.00">L:</text>
<text text-anchor="middle" x="79.62" y="-382.7" font-family="Times New Roman,serif" font-size="14.00"> addr: 0000000000000000</text>
<polyline fill="none" stroke="#18ca1c" points="159.25,-375.5 159.25,-416.5"/>
<text text-anchor="middle" x="238.88" y="-399.2" font-family="Times New Roman,serif" font-size="14.00">R: </text>
<text text-anchor="middle" x="238.88" y="-382.7" font-family="Times New Roman,serif" font-size="14.00"> addr: 0000000000000000</text>
</g>
<!-- node_0000015969d66100&#45;&gt;node_0000015969d66ad0 -->
<g id="edge6" class="edge">
<title>node_0000015969d66100&#45;&gt;node_0000015969d66ad0</title>
<path fill="none" stroke="#ff0000" d="M327.41,-526.52C309.26,-516.5 290.28,-506.03 271.88,-495.88"/>
<polygon fill="#ff0000" stroke="#ff0000" points="273.79,-492.94 263.34,-491.18 270.41,-499.07 273.79,-492.94"/>
</g>
<!-- node_0000015969d660d0 -->
<g id="node8" class="node">
<title>node_0000015969d660d0</title>
<path fill="#ecfd74" stroke="#ffc500" d="M348.38,-375.5C348.38,-375.5 642.12,-375.5 642.12,-375.5 648.12,-375.5 654.12,-381.5 654.12,-387.5 654.12,-387.5 654.12,-478 654.12,-478 654.12,-484 648.12,-490 642.12,-490 642.12,-490 348.38,-490 348.38,-490 342.38,-490 336.38,-484 336.38,-478 336.38,-478 336.38,-387.5 336.38,-387.5 336.38,-381.5 342.38,-375.5 348.38,-375.5"/>
<text text-anchor="middle" x="495.25" y="-472.7" font-family="Times New Roman,serif" font-size="14.00">addr: 0000015969d660d0</text>
<polyline fill="none" stroke="#ffc500" points="336.38,-465.5 654.12,-465.5"/>
<text text-anchor="middle" x="495.25" y="-448.2" font-family="Times New Roman,serif" font-size="14.00">val = &#39;*&#39;</text>
<polyline fill="none" stroke="#ffc500" points="336.38,-441 654.12,-441"/>
<text text-anchor="middle" x="495.25" y="-423.7" font-family="Times New Roman,serif" font-size="14.00">type = OP</text>
<polyline fill="none" stroke="#ffc500" points="336.38,-416.5 654.12,-416.5"/>
<text text-anchor="middle" x="416" y="-399.2" font-family="Times New Roman,serif" font-size="14.00">L:</text>
<text text-anchor="middle" x="416" y="-382.7" font-family="Times New Roman,serif" font-size="14.00"> addr: 0000015969d66010</text>
<polyline fill="none" stroke="#ffc500" points="495.62,-375.5 495.62,-416.5"/>
<text text-anchor="middle" x="574.88" y="-399.2" font-family="Times New Roman,serif" font-size="14.00">R: </text>
<text text-anchor="middle" x="574.88" y="-382.7" font-family="Times New Roman,serif" font-size="14.00"> addr: 0000015969d660a0</text>
</g>
<!-- node_0000015969d66100&#45;&gt;node_0000015969d660d0 -->
<g id="edge7" class="edge">
<title>node_0000015969d66100&#45;&gt;node_0000015969d660d0</title>
<path fill="none" stroke="#ff0000" d="M454.82,-526.73C458.5,-518.27 462.33,-509.47 466.09,-500.81"/>
<polygon fill="#ff0000" stroke="#ff0000" points="469.26,-502.3 470.04,-491.74 462.84,-499.51 469.26,-502.3"/>
</g>
<!-- node_l_null_0000015969d66130 -->
<g id="node24" class="node">
<title>node_l_null_0000015969d66130</title>
<ellipse fill="#a2f0f8" stroke="#007cff" cx="733.25" cy="-432.75" rx="27.81" ry="18"/>
<text text-anchor="middle" x="733.25" y="-427.7" font-family="Times New Roman,serif" font-size="14.00"> null</text>
</g>
<!-- node_0000015969d66130&#45;&gt;node_l_null_0000015969d66130 -->
<g id="edge34" class="edge">
<title>node_0000015969d66130&#45;&gt;node_l_null_0000015969d66130</title>
<path fill="none" stroke="#007cff" d="M753.77,-526.73C748.89,-504.62 743.51,-480.24 739.48,-461.99"/>
<polygon fill="#007cff" stroke="#007cff" points="742.95,-461.46 737.38,-452.45 736.12,-462.97 742.95,-461.46"/>
</g>
<!-- node_r_null_0000015969d66130 -->
<g id="node25" class="node">
<title>node_r_null_0000015969d66130</title>
<ellipse fill="#a2f0f8" stroke="#007cff" cx="807.25" cy="-432.75" rx="27.81" ry="18"/>
<text text-anchor="middle" x="807.25" y="-427.7" font-family="Times New Roman,serif" font-size="14.00"> null</text>
</g>
<!-- node_0000015969d66130&#45;&gt;node_r_null_0000015969d66130 -->
<g id="edge35" class="edge">
<title>node_0000015969d66130&#45;&gt;node_r_null_0000015969d66130</title>
<path fill="none" stroke="#007cff" d="M781.75,-526.73C787.81,-504.62 794.5,-480.24 799.5,-461.99"/>
<polygon fill="#007cff" stroke="#007cff" points="802.86,-463 802.13,-452.43 796.11,-461.15 802.86,-463"/>
</g>
<!-- 4 -->
<g id="node9" class="node">
<title>4</title>
<ellipse fill="#fe5656" stroke="#581845" cx="1284.25" cy="-281.25" rx="18" ry="18"/>
<text text-anchor="middle" x="1284.25" y="-276.2" font-family="Times New Roman,serif" font-size="14.00">4</text>
</g>
<!-- 3&#45;&gt;4 -->
<g id="edge9" class="edge">
<title>3&#45;&gt;4</title>
<path fill="none" stroke="white" d="M1272.21,-418.74C1262.46,-393.55 1261.4,-337.76 1269,-305.85"/>
<polygon fill="white" stroke="white" points="1272.33,-306.94 1271.9,-296.36 1265.64,-304.9 1272.33,-306.94"/>
</g>
<!-- 3&#45;&gt;4 -->
<g id="edge12" class="edge">
<title>3&#45;&gt;4</title>
<path fill="none" stroke="white" d="M1279.79,-414.89C1277.09,-389.41 1276.78,-340.8 1278.86,-310.03"/>
<polygon fill="white" stroke="white" points="1282.33,-310.59 1279.69,-300.33 1275.35,-309.99 1282.33,-310.59"/>
</g>
<!-- 3&#45;&gt;4 -->
<g id="edge13" class="edge">
<title>3&#45;&gt;4</title>
<path fill="none" stroke="white" d="M1288.71,-414.89C1291.41,-389.41 1291.72,-340.8 1289.64,-310.03"/>
<polygon fill="white" stroke="white" points="1293.15,-309.99 1288.81,-300.33 1286.17,-310.59 1293.15,-309.99"/>
</g>
<!-- 3&#45;&gt;4 -->
<g id="edge16" class="edge">
<title>3&#45;&gt;4</title>
<path fill="none" stroke="white" d="M1296.29,-418.74C1306.04,-393.55 1307.1,-337.76 1299.5,-305.85"/>
<polygon fill="white" stroke="white" points="1302.86,-304.9 1296.6,-296.36 1296.17,-306.94 1302.86,-304.9"/>
</g>
<!-- node_l_null_0000015969d66ad0 -->
<g id="node10" class="node">
<title>node_l_null_0000015969d66ad0</title>
<ellipse fill="#a2f0f8" stroke="#007cff" cx="122.25" cy="-281.25" rx="27.81" ry="18"/>
<text text-anchor="middle" x="122.25" y="-276.2" font-family="Times New Roman,serif" font-size="14.00"> null</text>
</g>
<!-- node_0000015969d66ad0&#45;&gt;node_l_null_0000015969d66ad0 -->
<g id="edge10" class="edge">
<title>node_0000015969d66ad0&#45;&gt;node_l_null_0000015969d66ad0</title>
<path fill="none" stroke="#007cff" d="M145.26,-375.23C139.79,-353.12 133.76,-328.74 129.24,-310.49"/>
<polygon fill="#007cff" stroke="#007cff" points="132.68,-309.81 126.88,-300.94 125.88,-311.49 132.68,-309.81"/>
</g>
<!-- node_r_null_0000015969d66ad0 -->
<g id="node11" class="node">
<title>node_r_null_0000015969d66ad0</title>
<ellipse fill="#a2f0f8" stroke="#007cff" cx="196.25" cy="-281.25" rx="27.81" ry="18"/>
<text text-anchor="middle" x="196.25" y="-276.2" font-family="Times New Roman,serif" font-size="14.00"> null</text>
</g>
<!-- node_0000015969d66ad0&#45;&gt;node_r_null_0000015969d66ad0 -->
<g id="edge11" class="edge">
<title>node_0000015969d66ad0&#45;&gt;node_r_null_0000015969d66ad0</title>
<path fill="none" stroke="#007cff" d="M173.24,-375.23C178.71,-353.12 184.74,-328.74 189.26,-310.49"/>
<polygon fill="#007cff" stroke="#007cff" points="192.62,-311.49 191.62,-300.94 185.82,-309.81 192.62,-311.49"/>
</g>
<!-- node_0000015969d66010 -->
<g id="node12" class="node">
<title>node_0000015969d66010</title>
<path fill="#a2f8a4" stroke="#18ca1c" d="M301,-224C301,-224 595.5,-224 595.5,-224 601.5,-224 607.5,-230 607.5,-236 607.5,-236 607.5,-326.5 607.5,-326.5 607.5,-332.5 601.5,-338.5 595.5,-338.5 595.5,-338.5 301,-338.5 301,-338.5 295,-338.5 289,-332.5 289,-326.5 289,-326.5 289,-236 289,-236 289,-230 295,-224 301,-224"/>
<text text-anchor="middle" x="448.25" y="-321.2" font-family="Times New Roman,serif" font-size="14.00">addr: 0000015969d66010</text>
<polyline fill="none" stroke="#18ca1c" points="289,-314 607.5,-314"/>
<text text-anchor="middle" x="448.25" y="-296.7" font-family="Times New Roman,serif" font-size="14.00">val = 3</text>
<polyline fill="none" stroke="#18ca1c" points="289,-289.5 607.5,-289.5"/>
<text text-anchor="middle" x="448.25" y="-272.2" font-family="Times New Roman,serif" font-size="14.00">type = NUM</text>
<polyline fill="none" stroke="#18ca1c" points="289,-265 607.5,-265"/>
<text text-anchor="middle" x="368.62" y="-247.7" font-family="Times New Roman,serif" font-size="14.00">L:</text>
<text text-anchor="middle" x="368.62" y="-231.2" font-family="Times New Roman,serif" font-size="14.00"> addr: 0000000000000000</text>
<polyline fill="none" stroke="#18ca1c" points="448.25,-224 448.25,-265"/>
<text text-anchor="middle" x="527.88" y="-247.7" font-family="Times New Roman,serif" font-size="14.00">R: </text>
<text text-anchor="middle" x="527.88" y="-231.2" font-family="Times New Roman,serif" font-size="14.00"> addr: 0000000000000000</text>
</g>
<!-- node_0000015969d660d0&#45;&gt;node_0000015969d66010 -->
<g id="edge14" class="edge">
<title>node_0000015969d660d0&#45;&gt;node_0000015969d66010</title>
<path fill="none" stroke="#ff0000" d="M477.48,-375.23C474.85,-366.86 472.12,-358.16 469.42,-349.6"/>
<polygon fill="#ff0000" stroke="#ff0000" points="472.84,-348.78 466.5,-340.29 466.16,-350.88 472.84,-348.78"/>
</g>
<!-- node_0000015969d660a0 -->
<g id="node13" class="node">
<title>node_0000015969d660a0</title>
<path fill="#ecfd74" stroke="#ffc500" d="M638,-224C638,-224 932.5,-224 932.5,-224 938.5,-224 944.5,-230 944.5,-236 944.5,-236 944.5,-326.5 944.5,-326.5 944.5,-332.5 938.5,-338.5 932.5,-338.5 932.5,-338.5 638,-338.5 638,-338.5 632,-338.5 626,-332.5 626,-326.5 626,-326.5 626,-236 626,-236 626,-230 632,-224 638,-224"/>
<text text-anchor="middle" x="785.25" y="-321.2" font-family="Times New Roman,serif" font-size="14.00">addr: 0000015969d660a0</text>
<polyline fill="none" stroke="#ffc500" points="626,-314 944.5,-314"/>
<text text-anchor="middle" x="785.25" y="-296.7" font-family="Times New Roman,serif" font-size="14.00">val = &#39;^&#39;</text>
<polyline fill="none" stroke="#ffc500" points="626,-289.5 944.5,-289.5"/>
<text text-anchor="middle" x="785.25" y="-272.2" font-family="Times New Roman,serif" font-size="14.00">type = OP</text>
<polyline fill="none" stroke="#ffc500" points="626,-265 944.5,-265"/>
<text text-anchor="middle" x="705.62" y="-247.7" font-family="Times New Roman,serif" font-size="14.00">L:</text>
<text text-anchor="middle" x="705.62" y="-231.2" font-family="Times New Roman,serif" font-size="14.00"> addr: 0000015969d66040</text>
<polyline fill="none" stroke="#ffc500" points="785.25,-224 785.25,-265"/>
<text text-anchor="middle" x="864.88" y="-247.7" font-family="Times New Roman,serif" font-size="14.00">R: </text>
<text text-anchor="middle" x="864.88" y="-231.2" font-family="Times New Roman,serif" font-size="14.00"> addr: 0000015969d66070</text>
</g>
<!-- node_0000015969d660d0&#45;&gt;node_0000015969d660a0 -->
<g id="edge15" class="edge">
<title>node_0000015969d660d0&#45;&gt;node_0000015969d660a0</title>
<path fill="none" stroke="#ff0000" d="M605.3,-375.02C624.9,-364.91 645.41,-354.34 665.27,-344.1"/>
<polygon fill="#ff0000" stroke="#ff0000" points="666.65,-347.33 673.93,-339.64 663.44,-341.11 666.65,-347.33"/>
</g>
<!-- 5 -->
<g id="node14" class="node">
<title>5</title>
<ellipse fill="#fe5656" stroke="#581845" cx="1284.25" cy="-129.75" rx="18" ry="18"/>
<text text-anchor="middle" x="1284.25" y="-124.7" font-family="Times New Roman,serif" font-size="14.00">5</text>
</g>
<!-- 4&#45;&gt;5 -->
<g id="edge17" class="edge">
<title>4&#45;&gt;5</title>
<path fill="none" stroke="white" d="M1272.21,-267.24C1262.46,-242.05 1261.4,-186.26 1269,-154.35"/>
<polygon fill="white" stroke="white" points="1272.33,-155.44 1271.9,-144.86 1265.64,-153.4 1272.33,-155.44"/>
</g>
<!-- 4&#45;&gt;5 -->
<g id="edge20" class="edge">
<title>4&#45;&gt;5</title>
<path fill="none" stroke="white" d="M1279.79,-263.39C1277.09,-237.91 1276.78,-189.3 1278.86,-158.53"/>
<polygon fill="white" stroke="white" points="1282.33,-159.09 1279.69,-148.83 1275.35,-158.49 1282.33,-159.09"/>
</g>
<!-- 4&#45;&gt;5 -->
<g id="edge21" class="edge">
<title>4&#45;&gt;5</title>
<path fill="none" stroke="white" d="M1288.71,-263.39C1291.41,-237.91 1291.72,-189.3 1289.64,-158.53"/>
<polygon fill="white" stroke="white" points="1293.15,-158.49 1288.81,-148.83 1286.17,-159.09 1293.15,-158.49"/>
</g>
<!-- 4&#45;&gt;5 -->
<g id="edge24" class="edge">
<title>4&#45;&gt;5</title>
<path fill="none" stroke="white" d="M1296.29,-267.24C1306.04,-242.05 1307.1,-186.26 1299.5,-154.35"/>
<polygon fill="white" stroke="white" points="1302.86,-153.4 1296.6,-144.86 1296.17,-155.44 1302.86,-153.4"/>
</g>
<!-- node_l_null_0000015969d66010 -->
<g id="node15" class="node">
<title>node_l_null_0000015969d66010</title>
<ellipse fill="#a2f0f8" stroke="#007cff" cx="407.25" cy="-129.75" rx="27.81" ry="18"/>
<text text-anchor="middle" x="407.25" y="-124.7" font-family="Times New Roman,serif" font-size="14.00"> null</text>
</g>
<!-- node_0000015969d66010&#45;&gt;node_l_null_0000015969d66010 -->
<g id="edge18" class="edge">
<title>node_0000015969d66010&#45;&gt;node_l_null_0000015969d66010</title>
<path fill="none" stroke="#007cff" d="M432.75,-223.73C426.69,-201.62 420,-177.24 415,-158.99"/>
<polygon fill="#007cff" stroke="#007cff" points="418.39,-158.15 412.37,-149.43 411.64,-160 418.39,-158.15"/>
</g>
<!-- node_r_null_0000015969d66010 -->
<g id="node16" class="node">
<title>node_r_null_0000015969d66010</title>
<ellipse fill="#a2f0f8" stroke="#007cff" cx="481.25" cy="-129.75" rx="27.81" ry="18"/>
<text text-anchor="middle" x="481.25" y="-124.7" font-family="Times New Roman,serif" font-size="14.00"> null</text>
</g>
<!-- node_0000015969d66010&#45;&gt;node_r_null_0000015969d66010 -->
<g id="edge19" class="edge">
<title>node_0000015969d66010&#45;&gt;node_r_null_0000015969d66010</title>
<path fill="none" stroke="#007cff" d="M460.73,-223.73C465.61,-201.62 470.99,-177.24 475.02,-158.99"/>
<polygon fill="#007cff" stroke="#007cff" points="478.38,-159.97 477.12,-149.45 471.55,-158.46 478.38,-159.97"/>
</g>
<!-- node_0000015969d66040 -->
<g id="node17" class="node">
<title>node_0000015969d66040</title>
<path fill="#a2f8a4" stroke="#18ca1c" d="M605,-72.5C605,-72.5 899.5,-72.5 899.5,-72.5 905.5,-72.5 911.5,-78.5 911.5,-84.5 911.5,-84.5 911.5,-175 911.5,-175 911.5,-181 905.5,-187 899.5,-187 899.5,-187 605,-187 605,-187 599,-187 593,-181 593,-175 593,-175 593,-84.5 593,-84.5 593,-78.5 599,-72.5 605,-72.5"/>
<text text-anchor="middle" x="752.25" y="-169.7" font-family="Times New Roman,serif" font-size="14.00">addr: 0000015969d66040</text>
<polyline fill="none" stroke="#18ca1c" points="593,-162.5 911.5,-162.5"/>
<text text-anchor="middle" x="752.25" y="-145.2" font-family="Times New Roman,serif" font-size="14.00">val = 2</text>
<polyline fill="none" stroke="#18ca1c" points="593,-138 911.5,-138"/>
<text text-anchor="middle" x="752.25" y="-120.7" font-family="Times New Roman,serif" font-size="14.00">type = NUM</text>
<polyline fill="none" stroke="#18ca1c" points="593,-113.5 911.5,-113.5"/>
<text text-anchor="middle" x="672.62" y="-96.2" font-family="Times New Roman,serif" font-size="14.00">L:</text>
<text text-anchor="middle" x="672.62" y="-79.7" font-family="Times New Roman,serif" font-size="14.00"> addr: 0000000000000000</text>
<polyline fill="none" stroke="#18ca1c" points="752.25,-72.5 752.25,-113.5"/>
<text text-anchor="middle" x="831.88" y="-96.2" font-family="Times New Roman,serif" font-size="14.00">R: </text>
<text text-anchor="middle" x="831.88" y="-79.7" font-family="Times New Roman,serif" font-size="14.00"> addr: 0000000000000000</text>
</g>
<!-- node_0000015969d660a0&#45;&gt;node_0000015969d66040 -->
<g id="edge22" class="edge">
<title>node_0000015969d660a0&#45;&gt;node_0000015969d66040</title>
<path fill="none" stroke="#ff0000" d="M772.77,-223.73C770.95,-215.45 769.05,-206.85 767.18,-198.38"/>
<polygon fill="#ff0000" stroke="#ff0000" points="770.64,-197.84 765.07,-188.83 763.81,-199.35 770.64,-197.84"/>
</g>
<!-- node_0000015969d66070 -->
<g id="node18" class="node">
<title>node_0000015969d66070</title>
<path fill="#a2f8a4" stroke="#18ca1c" d="M942,-72.5C942,-72.5 1236.5,-72.5 1236.5,-72.5 1242.5,-72.5 1248.5,-78.5 1248.5,-84.5 1248.5,-84.5 1248.5,-175 1248.5,-175 1248.5,-181 1242.5,-187 1236.5,-187 1236.5,-187 942,-187 942,-187 936,-187 930,-181 930,-175 930,-175 930,-84.5 930,-84.5 930,-78.5 936,-72.5 942,-72.5"/>
<text text-anchor="middle" x="1089.25" y="-169.7" font-family="Times New Roman,serif" font-size="14.00">addr: 0000015969d66070</text>
<polyline fill="none" stroke="#18ca1c" points="930,-162.5 1248.5,-162.5"/>
<text text-anchor="middle" x="1089.25" y="-145.2" font-family="Times New Roman,serif" font-size="14.00">val = 4</text>
<polyline fill="none" stroke="#18ca1c" points="930,-138 1248.5,-138"/>
<text text-anchor="middle" x="1089.25" y="-120.7" font-family="Times New Roman,serif" font-size="14.00">type = NUM</text>
<polyline fill="none" stroke="#18ca1c" points="930,-113.5 1248.5,-113.5"/>
<text text-anchor="middle" x="1009.62" y="-96.2" font-family="Times New Roman,serif" font-size="14.00">L:</text>
<text text-anchor="middle" x="1009.62" y="-79.7" font-family="Times New Roman,serif" font-size="14.00"> addr: 0000000000000000</text>
<polyline fill="none" stroke="#18ca1c" points="1089.25,-72.5 1089.25,-113.5"/>
<text text-anchor="middle" x="1168.88" y="-96.2" font-family="Times New Roman,serif" font-size="14.00">R: </text>
<text text-anchor="middle" x="1168.88" y="-79.7" font-family="Times New Roman,serif" font-size="14.00"> addr: 0000000000000000</text>
</g>
<!-- node_0000015969d660a0&#45;&gt;node_0000015969d66070 -->
<g id="edge23" class="edge">
<title>node_0000015969d660a0&#45;&gt;node_0000015969d66070</title>
<path fill="none" stroke="#ff0000" d="M900.61,-223.52C921.25,-213.37 942.85,-202.74 963.76,-192.46"/>
<polygon fill="#ff0000" stroke="#ff0000" points="965.18,-195.67 972.61,-188.11 962.09,-189.38 965.18,-195.67"/>
</g>
<!-- 6 -->
<g id="node19" class="node">
<title>6</title>
<ellipse fill="#fe5656" stroke="#581845" cx="1284.25" cy="-18" rx="18" ry="18"/>
<text text-anchor="middle" x="1284.25" y="-12.95" font-family="Times New Roman,serif" font-size="14.00">6</text>
</g>
<!-- 5&#45;&gt;6 -->
<g id="edge25" class="edge">
<title>5&#45;&gt;6</title>
<path fill="none" stroke="white" d="M1271.14,-117C1263.02,-99.02 1261.83,-64.32 1267.55,-41.42"/>
<polygon fill="white" stroke="white" points="1270.82,-42.69 1270.69,-32.09 1264.18,-40.45 1270.82,-42.69"/>
</g>
<!-- 5&#45;&gt;6 -->
<g id="edge28" class="edge">
<title>5&#45;&gt;6</title>
<path fill="none" stroke="white" d="M1279.24,-112.08C1277.29,-94.74 1276.98,-67.28 1278.3,-46.68"/>
<polygon fill="white" stroke="white" points="1281.76,-47.24 1279.13,-36.97 1274.79,-46.64 1281.76,-47.24"/>
</g>
<!-- 5&#45;&gt;6 -->
<g id="edge29" class="edge">
<title>5&#45;&gt;6</title>
<path fill="none" stroke="white" d="M1289.26,-112.08C1291.21,-94.74 1291.52,-67.28 1290.2,-46.68"/>
<polygon fill="white" stroke="white" points="1293.71,-46.64 1289.37,-36.97 1286.74,-47.24 1293.71,-46.64"/>
</g>
<!-- 5&#45;&gt;6 -->
<g id="edge32" class="edge">
<title>5&#45;&gt;6</title>
<path fill="none" stroke="white" d="M1297.36,-117C1305.48,-99.02 1306.67,-64.32 1300.95,-41.42"/>
<polygon fill="white" stroke="white" points="1304.32,-40.45 1297.81,-32.09 1297.68,-42.69 1304.32,-40.45"/>
</g>
<!-- node_l_null_0000015969d66040 -->
<g id="node20" class="node">
<title>node_l_null_0000015969d66040</title>
<ellipse fill="#a2f0f8" stroke="#007cff" cx="715.25" cy="-18" rx="27.81" ry="18"/>
<text text-anchor="middle" x="715.25" y="-12.95" font-family="Times New Roman,serif" font-size="14.00"> null</text>
</g>
<!-- node_0000015969d66040&#45;&gt;node_l_null_0000015969d66040 -->
<g id="edge26" class="edge">
<title>node_0000015969d66040&#45;&gt;node_l_null_0000015969d66040</title>
<path fill="none" stroke="#007cff" d="M733.21,-72.27C730.21,-63.37 727.23,-54.54 724.59,-46.69"/>
<polygon fill="#007cff" stroke="#007cff" points="727.98,-45.81 721.47,-37.45 721.35,-48.05 727.98,-45.81"/>
</g>
<!-- node_r_null_0000015969d66040 -->
<g id="node21" class="node">
<title>node_r_null_0000015969d66040</title>
<ellipse fill="#a2f0f8" stroke="#007cff" cx="789.25" cy="-18" rx="27.81" ry="18"/>
<text text-anchor="middle" x="789.25" y="-12.95" font-family="Times New Roman,serif" font-size="14.00"> null</text>
</g>
<!-- node_0000015969d66040&#45;&gt;node_r_null_0000015969d66040 -->
<g id="edge27" class="edge">
<title>node_0000015969d66040&#45;&gt;node_r_null_0000015969d66040</title>
<path fill="none" stroke="#007cff" d="M771.29,-72.27C774.29,-63.37 777.27,-54.54 779.91,-46.69"/>
<polygon fill="#007cff" stroke="#007cff" points="783.15,-48.05 783.03,-37.45 776.52,-45.81 783.15,-48.05"/>
</g>
<!-- node_l_null_0000015969d66070 -->
<g id="node22" class="node">
<title>node_l_null_0000015969d66070</title>
<ellipse fill="#a2f0f8" stroke="#007cff" cx="1052.25" cy="-18" rx="27.81" ry="18"/>
<text text-anchor="middle" x="1052.25" y="-12.95" font-family="Times New Roman,serif" font-size="14.00"> null</text>
</g>
<!-- node_0000015969d66070&#45;&gt;node_l_null_0000015969d66070 -->
<g id="edge30" class="edge">
<title>node_0000015969d66070&#45;&gt;node_l_null_0000015969d66070</title>
<path fill="none" stroke="#007cff" d="M1070.21,-72.27C1067.21,-63.37 1064.23,-54.54 1061.59,-46.69"/>
<polygon fill="#007cff" stroke="#007cff" points="1064.98,-45.81 1058.47,-37.45 1058.35,-48.05 1064.98,-45.81"/>
</g>
<!-- node_r_null_0000015969d66070 -->
<g id="node23" class="node">
<title>node_r_null_0000015969d66070</title>
<ellipse fill="#a2f0f8" stroke="#007cff" cx="1126.25" cy="-18" rx="27.81" ry="18"/>
<text text-anchor="middle" x="1126.25" y="-12.95" font-family="Times New Roman,serif" font-size="14.00"> null</text>
</g>
<!-- node_0000015969d66070&#45;&gt;node_r_null_0000015969d66070 -->
<g id="edge31" class="edge">
<title>node_0000015969d66070&#45;&gt;node_r_null_0000015969d66070</title>
<path fill="none" stroke="#007cff" d="M1108.29,-72.27C1111.29,-63.37 1114.27,-54.54 1116.91,-46.69"/>
<polygon fill="#007cff" stroke="#007cff" points="1120.15,-48.05 1120.03,-37.45 1113.52,-45.81 1120.15,-48.05"/>
</g>
</g>
</svg>
