<?xml version="1.0" encoding="UTF-8" standalone="no"?>
<!DOCTYPE svg PUBLIC "-//W3C//DTD SVG 1.1//EN"
 "http://www.w3.org/Graphics/SVG/1.1/DTD/svg11.dtd">
<!-- Generated by graphviz version 12.2.0 (20241103.1931)
 -->
<!-- Pages: 1 -->
<svg width="1020pt" height="802pt"
 viewBox="0.00 0.00 1019.94 801.50" xmlns="http://www.w3.org/2000/svg" xmlns:xlink="http://www.w3.org/1999/xlink">
<g id="graph0" class="graph" transform="scale(1 1) rotate(0) translate(4 797.5)">
<polygon fill="white" stroke="none" points="-4,4 -4,-797.5 1015.94,-797.5 1015.94,4 -4,4"/>
<!-- node_000001b34e7561f0 -->
<g id="node1" class="node">
<title>node_000001b34e7561f0</title>
<path fill="#ecfd74" stroke="#ffc500" d="M182.25,-678.5C182.25,-678.5 472.25,-678.5 472.25,-678.5 478.25,-678.5 484.25,-684.5 484.25,-690.5 484.25,-690.5 484.25,-781 484.25,-781 484.25,-787 478.25,-793 472.25,-793 472.25,-793 182.25,-793 182.25,-793 176.25,-793 170.25,-787 170.25,-781 170.25,-781 170.25,-690.5 170.25,-690.5 170.25,-684.5 176.25,-678.5 182.25,-678.5"/>
<text text-anchor="middle" x="327.25" y="-775.7" font-family="Times New Roman,serif" font-size="14.00">addr: 000001b34e7561f0</text>
<polyline fill="none" stroke="#ffc500" points="170.25,-768.5 484.25,-768.5"/>
<text text-anchor="middle" x="327.25" y="-751.2" font-family="Times New Roman,serif" font-size="14.00">val = &#39;*&#39;</text>
<polyline fill="none" stroke="#ffc500" points="170.25,-744 484.25,-744"/>
<text text-anchor="middle" x="327.25" y="-726.7" font-family="Times New Roman,serif" font-size="14.00">type = OP</text>
<polyline fill="none" stroke="#ffc500" points="170.25,-719.5 484.25,-719.5"/>
<text text-anchor="middle" x="248.38" y="-702.2" font-family="Times New Roman,serif" font-size="14.00">L:</text>
<text text-anchor="middle" x="248.38" y="-685.7" font-family="Times New Roman,serif" font-size="14.00"> addr: 000001b34e756f60</text>
<polyline fill="none" stroke="#ffc500" points="326.5,-678.5 326.5,-719.5"/>
<text text-anchor="middle" x="405.38" y="-702.2" font-family="Times New Roman,serif" font-size="14.00">R: </text>
<text text-anchor="middle" x="405.38" y="-685.7" font-family="Times New Roman,serif" font-size="14.00"> addr: 000001b34e7561c0</text>
</g>
<!-- node_000001b34e756f60 -->
<g id="node4" class="node">
<title>node_000001b34e756f60</title>
<path fill="#ff5fe0" stroke="#d408ac" d="M12,-527C12,-527 306.5,-527 306.5,-527 312.5,-527 318.5,-533 318.5,-539 318.5,-539 318.5,-629.5 318.5,-629.5 318.5,-635.5 312.5,-641.5 306.5,-641.5 306.5,-641.5 12,-641.5 12,-641.5 6,-641.5 0,-635.5 0,-629.5 0,-629.5 0,-539 0,-539 0,-533 6,-527 12,-527"/>
<text text-anchor="middle" x="159.25" y="-624.2" font-family="Times New Roman,serif" font-size="14.00">addr: 000001b34e756f60</text>
<polyline fill="none" stroke="#d408ac" points="0,-617 318.5,-617"/>
<text text-anchor="middle" x="159.25" y="-599.7" font-family="Times New Roman,serif" font-size="14.00">val = &#39;x&#39;</text>
<polyline fill="none" stroke="#d408ac" points="0,-592.5 318.5,-592.5"/>
<text text-anchor="middle" x="159.25" y="-575.2" font-family="Times New Roman,serif" font-size="14.00">type = VAR</text>
<polyline fill="none" stroke="#d408ac" points="0,-568 318.5,-568"/>
<text text-anchor="middle" x="79.62" y="-550.7" font-family="Times New Roman,serif" font-size="14.00">L:</text>
<text text-anchor="middle" x="79.62" y="-534.2" font-family="Times New Roman,serif" font-size="14.00"> addr: 0000000000000000</text>
<polyline fill="none" stroke="#d408ac" points="159.25,-527 159.25,-568"/>
<text text-anchor="middle" x="238.88" y="-550.7" font-family="Times New Roman,serif" font-size="14.00">R: </text>
<text text-anchor="middle" x="238.88" y="-534.2" font-family="Times New Roman,serif" font-size="14.00"> addr: 0000000000000000</text>
</g>
<!-- node_000001b34e7561f0&#45;&gt;node_000001b34e756f60 -->
<g id="edge2" class="edge">
<title>node_000001b34e7561f0&#45;&gt;node_000001b34e756f60</title>
<path fill="none" stroke="#ff0000" d="M263.74,-678.23C253.18,-668.84 242.16,-659.03 231.41,-649.46"/>
<polygon fill="#ff0000" stroke="#ff0000" points="233.78,-646.89 223.98,-642.86 229.13,-652.12 233.78,-646.89"/>
</g>
<!-- node_000001b34e7561c0 -->
<g id="node5" class="node">
<title>node_000001b34e7561c0</title>
<path fill="#ecfd74" stroke="#ffc500" d="M348.75,-527C348.75,-527 641.75,-527 641.75,-527 647.75,-527 653.75,-533 653.75,-539 653.75,-539 653.75,-629.5 653.75,-629.5 653.75,-635.5 647.75,-641.5 641.75,-641.5 641.75,-641.5 348.75,-641.5 348.75,-641.5 342.75,-641.5 336.75,-635.5 336.75,-629.5 336.75,-629.5 336.75,-539 336.75,-539 336.75,-533 342.75,-527 348.75,-527"/>
<text text-anchor="middle" x="495.25" y="-624.2" font-family="Times New Roman,serif" font-size="14.00">addr: 000001b34e7561c0</text>
<polyline fill="none" stroke="#ffc500" points="336.75,-617 653.75,-617"/>
<text text-anchor="middle" x="495.25" y="-599.7" font-family="Times New Roman,serif" font-size="14.00">val = &#39;&#45;&#39;</text>
<polyline fill="none" stroke="#ffc500" points="336.75,-592.5 653.75,-592.5"/>
<text text-anchor="middle" x="495.25" y="-575.2" font-family="Times New Roman,serif" font-size="14.00">type = OP</text>
<polyline fill="none" stroke="#ffc500" points="336.75,-568 653.75,-568"/>
<text text-anchor="middle" x="416" y="-550.7" font-family="Times New Roman,serif" font-size="14.00">L:</text>
<text text-anchor="middle" x="416" y="-534.2" font-family="Times New Roman,serif" font-size="14.00"> addr: 000001b34e756160</text>
<polyline fill="none" stroke="#ffc500" points="495.25,-527 495.25,-568"/>
<text text-anchor="middle" x="574.5" y="-550.7" font-family="Times New Roman,serif" font-size="14.00">R: </text>
<text text-anchor="middle" x="574.5" y="-534.2" font-family="Times New Roman,serif" font-size="14.00"> addr: 000001b34e756190</text>
</g>
<!-- node_000001b34e7561f0&#45;&gt;node_000001b34e7561c0 -->
<g id="edge3" class="edge">
<title>node_000001b34e7561f0&#45;&gt;node_000001b34e7561c0</title>
<path fill="none" stroke="#ff0000" d="M390.76,-678.23C401.32,-668.84 412.34,-659.03 423.09,-649.46"/>
<polygon fill="#ff0000" stroke="#ff0000" points="425.37,-652.12 430.52,-642.86 420.72,-646.89 425.37,-652.12"/>
</g>
<!-- 1 -->
<g id="node2" class="node">
<title>1</title>
<ellipse fill="#fe5656" stroke="#581845" cx="991.25" cy="-735.75" rx="18" ry="18"/>
<text text-anchor="middle" x="991.25" y="-730.7" font-family="Times New Roman,serif" font-size="14.00">1</text>
</g>
<!-- 2 -->
<g id="node3" class="node">
<title>2</title>
<ellipse fill="#fe5656" stroke="#581845" cx="991.25" cy="-584.25" rx="18" ry="18"/>
<text text-anchor="middle" x="991.25" y="-579.2" font-family="Times New Roman,serif" font-size="14.00">2</text>
</g>
<!-- 1&#45;&gt;2 -->
<g id="edge1" class="edge">
<title>1&#45;&gt;2</title>
<path fill="none" stroke="white" d="M986.79,-717.89C984.09,-692.41 983.78,-643.8 985.86,-613.03"/>
<polygon fill="white" stroke="white" points="989.33,-613.59 986.69,-603.33 982.35,-612.99 989.33,-613.59"/>
</g>
<!-- 1&#45;&gt;2 -->
<g id="edge4" class="edge">
<title>1&#45;&gt;2</title>
<path fill="none" stroke="white" d="M995.71,-717.89C998.41,-692.41 998.72,-643.8 996.64,-613.03"/>
<polygon fill="white" stroke="white" points="1000.15,-612.99 995.81,-603.33 993.17,-613.59 1000.15,-612.99"/>
</g>
<!-- 3 -->
<g id="node6" class="node">
<title>3</title>
<ellipse fill="#fe5656" stroke="#581845" cx="991.25" cy="-432.75" rx="18" ry="18"/>
<text text-anchor="middle" x="991.25" y="-427.7" font-family="Times New Roman,serif" font-size="14.00">3</text>
</g>
<!-- 2&#45;&gt;3 -->
<g id="edge5" class="edge">
<title>2&#45;&gt;3</title>
<path fill="none" stroke="white" d="M979.21,-570.24C969.46,-545.05 968.4,-489.26 976,-457.35"/>
<polygon fill="white" stroke="white" points="979.33,-458.44 978.9,-447.86 972.64,-456.4 979.33,-458.44"/>
</g>
<!-- 2&#45;&gt;3 -->
<g id="edge8" class="edge">
<title>2&#45;&gt;3</title>
<path fill="none" stroke="white" d="M986.79,-566.39C984.09,-540.91 983.78,-492.3 985.86,-461.53"/>
<polygon fill="white" stroke="white" points="989.33,-462.09 986.69,-451.83 982.35,-461.49 989.33,-462.09"/>
</g>
<!-- 2&#45;&gt;3 -->
<g id="edge9" class="edge">
<title>2&#45;&gt;3</title>
<path fill="none" stroke="white" d="M995.71,-566.39C998.41,-540.91 998.72,-492.3 996.64,-461.53"/>
<polygon fill="white" stroke="white" points="1000.15,-461.49 995.81,-451.83 993.17,-462.09 1000.15,-461.49"/>
</g>
<!-- 2&#45;&gt;3 -->
<g id="edge12" class="edge">
<title>2&#45;&gt;3</title>
<path fill="none" stroke="white" d="M1003.29,-570.24C1013.04,-545.05 1014.1,-489.26 1006.5,-457.35"/>
<polygon fill="white" stroke="white" points="1009.86,-456.4 1003.6,-447.86 1003.17,-458.44 1009.86,-456.4"/>
</g>
<!-- node_l_null_000001b34e756f60 -->
<g id="node7" class="node">
<title>node_l_null_000001b34e756f60</title>
<ellipse fill="#a2f0f8" stroke="#007cff" cx="122.25" cy="-432.75" rx="27.81" ry="18"/>
<text text-anchor="middle" x="122.25" y="-427.7" font-family="Times New Roman,serif" font-size="14.00"> null</text>
</g>
<!-- node_000001b34e756f60&#45;&gt;node_l_null_000001b34e756f60 -->
<g id="edge6" class="edge">
<title>node_000001b34e756f60&#45;&gt;node_l_null_000001b34e756f60</title>
<path fill="none" stroke="#007cff" d="M145.26,-526.73C139.79,-504.62 133.76,-480.24 129.24,-461.99"/>
<polygon fill="#007cff" stroke="#007cff" points="132.68,-461.31 126.88,-452.44 125.88,-462.99 132.68,-461.31"/>
</g>
<!-- node_r_null_000001b34e756f60 -->
<g id="node8" class="node">
<title>node_r_null_000001b34e756f60</title>
<ellipse fill="#a2f0f8" stroke="#007cff" cx="196.25" cy="-432.75" rx="27.81" ry="18"/>
<text text-anchor="middle" x="196.25" y="-427.7" font-family="Times New Roman,serif" font-size="14.00"> null</text>
</g>
<!-- node_000001b34e756f60&#45;&gt;node_r_null_000001b34e756f60 -->
<g id="edge7" class="edge">
<title>node_000001b34e756f60&#45;&gt;node_r_null_000001b34e756f60</title>
<path fill="none" stroke="#007cff" d="M173.24,-526.73C178.71,-504.62 184.74,-480.24 189.26,-461.99"/>
<polygon fill="#007cff" stroke="#007cff" points="192.62,-462.99 191.62,-452.44 185.82,-461.31 192.62,-462.99"/>
</g>
<!-- node_000001b34e756160 -->
<g id="node9" class="node">
<title>node_000001b34e756160</title>
<path fill="#ecfd74" stroke="#ffc500" d="M301.88,-375.5C301.88,-375.5 592.62,-375.5 592.62,-375.5 598.62,-375.5 604.62,-381.5 604.62,-387.5 604.62,-387.5 604.62,-478 604.62,-478 604.62,-484 598.62,-490 592.62,-490 592.62,-490 301.88,-490 301.88,-490 295.88,-490 289.88,-484 289.88,-478 289.88,-478 289.88,-387.5 289.88,-387.5 289.88,-381.5 295.88,-375.5 301.88,-375.5"/>
<text text-anchor="middle" x="447.25" y="-472.7" font-family="Times New Roman,serif" font-size="14.00">addr: 000001b34e756160</text>
<polyline fill="none" stroke="#ffc500" points="289.88,-465.5 604.62,-465.5"/>
<text text-anchor="middle" x="447.25" y="-448.2" font-family="Times New Roman,serif" font-size="14.00">val = &#39;+&#39;</text>
<polyline fill="none" stroke="#ffc500" points="289.88,-441 604.62,-441"/>
<text text-anchor="middle" x="447.25" y="-423.7" font-family="Times New Roman,serif" font-size="14.00">type = OP</text>
<polyline fill="none" stroke="#ffc500" points="289.88,-416.5 604.62,-416.5"/>
<text text-anchor="middle" x="368" y="-399.2" font-family="Times New Roman,serif" font-size="14.00">L:</text>
<text text-anchor="middle" x="368" y="-382.7" font-family="Times New Roman,serif" font-size="14.00"> addr: 000001b34e756f90</text>
<polyline fill="none" stroke="#ffc500" points="446.12,-375.5 446.12,-416.5"/>
<text text-anchor="middle" x="525.38" y="-399.2" font-family="Times New Roman,serif" font-size="14.00">R: </text>
<text text-anchor="middle" x="525.38" y="-382.7" font-family="Times New Roman,serif" font-size="14.00"> addr: 000001b34e756130</text>
</g>
<!-- node_000001b34e7561c0&#45;&gt;node_000001b34e756160 -->
<g id="edge10" class="edge">
<title>node_000001b34e7561c0&#45;&gt;node_000001b34e756160</title>
<path fill="none" stroke="#ff0000" d="M477.1,-526.73C474.42,-518.36 471.62,-509.66 468.87,-501.1"/>
<polygon fill="#ff0000" stroke="#ff0000" points="472.27,-500.24 465.89,-491.79 465.61,-502.38 472.27,-500.24"/>
</g>
<!-- node_000001b34e756190 -->
<g id="node10" class="node">
<title>node_000001b34e756190</title>
<path fill="#a2f8a4" stroke="#18ca1c" d="M635,-375.5C635,-375.5 929.5,-375.5 929.5,-375.5 935.5,-375.5 941.5,-381.5 941.5,-387.5 941.5,-387.5 941.5,-478 941.5,-478 941.5,-484 935.5,-490 929.5,-490 929.5,-490 635,-490 635,-490 629,-490 623,-484 623,-478 623,-478 623,-387.5 623,-387.5 623,-381.5 629,-375.5 635,-375.5"/>
<text text-anchor="middle" x="782.25" y="-472.7" font-family="Times New Roman,serif" font-size="14.00">addr: 000001b34e756190</text>
<polyline fill="none" stroke="#18ca1c" points="623,-465.5 941.5,-465.5"/>
<text text-anchor="middle" x="782.25" y="-448.2" font-family="Times New Roman,serif" font-size="14.00">val = 6</text>
<polyline fill="none" stroke="#18ca1c" points="623,-441 941.5,-441"/>
<text text-anchor="middle" x="782.25" y="-423.7" font-family="Times New Roman,serif" font-size="14.00">type = NUM</text>
<polyline fill="none" stroke="#18ca1c" points="623,-416.5 941.5,-416.5"/>
<text text-anchor="middle" x="702.62" y="-399.2" font-family="Times New Roman,serif" font-size="14.00">L:</text>
<text text-anchor="middle" x="702.62" y="-382.7" font-family="Times New Roman,serif" font-size="14.00"> addr: 0000000000000000</text>
<polyline fill="none" stroke="#18ca1c" points="782.25,-375.5 782.25,-416.5"/>
<text text-anchor="middle" x="861.88" y="-399.2" font-family="Times New Roman,serif" font-size="14.00">R: </text>
<text text-anchor="middle" x="861.88" y="-382.7" font-family="Times New Roman,serif" font-size="14.00"> addr: 0000000000000000</text>
</g>
<!-- node_000001b34e7561c0&#45;&gt;node_000001b34e756190 -->
<g id="edge11" class="edge">
<title>node_000001b34e7561c0&#45;&gt;node_000001b34e756190</title>
<path fill="none" stroke="#ff0000" d="M604.16,-526.52C623.47,-516.46 643.67,-505.94 663.24,-495.74"/>
<polygon fill="#ff0000" stroke="#ff0000" points="664.82,-498.87 672.07,-491.14 661.58,-492.66 664.82,-498.87"/>
</g>
<!-- 4 -->
<g id="node11" class="node">
<title>4</title>
<ellipse fill="#fe5656" stroke="#581845" cx="991.25" cy="-281.25" rx="18" ry="18"/>
<text text-anchor="middle" x="991.25" y="-276.2" font-family="Times New Roman,serif" font-size="14.00">4</text>
</g>
<!-- 3&#45;&gt;4 -->
<g id="edge13" class="edge">
<title>3&#45;&gt;4</title>
<path fill="none" stroke="white" d="M979.21,-418.74C969.46,-393.55 968.4,-337.76 976,-305.85"/>
<polygon fill="white" stroke="white" points="979.33,-306.94 978.9,-296.36 972.64,-304.9 979.33,-306.94"/>
</g>
<!-- 3&#45;&gt;4 -->
<g id="edge16" class="edge">
<title>3&#45;&gt;4</title>
<path fill="none" stroke="white" d="M986.79,-414.89C984.09,-389.41 983.78,-340.8 985.86,-310.03"/>
<polygon fill="white" stroke="white" points="989.33,-310.59 986.69,-300.33 982.35,-309.99 989.33,-310.59"/>
</g>
<!-- 3&#45;&gt;4 -->
<g id="edge33" class="edge">
<title>3&#45;&gt;4</title>
<path fill="none" stroke="white" d="M995.71,-414.89C998.41,-389.41 998.72,-340.8 996.64,-310.03"/>
<polygon fill="white" stroke="white" points="1000.15,-309.99 995.81,-300.33 993.17,-310.59 1000.15,-309.99"/>
</g>
<!-- 3&#45;&gt;4 -->
<g id="edge36" class="edge">
<title>3&#45;&gt;4</title>
<path fill="none" stroke="white" d="M1003.29,-418.74C1013.04,-393.55 1014.1,-337.76 1006.5,-305.85"/>
<polygon fill="white" stroke="white" points="1009.86,-304.9 1003.6,-296.36 1003.17,-306.94 1009.86,-304.9"/>
</g>
<!-- node_000001b34e756f90 -->
<g id="node12" class="node">
<title>node_000001b34e756f90</title>
<path fill="#a2f8a4" stroke="#18ca1c" d="M23,-224C23,-224 317.5,-224 317.5,-224 323.5,-224 329.5,-230 329.5,-236 329.5,-236 329.5,-326.5 329.5,-326.5 329.5,-332.5 323.5,-338.5 317.5,-338.5 317.5,-338.5 23,-338.5 23,-338.5 17,-338.5 11,-332.5 11,-326.5 11,-326.5 11,-236 11,-236 11,-230 17,-224 23,-224"/>
<text text-anchor="middle" x="170.25" y="-321.2" font-family="Times New Roman,serif" font-size="14.00">addr: 000001b34e756f90</text>
<polyline fill="none" stroke="#18ca1c" points="11,-314 329.5,-314"/>
<text text-anchor="middle" x="170.25" y="-296.7" font-family="Times New Roman,serif" font-size="14.00">val = 1</text>
<polyline fill="none" stroke="#18ca1c" points="11,-289.5 329.5,-289.5"/>
<text text-anchor="middle" x="170.25" y="-272.2" font-family="Times New Roman,serif" font-size="14.00">type = NUM</text>
<polyline fill="none" stroke="#18ca1c" points="11,-265 329.5,-265"/>
<text text-anchor="middle" x="90.62" y="-247.7" font-family="Times New Roman,serif" font-size="14.00">L:</text>
<text text-anchor="middle" x="90.62" y="-231.2" font-family="Times New Roman,serif" font-size="14.00"> addr: 0000000000000000</text>
<polyline fill="none" stroke="#18ca1c" points="170.25,-224 170.25,-265"/>
<text text-anchor="middle" x="249.88" y="-247.7" font-family="Times New Roman,serif" font-size="14.00">R: </text>
<text text-anchor="middle" x="249.88" y="-231.2" font-family="Times New Roman,serif" font-size="14.00"> addr: 0000000000000000</text>
</g>
<!-- node_000001b34e756160&#45;&gt;node_000001b34e756f90 -->
<g id="edge14" class="edge">
<title>node_000001b34e756160&#45;&gt;node_000001b34e756f90</title>
<path fill="none" stroke="#ff0000" d="M342.13,-375.02C323.58,-365 304.18,-354.53 285.37,-344.38"/>
<polygon fill="#ff0000" stroke="#ff0000" points="287.09,-341.33 276.63,-339.66 283.76,-347.49 287.09,-341.33"/>
</g>
<!-- node_000001b34e756130 -->
<g id="node13" class="node">
<title>node_000001b34e756130</title>
<path fill="#ecfd74" stroke="#ffc500" d="M359.75,-224C359.75,-224 652.75,-224 652.75,-224 658.75,-224 664.75,-230 664.75,-236 664.75,-236 664.75,-326.5 664.75,-326.5 664.75,-332.5 658.75,-338.5 652.75,-338.5 652.75,-338.5 359.75,-338.5 359.75,-338.5 353.75,-338.5 347.75,-332.5 347.75,-326.5 347.75,-326.5 347.75,-236 347.75,-236 347.75,-230 353.75,-224 359.75,-224"/>
<text text-anchor="middle" x="506.25" y="-321.2" font-family="Times New Roman,serif" font-size="14.00">addr: 000001b34e756130</text>
<polyline fill="none" stroke="#ffc500" points="347.75,-314 664.75,-314"/>
<text text-anchor="middle" x="506.25" y="-296.7" font-family="Times New Roman,serif" font-size="14.00">val = &#39;*&#39;</text>
<polyline fill="none" stroke="#ffc500" points="347.75,-289.5 664.75,-289.5"/>
<text text-anchor="middle" x="506.25" y="-272.2" font-family="Times New Roman,serif" font-size="14.00">type = OP</text>
<polyline fill="none" stroke="#ffc500" points="347.75,-265 664.75,-265"/>
<text text-anchor="middle" x="427" y="-247.7" font-family="Times New Roman,serif" font-size="14.00">L:</text>
<text text-anchor="middle" x="427" y="-231.2" font-family="Times New Roman,serif" font-size="14.00"> addr: 000001b34e7560d0</text>
<polyline fill="none" stroke="#ffc500" points="506.25,-224 506.25,-265"/>
<text text-anchor="middle" x="585.5" y="-247.7" font-family="Times New Roman,serif" font-size="14.00">R: </text>
<text text-anchor="middle" x="585.5" y="-231.2" font-family="Times New Roman,serif" font-size="14.00"> addr: 000001b34e756100</text>
</g>
<!-- node_000001b34e756160&#45;&gt;node_000001b34e756130 -->
<g id="edge15" class="edge">
<title>node_000001b34e756160&#45;&gt;node_000001b34e756130</title>
<path fill="none" stroke="#ff0000" d="M469.56,-375.23C472.9,-366.77 476.37,-357.97 479.78,-349.31"/>
<polygon fill="#ff0000" stroke="#ff0000" points="482.94,-350.84 483.36,-340.26 476.43,-348.27 482.94,-350.84"/>
</g>
<!-- node_l_null_000001b34e756190 -->
<g id="node24" class="node">
<title>node_l_null_000001b34e756190</title>
<ellipse fill="#a2f0f8" stroke="#007cff" cx="738.25" cy="-281.25" rx="27.81" ry="18"/>
<text text-anchor="middle" x="738.25" y="-276.2" font-family="Times New Roman,serif" font-size="14.00"> null</text>
</g>
<!-- node_000001b34e756190&#45;&gt;node_l_null_000001b34e756190 -->
<g id="edge34" class="edge">
<title>node_000001b34e756190&#45;&gt;node_l_null_000001b34e756190</title>
<path fill="none" stroke="#007cff" d="M765.62,-375.23C759.07,-352.98 751.84,-328.44 746.46,-310.16"/>
<polygon fill="#007cff" stroke="#007cff" points="749.83,-309.19 743.65,-300.59 743.11,-311.17 749.83,-309.19"/>
</g>
<!-- node_r_null_000001b34e756190 -->
<g id="node25" class="node">
<title>node_r_null_000001b34e756190</title>
<ellipse fill="#a2f0f8" stroke="#007cff" cx="812.25" cy="-281.25" rx="27.81" ry="18"/>
<text text-anchor="middle" x="812.25" y="-276.2" font-family="Times New Roman,serif" font-size="14.00"> null</text>
</g>
<!-- node_000001b34e756190&#45;&gt;node_r_null_000001b34e756190 -->
<g id="edge35" class="edge">
<title>node_000001b34e756190&#45;&gt;node_r_null_000001b34e756190</title>
<path fill="none" stroke="#007cff" d="M793.59,-375.23C798.01,-353.22 802.87,-328.97 806.53,-310.75"/>
<polygon fill="#007cff" stroke="#007cff" points="809.96,-311.45 808.5,-300.96 803.1,-310.07 809.96,-311.45"/>
</g>
<!-- 5 -->
<g id="node14" class="node">
<title>5</title>
<ellipse fill="#fe5656" stroke="#581845" cx="991.25" cy="-129.75" rx="18" ry="18"/>
<text text-anchor="middle" x="991.25" y="-124.7" font-family="Times New Roman,serif" font-size="14.00">5</text>
</g>
<!-- 4&#45;&gt;5 -->
<g id="edge17" class="edge">
<title>4&#45;&gt;5</title>
<path fill="none" stroke="white" d="M979.21,-267.24C969.46,-242.05 968.4,-186.26 976,-154.35"/>
<polygon fill="white" stroke="white" points="979.33,-155.44 978.9,-144.86 972.64,-153.4 979.33,-155.44"/>
</g>
<!-- 4&#45;&gt;5 -->
<g id="edge20" class="edge">
<title>4&#45;&gt;5</title>
<path fill="none" stroke="white" d="M986.79,-263.39C984.09,-237.91 983.78,-189.3 985.86,-158.53"/>
<polygon fill="white" stroke="white" points="989.33,-159.09 986.69,-148.83 982.35,-158.49 989.33,-159.09"/>
</g>
<!-- 4&#45;&gt;5 -->
<g id="edge21" class="edge">
<title>4&#45;&gt;5</title>
<path fill="none" stroke="white" d="M995.71,-263.39C998.41,-237.91 998.72,-189.3 996.64,-158.53"/>
<polygon fill="white" stroke="white" points="1000.15,-158.49 995.81,-148.83 993.17,-159.09 1000.15,-158.49"/>
</g>
<!-- 4&#45;&gt;5 -->
<g id="edge24" class="edge">
<title>4&#45;&gt;5</title>
<path fill="none" stroke="white" d="M1003.29,-267.24C1013.04,-242.05 1014.1,-186.26 1006.5,-154.35"/>
<polygon fill="white" stroke="white" points="1009.86,-153.4 1003.6,-144.86 1003.17,-155.44 1009.86,-153.4"/>
</g>
<!-- node_l_null_000001b34e756f90 -->
<g id="node15" class="node">
<title>node_l_null_000001b34e756f90</title>
<ellipse fill="#a2f0f8" stroke="#007cff" cx="126.25" cy="-129.75" rx="27.81" ry="18"/>
<text text-anchor="middle" x="126.25" y="-124.7" font-family="Times New Roman,serif" font-size="14.00"> null</text>
</g>
<!-- node_000001b34e756f90&#45;&gt;node_l_null_000001b34e756f90 -->
<g id="edge18" class="edge">
<title>node_000001b34e756f90&#45;&gt;node_l_null_000001b34e756f90</title>
<path fill="none" stroke="#007cff" d="M153.62,-223.73C147.07,-201.48 139.84,-176.94 134.46,-158.66"/>
<polygon fill="#007cff" stroke="#007cff" points="137.83,-157.69 131.65,-149.09 131.11,-159.67 137.83,-157.69"/>
</g>
<!-- node_r_null_000001b34e756f90 -->
<g id="node16" class="node">
<title>node_r_null_000001b34e756f90</title>
<ellipse fill="#a2f0f8" stroke="#007cff" cx="200.25" cy="-129.75" rx="27.81" ry="18"/>
<text text-anchor="middle" x="200.25" y="-124.7" font-family="Times New Roman,serif" font-size="14.00"> null</text>
</g>
<!-- node_000001b34e756f90&#45;&gt;node_r_null_000001b34e756f90 -->
<g id="edge19" class="edge">
<title>node_000001b34e756f90&#45;&gt;node_r_null_000001b34e756f90</title>
<path fill="none" stroke="#007cff" d="M181.59,-223.73C186.01,-201.72 190.87,-177.47 194.53,-159.25"/>
<polygon fill="#007cff" stroke="#007cff" points="197.96,-159.95 196.5,-149.46 191.1,-158.57 197.96,-159.95"/>
</g>
<!-- node_000001b34e7560d0 -->
<g id="node17" class="node">
<title>node_000001b34e7560d0</title>
<path fill="#a2f8a4" stroke="#18ca1c" d="M294,-72.5C294,-72.5 588.5,-72.5 588.5,-72.5 594.5,-72.5 600.5,-78.5 600.5,-84.5 600.5,-84.5 600.5,-175 600.5,-175 600.5,-181 594.5,-187 588.5,-187 588.5,-187 294,-187 294,-187 288,-187 282,-181 282,-175 282,-175 282,-84.5 282,-84.5 282,-78.5 288,-72.5 294,-72.5"/>
<text text-anchor="middle" x="441.25" y="-169.7" font-family="Times New Roman,serif" font-size="14.00">addr: 000001b34e7560d0</text>
<polyline fill="none" stroke="#18ca1c" points="282,-162.5 600.5,-162.5"/>
<text text-anchor="middle" x="441.25" y="-145.2" font-family="Times New Roman,serif" font-size="14.00">val = 2</text>
<polyline fill="none" stroke="#18ca1c" points="282,-138 600.5,-138"/>
<text text-anchor="middle" x="441.25" y="-120.7" font-family="Times New Roman,serif" font-size="14.00">type = NUM</text>
<polyline fill="none" stroke="#18ca1c" points="282,-113.5 600.5,-113.5"/>
<text text-anchor="middle" x="361.62" y="-96.2" font-family="Times New Roman,serif" font-size="14.00">L:</text>
<text text-anchor="middle" x="361.62" y="-79.7" font-family="Times New Roman,serif" font-size="14.00"> addr: 0000000000000000</text>
<polyline fill="none" stroke="#18ca1c" points="441.25,-72.5 441.25,-113.5"/>
<text text-anchor="middle" x="520.88" y="-96.2" font-family="Times New Roman,serif" font-size="14.00">R: </text>
<text text-anchor="middle" x="520.88" y="-79.7" font-family="Times New Roman,serif" font-size="14.00"> addr: 0000000000000000</text>
</g>
<!-- node_000001b34e756130&#45;&gt;node_000001b34e7560d0 -->
<g id="edge22" class="edge">
<title>node_000001b34e756130&#45;&gt;node_000001b34e7560d0</title>
<path fill="none" stroke="#ff0000" d="M481.68,-223.73C478,-215.27 474.17,-206.47 470.41,-197.81"/>
<polygon fill="#ff0000" stroke="#ff0000" points="473.66,-196.51 466.46,-188.74 467.24,-199.3 473.66,-196.51"/>
</g>
<!-- node_000001b34e756100 -->
<g id="node18" class="node">
<title>node_000001b34e756100</title>
<path fill="#a2f8a4" stroke="#18ca1c" d="M631,-72.5C631,-72.5 925.5,-72.5 925.5,-72.5 931.5,-72.5 937.5,-78.5 937.5,-84.5 937.5,-84.5 937.5,-175 937.5,-175 937.5,-181 931.5,-187 925.5,-187 925.5,-187 631,-187 631,-187 625,-187 619,-181 619,-175 619,-175 619,-84.5 619,-84.5 619,-78.5 625,-72.5 631,-72.5"/>
<text text-anchor="middle" x="778.25" y="-169.7" font-family="Times New Roman,serif" font-size="14.00">addr: 000001b34e756100</text>
<polyline fill="none" stroke="#18ca1c" points="619,-162.5 937.5,-162.5"/>
<text text-anchor="middle" x="778.25" y="-145.2" font-family="Times New Roman,serif" font-size="14.00">val = 7</text>
<polyline fill="none" stroke="#18ca1c" points="619,-138 937.5,-138"/>
<text text-anchor="middle" x="778.25" y="-120.7" font-family="Times New Roman,serif" font-size="14.00">type = NUM</text>
<polyline fill="none" stroke="#18ca1c" points="619,-113.5 937.5,-113.5"/>
<text text-anchor="middle" x="698.62" y="-96.2" font-family="Times New Roman,serif" font-size="14.00">L:</text>
<text text-anchor="middle" x="698.62" y="-79.7" font-family="Times New Roman,serif" font-size="14.00"> addr: 0000000000000000</text>
<polyline fill="none" stroke="#18ca1c" points="778.25,-72.5 778.25,-113.5"/>
<text text-anchor="middle" x="857.88" y="-96.2" font-family="Times New Roman,serif" font-size="14.00">R: </text>
<text text-anchor="middle" x="857.88" y="-79.7" font-family="Times New Roman,serif" font-size="14.00"> addr: 0000000000000000</text>
</g>
<!-- node_000001b34e756130&#45;&gt;node_000001b34e756100 -->
<g id="edge23" class="edge">
<title>node_000001b34e756130&#45;&gt;node_000001b34e756100</title>
<path fill="none" stroke="#ff0000" d="M609.47,-223.52C627.69,-213.5 646.74,-203.03 665.21,-192.88"/>
<polygon fill="#ff0000" stroke="#ff0000" points="666.7,-196.06 673.77,-188.17 663.33,-189.92 666.7,-196.06"/>
</g>
<!-- 6 -->
<g id="node19" class="node">
<title>6</title>
<ellipse fill="#fe5656" stroke="#581845" cx="991.25" cy="-18" rx="18" ry="18"/>
<text text-anchor="middle" x="991.25" y="-12.95" font-family="Times New Roman,serif" font-size="14.00">6</text>
</g>
<!-- 5&#45;&gt;6 -->
<g id="edge25" class="edge">
<title>5&#45;&gt;6</title>
<path fill="none" stroke="white" d="M978.14,-117C970.02,-99.02 968.83,-64.32 974.55,-41.42"/>
<polygon fill="white" stroke="white" points="977.82,-42.69 977.69,-32.09 971.18,-40.45 977.82,-42.69"/>
</g>
<!-- 5&#45;&gt;6 -->
<g id="edge28" class="edge">
<title>5&#45;&gt;6</title>
<path fill="none" stroke="white" d="M986.24,-112.08C984.29,-94.74 983.98,-67.28 985.3,-46.68"/>
<polygon fill="white" stroke="white" points="988.76,-47.24 986.13,-36.97 981.79,-46.64 988.76,-47.24"/>
</g>
<!-- 5&#45;&gt;6 -->
<g id="edge29" class="edge">
<title>5&#45;&gt;6</title>
<path fill="none" stroke="white" d="M996.26,-112.08C998.21,-94.74 998.52,-67.28 997.2,-46.68"/>
<polygon fill="white" stroke="white" points="1000.71,-46.64 996.37,-36.97 993.74,-47.24 1000.71,-46.64"/>
</g>
<!-- 5&#45;&gt;6 -->
<g id="edge32" class="edge">
<title>5&#45;&gt;6</title>
<path fill="none" stroke="white" d="M1004.36,-117C1012.48,-99.02 1013.67,-64.32 1007.95,-41.42"/>
<polygon fill="white" stroke="white" points="1011.32,-40.45 1004.81,-32.09 1004.68,-42.69 1011.32,-40.45"/>
</g>
<!-- node_l_null_000001b34e7560d0 -->
<g id="node20" class="node">
<title>node_l_null_000001b34e7560d0</title>
<ellipse fill="#a2f0f8" stroke="#007cff" cx="404.25" cy="-18" rx="27.81" ry="18"/>
<text text-anchor="middle" x="404.25" y="-12.95" font-family="Times New Roman,serif" font-size="14.00"> null</text>
</g>
<!-- node_000001b34e7560d0&#45;&gt;node_l_null_000001b34e7560d0 -->
<g id="edge26" class="edge">
<title>node_000001b34e7560d0&#45;&gt;node_l_null_000001b34e7560d0</title>
<path fill="none" stroke="#007cff" d="M422.21,-72.27C419.21,-63.37 416.23,-54.54 413.59,-46.69"/>
<polygon fill="#007cff" stroke="#007cff" points="416.98,-45.81 410.47,-37.45 410.35,-48.05 416.98,-45.81"/>
</g>
<!-- node_r_null_000001b34e7560d0 -->
<g id="node21" class="node">
<title>node_r_null_000001b34e7560d0</title>
<ellipse fill="#a2f0f8" stroke="#007cff" cx="478.25" cy="-18" rx="27.81" ry="18"/>
<text text-anchor="middle" x="478.25" y="-12.95" font-family="Times New Roman,serif" font-size="14.00"> null</text>
</g>
<!-- node_000001b34e7560d0&#45;&gt;node_r_null_000001b34e7560d0 -->
<g id="edge27" class="edge">
<title>node_000001b34e7560d0&#45;&gt;node_r_null_000001b34e7560d0</title>
<path fill="none" stroke="#007cff" d="M460.29,-72.27C463.29,-63.37 466.27,-54.54 468.91,-46.69"/>
<polygon fill="#007cff" stroke="#007cff" points="472.15,-48.05 472.03,-37.45 465.52,-45.81 472.15,-48.05"/>
</g>
<!-- node_l_null_000001b34e756100 -->
<g id="node22" class="node">
<title>node_l_null_000001b34e756100</title>
<ellipse fill="#a2f0f8" stroke="#007cff" cx="741.25" cy="-18" rx="27.81" ry="18"/>
<text text-anchor="middle" x="741.25" y="-12.95" font-family="Times New Roman,serif" font-size="14.00"> null</text>
</g>
<!-- node_000001b34e756100&#45;&gt;node_l_null_000001b34e756100 -->
<g id="edge30" class="edge">
<title>node_000001b34e756100&#45;&gt;node_l_null_000001b34e756100</title>
<path fill="none" stroke="#007cff" d="M759.21,-72.27C756.21,-63.37 753.23,-54.54 750.59,-46.69"/>
<polygon fill="#007cff" stroke="#007cff" points="753.98,-45.81 747.47,-37.45 747.35,-48.05 753.98,-45.81"/>
</g>
<!-- node_r_null_000001b34e756100 -->
<g id="node23" class="node">
<title>node_r_null_000001b34e756100</title>
<ellipse fill="#a2f0f8" stroke="#007cff" cx="815.25" cy="-18" rx="27.81" ry="18"/>
<text text-anchor="middle" x="815.25" y="-12.95" font-family="Times New Roman,serif" font-size="14.00"> null</text>
</g>
<!-- node_000001b34e756100&#45;&gt;node_r_null_000001b34e756100 -->
<g id="edge31" class="edge">
<title>node_000001b34e756100&#45;&gt;node_r_null_000001b34e756100</title>
<path fill="none" stroke="#007cff" d="M797.29,-72.27C800.29,-63.37 803.27,-54.54 805.91,-46.69"/>
<polygon fill="#007cff" stroke="#007cff" points="809.15,-48.05 809.03,-37.45 802.52,-45.81 809.15,-48.05"/>
</g>
</g>
</svg>
