<?xml version="1.0" encoding="UTF-8" standalone="no"?>
<!DOCTYPE svg PUBLIC "-//W3C//DTD SVG 1.1//EN"
 "http://www.w3.org/Graphics/SVG/1.1/DTD/svg11.dtd">
<!-- Generated by graphviz version 12.2.0 (20241103.1931)
 -->
<!-- Pages: 1 -->
<svg width="565pt" height="163pt"
 viewBox="0.00 0.00 565.38 163.00" xmlns="http://www.w3.org/2000/svg" xmlns:xlink="http://www.w3.org/1999/xlink">
<g id="graph0" class="graph" transform="scale(1 1) rotate(0) translate(4 159)">
<polygon fill="white" stroke="none" points="-4,4 -4,-159 561.38,-159 561.38,4 -4,4"/>
<!-- node0000026c120060b0 -->
<g id="node1" class="node">
<title>node0000026c120060b0</title>
<path fill="#a2f8a4" stroke="#004b00" d="M12,-72.5C12,-72.5 306.5,-72.5 306.5,-72.5 312.5,-72.5 318.5,-78.5 318.5,-84.5 318.5,-84.5 318.5,-142.5 318.5,-142.5 318.5,-148.5 312.5,-154.5 306.5,-154.5 306.5,-154.5 12,-154.5 12,-154.5 6,-154.5 0,-148.5 0,-142.5 0,-142.5 0,-84.5 0,-84.5 0,-78.5 6,-72.5 12,-72.5"/>
<text text-anchor="middle" x="159.25" y="-137.2" font-family="Times New Roman,serif" font-size="14.00">data = 333.000000 </text>
<text text-anchor="middle" x="159.25" y="-120.7" font-family="Times New Roman,serif" font-size="14.00"> addr: 0000026c120060b0</text>
<polyline fill="none" stroke="#004b00" points="0,-113.5 318.5,-113.5"/>
<text text-anchor="middle" x="79.62" y="-96.2" font-family="Times New Roman,serif" font-size="14.00">L:</text>
<text text-anchor="middle" x="79.62" y="-79.7" font-family="Times New Roman,serif" font-size="14.00"> addr: 0000000000000000</text>
<polyline fill="none" stroke="#004b00" points="159.25,-72.5 159.25,-113.5"/>
<text text-anchor="middle" x="238.88" y="-96.2" font-family="Times New Roman,serif" font-size="14.00">R: </text>
<text text-anchor="middle" x="238.88" y="-79.7" font-family="Times New Roman,serif" font-size="14.00"> addr: 0000000000000000</text>
</g>
<!-- 1 -->
<g id="node2" class="node">
<title>1</title>
<ellipse fill="#fe5656" stroke="#581804" cx="354.25" cy="-113.5" rx="18" ry="18"/>
<text text-anchor="middle" x="354.25" y="-108.45" font-family="Times New Roman,serif" font-size="14.00">1</text>
</g>
<!-- 2 -->
<g id="node3" class="node">
<title>2</title>
<ellipse fill="#fe5656" stroke="#581804" cx="354.25" cy="-18" rx="18" ry="18"/>
<text text-anchor="middle" x="354.25" y="-12.95" font-family="Times New Roman,serif" font-size="14.00">2</text>
</g>
<!-- 1&#45;&gt;2 -->
<g id="edge1" class="edge">
<title>1&#45;&gt;2</title>
<path fill="none" stroke="white" d="M348.93,-95.78C347.41,-82.22 347.1,-62.81 348.01,-46.9"/>
<polygon fill="white" stroke="white" points="351.49,-47.33 348.83,-37.08 344.51,-46.76 351.49,-47.33"/>
</g>
<!-- 1&#45;&gt;2 -->
<g id="edge4" class="edge">
<title>1&#45;&gt;2</title>
<path fill="none" stroke="white" d="M359.57,-95.78C361.09,-82.22 361.4,-62.81 360.49,-46.9"/>
<polygon fill="white" stroke="white" points="363.99,-46.76 359.67,-37.08 357.01,-47.33 363.99,-46.76"/>
</g>
<!-- node_l_null_0000026c120060b0 -->
<g id="node4" class="node">
<title>node_l_null_0000026c120060b0</title>
<ellipse fill="#a2f0f8" stroke="#007cff" cx="417.25" cy="-18" rx="27" ry="18"/>
<text text-anchor="middle" x="417.25" y="-12.95" font-family="Times New Roman,serif" font-size="14.00">null</text>
</g>
<!-- node_0000026c120060b0 -->
<g id="node5" class="node">
<title>node_0000026c120060b0</title>
<polygon fill="#a2f0f8" stroke="#007cff" points="557.38,-131.5 401.12,-131.5 401.12,-95.5 557.38,-95.5 557.38,-131.5"/>
<text text-anchor="middle" x="479.25" y="-108.45" font-family="Times New Roman,serif" font-size="14.00">node_0000026c120060b0</text>
</g>
<!-- node_0000026c120060b0&#45;&gt;node_l_null_0000026c120060b0 -->
<g id="edge2" class="edge">
<title>node_0000026c120060b0&#45;&gt;node_l_null_0000026c120060b0</title>
<path fill="none" stroke="#007cff" d="M467.88,-95.35C458.38,-81.03 444.71,-60.42 433.97,-44.22"/>
<polygon fill="#007cff" stroke="#007cff" points="437,-42.46 428.56,-36.06 431.17,-46.32 437,-42.46"/>
</g>
<!-- node_r_null_0000026c120060b0 -->
<g id="node6" class="node">
<title>node_r_null_0000026c120060b0</title>
<ellipse fill="#a2f0f8" stroke="#007cff" cx="490.25" cy="-18" rx="27.81" ry="18"/>
<text text-anchor="middle" x="490.25" y="-12.95" font-family="Times New Roman,serif" font-size="14.00"> null</text>
</g>
<!-- node_0000026c120060b0&#45;&gt;node_r_null_0000026c120060b0 -->
<g id="edge3" class="edge">
<title>node_0000026c120060b0&#45;&gt;node_r_null_0000026c120060b0</title>
<path fill="none" stroke="#007cff" d="M481.27,-95.35C482.84,-81.99 485.06,-63.15 486.89,-47.53"/>
<polygon fill="#007cff" stroke="#007cff" points="490.34,-48.2 488.03,-37.86 483.39,-47.38 490.34,-48.2"/>
</g>
</g>
</svg>
