<?xml version="1.0" encoding="UTF-8" standalone="no"?>
<!DOCTYPE svg PUBLIC "-//W3C//DTD SVG 1.1//EN"
 "http://www.w3.org/Graphics/SVG/1.1/DTD/svg11.dtd">
<!-- Generated by graphviz version 12.2.0 (20241103.1931)
 -->
<!-- Pages: 1 -->
<svg width="2263pt" height="802pt"
 viewBox="0.00 0.00 2262.67 801.50" xmlns="http://www.w3.org/2000/svg" xmlns:xlink="http://www.w3.org/1999/xlink">
<g id="graph0" class="graph" transform="scale(1 1) rotate(0) translate(4 797.5)">
<polygon fill="white" stroke="none" points="-4,4 -4,-797.5 2258.67,-797.5 2258.67,4 -4,4"/>
<!-- node_0000016006f39660 -->
<g id="node1" class="node">
<title>node_0000016006f39660</title>
<path fill="#ecfd74" stroke="#ffc500" d="M621.25,-678.5C621.25,-678.5 911.25,-678.5 911.25,-678.5 917.25,-678.5 923.25,-684.5 923.25,-690.5 923.25,-690.5 923.25,-781 923.25,-781 923.25,-787 917.25,-793 911.25,-793 911.25,-793 621.25,-793 621.25,-793 615.25,-793 609.25,-787 609.25,-781 609.25,-781 609.25,-690.5 609.25,-690.5 609.25,-684.5 615.25,-678.5 621.25,-678.5"/>
<text text-anchor="middle" x="766.25" y="-775.7" font-family="Times New Roman,serif" font-size="14.00">addr: 0000016006f39660</text>
<polyline fill="none" stroke="#ffc500" points="609.25,-768.5 923.25,-768.5"/>
<text text-anchor="middle" x="766.25" y="-751.2" font-family="Times New Roman,serif" font-size="14.00">val = &#39;*&#39;</text>
<polyline fill="none" stroke="#ffc500" points="609.25,-744 923.25,-744"/>
<text text-anchor="middle" x="766.25" y="-726.7" font-family="Times New Roman,serif" font-size="14.00">type = OP</text>
<polyline fill="none" stroke="#ffc500" points="609.25,-719.5 923.25,-719.5"/>
<text text-anchor="middle" x="687.75" y="-702.2" font-family="Times New Roman,serif" font-size="14.00">L:</text>
<text text-anchor="middle" x="687.75" y="-685.7" font-family="Times New Roman,serif" font-size="14.00"> addr: 0000016006f39540</text>
<polyline fill="none" stroke="#ffc500" points="766.25,-678.5 766.25,-719.5"/>
<text text-anchor="middle" x="844.75" y="-702.2" font-family="Times New Roman,serif" font-size="14.00">R: </text>
<text text-anchor="middle" x="844.75" y="-685.7" font-family="Times New Roman,serif" font-size="14.00"> addr: 0000016006f39630</text>
</g>
<!-- node_0000016006f39540 -->
<g id="node4" class="node">
<title>node_0000016006f39540</title>
<path fill="#ecfd74" stroke="#ffc500" d="M351.25,-527C351.25,-527 641.25,-527 641.25,-527 647.25,-527 653.25,-533 653.25,-539 653.25,-539 653.25,-629.5 653.25,-629.5 653.25,-635.5 647.25,-641.5 641.25,-641.5 641.25,-641.5 351.25,-641.5 351.25,-641.5 345.25,-641.5 339.25,-635.5 339.25,-629.5 339.25,-629.5 339.25,-539 339.25,-539 339.25,-533 345.25,-527 351.25,-527"/>
<text text-anchor="middle" x="496.25" y="-624.2" font-family="Times New Roman,serif" font-size="14.00">addr: 0000016006f39540</text>
<polyline fill="none" stroke="#ffc500" points="339.25,-617 653.25,-617"/>
<text text-anchor="middle" x="496.25" y="-599.7" font-family="Times New Roman,serif" font-size="14.00">val = &#39;^&#39;</text>
<polyline fill="none" stroke="#ffc500" points="339.25,-592.5 653.25,-592.5"/>
<text text-anchor="middle" x="496.25" y="-575.2" font-family="Times New Roman,serif" font-size="14.00">type = OP</text>
<polyline fill="none" stroke="#ffc500" points="339.25,-568 653.25,-568"/>
<text text-anchor="middle" x="417.75" y="-550.7" font-family="Times New Roman,serif" font-size="14.00">L:</text>
<text text-anchor="middle" x="417.75" y="-534.2" font-family="Times New Roman,serif" font-size="14.00"> addr: 0000016006f39870</text>
<polyline fill="none" stroke="#ffc500" points="496.25,-527 496.25,-568"/>
<text text-anchor="middle" x="574.75" y="-550.7" font-family="Times New Roman,serif" font-size="14.00">R: </text>
<text text-anchor="middle" x="574.75" y="-534.2" font-family="Times New Roman,serif" font-size="14.00"> addr: 0000016006f39570</text>
</g>
<!-- node_0000016006f39660&#45;&gt;node_0000016006f39540 -->
<g id="edge2" class="edge">
<title>node_0000016006f39660&#45;&gt;node_0000016006f39540</title>
<path fill="none" stroke="#ff0000" d="M663.79,-678.02C645.71,-668 626.8,-657.53 608.46,-647.38"/>
<polygon fill="#ff0000" stroke="#ff0000" points="610.41,-644.46 599.96,-642.68 607.02,-650.58 610.41,-644.46"/>
</g>
<!-- node_0000016006f39630 -->
<g id="node5" class="node">
<title>node_0000016006f39630</title>
<path fill="#ecfd74" stroke="#ffc500" d="M788.25,-527C788.25,-527 1078.25,-527 1078.25,-527 1084.25,-527 1090.25,-533 1090.25,-539 1090.25,-539 1090.25,-629.5 1090.25,-629.5 1090.25,-635.5 1084.25,-641.5 1078.25,-641.5 1078.25,-641.5 788.25,-641.5 788.25,-641.5 782.25,-641.5 776.25,-635.5 776.25,-629.5 776.25,-629.5 776.25,-539 776.25,-539 776.25,-533 782.25,-527 788.25,-527"/>
<text text-anchor="middle" x="933.25" y="-624.2" font-family="Times New Roman,serif" font-size="14.00">addr: 0000016006f39630</text>
<polyline fill="none" stroke="#ffc500" points="776.25,-617 1090.25,-617"/>
<text text-anchor="middle" x="933.25" y="-599.7" font-family="Times New Roman,serif" font-size="14.00">val = &#39;+&#39;</text>
<polyline fill="none" stroke="#ffc500" points="776.25,-592.5 1090.25,-592.5"/>
<text text-anchor="middle" x="933.25" y="-575.2" font-family="Times New Roman,serif" font-size="14.00">type = OP</text>
<polyline fill="none" stroke="#ffc500" points="776.25,-568 1090.25,-568"/>
<text text-anchor="middle" x="854.75" y="-550.7" font-family="Times New Roman,serif" font-size="14.00">L:</text>
<text text-anchor="middle" x="854.75" y="-534.2" font-family="Times New Roman,serif" font-size="14.00"> addr: 0000016006f39510</text>
<polyline fill="none" stroke="#ffc500" points="933.25,-527 933.25,-568"/>
<text text-anchor="middle" x="1011.75" y="-550.7" font-family="Times New Roman,serif" font-size="14.00">R: </text>
<text text-anchor="middle" x="1011.75" y="-534.2" font-family="Times New Roman,serif" font-size="14.00"> addr: 0000016006f39460</text>
</g>
<!-- node_0000016006f39660&#45;&gt;node_0000016006f39630 -->
<g id="edge3" class="edge">
<title>node_0000016006f39660&#45;&gt;node_0000016006f39630</title>
<path fill="none" stroke="#ff0000" d="M829.39,-678.23C839.88,-668.84 850.83,-659.03 861.52,-649.46"/>
<polygon fill="#ff0000" stroke="#ff0000" points="863.78,-652.14 868.9,-642.86 859.11,-646.92 863.78,-652.14"/>
</g>
<!-- 1 -->
<g id="node2" class="node">
<title>1</title>
<ellipse fill="#fe5656" stroke="#581845" cx="2207.25" cy="-735.75" rx="18" ry="18"/>
<text text-anchor="middle" x="2207.25" y="-730.7" font-family="Times New Roman,serif" font-size="14.00">1</text>
</g>
<!-- 2 -->
<g id="node3" class="node">
<title>2</title>
<ellipse fill="#fe5656" stroke="#581845" cx="2207.25" cy="-584.25" rx="18" ry="18"/>
<text text-anchor="middle" x="2207.25" y="-579.2" font-family="Times New Roman,serif" font-size="14.00">2</text>
</g>
<!-- 1&#45;&gt;2 -->
<g id="edge1" class="edge">
<title>1&#45;&gt;2</title>
<path fill="none" stroke="white" d="M2202.79,-717.89C2200.09,-692.41 2199.78,-643.8 2201.86,-613.03"/>
<polygon fill="white" stroke="white" points="2205.33,-613.59 2202.69,-603.33 2198.35,-612.99 2205.33,-613.59"/>
</g>
<!-- 1&#45;&gt;2 -->
<g id="edge4" class="edge">
<title>1&#45;&gt;2</title>
<path fill="none" stroke="white" d="M2211.71,-717.89C2214.41,-692.41 2214.72,-643.8 2212.64,-613.03"/>
<polygon fill="white" stroke="white" points="2216.15,-612.99 2211.81,-603.33 2209.17,-613.59 2216.15,-612.99"/>
</g>
<!-- 3 -->
<g id="node6" class="node">
<title>3</title>
<ellipse fill="#fe5656" stroke="#581845" cx="2207.25" cy="-432.75" rx="18" ry="18"/>
<text text-anchor="middle" x="2207.25" y="-427.7" font-family="Times New Roman,serif" font-size="14.00">3</text>
</g>
<!-- 2&#45;&gt;3 -->
<g id="edge5" class="edge">
<title>2&#45;&gt;3</title>
<path fill="none" stroke="white" d="M2195.21,-570.24C2185.46,-545.05 2184.4,-489.26 2192,-457.35"/>
<polygon fill="white" stroke="white" points="2195.33,-458.44 2194.9,-447.86 2188.64,-456.4 2195.33,-458.44"/>
</g>
<!-- 2&#45;&gt;3 -->
<g id="edge8" class="edge">
<title>2&#45;&gt;3</title>
<path fill="none" stroke="white" d="M2202.79,-566.39C2200.09,-540.91 2199.78,-492.3 2201.86,-461.53"/>
<polygon fill="white" stroke="white" points="2205.33,-462.09 2202.69,-451.83 2198.35,-461.49 2205.33,-462.09"/>
</g>
<!-- 2&#45;&gt;3 -->
<g id="edge17" class="edge">
<title>2&#45;&gt;3</title>
<path fill="none" stroke="white" d="M2211.71,-566.39C2214.41,-540.91 2214.72,-492.3 2212.64,-461.53"/>
<polygon fill="white" stroke="white" points="2216.15,-461.49 2211.81,-451.83 2209.17,-462.09 2216.15,-461.49"/>
</g>
<!-- 2&#45;&gt;3 -->
<g id="edge20" class="edge">
<title>2&#45;&gt;3</title>
<path fill="none" stroke="white" d="M2219.29,-570.24C2229.04,-545.05 2230.1,-489.26 2222.5,-457.35"/>
<polygon fill="white" stroke="white" points="2225.86,-456.4 2219.6,-447.86 2219.17,-458.44 2225.86,-456.4"/>
</g>
<!-- node_0000016006f39870 -->
<g id="node7" class="node">
<title>node_0000016006f39870</title>
<path fill="#ff5fe0" stroke="#d408ac" d="M12,-375.5C12,-375.5 306.5,-375.5 306.5,-375.5 312.5,-375.5 318.5,-381.5 318.5,-387.5 318.5,-387.5 318.5,-478 318.5,-478 318.5,-484 312.5,-490 306.5,-490 306.5,-490 12,-490 12,-490 6,-490 0,-484 0,-478 0,-478 0,-387.5 0,-387.5 0,-381.5 6,-375.5 12,-375.5"/>
<text text-anchor="middle" x="159.25" y="-472.7" font-family="Times New Roman,serif" font-size="14.00">addr: 0000016006f39870</text>
<polyline fill="none" stroke="#d408ac" points="0,-465.5 318.5,-465.5"/>
<text text-anchor="middle" x="159.25" y="-448.2" font-family="Times New Roman,serif" font-size="14.00">val = &#39;x&#39;</text>
<polyline fill="none" stroke="#d408ac" points="0,-441 318.5,-441"/>
<text text-anchor="middle" x="159.25" y="-423.7" font-family="Times New Roman,serif" font-size="14.00">type = VAR</text>
<polyline fill="none" stroke="#d408ac" points="0,-416.5 318.5,-416.5"/>
<text text-anchor="middle" x="79.62" y="-399.2" font-family="Times New Roman,serif" font-size="14.00">L:</text>
<text text-anchor="middle" x="79.62" y="-382.7" font-family="Times New Roman,serif" font-size="14.00"> addr: 0000000000000000</text>
<polyline fill="none" stroke="#d408ac" points="159.25,-375.5 159.25,-416.5"/>
<text text-anchor="middle" x="238.88" y="-399.2" font-family="Times New Roman,serif" font-size="14.00">R: </text>
<text text-anchor="middle" x="238.88" y="-382.7" font-family="Times New Roman,serif" font-size="14.00"> addr: 0000000000000000</text>
</g>
<!-- node_0000016006f39540&#45;&gt;node_0000016006f39870 -->
<g id="edge6" class="edge">
<title>node_0000016006f39540&#45;&gt;node_0000016006f39870</title>
<path fill="none" stroke="#ff0000" d="M368.36,-526.52C345.17,-516.23 320.88,-505.45 297.41,-495.04"/>
<polygon fill="#ff0000" stroke="#ff0000" points="298.99,-491.91 288.43,-491.06 296.15,-498.31 298.99,-491.91"/>
</g>
<!-- node_0000016006f39570 -->
<g id="node8" class="node">
<title>node_0000016006f39570</title>
<path fill="#ff5fe0" stroke="#d408ac" d="M349,-375.5C349,-375.5 643.5,-375.5 643.5,-375.5 649.5,-375.5 655.5,-381.5 655.5,-387.5 655.5,-387.5 655.5,-478 655.5,-478 655.5,-484 649.5,-490 643.5,-490 643.5,-490 349,-490 349,-490 343,-490 337,-484 337,-478 337,-478 337,-387.5 337,-387.5 337,-381.5 343,-375.5 349,-375.5"/>
<text text-anchor="middle" x="496.25" y="-472.7" font-family="Times New Roman,serif" font-size="14.00">addr: 0000016006f39570</text>
<polyline fill="none" stroke="#d408ac" points="337,-465.5 655.5,-465.5"/>
<text text-anchor="middle" x="496.25" y="-448.2" font-family="Times New Roman,serif" font-size="14.00">val = &#39;x&#39;</text>
<polyline fill="none" stroke="#d408ac" points="337,-441 655.5,-441"/>
<text text-anchor="middle" x="496.25" y="-423.7" font-family="Times New Roman,serif" font-size="14.00">type = VAR</text>
<polyline fill="none" stroke="#d408ac" points="337,-416.5 655.5,-416.5"/>
<text text-anchor="middle" x="416.62" y="-399.2" font-family="Times New Roman,serif" font-size="14.00">L:</text>
<text text-anchor="middle" x="416.62" y="-382.7" font-family="Times New Roman,serif" font-size="14.00"> addr: 0000000000000000</text>
<polyline fill="none" stroke="#d408ac" points="496.25,-375.5 496.25,-416.5"/>
<text text-anchor="middle" x="575.88" y="-399.2" font-family="Times New Roman,serif" font-size="14.00">R: </text>
<text text-anchor="middle" x="575.88" y="-382.7" font-family="Times New Roman,serif" font-size="14.00"> addr: 0000000000000000</text>
</g>
<!-- node_0000016006f39540&#45;&gt;node_0000016006f39570 -->
<g id="edge7" class="edge">
<title>node_0000016006f39540&#45;&gt;node_0000016006f39570</title>
<path fill="none" stroke="#ff0000" d="M496.25,-526.73C496.25,-518.54 496.25,-510.05 496.25,-501.67"/>
<polygon fill="#ff0000" stroke="#ff0000" points="499.75,-501.86 496.25,-491.86 492.75,-501.86 499.75,-501.86"/>
</g>
<!-- node_0000016006f39510 -->
<g id="node14" class="node">
<title>node_0000016006f39510</title>
<path fill="#ecfd74" stroke="#ffc500" d="M788.62,-375.5C788.62,-375.5 1077.88,-375.5 1077.88,-375.5 1083.88,-375.5 1089.88,-381.5 1089.88,-387.5 1089.88,-387.5 1089.88,-478 1089.88,-478 1089.88,-484 1083.88,-490 1077.88,-490 1077.88,-490 788.62,-490 788.62,-490 782.62,-490 776.62,-484 776.62,-478 776.62,-478 776.62,-387.5 776.62,-387.5 776.62,-381.5 782.62,-375.5 788.62,-375.5"/>
<text text-anchor="middle" x="933.25" y="-472.7" font-family="Times New Roman,serif" font-size="14.00">addr: 0000016006f39510</text>
<polyline fill="none" stroke="#ffc500" points="776.62,-465.5 1089.88,-465.5"/>
<text text-anchor="middle" x="933.25" y="-448.2" font-family="Times New Roman,serif" font-size="14.00">val = &#39;*&#39;</text>
<polyline fill="none" stroke="#ffc500" points="776.62,-441 1089.88,-441"/>
<text text-anchor="middle" x="933.25" y="-423.7" font-family="Times New Roman,serif" font-size="14.00">type = OP</text>
<polyline fill="none" stroke="#ffc500" points="776.62,-416.5 1089.88,-416.5"/>
<text text-anchor="middle" x="855.12" y="-399.2" font-family="Times New Roman,serif" font-size="14.00">L:</text>
<text text-anchor="middle" x="855.12" y="-382.7" font-family="Times New Roman,serif" font-size="14.00"> addr: 0000016006f39600</text>
<polyline fill="none" stroke="#ffc500" points="933.62,-375.5 933.62,-416.5"/>
<text text-anchor="middle" x="1011.75" y="-399.2" font-family="Times New Roman,serif" font-size="14.00">R: </text>
<text text-anchor="middle" x="1011.75" y="-382.7" font-family="Times New Roman,serif" font-size="14.00"> addr: 0000016006f397e0</text>
</g>
<!-- node_0000016006f39630&#45;&gt;node_0000016006f39510 -->
<g id="edge18" class="edge">
<title>node_0000016006f39630&#45;&gt;node_0000016006f39510</title>
<path fill="none" stroke="#ff0000" d="M933.25,-526.73C933.25,-518.54 933.25,-510.05 933.25,-501.67"/>
<polygon fill="#ff0000" stroke="#ff0000" points="936.75,-501.86 933.25,-491.86 929.75,-501.86 936.75,-501.86"/>
</g>
<!-- node_0000016006f39460 -->
<g id="node15" class="node">
<title>node_0000016006f39460</title>
<path fill="#ecfd74" stroke="#ffc500" d="M1225.12,-375.5C1225.12,-375.5 1517.38,-375.5 1517.38,-375.5 1523.38,-375.5 1529.38,-381.5 1529.38,-387.5 1529.38,-387.5 1529.38,-478 1529.38,-478 1529.38,-484 1523.38,-490 1517.38,-490 1517.38,-490 1225.12,-490 1225.12,-490 1219.12,-490 1213.12,-484 1213.12,-478 1213.12,-478 1213.12,-387.5 1213.12,-387.5 1213.12,-381.5 1219.12,-375.5 1225.12,-375.5"/>
<text text-anchor="middle" x="1371.25" y="-472.7" font-family="Times New Roman,serif" font-size="14.00">addr: 0000016006f39460</text>
<polyline fill="none" stroke="#ffc500" points="1213.12,-465.5 1529.38,-465.5"/>
<text text-anchor="middle" x="1371.25" y="-448.2" font-family="Times New Roman,serif" font-size="14.00">val = &#39;*&#39;</text>
<polyline fill="none" stroke="#ffc500" points="1213.12,-441 1529.38,-441"/>
<text text-anchor="middle" x="1371.25" y="-423.7" font-family="Times New Roman,serif" font-size="14.00">type = OP</text>
<polyline fill="none" stroke="#ffc500" points="1213.12,-416.5 1529.38,-416.5"/>
<text text-anchor="middle" x="1291.62" y="-399.2" font-family="Times New Roman,serif" font-size="14.00">L:</text>
<text text-anchor="middle" x="1291.62" y="-382.7" font-family="Times New Roman,serif" font-size="14.00"> addr: 0000016006f39430</text>
<polyline fill="none" stroke="#ffc500" points="1370.12,-375.5 1370.12,-416.5"/>
<text text-anchor="middle" x="1449.75" y="-399.2" font-family="Times New Roman,serif" font-size="14.00">R: </text>
<text text-anchor="middle" x="1449.75" y="-382.7" font-family="Times New Roman,serif" font-size="14.00"> addr: 0000016007056190</text>
</g>
<!-- node_0000016006f39630&#45;&gt;node_0000016006f39460 -->
<g id="edge19" class="edge">
<title>node_0000016006f39630&#45;&gt;node_0000016006f39460</title>
<path fill="none" stroke="#ff0000" d="M1090.45,-529.59C1126.63,-517.25 1165.26,-504.06 1201.92,-491.55"/>
<polygon fill="#ff0000" stroke="#ff0000" points="1202.95,-494.89 1211.29,-488.35 1200.69,-488.27 1202.95,-494.89"/>
</g>
<!-- 4 -->
<g id="node9" class="node">
<title>4</title>
<ellipse fill="#fe5656" stroke="#581845" cx="2207.25" cy="-281.25" rx="18" ry="18"/>
<text text-anchor="middle" x="2207.25" y="-276.2" font-family="Times New Roman,serif" font-size="14.00">4</text>
</g>
<!-- 3&#45;&gt;4 -->
<g id="edge9" class="edge">
<title>3&#45;&gt;4</title>
<path fill="none" stroke="white" d="M2189.71,-427.28C2153.34,-407.07 2150.36,-324.02 2180.79,-293.54"/>
<polygon fill="white" stroke="white" points="2182.71,-296.47 2188.54,-287.62 2178.46,-290.91 2182.71,-296.47"/>
</g>
<!-- 3&#45;&gt;4 -->
<g id="edge12" class="edge">
<title>3&#45;&gt;4</title>
<path fill="none" stroke="white" d="M2191.32,-424.13C2170.02,-401.14 2167.82,-332.07 2184.71,-299.54"/>
<polygon fill="white" stroke="white" points="2187.59,-301.52 2190.32,-291.29 2181.8,-297.59 2187.59,-301.52"/>
</g>
<!-- 3&#45;&gt;4 -->
<g id="edge13" class="edge">
<title>3&#45;&gt;4</title>
<path fill="none" stroke="white" d="M2195.21,-418.74C2185.46,-393.55 2184.4,-337.76 2192,-305.85"/>
<polygon fill="white" stroke="white" points="2195.33,-306.94 2194.9,-296.36 2188.64,-304.9 2195.33,-306.94"/>
</g>
<!-- 3&#45;&gt;4 -->
<g id="edge16" class="edge">
<title>3&#45;&gt;4</title>
<path fill="none" stroke="white" d="M2202.79,-414.89C2200.09,-389.41 2199.78,-340.8 2201.86,-310.03"/>
<polygon fill="white" stroke="white" points="2205.33,-310.59 2202.69,-300.33 2198.35,-309.99 2205.33,-310.59"/>
</g>
<!-- 3&#45;&gt;4 -->
<g id="edge21" class="edge">
<title>3&#45;&gt;4</title>
<path fill="none" stroke="white" d="M2211.71,-414.89C2214.41,-389.41 2214.72,-340.8 2212.64,-310.03"/>
<polygon fill="white" stroke="white" points="2216.15,-309.99 2211.81,-300.33 2209.17,-310.59 2216.15,-309.99"/>
</g>
<!-- 3&#45;&gt;4 -->
<g id="edge24" class="edge">
<title>3&#45;&gt;4</title>
<path fill="none" stroke="white" d="M2219.29,-418.74C2229.04,-393.55 2230.1,-337.76 2222.5,-305.85"/>
<polygon fill="white" stroke="white" points="2225.86,-304.9 2219.6,-296.36 2219.17,-306.94 2225.86,-304.9"/>
</g>
<!-- 3&#45;&gt;4 -->
<g id="edge37" class="edge">
<title>3&#45;&gt;4</title>
<path fill="none" stroke="white" d="M2223.18,-424.13C2244.48,-401.14 2246.68,-332.07 2229.79,-299.54"/>
<polygon fill="white" stroke="white" points="2232.7,-297.59 2224.18,-291.29 2226.91,-301.52 2232.7,-297.59"/>
</g>
<!-- 3&#45;&gt;4 -->
<g id="edge40" class="edge">
<title>3&#45;&gt;4</title>
<path fill="none" stroke="white" d="M2224.79,-427.28C2261.16,-407.07 2264.14,-324.02 2233.71,-293.54"/>
<polygon fill="white" stroke="white" points="2236.04,-290.91 2225.96,-287.62 2231.79,-296.47 2236.04,-290.91"/>
</g>
<!-- node_l_null_0000016006f39870 -->
<g id="node10" class="node">
<title>node_l_null_0000016006f39870</title>
<ellipse fill="#a2f0f8" stroke="#007cff" cx="122.25" cy="-281.25" rx="27.81" ry="18"/>
<text text-anchor="middle" x="122.25" y="-276.2" font-family="Times New Roman,serif" font-size="14.00"> null</text>
</g>
<!-- node_0000016006f39870&#45;&gt;node_l_null_0000016006f39870 -->
<g id="edge10" class="edge">
<title>node_0000016006f39870&#45;&gt;node_l_null_0000016006f39870</title>
<path fill="none" stroke="#007cff" d="M145.26,-375.23C139.79,-353.12 133.76,-328.74 129.24,-310.49"/>
<polygon fill="#007cff" stroke="#007cff" points="132.68,-309.81 126.88,-300.94 125.88,-311.49 132.68,-309.81"/>
</g>
<!-- node_r_null_0000016006f39870 -->
<g id="node11" class="node">
<title>node_r_null_0000016006f39870</title>
<ellipse fill="#a2f0f8" stroke="#007cff" cx="196.25" cy="-281.25" rx="27.81" ry="18"/>
<text text-anchor="middle" x="196.25" y="-276.2" font-family="Times New Roman,serif" font-size="14.00"> null</text>
</g>
<!-- node_0000016006f39870&#45;&gt;node_r_null_0000016006f39870 -->
<g id="edge11" class="edge">
<title>node_0000016006f39870&#45;&gt;node_r_null_0000016006f39870</title>
<path fill="none" stroke="#007cff" d="M173.24,-375.23C178.71,-353.12 184.74,-328.74 189.26,-310.49"/>
<polygon fill="#007cff" stroke="#007cff" points="192.62,-311.49 191.62,-300.94 185.82,-309.81 192.62,-311.49"/>
</g>
<!-- node_l_null_0000016006f39570 -->
<g id="node12" class="node">
<title>node_l_null_0000016006f39570</title>
<ellipse fill="#a2f0f8" stroke="#007cff" cx="422.25" cy="-281.25" rx="27.81" ry="18"/>
<text text-anchor="middle" x="422.25" y="-276.2" font-family="Times New Roman,serif" font-size="14.00"> null</text>
</g>
<!-- node_0000016006f39570&#45;&gt;node_l_null_0000016006f39570 -->
<g id="edge14" class="edge">
<title>node_0000016006f39570&#45;&gt;node_l_null_0000016006f39570</title>
<path fill="none" stroke="#007cff" d="M468.27,-375.23C457.04,-352.53 444.62,-327.43 435.51,-309.04"/>
<polygon fill="#007cff" stroke="#007cff" points="438.69,-307.57 431.11,-300.16 432.41,-310.67 438.69,-307.57"/>
</g>
<!-- node_r_null_0000016006f39570 -->
<g id="node13" class="node">
<title>node_r_null_0000016006f39570</title>
<ellipse fill="#a2f0f8" stroke="#007cff" cx="496.25" cy="-281.25" rx="27.81" ry="18"/>
<text text-anchor="middle" x="496.25" y="-276.2" font-family="Times New Roman,serif" font-size="14.00"> null</text>
</g>
<!-- node_0000016006f39570&#45;&gt;node_r_null_0000016006f39570 -->
<g id="edge15" class="edge">
<title>node_0000016006f39570&#45;&gt;node_r_null_0000016006f39570</title>
<path fill="none" stroke="#007cff" d="M496.25,-375.23C496.25,-353.22 496.25,-328.97 496.25,-310.75"/>
<polygon fill="#007cff" stroke="#007cff" points="499.75,-310.99 496.25,-300.99 492.75,-310.99 499.75,-310.99"/>
</g>
<!-- 5 -->
<g id="node18" class="node">
<title>5</title>
<ellipse fill="#fe5656" stroke="#581845" cx="2207.25" cy="-129.75" rx="18" ry="18"/>
<text text-anchor="middle" x="2207.25" y="-124.7" font-family="Times New Roman,serif" font-size="14.00">5</text>
</g>
<!-- 4&#45;&gt;5 -->
<g id="edge25" class="edge">
<title>4&#45;&gt;5</title>
<path fill="none" stroke="white" d="M2189.71,-275.78C2153.34,-255.57 2150.36,-172.52 2180.79,-142.04"/>
<polygon fill="white" stroke="white" points="2182.71,-144.97 2188.54,-136.12 2178.46,-139.41 2182.71,-144.97"/>
</g>
<!-- 4&#45;&gt;5 -->
<g id="edge28" class="edge">
<title>4&#45;&gt;5</title>
<path fill="none" stroke="white" d="M2191.32,-272.63C2170.02,-249.64 2167.82,-180.57 2184.71,-148.04"/>
<polygon fill="white" stroke="white" points="2187.59,-150.02 2190.32,-139.79 2181.8,-146.09 2187.59,-150.02"/>
</g>
<!-- 4&#45;&gt;5 -->
<g id="edge29" class="edge">
<title>4&#45;&gt;5</title>
<path fill="none" stroke="white" d="M2195.21,-267.24C2185.46,-242.05 2184.4,-186.26 2192,-154.35"/>
<polygon fill="white" stroke="white" points="2195.33,-155.44 2194.9,-144.86 2188.64,-153.4 2195.33,-155.44"/>
</g>
<!-- 4&#45;&gt;5 -->
<g id="edge32" class="edge">
<title>4&#45;&gt;5</title>
<path fill="none" stroke="white" d="M2202.79,-263.39C2200.09,-237.91 2199.78,-189.3 2201.86,-158.53"/>
<polygon fill="white" stroke="white" points="2205.33,-159.09 2202.69,-148.83 2198.35,-158.49 2205.33,-159.09"/>
</g>
<!-- 4&#45;&gt;5 -->
<g id="edge41" class="edge">
<title>4&#45;&gt;5</title>
<path fill="none" stroke="white" d="M2211.71,-263.39C2214.41,-237.91 2214.72,-189.3 2212.64,-158.53"/>
<polygon fill="white" stroke="white" points="2216.15,-158.49 2211.81,-148.83 2209.17,-159.09 2216.15,-158.49"/>
</g>
<!-- 4&#45;&gt;5 -->
<g id="edge44" class="edge">
<title>4&#45;&gt;5</title>
<path fill="none" stroke="white" d="M2219.29,-267.24C2229.04,-242.05 2230.1,-186.26 2222.5,-154.35"/>
<polygon fill="white" stroke="white" points="2225.86,-153.4 2219.6,-144.86 2219.17,-155.44 2225.86,-153.4"/>
</g>
<!-- 4&#45;&gt;5 -->
<g id="edge45" class="edge">
<title>4&#45;&gt;5</title>
<path fill="none" stroke="white" d="M2223.18,-272.63C2244.48,-249.64 2246.68,-180.57 2229.79,-148.04"/>
<polygon fill="white" stroke="white" points="2232.7,-146.09 2224.18,-139.79 2226.91,-150.02 2232.7,-146.09"/>
</g>
<!-- 4&#45;&gt;5 -->
<g id="edge48" class="edge">
<title>4&#45;&gt;5</title>
<path fill="none" stroke="white" d="M2224.79,-275.78C2261.16,-255.57 2264.14,-172.52 2233.71,-142.04"/>
<polygon fill="white" stroke="white" points="2236.04,-139.41 2225.96,-136.12 2231.79,-144.97 2236.04,-139.41"/>
</g>
<!-- node_0000016006f39600 -->
<g id="node16" class="node">
<title>node_0000016006f39600</title>
<path fill="#a2f8a4" stroke="#18ca1c" d="M554,-224C554,-224 848.5,-224 848.5,-224 854.5,-224 860.5,-230 860.5,-236 860.5,-236 860.5,-326.5 860.5,-326.5 860.5,-332.5 854.5,-338.5 848.5,-338.5 848.5,-338.5 554,-338.5 554,-338.5 548,-338.5 542,-332.5 542,-326.5 542,-326.5 542,-236 542,-236 542,-230 548,-224 554,-224"/>
<text text-anchor="middle" x="701.25" y="-321.2" font-family="Times New Roman,serif" font-size="14.00">addr: 0000016006f39600</text>
<polyline fill="none" stroke="#18ca1c" points="542,-314 860.5,-314"/>
<text text-anchor="middle" x="701.25" y="-296.7" font-family="Times New Roman,serif" font-size="14.00">val = 1</text>
<polyline fill="none" stroke="#18ca1c" points="542,-289.5 860.5,-289.5"/>
<text text-anchor="middle" x="701.25" y="-272.2" font-family="Times New Roman,serif" font-size="14.00">type = NUM</text>
<polyline fill="none" stroke="#18ca1c" points="542,-265 860.5,-265"/>
<text text-anchor="middle" x="621.62" y="-247.7" font-family="Times New Roman,serif" font-size="14.00">L:</text>
<text text-anchor="middle" x="621.62" y="-231.2" font-family="Times New Roman,serif" font-size="14.00"> addr: 0000000000000000</text>
<polyline fill="none" stroke="#18ca1c" points="701.25,-224 701.25,-265"/>
<text text-anchor="middle" x="780.88" y="-247.7" font-family="Times New Roman,serif" font-size="14.00">R: </text>
<text text-anchor="middle" x="780.88" y="-231.2" font-family="Times New Roman,serif" font-size="14.00"> addr: 0000000000000000</text>
</g>
<!-- node_0000016006f39510&#45;&gt;node_0000016006f39600 -->
<g id="edge22" class="edge">
<title>node_0000016006f39510&#45;&gt;node_0000016006f39600</title>
<path fill="none" stroke="#ff0000" d="M845.21,-375.02C830.03,-365.24 814.17,-355.02 798.76,-345.08"/>
<polygon fill="#ff0000" stroke="#ff0000" points="800.8,-342.24 790.5,-339.76 797.01,-348.12 800.8,-342.24"/>
</g>
<!-- node_0000016006f397e0 -->
<g id="node17" class="node">
<title>node_0000016006f397e0</title>
<path fill="#ecfd74" stroke="#ffc500" d="M890.12,-224C890.12,-224 1182.38,-224 1182.38,-224 1188.38,-224 1194.38,-230 1194.38,-236 1194.38,-236 1194.38,-326.5 1194.38,-326.5 1194.38,-332.5 1188.38,-338.5 1182.38,-338.5 1182.38,-338.5 890.12,-338.5 890.12,-338.5 884.12,-338.5 878.12,-332.5 878.12,-326.5 878.12,-326.5 878.12,-236 878.12,-236 878.12,-230 884.12,-224 890.12,-224"/>
<text text-anchor="middle" x="1036.25" y="-321.2" font-family="Times New Roman,serif" font-size="14.00">addr: 0000016006f397e0</text>
<polyline fill="none" stroke="#ffc500" points="878.12,-314 1194.38,-314"/>
<text text-anchor="middle" x="1036.25" y="-296.7" font-family="Times New Roman,serif" font-size="14.00">val = &#39;l&#39;</text>
<polyline fill="none" stroke="#ffc500" points="878.12,-289.5 1194.38,-289.5"/>
<text text-anchor="middle" x="1036.25" y="-272.2" font-family="Times New Roman,serif" font-size="14.00">type = OP</text>
<polyline fill="none" stroke="#ffc500" points="878.12,-265 1194.38,-265"/>
<text text-anchor="middle" x="956.62" y="-247.7" font-family="Times New Roman,serif" font-size="14.00">L:</text>
<text text-anchor="middle" x="956.62" y="-231.2" font-family="Times New Roman,serif" font-size="14.00"> addr: 0000016006f39490</text>
<polyline fill="none" stroke="#ffc500" points="1035.12,-224 1035.12,-265"/>
<text text-anchor="middle" x="1114.75" y="-247.7" font-family="Times New Roman,serif" font-size="14.00">R: </text>
<text text-anchor="middle" x="1114.75" y="-231.2" font-family="Times New Roman,serif" font-size="14.00"> addr: 0000000000000000</text>
</g>
<!-- node_0000016006f39510&#45;&gt;node_0000016006f397e0 -->
<g id="edge23" class="edge">
<title>node_0000016006f39510&#45;&gt;node_0000016006f397e0</title>
<path fill="none" stroke="#ff0000" d="M972.19,-375.23C978.28,-366.39 984.62,-357.19 990.83,-348.17"/>
<polygon fill="#ff0000" stroke="#ff0000" points="993.61,-350.32 996.4,-340.1 987.84,-346.34 993.61,-350.32"/>
</g>
<!-- node_0000016006f39430 -->
<g id="node26" class="node">
<title>node_0000016006f39430</title>
<path fill="#ff5fe0" stroke="#d408ac" d="M1224,-224C1224,-224 1518.5,-224 1518.5,-224 1524.5,-224 1530.5,-230 1530.5,-236 1530.5,-236 1530.5,-326.5 1530.5,-326.5 1530.5,-332.5 1524.5,-338.5 1518.5,-338.5 1518.5,-338.5 1224,-338.5 1224,-338.5 1218,-338.5 1212,-332.5 1212,-326.5 1212,-326.5 1212,-236 1212,-236 1212,-230 1218,-224 1224,-224"/>
<text text-anchor="middle" x="1371.25" y="-321.2" font-family="Times New Roman,serif" font-size="14.00">addr: 0000016006f39430</text>
<polyline fill="none" stroke="#d408ac" points="1212,-314 1530.5,-314"/>
<text text-anchor="middle" x="1371.25" y="-296.7" font-family="Times New Roman,serif" font-size="14.00">val = &#39;x&#39;</text>
<polyline fill="none" stroke="#d408ac" points="1212,-289.5 1530.5,-289.5"/>
<text text-anchor="middle" x="1371.25" y="-272.2" font-family="Times New Roman,serif" font-size="14.00">type = VAR</text>
<polyline fill="none" stroke="#d408ac" points="1212,-265 1530.5,-265"/>
<text text-anchor="middle" x="1291.62" y="-247.7" font-family="Times New Roman,serif" font-size="14.00">L:</text>
<text text-anchor="middle" x="1291.62" y="-231.2" font-family="Times New Roman,serif" font-size="14.00"> addr: 0000000000000000</text>
<polyline fill="none" stroke="#d408ac" points="1371.25,-224 1371.25,-265"/>
<text text-anchor="middle" x="1450.88" y="-247.7" font-family="Times New Roman,serif" font-size="14.00">R: </text>
<text text-anchor="middle" x="1450.88" y="-231.2" font-family="Times New Roman,serif" font-size="14.00"> addr: 0000000000000000</text>
</g>
<!-- node_0000016006f39460&#45;&gt;node_0000016006f39430 -->
<g id="edge38" class="edge">
<title>node_0000016006f39460&#45;&gt;node_0000016006f39430</title>
<path fill="none" stroke="#ff0000" d="M1371.25,-375.23C1371.25,-367.04 1371.25,-358.55 1371.25,-350.17"/>
<polygon fill="#ff0000" stroke="#ff0000" points="1374.75,-350.36 1371.25,-340.36 1367.75,-350.36 1374.75,-350.36"/>
</g>
<!-- node_0000016007056190 -->
<g id="node27" class="node">
<title>node_0000016007056190</title>
<path fill="#ecfd74" stroke="#ffc500" d="M1561,-224C1561,-224 1855.5,-224 1855.5,-224 1861.5,-224 1867.5,-230 1867.5,-236 1867.5,-236 1867.5,-326.5 1867.5,-326.5 1867.5,-332.5 1861.5,-338.5 1855.5,-338.5 1855.5,-338.5 1561,-338.5 1561,-338.5 1555,-338.5 1549,-332.5 1549,-326.5 1549,-326.5 1549,-236 1549,-236 1549,-230 1555,-224 1561,-224"/>
<text text-anchor="middle" x="1708.25" y="-321.2" font-family="Times New Roman,serif" font-size="14.00">addr: 0000016007056190</text>
<polyline fill="none" stroke="#ffc500" points="1549,-314 1867.5,-314"/>
<text text-anchor="middle" x="1708.25" y="-296.7" font-family="Times New Roman,serif" font-size="14.00">val = &#39;/&#39;</text>
<polyline fill="none" stroke="#ffc500" points="1549,-289.5 1867.5,-289.5"/>
<text text-anchor="middle" x="1708.25" y="-272.2" font-family="Times New Roman,serif" font-size="14.00">type = OP</text>
<polyline fill="none" stroke="#ffc500" points="1549,-265 1867.5,-265"/>
<text text-anchor="middle" x="1628.62" y="-247.7" font-family="Times New Roman,serif" font-size="14.00">L:</text>
<text text-anchor="middle" x="1628.62" y="-231.2" font-family="Times New Roman,serif" font-size="14.00"> addr: 0000016007056160</text>
<polyline fill="none" stroke="#ffc500" points="1708.25,-224 1708.25,-265"/>
<text text-anchor="middle" x="1787.88" y="-247.7" font-family="Times New Roman,serif" font-size="14.00">R: </text>
<text text-anchor="middle" x="1787.88" y="-231.2" font-family="Times New Roman,serif" font-size="14.00"> addr: 0000016007056130</text>
</g>
<!-- node_0000016006f39460&#45;&gt;node_0000016007056190 -->
<g id="edge39" class="edge">
<title>node_0000016006f39460&#45;&gt;node_0000016007056190</title>
<path fill="none" stroke="#ff0000" d="M1499.14,-375.02C1522.33,-364.73 1546.62,-353.95 1570.09,-343.54"/>
<polygon fill="#ff0000" stroke="#ff0000" points="1571.35,-346.81 1579.07,-339.56 1568.51,-340.41 1571.35,-346.81"/>
</g>
<!-- node_l_null_0000016006f39600 -->
<g id="node19" class="node">
<title>node_l_null_0000016006f39600</title>
<ellipse fill="#a2f0f8" stroke="#007cff" cx="655.25" cy="-129.75" rx="27.81" ry="18"/>
<text text-anchor="middle" x="655.25" y="-124.7" font-family="Times New Roman,serif" font-size="14.00"> null</text>
</g>
<!-- node_0000016006f39600&#45;&gt;node_l_null_0000016006f39600 -->
<g id="edge26" class="edge">
<title>node_0000016006f39600&#45;&gt;node_l_null_0000016006f39600</title>
<path fill="none" stroke="#007cff" d="M683.86,-223.73C676.98,-201.38 669.39,-176.71 663.76,-158.4"/>
<polygon fill="#007cff" stroke="#007cff" points="667.18,-157.61 660.89,-149.08 660.49,-159.67 667.18,-157.61"/>
</g>
<!-- node_r_null_0000016006f39600 -->
<g id="node20" class="node">
<title>node_r_null_0000016006f39600</title>
<ellipse fill="#a2f0f8" stroke="#007cff" cx="729.25" cy="-129.75" rx="27.81" ry="18"/>
<text text-anchor="middle" x="729.25" y="-124.7" font-family="Times New Roman,serif" font-size="14.00"> null</text>
</g>
<!-- node_0000016006f39600&#45;&gt;node_r_null_0000016006f39600 -->
<g id="edge27" class="edge">
<title>node_0000016006f39600&#45;&gt;node_r_null_0000016006f39600</title>
<path fill="none" stroke="#007cff" d="M711.84,-223.73C715.96,-201.72 720.5,-177.47 723.91,-159.25"/>
<polygon fill="#007cff" stroke="#007cff" points="727.34,-159.94 725.75,-149.46 720.46,-158.65 727.34,-159.94"/>
</g>
<!-- node_0000016006f39490 -->
<g id="node21" class="node">
<title>node_0000016006f39490</title>
<path fill="#ff5fe0" stroke="#d408ac" d="M848,-72.5C848,-72.5 1142.5,-72.5 1142.5,-72.5 1148.5,-72.5 1154.5,-78.5 1154.5,-84.5 1154.5,-84.5 1154.5,-175 1154.5,-175 1154.5,-181 1148.5,-187 1142.5,-187 1142.5,-187 848,-187 848,-187 842,-187 836,-181 836,-175 836,-175 836,-84.5 836,-84.5 836,-78.5 842,-72.5 848,-72.5"/>
<text text-anchor="middle" x="995.25" y="-169.7" font-family="Times New Roman,serif" font-size="14.00">addr: 0000016006f39490</text>
<polyline fill="none" stroke="#d408ac" points="836,-162.5 1154.5,-162.5"/>
<text text-anchor="middle" x="995.25" y="-145.2" font-family="Times New Roman,serif" font-size="14.00">val = &#39;x&#39;</text>
<polyline fill="none" stroke="#d408ac" points="836,-138 1154.5,-138"/>
<text text-anchor="middle" x="995.25" y="-120.7" font-family="Times New Roman,serif" font-size="14.00">type = VAR</text>
<polyline fill="none" stroke="#d408ac" points="836,-113.5 1154.5,-113.5"/>
<text text-anchor="middle" x="915.62" y="-96.2" font-family="Times New Roman,serif" font-size="14.00">L:</text>
<text text-anchor="middle" x="915.62" y="-79.7" font-family="Times New Roman,serif" font-size="14.00"> addr: 0000000000000000</text>
<polyline fill="none" stroke="#d408ac" points="995.25,-72.5 995.25,-113.5"/>
<text text-anchor="middle" x="1074.88" y="-96.2" font-family="Times New Roman,serif" font-size="14.00">R: </text>
<text text-anchor="middle" x="1074.88" y="-79.7" font-family="Times New Roman,serif" font-size="14.00"> addr: 0000000000000000</text>
</g>
<!-- node_0000016006f397e0&#45;&gt;node_0000016006f39490 -->
<g id="edge30" class="edge">
<title>node_0000016006f397e0&#45;&gt;node_0000016006f39490</title>
<path fill="none" stroke="#ff0000" d="M1020.75,-223.73C1018.48,-215.45 1016.12,-206.85 1013.8,-198.38"/>
<polygon fill="#ff0000" stroke="#ff0000" points="1017.19,-197.53 1011.17,-188.81 1010.44,-199.38 1017.19,-197.53"/>
</g>
<!-- node_r_null_0000016006f397e0 -->
<g id="node22" class="node">
<title>node_r_null_0000016006f397e0</title>
<ellipse fill="#a2f0f8" stroke="#007cff" cx="1200.25" cy="-129.75" rx="27.81" ry="18"/>
<text text-anchor="middle" x="1200.25" y="-124.7" font-family="Times New Roman,serif" font-size="14.00"> null</text>
</g>
<!-- node_0000016006f397e0&#45;&gt;node_r_null_0000016006f397e0 -->
<g id="edge31" class="edge">
<title>node_0000016006f397e0&#45;&gt;node_r_null_0000016006f397e0</title>
<path fill="none" stroke="#007cff" d="M1122.78,-223.65C1137.06,-212.5 1151.13,-200.28 1163.25,-187.5 1171.87,-178.41 1179.72,-167.06 1185.95,-156.91"/>
<polygon fill="#007cff" stroke="#007cff" points="1188.79,-158.98 1190.84,-148.58 1182.76,-155.43 1188.79,-158.98"/>
</g>
<!-- 6 -->
<g id="node23" class="node">
<title>6</title>
<ellipse fill="#fe5656" stroke="#581845" cx="2207.25" cy="-18" rx="18" ry="18"/>
<text text-anchor="middle" x="2207.25" y="-12.95" font-family="Times New Roman,serif" font-size="14.00">6</text>
</g>
<!-- 5&#45;&gt;6 -->
<g id="edge33" class="edge">
<title>5&#45;&gt;6</title>
<path fill="none" stroke="white" d="M2190.56,-122.53C2170.64,-105.64 2168.16,-58.49 2183.14,-34.08"/>
<polygon fill="white" stroke="white" points="2185.66,-36.52 2189.35,-26.59 2180.27,-32.05 2185.66,-36.52"/>
</g>
<!-- 5&#45;&gt;6 -->
<g id="edge36" class="edge">
<title>5&#45;&gt;6</title>
<path fill="none" stroke="white" d="M2194.14,-117C2186.02,-99.02 2184.83,-64.32 2190.55,-41.42"/>
<polygon fill="white" stroke="white" points="2193.82,-42.69 2193.69,-32.09 2187.18,-40.45 2193.82,-42.69"/>
</g>
<!-- 5&#45;&gt;6 -->
<g id="edge49" class="edge">
<title>5&#45;&gt;6</title>
<path fill="none" stroke="white" d="M2202.24,-112.08C2200.29,-94.74 2199.98,-67.28 2201.3,-46.68"/>
<polygon fill="white" stroke="white" points="2204.76,-47.24 2202.13,-36.97 2197.79,-46.64 2204.76,-47.24"/>
</g>
<!-- 5&#45;&gt;6 -->
<g id="edge52" class="edge">
<title>5&#45;&gt;6</title>
<path fill="none" stroke="white" d="M2212.26,-112.08C2214.21,-94.74 2214.52,-67.28 2213.2,-46.68"/>
<polygon fill="white" stroke="white" points="2216.71,-46.64 2212.37,-36.97 2209.74,-47.24 2216.71,-46.64"/>
</g>
<!-- 5&#45;&gt;6 -->
<g id="edge53" class="edge">
<title>5&#45;&gt;6</title>
<path fill="none" stroke="white" d="M2220.36,-117C2228.48,-99.02 2229.67,-64.32 2223.95,-41.42"/>
<polygon fill="white" stroke="white" points="2227.32,-40.45 2220.81,-32.09 2220.68,-42.69 2227.32,-40.45"/>
</g>
<!-- 5&#45;&gt;6 -->
<g id="edge56" class="edge">
<title>5&#45;&gt;6</title>
<path fill="none" stroke="white" d="M2223.94,-122.53C2243.86,-105.64 2246.34,-58.49 2231.36,-34.08"/>
<polygon fill="white" stroke="white" points="2234.23,-32.05 2225.15,-26.59 2228.84,-36.52 2234.23,-32.05"/>
</g>
<!-- node_l_null_0000016006f39490 -->
<g id="node24" class="node">
<title>node_l_null_0000016006f39490</title>
<ellipse fill="#a2f0f8" stroke="#007cff" cx="958.25" cy="-18" rx="27.81" ry="18"/>
<text text-anchor="middle" x="958.25" y="-12.95" font-family="Times New Roman,serif" font-size="14.00"> null</text>
</g>
<!-- node_0000016006f39490&#45;&gt;node_l_null_0000016006f39490 -->
<g id="edge34" class="edge">
<title>node_0000016006f39490&#45;&gt;node_l_null_0000016006f39490</title>
<path fill="none" stroke="#007cff" d="M976.21,-72.27C973.21,-63.37 970.23,-54.54 967.59,-46.69"/>
<polygon fill="#007cff" stroke="#007cff" points="970.98,-45.81 964.47,-37.45 964.35,-48.05 970.98,-45.81"/>
</g>
<!-- node_r_null_0000016006f39490 -->
<g id="node25" class="node">
<title>node_r_null_0000016006f39490</title>
<ellipse fill="#a2f0f8" stroke="#007cff" cx="1032.25" cy="-18" rx="27.81" ry="18"/>
<text text-anchor="middle" x="1032.25" y="-12.95" font-family="Times New Roman,serif" font-size="14.00"> null</text>
</g>
<!-- node_0000016006f39490&#45;&gt;node_r_null_0000016006f39490 -->
<g id="edge35" class="edge">
<title>node_0000016006f39490&#45;&gt;node_r_null_0000016006f39490</title>
<path fill="none" stroke="#007cff" d="M1014.29,-72.27C1017.29,-63.37 1020.27,-54.54 1022.91,-46.69"/>
<polygon fill="#007cff" stroke="#007cff" points="1026.15,-48.05 1026.03,-37.45 1019.52,-45.81 1026.15,-48.05"/>
</g>
<!-- node_l_null_0000016006f39430 -->
<g id="node28" class="node">
<title>node_l_null_0000016006f39430</title>
<ellipse fill="#a2f0f8" stroke="#007cff" cx="1330.25" cy="-129.75" rx="27.81" ry="18"/>
<text text-anchor="middle" x="1330.25" y="-124.7" font-family="Times New Roman,serif" font-size="14.00"> null</text>
</g>
<!-- node_0000016006f39430&#45;&gt;node_l_null_0000016006f39430 -->
<g id="edge42" class="edge">
<title>node_0000016006f39430&#45;&gt;node_l_null_0000016006f39430</title>
<path fill="none" stroke="#007cff" d="M1355.75,-223.73C1349.69,-201.62 1343,-177.24 1338,-158.99"/>
<polygon fill="#007cff" stroke="#007cff" points="1341.39,-158.15 1335.37,-149.43 1334.64,-160 1341.39,-158.15"/>
</g>
<!-- node_r_null_0000016006f39430 -->
<g id="node29" class="node">
<title>node_r_null_0000016006f39430</title>
<ellipse fill="#a2f0f8" stroke="#007cff" cx="1404.25" cy="-129.75" rx="27.81" ry="18"/>
<text text-anchor="middle" x="1404.25" y="-124.7" font-family="Times New Roman,serif" font-size="14.00"> null</text>
</g>
<!-- node_0000016006f39430&#45;&gt;node_r_null_0000016006f39430 -->
<g id="edge43" class="edge">
<title>node_0000016006f39430&#45;&gt;node_r_null_0000016006f39430</title>
<path fill="none" stroke="#007cff" d="M1383.73,-223.73C1388.61,-201.62 1393.99,-177.24 1398.02,-158.99"/>
<polygon fill="#007cff" stroke="#007cff" points="1401.38,-159.97 1400.12,-149.45 1394.55,-158.46 1401.38,-159.97"/>
</g>
<!-- node_0000016007056160 -->
<g id="node30" class="node">
<title>node_0000016007056160</title>
<path fill="#a2f8a4" stroke="#18ca1c" d="M1528,-72.5C1528,-72.5 1822.5,-72.5 1822.5,-72.5 1828.5,-72.5 1834.5,-78.5 1834.5,-84.5 1834.5,-84.5 1834.5,-175 1834.5,-175 1834.5,-181 1828.5,-187 1822.5,-187 1822.5,-187 1528,-187 1528,-187 1522,-187 1516,-181 1516,-175 1516,-175 1516,-84.5 1516,-84.5 1516,-78.5 1522,-72.5 1528,-72.5"/>
<text text-anchor="middle" x="1675.25" y="-169.7" font-family="Times New Roman,serif" font-size="14.00">addr: 0000016007056160</text>
<polyline fill="none" stroke="#18ca1c" points="1516,-162.5 1834.5,-162.5"/>
<text text-anchor="middle" x="1675.25" y="-145.2" font-family="Times New Roman,serif" font-size="14.00">val = 1</text>
<polyline fill="none" stroke="#18ca1c" points="1516,-138 1834.5,-138"/>
<text text-anchor="middle" x="1675.25" y="-120.7" font-family="Times New Roman,serif" font-size="14.00">type = NUM</text>
<polyline fill="none" stroke="#18ca1c" points="1516,-113.5 1834.5,-113.5"/>
<text text-anchor="middle" x="1595.62" y="-96.2" font-family="Times New Roman,serif" font-size="14.00">L:</text>
<text text-anchor="middle" x="1595.62" y="-79.7" font-family="Times New Roman,serif" font-size="14.00"> addr: 0000000000000000</text>
<polyline fill="none" stroke="#18ca1c" points="1675.25,-72.5 1675.25,-113.5"/>
<text text-anchor="middle" x="1754.88" y="-96.2" font-family="Times New Roman,serif" font-size="14.00">R: </text>
<text text-anchor="middle" x="1754.88" y="-79.7" font-family="Times New Roman,serif" font-size="14.00"> addr: 0000000000000000</text>
</g>
<!-- node_0000016007056190&#45;&gt;node_0000016007056160 -->
<g id="edge46" class="edge">
<title>node_0000016007056190&#45;&gt;node_0000016007056160</title>
<path fill="none" stroke="#ff0000" d="M1695.77,-223.73C1693.95,-215.45 1692.05,-206.85 1690.18,-198.38"/>
<polygon fill="#ff0000" stroke="#ff0000" points="1693.64,-197.84 1688.07,-188.83 1686.81,-199.35 1693.64,-197.84"/>
</g>
<!-- node_0000016007056130 -->
<g id="node31" class="node">
<title>node_0000016007056130</title>
<path fill="#ff5fe0" stroke="#d408ac" d="M1865,-72.5C1865,-72.5 2159.5,-72.5 2159.5,-72.5 2165.5,-72.5 2171.5,-78.5 2171.5,-84.5 2171.5,-84.5 2171.5,-175 2171.5,-175 2171.5,-181 2165.5,-187 2159.5,-187 2159.5,-187 1865,-187 1865,-187 1859,-187 1853,-181 1853,-175 1853,-175 1853,-84.5 1853,-84.5 1853,-78.5 1859,-72.5 1865,-72.5"/>
<text text-anchor="middle" x="2012.25" y="-169.7" font-family="Times New Roman,serif" font-size="14.00">addr: 0000016007056130</text>
<polyline fill="none" stroke="#d408ac" points="1853,-162.5 2171.5,-162.5"/>
<text text-anchor="middle" x="2012.25" y="-145.2" font-family="Times New Roman,serif" font-size="14.00">val = &#39;x&#39;</text>
<polyline fill="none" stroke="#d408ac" points="1853,-138 2171.5,-138"/>
<text text-anchor="middle" x="2012.25" y="-120.7" font-family="Times New Roman,serif" font-size="14.00">type = VAR</text>
<polyline fill="none" stroke="#d408ac" points="1853,-113.5 2171.5,-113.5"/>
<text text-anchor="middle" x="1932.62" y="-96.2" font-family="Times New Roman,serif" font-size="14.00">L:</text>
<text text-anchor="middle" x="1932.62" y="-79.7" font-family="Times New Roman,serif" font-size="14.00"> addr: 0000000000000000</text>
<polyline fill="none" stroke="#d408ac" points="2012.25,-72.5 2012.25,-113.5"/>
<text text-anchor="middle" x="2091.88" y="-96.2" font-family="Times New Roman,serif" font-size="14.00">R: </text>
<text text-anchor="middle" x="2091.88" y="-79.7" font-family="Times New Roman,serif" font-size="14.00"> addr: 0000000000000000</text>
</g>
<!-- node_0000016007056190&#45;&gt;node_0000016007056130 -->
<g id="edge47" class="edge">
<title>node_0000016007056190&#45;&gt;node_0000016007056130</title>
<path fill="none" stroke="#ff0000" d="M1823.61,-223.52C1844.25,-213.37 1865.85,-202.74 1886.76,-192.46"/>
<polygon fill="#ff0000" stroke="#ff0000" points="1888.18,-195.67 1895.61,-188.11 1885.09,-189.38 1888.18,-195.67"/>
</g>
<!-- node_l_null_0000016007056160 -->
<g id="node32" class="node">
<title>node_l_null_0000016007056160</title>
<ellipse fill="#a2f0f8" stroke="#007cff" cx="1638.25" cy="-18" rx="27.81" ry="18"/>
<text text-anchor="middle" x="1638.25" y="-12.95" font-family="Times New Roman,serif" font-size="14.00"> null</text>
</g>
<!-- node_0000016007056160&#45;&gt;node_l_null_0000016007056160 -->
<g id="edge50" class="edge">
<title>node_0000016007056160&#45;&gt;node_l_null_0000016007056160</title>
<path fill="none" stroke="#007cff" d="M1656.21,-72.27C1653.21,-63.37 1650.23,-54.54 1647.59,-46.69"/>
<polygon fill="#007cff" stroke="#007cff" points="1650.98,-45.81 1644.47,-37.45 1644.35,-48.05 1650.98,-45.81"/>
</g>
<!-- node_r_null_0000016007056160 -->
<g id="node33" class="node">
<title>node_r_null_0000016007056160</title>
<ellipse fill="#a2f0f8" stroke="#007cff" cx="1712.25" cy="-18" rx="27.81" ry="18"/>
<text text-anchor="middle" x="1712.25" y="-12.95" font-family="Times New Roman,serif" font-size="14.00"> null</text>
</g>
<!-- node_0000016007056160&#45;&gt;node_r_null_0000016007056160 -->
<g id="edge51" class="edge">
<title>node_0000016007056160&#45;&gt;node_r_null_0000016007056160</title>
<path fill="none" stroke="#007cff" d="M1694.29,-72.27C1697.29,-63.37 1700.27,-54.54 1702.91,-46.69"/>
<polygon fill="#007cff" stroke="#007cff" points="1706.15,-48.05 1706.03,-37.45 1699.52,-45.81 1706.15,-48.05"/>
</g>
<!-- node_l_null_0000016007056130 -->
<g id="node34" class="node">
<title>node_l_null_0000016007056130</title>
<ellipse fill="#a2f0f8" stroke="#007cff" cx="1975.25" cy="-18" rx="27.81" ry="18"/>
<text text-anchor="middle" x="1975.25" y="-12.95" font-family="Times New Roman,serif" font-size="14.00"> null</text>
</g>
<!-- node_0000016007056130&#45;&gt;node_l_null_0000016007056130 -->
<g id="edge54" class="edge">
<title>node_0000016007056130&#45;&gt;node_l_null_0000016007056130</title>
<path fill="none" stroke="#007cff" d="M1993.21,-72.27C1990.21,-63.37 1987.23,-54.54 1984.59,-46.69"/>
<polygon fill="#007cff" stroke="#007cff" points="1987.98,-45.81 1981.47,-37.45 1981.35,-48.05 1987.98,-45.81"/>
</g>
<!-- node_r_null_0000016007056130 -->
<g id="node35" class="node">
<title>node_r_null_0000016007056130</title>
<ellipse fill="#a2f0f8" stroke="#007cff" cx="2049.25" cy="-18" rx="27.81" ry="18"/>
<text text-anchor="middle" x="2049.25" y="-12.95" font-family="Times New Roman,serif" font-size="14.00"> null</text>
</g>
<!-- node_0000016007056130&#45;&gt;node_r_null_0000016007056130 -->
<g id="edge55" class="edge">
<title>node_0000016007056130&#45;&gt;node_r_null_0000016007056130</title>
<path fill="none" stroke="#007cff" d="M2031.29,-72.27C2034.29,-63.37 2037.27,-54.54 2039.91,-46.69"/>
<polygon fill="#007cff" stroke="#007cff" points="2043.15,-48.05 2043.03,-37.45 2036.52,-45.81 2043.15,-48.05"/>
</g>
</g>
</svg>
