<?xml version="1.0" encoding="UTF-8" standalone="no"?>
<!DOCTYPE svg PUBLIC "-//W3C//DTD SVG 1.1//EN"
 "http://www.w3.org/Graphics/SVG/1.1/DTD/svg11.dtd">
<!-- Generated by graphviz version 12.2.0 (20241103.1931)
 -->
<!-- Pages: 1 -->
<svg width="1421pt" height="499pt"
 viewBox="0.00 0.00 1420.66 498.50" xmlns="http://www.w3.org/2000/svg" xmlns:xlink="http://www.w3.org/1999/xlink">
<g id="graph0" class="graph" transform="scale(1 1) rotate(0) translate(4 494.5)">
<polygon fill="white" stroke="none" points="-4,4 -4,-494.5 1416.66,-494.5 1416.66,4 -4,4"/>
<!-- node_00000299795c9780 -->
<g id="node1" class="node">
<title>node_00000299795c9780</title>
<path fill="#ecfd74" stroke="#ffc500" d="M519.5,-375.5C519.5,-375.5 811,-375.5 811,-375.5 817,-375.5 823,-381.5 823,-387.5 823,-387.5 823,-478 823,-478 823,-484 817,-490 811,-490 811,-490 519.5,-490 519.5,-490 513.5,-490 507.5,-484 507.5,-478 507.5,-478 507.5,-387.5 507.5,-387.5 507.5,-381.5 513.5,-375.5 519.5,-375.5"/>
<text text-anchor="middle" x="665.25" y="-472.7" font-family="Times New Roman,serif" font-size="14.00">addr: 00000299795c9780</text>
<polyline fill="none" stroke="#ffc500" points="507.5,-465.5 823,-465.5"/>
<text text-anchor="middle" x="665.25" y="-448.2" font-family="Times New Roman,serif" font-size="14.00">val = &#39;/&#39;</text>
<polyline fill="none" stroke="#ffc500" points="507.5,-441 823,-441"/>
<text text-anchor="middle" x="665.25" y="-423.7" font-family="Times New Roman,serif" font-size="14.00">type = OP</text>
<polyline fill="none" stroke="#ffc500" points="507.5,-416.5 823,-416.5"/>
<text text-anchor="middle" x="586.38" y="-399.2" font-family="Times New Roman,serif" font-size="14.00">L:</text>
<text text-anchor="middle" x="586.38" y="-382.7" font-family="Times New Roman,serif" font-size="14.00"> addr: 00000299795c96c0</text>
<polyline fill="none" stroke="#ffc500" points="665.25,-375.5 665.25,-416.5"/>
<text text-anchor="middle" x="744.12" y="-399.2" font-family="Times New Roman,serif" font-size="14.00">R: </text>
<text text-anchor="middle" x="744.12" y="-382.7" font-family="Times New Roman,serif" font-size="14.00"> addr: 00000299795c94c0</text>
</g>
<!-- node_00000299795c96c0 -->
<g id="node4" class="node">
<title>node_00000299795c96c0</title>
<path fill="#ecfd74" stroke="#ffc500" d="M350.12,-224C350.12,-224 642.38,-224 642.38,-224 648.38,-224 654.38,-230 654.38,-236 654.38,-236 654.38,-326.5 654.38,-326.5 654.38,-332.5 648.38,-338.5 642.38,-338.5 642.38,-338.5 350.12,-338.5 350.12,-338.5 344.12,-338.5 338.12,-332.5 338.12,-326.5 338.12,-326.5 338.12,-236 338.12,-236 338.12,-230 344.12,-224 350.12,-224"/>
<text text-anchor="middle" x="496.25" y="-321.2" font-family="Times New Roman,serif" font-size="14.00">addr: 00000299795c96c0</text>
<polyline fill="none" stroke="#ffc500" points="338.12,-314 654.38,-314"/>
<text text-anchor="middle" x="496.25" y="-296.7" font-family="Times New Roman,serif" font-size="14.00">val = &#39;+&#39;</text>
<polyline fill="none" stroke="#ffc500" points="338.12,-289.5 654.38,-289.5"/>
<text text-anchor="middle" x="496.25" y="-272.2" font-family="Times New Roman,serif" font-size="14.00">type = OP</text>
<polyline fill="none" stroke="#ffc500" points="338.12,-265 654.38,-265"/>
<text text-anchor="middle" x="417.38" y="-247.7" font-family="Times New Roman,serif" font-size="14.00">L:</text>
<text text-anchor="middle" x="417.38" y="-231.2" font-family="Times New Roman,serif" font-size="14.00"> addr: 00000299795c9810</text>
<polyline fill="none" stroke="#ffc500" points="496.62,-224 496.62,-265"/>
<text text-anchor="middle" x="575.5" y="-247.7" font-family="Times New Roman,serif" font-size="14.00">R: </text>
<text text-anchor="middle" x="575.5" y="-231.2" font-family="Times New Roman,serif" font-size="14.00"> addr: 00000299795c97e0</text>
</g>
<!-- node_00000299795c9780&#45;&gt;node_00000299795c96c0 -->
<g id="edge2" class="edge">
<title>node_00000299795c9780&#45;&gt;node_00000299795c96c0</title>
<path fill="none" stroke="#ff0000" d="M601.36,-375.23C590.74,-365.84 579.65,-356.03 568.84,-346.46"/>
<polygon fill="#ff0000" stroke="#ff0000" points="571.17,-343.86 561.37,-339.85 566.54,-349.1 571.17,-343.86"/>
</g>
<!-- node_00000299795c94c0 -->
<g id="node5" class="node">
<title>node_00000299795c94c0</title>
<path fill="#ecfd74" stroke="#ffc500" d="M686.75,-224C686.75,-224 979.75,-224 979.75,-224 985.75,-224 991.75,-230 991.75,-236 991.75,-236 991.75,-326.5 991.75,-326.5 991.75,-332.5 985.75,-338.5 979.75,-338.5 979.75,-338.5 686.75,-338.5 686.75,-338.5 680.75,-338.5 674.75,-332.5 674.75,-326.5 674.75,-326.5 674.75,-236 674.75,-236 674.75,-230 680.75,-224 686.75,-224"/>
<text text-anchor="middle" x="833.25" y="-321.2" font-family="Times New Roman,serif" font-size="14.00">addr: 00000299795c94c0</text>
<polyline fill="none" stroke="#ffc500" points="674.75,-314 991.75,-314"/>
<text text-anchor="middle" x="833.25" y="-296.7" font-family="Times New Roman,serif" font-size="14.00">val = &#39;/&#39;</text>
<polyline fill="none" stroke="#ffc500" points="674.75,-289.5 991.75,-289.5"/>
<text text-anchor="middle" x="833.25" y="-272.2" font-family="Times New Roman,serif" font-size="14.00">type = OP</text>
<polyline fill="none" stroke="#ffc500" points="674.75,-265 991.75,-265"/>
<text text-anchor="middle" x="754" y="-247.7" font-family="Times New Roman,serif" font-size="14.00">L:</text>
<text text-anchor="middle" x="754" y="-231.2" font-family="Times New Roman,serif" font-size="14.00"> addr: 00000299795c9490</text>
<polyline fill="none" stroke="#ffc500" points="833.25,-224 833.25,-265"/>
<text text-anchor="middle" x="912.5" y="-247.7" font-family="Times New Roman,serif" font-size="14.00">R: </text>
<text text-anchor="middle" x="912.5" y="-231.2" font-family="Times New Roman,serif" font-size="14.00"> addr: 00000299795c9460</text>
</g>
<!-- node_00000299795c9780&#45;&gt;node_00000299795c94c0 -->
<g id="edge3" class="edge">
<title>node_00000299795c9780&#45;&gt;node_00000299795c94c0</title>
<path fill="none" stroke="#ff0000" d="M728.76,-375.23C739.32,-365.84 750.34,-356.03 761.09,-346.46"/>
<polygon fill="#ff0000" stroke="#ff0000" points="763.37,-349.12 768.52,-339.86 758.72,-343.89 763.37,-349.12"/>
</g>
<!-- 1 -->
<g id="node2" class="node">
<title>1</title>
<ellipse fill="#fe5656" stroke="#581845" cx="1365.25" cy="-432.75" rx="18" ry="18"/>
<text text-anchor="middle" x="1365.25" y="-427.7" font-family="Times New Roman,serif" font-size="14.00">1</text>
</g>
<!-- 2 -->
<g id="node3" class="node">
<title>2</title>
<ellipse fill="#fe5656" stroke="#581845" cx="1365.25" cy="-281.25" rx="18" ry="18"/>
<text text-anchor="middle" x="1365.25" y="-276.2" font-family="Times New Roman,serif" font-size="14.00">2</text>
</g>
<!-- 1&#45;&gt;2 -->
<g id="edge1" class="edge">
<title>1&#45;&gt;2</title>
<path fill="none" stroke="white" d="M1360.79,-414.89C1358.09,-389.41 1357.78,-340.8 1359.86,-310.03"/>
<polygon fill="white" stroke="white" points="1363.33,-310.59 1360.69,-300.33 1356.35,-309.99 1363.33,-310.59"/>
</g>
<!-- 1&#45;&gt;2 -->
<g id="edge4" class="edge">
<title>1&#45;&gt;2</title>
<path fill="none" stroke="white" d="M1369.71,-414.89C1372.41,-389.41 1372.72,-340.8 1370.64,-310.03"/>
<polygon fill="white" stroke="white" points="1374.15,-309.99 1369.81,-300.33 1367.17,-310.59 1374.15,-309.99"/>
</g>
<!-- 3 -->
<g id="node6" class="node">
<title>3</title>
<ellipse fill="#fe5656" stroke="#581845" cx="1365.25" cy="-129.75" rx="18" ry="18"/>
<text text-anchor="middle" x="1365.25" y="-124.7" font-family="Times New Roman,serif" font-size="14.00">3</text>
</g>
<!-- 2&#45;&gt;3 -->
<g id="edge5" class="edge">
<title>2&#45;&gt;3</title>
<path fill="none" stroke="white" d="M1353.21,-267.24C1343.46,-242.05 1342.4,-186.26 1350,-154.35"/>
<polygon fill="white" stroke="white" points="1353.33,-155.44 1352.9,-144.86 1346.64,-153.4 1353.33,-155.44"/>
</g>
<!-- 2&#45;&gt;3 -->
<g id="edge8" class="edge">
<title>2&#45;&gt;3</title>
<path fill="none" stroke="white" d="M1360.79,-263.39C1358.09,-237.91 1357.78,-189.3 1359.86,-158.53"/>
<polygon fill="white" stroke="white" points="1363.33,-159.09 1360.69,-148.83 1356.35,-158.49 1363.33,-159.09"/>
</g>
<!-- 2&#45;&gt;3 -->
<g id="edge17" class="edge">
<title>2&#45;&gt;3</title>
<path fill="none" stroke="white" d="M1369.71,-263.39C1372.41,-237.91 1372.72,-189.3 1370.64,-158.53"/>
<polygon fill="white" stroke="white" points="1374.15,-158.49 1369.81,-148.83 1367.17,-159.09 1374.15,-158.49"/>
</g>
<!-- 2&#45;&gt;3 -->
<g id="edge20" class="edge">
<title>2&#45;&gt;3</title>
<path fill="none" stroke="white" d="M1377.29,-267.24C1387.04,-242.05 1388.1,-186.26 1380.5,-154.35"/>
<polygon fill="white" stroke="white" points="1383.86,-153.4 1377.6,-144.86 1377.17,-155.44 1383.86,-153.4"/>
</g>
<!-- node_00000299795c9810 -->
<g id="node7" class="node">
<title>node_00000299795c9810</title>
<path fill="#ff5fe0" stroke="#d408ac" d="M12,-72.5C12,-72.5 306.5,-72.5 306.5,-72.5 312.5,-72.5 318.5,-78.5 318.5,-84.5 318.5,-84.5 318.5,-175 318.5,-175 318.5,-181 312.5,-187 306.5,-187 306.5,-187 12,-187 12,-187 6,-187 0,-181 0,-175 0,-175 0,-84.5 0,-84.5 0,-78.5 6,-72.5 12,-72.5"/>
<text text-anchor="middle" x="159.25" y="-169.7" font-family="Times New Roman,serif" font-size="14.00">addr: 00000299795c9810</text>
<polyline fill="none" stroke="#d408ac" points="0,-162.5 318.5,-162.5"/>
<text text-anchor="middle" x="159.25" y="-145.2" font-family="Times New Roman,serif" font-size="14.00">val = &#39;x&#39;</text>
<polyline fill="none" stroke="#d408ac" points="0,-138 318.5,-138"/>
<text text-anchor="middle" x="159.25" y="-120.7" font-family="Times New Roman,serif" font-size="14.00">type = VAR</text>
<polyline fill="none" stroke="#d408ac" points="0,-113.5 318.5,-113.5"/>
<text text-anchor="middle" x="79.62" y="-96.2" font-family="Times New Roman,serif" font-size="14.00">L:</text>
<text text-anchor="middle" x="79.62" y="-79.7" font-family="Times New Roman,serif" font-size="14.00"> addr: 0000000000000000</text>
<polyline fill="none" stroke="#d408ac" points="159.25,-72.5 159.25,-113.5"/>
<text text-anchor="middle" x="238.88" y="-96.2" font-family="Times New Roman,serif" font-size="14.00">R: </text>
<text text-anchor="middle" x="238.88" y="-79.7" font-family="Times New Roman,serif" font-size="14.00"> addr: 0000000000000000</text>
</g>
<!-- node_00000299795c96c0&#45;&gt;node_00000299795c9810 -->
<g id="edge6" class="edge">
<title>node_00000299795c96c0&#45;&gt;node_00000299795c9810</title>
<path fill="none" stroke="#ff0000" d="M368.36,-223.52C345.17,-213.23 320.88,-202.45 297.41,-192.04"/>
<polygon fill="#ff0000" stroke="#ff0000" points="298.99,-188.91 288.43,-188.06 296.15,-195.31 298.99,-188.91"/>
</g>
<!-- node_00000299795c97e0 -->
<g id="node8" class="node">
<title>node_00000299795c97e0</title>
<path fill="#a2f8a4" stroke="#18ca1c" d="M349,-72.5C349,-72.5 643.5,-72.5 643.5,-72.5 649.5,-72.5 655.5,-78.5 655.5,-84.5 655.5,-84.5 655.5,-175 655.5,-175 655.5,-181 649.5,-187 643.5,-187 643.5,-187 349,-187 349,-187 343,-187 337,-181 337,-175 337,-175 337,-84.5 337,-84.5 337,-78.5 343,-72.5 349,-72.5"/>
<text text-anchor="middle" x="496.25" y="-169.7" font-family="Times New Roman,serif" font-size="14.00">addr: 00000299795c97e0</text>
<polyline fill="none" stroke="#18ca1c" points="337,-162.5 655.5,-162.5"/>
<text text-anchor="middle" x="496.25" y="-145.2" font-family="Times New Roman,serif" font-size="14.00">val = 3</text>
<polyline fill="none" stroke="#18ca1c" points="337,-138 655.5,-138"/>
<text text-anchor="middle" x="496.25" y="-120.7" font-family="Times New Roman,serif" font-size="14.00">type = NUM</text>
<polyline fill="none" stroke="#18ca1c" points="337,-113.5 655.5,-113.5"/>
<text text-anchor="middle" x="416.62" y="-96.2" font-family="Times New Roman,serif" font-size="14.00">L:</text>
<text text-anchor="middle" x="416.62" y="-79.7" font-family="Times New Roman,serif" font-size="14.00"> addr: 0000000000000000</text>
<polyline fill="none" stroke="#18ca1c" points="496.25,-72.5 496.25,-113.5"/>
<text text-anchor="middle" x="575.88" y="-96.2" font-family="Times New Roman,serif" font-size="14.00">R: </text>
<text text-anchor="middle" x="575.88" y="-79.7" font-family="Times New Roman,serif" font-size="14.00"> addr: 0000000000000000</text>
</g>
<!-- node_00000299795c96c0&#45;&gt;node_00000299795c97e0 -->
<g id="edge7" class="edge">
<title>node_00000299795c96c0&#45;&gt;node_00000299795c97e0</title>
<path fill="none" stroke="#ff0000" d="M496.25,-223.73C496.25,-215.54 496.25,-207.05 496.25,-198.67"/>
<polygon fill="#ff0000" stroke="#ff0000" points="499.75,-198.86 496.25,-188.86 492.75,-198.86 499.75,-198.86"/>
</g>
<!-- node_00000299795c9490 -->
<g id="node14" class="node">
<title>node_00000299795c9490</title>
<path fill="#ff5fe0" stroke="#d408ac" d="M686,-72.5C686,-72.5 980.5,-72.5 980.5,-72.5 986.5,-72.5 992.5,-78.5 992.5,-84.5 992.5,-84.5 992.5,-175 992.5,-175 992.5,-181 986.5,-187 980.5,-187 980.5,-187 686,-187 686,-187 680,-187 674,-181 674,-175 674,-175 674,-84.5 674,-84.5 674,-78.5 680,-72.5 686,-72.5"/>
<text text-anchor="middle" x="833.25" y="-169.7" font-family="Times New Roman,serif" font-size="14.00">addr: 00000299795c9490</text>
<polyline fill="none" stroke="#d408ac" points="674,-162.5 992.5,-162.5"/>
<text text-anchor="middle" x="833.25" y="-145.2" font-family="Times New Roman,serif" font-size="14.00">val = &#39;x&#39;</text>
<polyline fill="none" stroke="#d408ac" points="674,-138 992.5,-138"/>
<text text-anchor="middle" x="833.25" y="-120.7" font-family="Times New Roman,serif" font-size="14.00">type = VAR</text>
<polyline fill="none" stroke="#d408ac" points="674,-113.5 992.5,-113.5"/>
<text text-anchor="middle" x="753.62" y="-96.2" font-family="Times New Roman,serif" font-size="14.00">L:</text>
<text text-anchor="middle" x="753.62" y="-79.7" font-family="Times New Roman,serif" font-size="14.00"> addr: 0000000000000000</text>
<polyline fill="none" stroke="#d408ac" points="833.25,-72.5 833.25,-113.5"/>
<text text-anchor="middle" x="912.88" y="-96.2" font-family="Times New Roman,serif" font-size="14.00">R: </text>
<text text-anchor="middle" x="912.88" y="-79.7" font-family="Times New Roman,serif" font-size="14.00"> addr: 0000000000000000</text>
</g>
<!-- node_00000299795c94c0&#45;&gt;node_00000299795c9490 -->
<g id="edge18" class="edge">
<title>node_00000299795c94c0&#45;&gt;node_00000299795c9490</title>
<path fill="none" stroke="#ff0000" d="M833.25,-223.73C833.25,-215.54 833.25,-207.05 833.25,-198.67"/>
<polygon fill="#ff0000" stroke="#ff0000" points="836.75,-198.86 833.25,-188.86 829.75,-198.86 836.75,-198.86"/>
</g>
<!-- node_00000299795c9460 -->
<g id="node15" class="node">
<title>node_00000299795c9460</title>
<path fill="#a2f8a4" stroke="#18ca1c" d="M1023,-72.5C1023,-72.5 1317.5,-72.5 1317.5,-72.5 1323.5,-72.5 1329.5,-78.5 1329.5,-84.5 1329.5,-84.5 1329.5,-175 1329.5,-175 1329.5,-181 1323.5,-187 1317.5,-187 1317.5,-187 1023,-187 1023,-187 1017,-187 1011,-181 1011,-175 1011,-175 1011,-84.5 1011,-84.5 1011,-78.5 1017,-72.5 1023,-72.5"/>
<text text-anchor="middle" x="1170.25" y="-169.7" font-family="Times New Roman,serif" font-size="14.00">addr: 00000299795c9460</text>
<polyline fill="none" stroke="#18ca1c" points="1011,-162.5 1329.5,-162.5"/>
<text text-anchor="middle" x="1170.25" y="-145.2" font-family="Times New Roman,serif" font-size="14.00">val = 2</text>
<polyline fill="none" stroke="#18ca1c" points="1011,-138 1329.5,-138"/>
<text text-anchor="middle" x="1170.25" y="-120.7" font-family="Times New Roman,serif" font-size="14.00">type = NUM</text>
<polyline fill="none" stroke="#18ca1c" points="1011,-113.5 1329.5,-113.5"/>
<text text-anchor="middle" x="1090.62" y="-96.2" font-family="Times New Roman,serif" font-size="14.00">L:</text>
<text text-anchor="middle" x="1090.62" y="-79.7" font-family="Times New Roman,serif" font-size="14.00"> addr: 0000000000000000</text>
<polyline fill="none" stroke="#18ca1c" points="1170.25,-72.5 1170.25,-113.5"/>
<text text-anchor="middle" x="1249.88" y="-96.2" font-family="Times New Roman,serif" font-size="14.00">R: </text>
<text text-anchor="middle" x="1249.88" y="-79.7" font-family="Times New Roman,serif" font-size="14.00"> addr: 0000000000000000</text>
</g>
<!-- node_00000299795c94c0&#45;&gt;node_00000299795c9460 -->
<g id="edge19" class="edge">
<title>node_00000299795c94c0&#45;&gt;node_00000299795c9460</title>
<path fill="none" stroke="#ff0000" d="M961.14,-223.52C984.33,-213.23 1008.62,-202.45 1032.09,-192.04"/>
<polygon fill="#ff0000" stroke="#ff0000" points="1033.35,-195.31 1041.07,-188.06 1030.51,-188.91 1033.35,-195.31"/>
</g>
<!-- 4 -->
<g id="node9" class="node">
<title>4</title>
<ellipse fill="#fe5656" stroke="#581845" cx="1365.25" cy="-18" rx="18" ry="18"/>
<text text-anchor="middle" x="1365.25" y="-12.95" font-family="Times New Roman,serif" font-size="14.00">4</text>
</g>
<!-- 3&#45;&gt;4 -->
<g id="edge9" class="edge">
<title>3&#45;&gt;4</title>
<path fill="none" stroke="white" d="M1347.42,-125.35C1311.69,-110.46 1308.51,-50.84 1337.87,-27.98"/>
<polygon fill="white" stroke="white" points="1339.32,-31.18 1346.21,-23.13 1335.8,-25.13 1339.32,-31.18"/>
</g>
<!-- 3&#45;&gt;4 -->
<g id="edge12" class="edge">
<title>3&#45;&gt;4</title>
<path fill="none" stroke="white" d="M1348.56,-122.53C1328.64,-105.64 1326.16,-58.49 1341.14,-34.08"/>
<polygon fill="white" stroke="white" points="1343.66,-36.52 1347.35,-26.59 1338.27,-32.05 1343.66,-36.52"/>
</g>
<!-- 3&#45;&gt;4 -->
<g id="edge13" class="edge">
<title>3&#45;&gt;4</title>
<path fill="none" stroke="white" d="M1352.14,-117C1344.02,-99.02 1342.83,-64.32 1348.55,-41.42"/>
<polygon fill="white" stroke="white" points="1351.82,-42.69 1351.69,-32.09 1345.18,-40.45 1351.82,-42.69"/>
</g>
<!-- 3&#45;&gt;4 -->
<g id="edge16" class="edge">
<title>3&#45;&gt;4</title>
<path fill="none" stroke="white" d="M1360.24,-112.08C1358.29,-94.74 1357.98,-67.28 1359.3,-46.68"/>
<polygon fill="white" stroke="white" points="1362.76,-47.24 1360.13,-36.97 1355.79,-46.64 1362.76,-47.24"/>
</g>
<!-- 3&#45;&gt;4 -->
<g id="edge21" class="edge">
<title>3&#45;&gt;4</title>
<path fill="none" stroke="white" d="M1370.26,-112.08C1372.21,-94.74 1372.52,-67.28 1371.2,-46.68"/>
<polygon fill="white" stroke="white" points="1374.71,-46.64 1370.37,-36.97 1367.74,-47.24 1374.71,-46.64"/>
</g>
<!-- 3&#45;&gt;4 -->
<g id="edge24" class="edge">
<title>3&#45;&gt;4</title>
<path fill="none" stroke="white" d="M1378.36,-117C1386.48,-99.02 1387.67,-64.32 1381.95,-41.42"/>
<polygon fill="white" stroke="white" points="1385.32,-40.45 1378.81,-32.09 1378.68,-42.69 1385.32,-40.45"/>
</g>
<!-- 3&#45;&gt;4 -->
<g id="edge25" class="edge">
<title>3&#45;&gt;4</title>
<path fill="none" stroke="white" d="M1381.94,-122.53C1401.86,-105.64 1404.34,-58.49 1389.36,-34.08"/>
<polygon fill="white" stroke="white" points="1392.23,-32.05 1383.15,-26.59 1386.84,-36.52 1392.23,-32.05"/>
</g>
<!-- 3&#45;&gt;4 -->
<g id="edge28" class="edge">
<title>3&#45;&gt;4</title>
<path fill="none" stroke="white" d="M1383.08,-125.35C1418.81,-110.46 1421.99,-50.84 1392.63,-27.98"/>
<polygon fill="white" stroke="white" points="1394.7,-25.13 1384.29,-23.13 1391.18,-31.18 1394.7,-25.13"/>
</g>
<!-- node_l_null_00000299795c9810 -->
<g id="node10" class="node">
<title>node_l_null_00000299795c9810</title>
<ellipse fill="#a2f0f8" stroke="#007cff" cx="122.25" cy="-18" rx="27.81" ry="18"/>
<text text-anchor="middle" x="122.25" y="-12.95" font-family="Times New Roman,serif" font-size="14.00"> null</text>
</g>
<!-- node_00000299795c9810&#45;&gt;node_l_null_00000299795c9810 -->
<g id="edge10" class="edge">
<title>node_00000299795c9810&#45;&gt;node_l_null_00000299795c9810</title>
<path fill="none" stroke="#007cff" d="M140.21,-72.27C137.21,-63.37 134.23,-54.54 131.59,-46.69"/>
<polygon fill="#007cff" stroke="#007cff" points="134.98,-45.81 128.47,-37.45 128.35,-48.05 134.98,-45.81"/>
</g>
<!-- node_r_null_00000299795c9810 -->
<g id="node11" class="node">
<title>node_r_null_00000299795c9810</title>
<ellipse fill="#a2f0f8" stroke="#007cff" cx="196.25" cy="-18" rx="27.81" ry="18"/>
<text text-anchor="middle" x="196.25" y="-12.95" font-family="Times New Roman,serif" font-size="14.00"> null</text>
</g>
<!-- node_00000299795c9810&#45;&gt;node_r_null_00000299795c9810 -->
<g id="edge11" class="edge">
<title>node_00000299795c9810&#45;&gt;node_r_null_00000299795c9810</title>
<path fill="none" stroke="#007cff" d="M178.29,-72.27C181.29,-63.37 184.27,-54.54 186.91,-46.69"/>
<polygon fill="#007cff" stroke="#007cff" points="190.15,-48.05 190.03,-37.45 183.52,-45.81 190.15,-48.05"/>
</g>
<!-- node_l_null_00000299795c97e0 -->
<g id="node12" class="node">
<title>node_l_null_00000299795c97e0</title>
<ellipse fill="#a2f0f8" stroke="#007cff" cx="459.25" cy="-18" rx="27.81" ry="18"/>
<text text-anchor="middle" x="459.25" y="-12.95" font-family="Times New Roman,serif" font-size="14.00"> null</text>
</g>
<!-- node_00000299795c97e0&#45;&gt;node_l_null_00000299795c97e0 -->
<g id="edge14" class="edge">
<title>node_00000299795c97e0&#45;&gt;node_l_null_00000299795c97e0</title>
<path fill="none" stroke="#007cff" d="M477.21,-72.27C474.21,-63.37 471.23,-54.54 468.59,-46.69"/>
<polygon fill="#007cff" stroke="#007cff" points="471.98,-45.81 465.47,-37.45 465.35,-48.05 471.98,-45.81"/>
</g>
<!-- node_r_null_00000299795c97e0 -->
<g id="node13" class="node">
<title>node_r_null_00000299795c97e0</title>
<ellipse fill="#a2f0f8" stroke="#007cff" cx="533.25" cy="-18" rx="27.81" ry="18"/>
<text text-anchor="middle" x="533.25" y="-12.95" font-family="Times New Roman,serif" font-size="14.00"> null</text>
</g>
<!-- node_00000299795c97e0&#45;&gt;node_r_null_00000299795c97e0 -->
<g id="edge15" class="edge">
<title>node_00000299795c97e0&#45;&gt;node_r_null_00000299795c97e0</title>
<path fill="none" stroke="#007cff" d="M515.29,-72.27C518.29,-63.37 521.27,-54.54 523.91,-46.69"/>
<polygon fill="#007cff" stroke="#007cff" points="527.15,-48.05 527.03,-37.45 520.52,-45.81 527.15,-48.05"/>
</g>
<!-- node_l_null_00000299795c9490 -->
<g id="node16" class="node">
<title>node_l_null_00000299795c9490</title>
<ellipse fill="#a2f0f8" stroke="#007cff" cx="796.25" cy="-18" rx="27.81" ry="18"/>
<text text-anchor="middle" x="796.25" y="-12.95" font-family="Times New Roman,serif" font-size="14.00"> null</text>
</g>
<!-- node_00000299795c9490&#45;&gt;node_l_null_00000299795c9490 -->
<g id="edge22" class="edge">
<title>node_00000299795c9490&#45;&gt;node_l_null_00000299795c9490</title>
<path fill="none" stroke="#007cff" d="M814.21,-72.27C811.21,-63.37 808.23,-54.54 805.59,-46.69"/>
<polygon fill="#007cff" stroke="#007cff" points="808.98,-45.81 802.47,-37.45 802.35,-48.05 808.98,-45.81"/>
</g>
<!-- node_r_null_00000299795c9490 -->
<g id="node17" class="node">
<title>node_r_null_00000299795c9490</title>
<ellipse fill="#a2f0f8" stroke="#007cff" cx="870.25" cy="-18" rx="27.81" ry="18"/>
<text text-anchor="middle" x="870.25" y="-12.95" font-family="Times New Roman,serif" font-size="14.00"> null</text>
</g>
<!-- node_00000299795c9490&#45;&gt;node_r_null_00000299795c9490 -->
<g id="edge23" class="edge">
<title>node_00000299795c9490&#45;&gt;node_r_null_00000299795c9490</title>
<path fill="none" stroke="#007cff" d="M852.29,-72.27C855.29,-63.37 858.27,-54.54 860.91,-46.69"/>
<polygon fill="#007cff" stroke="#007cff" points="864.15,-48.05 864.03,-37.45 857.52,-45.81 864.15,-48.05"/>
</g>
<!-- node_l_null_00000299795c9460 -->
<g id="node18" class="node">
<title>node_l_null_00000299795c9460</title>
<ellipse fill="#a2f0f8" stroke="#007cff" cx="1133.25" cy="-18" rx="27.81" ry="18"/>
<text text-anchor="middle" x="1133.25" y="-12.95" font-family="Times New Roman,serif" font-size="14.00"> null</text>
</g>
<!-- node_00000299795c9460&#45;&gt;node_l_null_00000299795c9460 -->
<g id="edge26" class="edge">
<title>node_00000299795c9460&#45;&gt;node_l_null_00000299795c9460</title>
<path fill="none" stroke="#007cff" d="M1151.21,-72.27C1148.21,-63.37 1145.23,-54.54 1142.59,-46.69"/>
<polygon fill="#007cff" stroke="#007cff" points="1145.98,-45.81 1139.47,-37.45 1139.35,-48.05 1145.98,-45.81"/>
</g>
<!-- node_r_null_00000299795c9460 -->
<g id="node19" class="node">
<title>node_r_null_00000299795c9460</title>
<ellipse fill="#a2f0f8" stroke="#007cff" cx="1207.25" cy="-18" rx="27.81" ry="18"/>
<text text-anchor="middle" x="1207.25" y="-12.95" font-family="Times New Roman,serif" font-size="14.00"> null</text>
</g>
<!-- node_00000299795c9460&#45;&gt;node_r_null_00000299795c9460 -->
<g id="edge27" class="edge">
<title>node_00000299795c9460&#45;&gt;node_r_null_00000299795c9460</title>
<path fill="none" stroke="#007cff" d="M1189.29,-72.27C1192.29,-63.37 1195.27,-54.54 1197.91,-46.69"/>
<polygon fill="#007cff" stroke="#007cff" points="1201.15,-48.05 1201.03,-37.45 1194.52,-45.81 1201.15,-48.05"/>
</g>
</g>
</svg>
