<?xml version="1.0" encoding="UTF-8" standalone="no"?>
<!DOCTYPE svg PUBLIC "-//W3C//DTD SVG 1.1//EN"
 "http://www.w3.org/Graphics/SVG/1.1/DTD/svg11.dtd">
<!-- Generated by graphviz version 12.2.0 (20241103.1931)
 -->
<!-- Pages: 1 -->
<svg width="538pt" height="347pt"
 viewBox="0.00 0.00 538.25 347.00" xmlns="http://www.w3.org/2000/svg" xmlns:xlink="http://www.w3.org/1999/xlink">
<g id="graph0" class="graph" transform="scale(1 1) rotate(0) translate(4 343)">
<polygon fill="white" stroke="none" points="-4,4 -4,-343 534.25,-343 534.25,4 -4,4"/>
<!-- node_000001ae56449720 -->
<g id="node1" class="node">
<title>node_000001ae56449720</title>
<path fill="#ecfd74" stroke="#ffc500" d="M133.75,-224C133.75,-224 426.75,-224 426.75,-224 432.75,-224 438.75,-230 438.75,-236 438.75,-236 438.75,-326.5 438.75,-326.5 438.75,-332.5 432.75,-338.5 426.75,-338.5 426.75,-338.5 133.75,-338.5 133.75,-338.5 127.75,-338.5 121.75,-332.5 121.75,-326.5 121.75,-326.5 121.75,-236 121.75,-236 121.75,-230 127.75,-224 133.75,-224"/>
<text text-anchor="middle" x="280.25" y="-321.2" font-family="Times New Roman,serif" font-size="14.00">addr: 000001ae56449720</text>
<polyline fill="none" stroke="#ffc500" points="121.75,-314 438.75,-314"/>
<text text-anchor="middle" x="280.25" y="-296.7" font-family="Times New Roman,serif" font-size="14.00">val = &#39;4&#39;</text>
<polyline fill="none" stroke="#ffc500" points="121.75,-289.5 438.75,-289.5"/>
<text text-anchor="middle" x="280.25" y="-272.2" font-family="Times New Roman,serif" font-size="14.00">type = OP</text>
<polyline fill="none" stroke="#ffc500" points="121.75,-265 438.75,-265"/>
<text text-anchor="middle" x="200.62" y="-247.7" font-family="Times New Roman,serif" font-size="14.00">L:</text>
<text text-anchor="middle" x="200.62" y="-231.2" font-family="Times New Roman,serif" font-size="14.00"> addr: 000001ae564497b0</text>
<polyline fill="none" stroke="#ffc500" points="279.5,-224 279.5,-265"/>
<text text-anchor="middle" x="359.12" y="-247.7" font-family="Times New Roman,serif" font-size="14.00">R: </text>
<text text-anchor="middle" x="359.12" y="-231.2" font-family="Times New Roman,serif" font-size="14.00"> addr: 0000000000000000</text>
</g>
<!-- node_000001ae564497b0 -->
<g id="node4" class="node">
<title>node_000001ae564497b0</title>
<path fill="#a2f8a4" stroke="#18ca1c" d="M12,-72.5C12,-72.5 306.5,-72.5 306.5,-72.5 312.5,-72.5 318.5,-78.5 318.5,-84.5 318.5,-84.5 318.5,-175 318.5,-175 318.5,-181 312.5,-187 306.5,-187 306.5,-187 12,-187 12,-187 6,-187 0,-181 0,-175 0,-175 0,-84.5 0,-84.5 0,-78.5 6,-72.5 12,-72.5"/>
<text text-anchor="middle" x="159.25" y="-169.7" font-family="Times New Roman,serif" font-size="14.00">addr: 000001ae564497b0</text>
<polyline fill="none" stroke="#18ca1c" points="0,-162.5 318.5,-162.5"/>
<text text-anchor="middle" x="159.25" y="-145.2" font-family="Times New Roman,serif" font-size="14.00">val = 19</text>
<polyline fill="none" stroke="#18ca1c" points="0,-138 318.5,-138"/>
<text text-anchor="middle" x="159.25" y="-120.7" font-family="Times New Roman,serif" font-size="14.00">type = NUM</text>
<polyline fill="none" stroke="#18ca1c" points="0,-113.5 318.5,-113.5"/>
<text text-anchor="middle" x="79.62" y="-96.2" font-family="Times New Roman,serif" font-size="14.00">L:</text>
<text text-anchor="middle" x="79.62" y="-79.7" font-family="Times New Roman,serif" font-size="14.00"> addr: 0000000000000000</text>
<polyline fill="none" stroke="#18ca1c" points="159.25,-72.5 159.25,-113.5"/>
<text text-anchor="middle" x="238.88" y="-96.2" font-family="Times New Roman,serif" font-size="14.00">R: </text>
<text text-anchor="middle" x="238.88" y="-79.7" font-family="Times New Roman,serif" font-size="14.00"> addr: 0000000000000000</text>
</g>
<!-- node_000001ae56449720&#45;&gt;node_000001ae564497b0 -->
<g id="edge2" class="edge">
<title>node_000001ae56449720&#45;&gt;node_000001ae564497b0</title>
<path fill="none" stroke="#ff0000" d="M234.51,-223.73C227.2,-214.71 219.59,-205.31 212.14,-196.1"/>
<polygon fill="#ff0000" stroke="#ff0000" points="215.02,-194.1 206.01,-188.53 209.58,-198.5 215.02,-194.1"/>
</g>
<!-- node_r_null_000001ae56449720 -->
<g id="node5" class="node">
<title>node_r_null_000001ae56449720</title>
<ellipse fill="#a2f0f8" stroke="#007cff" cx="364.25" cy="-129.75" rx="27.81" ry="18"/>
<text text-anchor="middle" x="364.25" y="-124.7" font-family="Times New Roman,serif" font-size="14.00"> null</text>
</g>
<!-- node_000001ae56449720&#45;&gt;node_r_null_000001ae56449720 -->
<g id="edge3" class="edge">
<title>node_000001ae56449720&#45;&gt;node_r_null_000001ae56449720</title>
<path fill="none" stroke="#007cff" d="M312.01,-223.73C324.9,-200.78 339.17,-175.39 349.53,-156.95"/>
<polygon fill="#007cff" stroke="#007cff" points="352.55,-158.72 354.4,-148.29 346.45,-155.29 352.55,-158.72"/>
</g>
<!-- 1 -->
<g id="node2" class="node">
<title>1</title>
<ellipse fill="#fe5656" stroke="#581845" cx="512.25" cy="-281.25" rx="18" ry="18"/>
<text text-anchor="middle" x="512.25" y="-276.2" font-family="Times New Roman,serif" font-size="14.00">1</text>
</g>
<!-- 2 -->
<g id="node3" class="node">
<title>2</title>
<ellipse fill="#fe5656" stroke="#581845" cx="512.25" cy="-129.75" rx="18" ry="18"/>
<text text-anchor="middle" x="512.25" y="-124.7" font-family="Times New Roman,serif" font-size="14.00">2</text>
</g>
<!-- 1&#45;&gt;2 -->
<g id="edge1" class="edge">
<title>1&#45;&gt;2</title>
<path fill="none" stroke="white" d="M507.79,-263.39C505.09,-237.91 504.78,-189.3 506.86,-158.53"/>
<polygon fill="white" stroke="white" points="510.33,-159.09 507.69,-148.83 503.35,-158.49 510.33,-159.09"/>
</g>
<!-- 1&#45;&gt;2 -->
<g id="edge4" class="edge">
<title>1&#45;&gt;2</title>
<path fill="none" stroke="white" d="M516.71,-263.39C519.41,-237.91 519.72,-189.3 517.64,-158.53"/>
<polygon fill="white" stroke="white" points="521.15,-158.49 516.81,-148.83 514.17,-159.09 521.15,-158.49"/>
</g>
<!-- 3 -->
<g id="node6" class="node">
<title>3</title>
<ellipse fill="#fe5656" stroke="#581845" cx="512.25" cy="-18" rx="18" ry="18"/>
<text text-anchor="middle" x="512.25" y="-12.95" font-family="Times New Roman,serif" font-size="14.00">3</text>
</g>
<!-- 2&#45;&gt;3 -->
<g id="edge5" class="edge">
<title>2&#45;&gt;3</title>
<path fill="none" stroke="white" d="M507.24,-112.08C505.29,-94.74 504.98,-67.28 506.3,-46.68"/>
<polygon fill="white" stroke="white" points="509.76,-47.24 507.13,-36.97 502.79,-46.64 509.76,-47.24"/>
</g>
<!-- 2&#45;&gt;3 -->
<g id="edge8" class="edge">
<title>2&#45;&gt;3</title>
<path fill="none" stroke="white" d="M517.26,-112.08C519.21,-94.74 519.52,-67.28 518.2,-46.68"/>
<polygon fill="white" stroke="white" points="521.71,-46.64 517.37,-36.97 514.74,-47.24 521.71,-46.64"/>
</g>
<!-- node_l_null_000001ae564497b0 -->
<g id="node7" class="node">
<title>node_l_null_000001ae564497b0</title>
<ellipse fill="#a2f0f8" stroke="#007cff" cx="122.25" cy="-18" rx="27.81" ry="18"/>
<text text-anchor="middle" x="122.25" y="-12.95" font-family="Times New Roman,serif" font-size="14.00"> null</text>
</g>
<!-- node_000001ae564497b0&#45;&gt;node_l_null_000001ae564497b0 -->
<g id="edge6" class="edge">
<title>node_000001ae564497b0&#45;&gt;node_l_null_000001ae564497b0</title>
<path fill="none" stroke="#007cff" d="M140.21,-72.27C137.21,-63.37 134.23,-54.54 131.59,-46.69"/>
<polygon fill="#007cff" stroke="#007cff" points="134.98,-45.81 128.47,-37.45 128.35,-48.05 134.98,-45.81"/>
</g>
<!-- node_r_null_000001ae564497b0 -->
<g id="node8" class="node">
<title>node_r_null_000001ae564497b0</title>
<ellipse fill="#a2f0f8" stroke="#007cff" cx="196.25" cy="-18" rx="27.81" ry="18"/>
<text text-anchor="middle" x="196.25" y="-12.95" font-family="Times New Roman,serif" font-size="14.00"> null</text>
</g>
<!-- node_000001ae564497b0&#45;&gt;node_r_null_000001ae564497b0 -->
<g id="edge7" class="edge">
<title>node_000001ae564497b0&#45;&gt;node_r_null_000001ae564497b0</title>
<path fill="none" stroke="#007cff" d="M178.29,-72.27C181.29,-63.37 184.27,-54.54 186.91,-46.69"/>
<polygon fill="#007cff" stroke="#007cff" points="190.15,-48.05 190.03,-37.45 183.52,-45.81 190.15,-48.05"/>
</g>
</g>
</svg>
