<?xml version="1.0" encoding="UTF-8" standalone="no"?>
<!DOCTYPE svg PUBLIC "-//W3C//DTD SVG 1.1//EN"
 "http://www.w3.org/Graphics/SVG/1.1/DTD/svg11.dtd">
<!-- Generated by graphviz version 12.2.0 (20241103.1931)
 -->
<!-- Pages: 1 -->
<svg width="1231pt" height="953pt"
 viewBox="0.00 0.00 1231.36 953.00" xmlns="http://www.w3.org/2000/svg" xmlns:xlink="http://www.w3.org/1999/xlink">
<g id="graph0" class="graph" transform="scale(1 1) rotate(0) translate(4 949)">
<polygon fill="white" stroke="none" points="-4,4 -4,-949 1227.36,-949 1227.36,4 -4,4"/>
<!-- node_0000021f89359620 -->
<g id="node1" class="node">
<title>node_0000021f89359620</title>
<path fill="#ecfd74" stroke="#ffc500" d="M624.25,-830C624.25,-830 914.25,-830 914.25,-830 920.25,-830 926.25,-836 926.25,-842 926.25,-842 926.25,-932.5 926.25,-932.5 926.25,-938.5 920.25,-944.5 914.25,-944.5 914.25,-944.5 624.25,-944.5 624.25,-944.5 618.25,-944.5 612.25,-938.5 612.25,-932.5 612.25,-932.5 612.25,-842 612.25,-842 612.25,-836 618.25,-830 624.25,-830"/>
<text text-anchor="middle" x="769.25" y="-927.2" font-family="Times New Roman,serif" font-size="14.00">addr: 0000021f89359620</text>
<polyline fill="none" stroke="#ffc500" points="612.25,-920 926.25,-920"/>
<text text-anchor="middle" x="769.25" y="-902.7" font-family="Times New Roman,serif" font-size="14.00">val = &#39;&#45;&#39;</text>
<polyline fill="none" stroke="#ffc500" points="612.25,-895.5 926.25,-895.5"/>
<text text-anchor="middle" x="769.25" y="-878.2" font-family="Times New Roman,serif" font-size="14.00">type = OP</text>
<polyline fill="none" stroke="#ffc500" points="612.25,-871 926.25,-871"/>
<text text-anchor="middle" x="690.75" y="-853.7" font-family="Times New Roman,serif" font-size="14.00">L:</text>
<text text-anchor="middle" x="690.75" y="-837.2" font-family="Times New Roman,serif" font-size="14.00"> addr: 0000021f893597d0</text>
<polyline fill="none" stroke="#ffc500" points="769.25,-830 769.25,-871"/>
<text text-anchor="middle" x="847.75" y="-853.7" font-family="Times New Roman,serif" font-size="14.00">R: </text>
<text text-anchor="middle" x="847.75" y="-837.2" font-family="Times New Roman,serif" font-size="14.00"> addr: 0000021f89359650</text>
</g>
<!-- node_0000021f893597d0 -->
<g id="node4" class="node">
<title>node_0000021f893597d0</title>
<path fill="#ecfd74" stroke="#ffc500" d="M457.62,-678.5C457.62,-678.5 746.88,-678.5 746.88,-678.5 752.88,-678.5 758.88,-684.5 758.88,-690.5 758.88,-690.5 758.88,-781 758.88,-781 758.88,-787 752.88,-793 746.88,-793 746.88,-793 457.62,-793 457.62,-793 451.62,-793 445.62,-787 445.62,-781 445.62,-781 445.62,-690.5 445.62,-690.5 445.62,-684.5 451.62,-678.5 457.62,-678.5"/>
<text text-anchor="middle" x="602.25" y="-775.7" font-family="Times New Roman,serif" font-size="14.00">addr: 0000021f893597d0</text>
<polyline fill="none" stroke="#ffc500" points="445.62,-768.5 758.88,-768.5"/>
<text text-anchor="middle" x="602.25" y="-751.2" font-family="Times New Roman,serif" font-size="14.00">val = &#39;+&#39;</text>
<polyline fill="none" stroke="#ffc500" points="445.62,-744 758.88,-744"/>
<text text-anchor="middle" x="602.25" y="-726.7" font-family="Times New Roman,serif" font-size="14.00">type = OP</text>
<polyline fill="none" stroke="#ffc500" points="445.62,-719.5 758.88,-719.5"/>
<text text-anchor="middle" x="523.75" y="-702.2" font-family="Times New Roman,serif" font-size="14.00">L:</text>
<text text-anchor="middle" x="523.75" y="-685.7" font-family="Times New Roman,serif" font-size="14.00"> addr: 0000021f893596e0</text>
<polyline fill="none" stroke="#ffc500" points="601.88,-678.5 601.88,-719.5"/>
<text text-anchor="middle" x="680.38" y="-702.2" font-family="Times New Roman,serif" font-size="14.00">R: </text>
<text text-anchor="middle" x="680.38" y="-685.7" font-family="Times New Roman,serif" font-size="14.00"> addr: 0000021f89359800</text>
</g>
<!-- node_0000021f89359620&#45;&gt;node_0000021f893597d0 -->
<g id="edge2" class="edge">
<title>node_0000021f89359620&#45;&gt;node_0000021f893597d0</title>
<path fill="none" stroke="#ff0000" d="M706.11,-829.73C695.62,-820.34 684.67,-810.53 673.98,-800.96"/>
<polygon fill="#ff0000" stroke="#ff0000" points="676.39,-798.42 666.6,-794.36 671.72,-803.64 676.39,-798.42"/>
</g>
<!-- node_0000021f89359650 -->
<g id="node5" class="node">
<title>node_0000021f89359650</title>
<path fill="#a2f8a4" stroke="#18ca1c" d="M789,-678.5C789,-678.5 1083.5,-678.5 1083.5,-678.5 1089.5,-678.5 1095.5,-684.5 1095.5,-690.5 1095.5,-690.5 1095.5,-781 1095.5,-781 1095.5,-787 1089.5,-793 1083.5,-793 1083.5,-793 789,-793 789,-793 783,-793 777,-787 777,-781 777,-781 777,-690.5 777,-690.5 777,-684.5 783,-678.5 789,-678.5"/>
<text text-anchor="middle" x="936.25" y="-775.7" font-family="Times New Roman,serif" font-size="14.00">addr: 0000021f89359650</text>
<polyline fill="none" stroke="#18ca1c" points="777,-768.5 1095.5,-768.5"/>
<text text-anchor="middle" x="936.25" y="-751.2" font-family="Times New Roman,serif" font-size="14.00">val = 0</text>
<polyline fill="none" stroke="#18ca1c" points="777,-744 1095.5,-744"/>
<text text-anchor="middle" x="936.25" y="-726.7" font-family="Times New Roman,serif" font-size="14.00">type = NUM</text>
<polyline fill="none" stroke="#18ca1c" points="777,-719.5 1095.5,-719.5"/>
<text text-anchor="middle" x="856.62" y="-702.2" font-family="Times New Roman,serif" font-size="14.00">L:</text>
<text text-anchor="middle" x="856.62" y="-685.7" font-family="Times New Roman,serif" font-size="14.00"> addr: 0000000000000000</text>
<polyline fill="none" stroke="#18ca1c" points="936.25,-678.5 936.25,-719.5"/>
<text text-anchor="middle" x="1015.88" y="-702.2" font-family="Times New Roman,serif" font-size="14.00">R: </text>
<text text-anchor="middle" x="1015.88" y="-685.7" font-family="Times New Roman,serif" font-size="14.00"> addr: 0000000000000000</text>
</g>
<!-- node_0000021f89359620&#45;&gt;node_0000021f89359650 -->
<g id="edge3" class="edge">
<title>node_0000021f89359620&#45;&gt;node_0000021f89359650</title>
<path fill="none" stroke="#ff0000" d="M832.39,-829.73C842.88,-820.34 853.83,-810.53 864.52,-800.96"/>
<polygon fill="#ff0000" stroke="#ff0000" points="866.78,-803.64 871.9,-794.36 862.11,-798.42 866.78,-803.64"/>
</g>
<!-- 1 -->
<g id="node2" class="node">
<title>1</title>
<ellipse fill="#fe5656" stroke="#581845" cx="1189.25" cy="-887.25" rx="18" ry="18"/>
<text text-anchor="middle" x="1189.25" y="-882.2" font-family="Times New Roman,serif" font-size="14.00">1</text>
</g>
<!-- 2 -->
<g id="node3" class="node">
<title>2</title>
<ellipse fill="#fe5656" stroke="#581845" cx="1189.25" cy="-735.75" rx="18" ry="18"/>
<text text-anchor="middle" x="1189.25" y="-730.7" font-family="Times New Roman,serif" font-size="14.00">2</text>
</g>
<!-- 1&#45;&gt;2 -->
<g id="edge1" class="edge">
<title>1&#45;&gt;2</title>
<path fill="none" stroke="white" d="M1184.79,-869.39C1182.09,-843.91 1181.78,-795.3 1183.86,-764.53"/>
<polygon fill="white" stroke="white" points="1187.33,-765.09 1184.69,-754.83 1180.35,-764.49 1187.33,-765.09"/>
</g>
<!-- 1&#45;&gt;2 -->
<g id="edge4" class="edge">
<title>1&#45;&gt;2</title>
<path fill="none" stroke="white" d="M1193.71,-869.39C1196.41,-843.91 1196.72,-795.3 1194.64,-764.53"/>
<polygon fill="white" stroke="white" points="1198.15,-764.49 1193.81,-754.83 1191.17,-765.09 1198.15,-764.49"/>
</g>
<!-- 3 -->
<g id="node6" class="node">
<title>3</title>
<ellipse fill="#fe5656" stroke="#581845" cx="1189.25" cy="-584.25" rx="18" ry="18"/>
<text text-anchor="middle" x="1189.25" y="-579.2" font-family="Times New Roman,serif" font-size="14.00">3</text>
</g>
<!-- 2&#45;&gt;3 -->
<g id="edge5" class="edge">
<title>2&#45;&gt;3</title>
<path fill="none" stroke="white" d="M1177.21,-721.74C1167.46,-696.55 1166.4,-640.76 1174,-608.85"/>
<polygon fill="white" stroke="white" points="1177.33,-609.94 1176.9,-599.36 1170.64,-607.9 1177.33,-609.94"/>
</g>
<!-- 2&#45;&gt;3 -->
<g id="edge8" class="edge">
<title>2&#45;&gt;3</title>
<path fill="none" stroke="white" d="M1184.79,-717.89C1182.09,-692.41 1181.78,-643.8 1183.86,-613.03"/>
<polygon fill="white" stroke="white" points="1187.33,-613.59 1184.69,-603.33 1180.35,-612.99 1187.33,-613.59"/>
</g>
<!-- 2&#45;&gt;3 -->
<g id="edge45" class="edge">
<title>2&#45;&gt;3</title>
<path fill="none" stroke="white" d="M1193.71,-717.89C1196.41,-692.41 1196.72,-643.8 1194.64,-613.03"/>
<polygon fill="white" stroke="white" points="1198.15,-612.99 1193.81,-603.33 1191.17,-613.59 1198.15,-612.99"/>
</g>
<!-- 2&#45;&gt;3 -->
<g id="edge48" class="edge">
<title>2&#45;&gt;3</title>
<path fill="none" stroke="white" d="M1201.29,-721.74C1211.04,-696.55 1212.1,-640.76 1204.5,-608.85"/>
<polygon fill="white" stroke="white" points="1207.86,-607.9 1201.6,-599.36 1201.17,-609.94 1207.86,-607.9"/>
</g>
<!-- node_0000021f893596e0 -->
<g id="node7" class="node">
<title>node_0000021f893596e0</title>
<path fill="#a2f8a4" stroke="#18ca1c" d="M140,-527C140,-527 434.5,-527 434.5,-527 440.5,-527 446.5,-533 446.5,-539 446.5,-539 446.5,-629.5 446.5,-629.5 446.5,-635.5 440.5,-641.5 434.5,-641.5 434.5,-641.5 140,-641.5 140,-641.5 134,-641.5 128,-635.5 128,-629.5 128,-629.5 128,-539 128,-539 128,-533 134,-527 140,-527"/>
<text text-anchor="middle" x="287.25" y="-624.2" font-family="Times New Roman,serif" font-size="14.00">addr: 0000021f893596e0</text>
<polyline fill="none" stroke="#18ca1c" points="128,-617 446.5,-617"/>
<text text-anchor="middle" x="287.25" y="-599.7" font-family="Times New Roman,serif" font-size="14.00">val = 0</text>
<polyline fill="none" stroke="#18ca1c" points="128,-592.5 446.5,-592.5"/>
<text text-anchor="middle" x="287.25" y="-575.2" font-family="Times New Roman,serif" font-size="14.00">type = NUM</text>
<polyline fill="none" stroke="#18ca1c" points="128,-568 446.5,-568"/>
<text text-anchor="middle" x="207.62" y="-550.7" font-family="Times New Roman,serif" font-size="14.00">L:</text>
<text text-anchor="middle" x="207.62" y="-534.2" font-family="Times New Roman,serif" font-size="14.00"> addr: 0000000000000000</text>
<polyline fill="none" stroke="#18ca1c" points="287.25,-527 287.25,-568"/>
<text text-anchor="middle" x="366.88" y="-550.7" font-family="Times New Roman,serif" font-size="14.00">R: </text>
<text text-anchor="middle" x="366.88" y="-534.2" font-family="Times New Roman,serif" font-size="14.00"> addr: 0000000000000000</text>
</g>
<!-- node_0000021f893597d0&#45;&gt;node_0000021f893596e0 -->
<g id="edge6" class="edge">
<title>node_0000021f893597d0&#45;&gt;node_0000021f893596e0</title>
<path fill="none" stroke="#ff0000" d="M482.71,-678.02C461.23,-667.82 438.74,-657.15 416.98,-646.82"/>
<polygon fill="#ff0000" stroke="#ff0000" points="418.61,-643.72 408.07,-642.59 415.61,-650.04 418.61,-643.72"/>
</g>
<!-- node_0000021f89359800 -->
<g id="node8" class="node">
<title>node_0000021f89359800</title>
<path fill="#ecfd74" stroke="#ffc500" d="M476.62,-527C476.62,-527 765.88,-527 765.88,-527 771.88,-527 777.88,-533 777.88,-539 777.88,-539 777.88,-629.5 777.88,-629.5 777.88,-635.5 771.88,-641.5 765.88,-641.5 765.88,-641.5 476.62,-641.5 476.62,-641.5 470.62,-641.5 464.62,-635.5 464.62,-629.5 464.62,-629.5 464.62,-539 464.62,-539 464.62,-533 470.62,-527 476.62,-527"/>
<text text-anchor="middle" x="621.25" y="-624.2" font-family="Times New Roman,serif" font-size="14.00">addr: 0000021f89359800</text>
<polyline fill="none" stroke="#ffc500" points="464.62,-617 777.88,-617"/>
<text text-anchor="middle" x="621.25" y="-599.7" font-family="Times New Roman,serif" font-size="14.00">val = &#39;+&#39;</text>
<polyline fill="none" stroke="#ffc500" points="464.62,-592.5 777.88,-592.5"/>
<text text-anchor="middle" x="621.25" y="-575.2" font-family="Times New Roman,serif" font-size="14.00">type = OP</text>
<polyline fill="none" stroke="#ffc500" points="464.62,-568 777.88,-568"/>
<text text-anchor="middle" x="543.12" y="-550.7" font-family="Times New Roman,serif" font-size="14.00">L:</text>
<text text-anchor="middle" x="543.12" y="-534.2" font-family="Times New Roman,serif" font-size="14.00"> addr: 0000021f89359740</text>
<polyline fill="none" stroke="#ffc500" points="621.62,-527 621.62,-568"/>
<text text-anchor="middle" x="699.75" y="-550.7" font-family="Times New Roman,serif" font-size="14.00">R: </text>
<text text-anchor="middle" x="699.75" y="-534.2" font-family="Times New Roman,serif" font-size="14.00"> addr: 0000021f893595c0</text>
</g>
<!-- node_0000021f893597d0&#45;&gt;node_0000021f89359800 -->
<g id="edge7" class="edge">
<title>node_0000021f893597d0&#45;&gt;node_0000021f89359800</title>
<path fill="none" stroke="#ff0000" d="M609.43,-678.23C610.47,-670.04 611.55,-661.55 612.62,-653.17"/>
<polygon fill="#ff0000" stroke="#ff0000" points="616.08,-653.71 613.87,-643.35 609.13,-652.83 616.08,-653.71"/>
</g>
<!-- node_l_null_0000021f89359650 -->
<g id="node31" class="node">
<title>node_l_null_0000021f89359650</title>
<ellipse fill="#a2f0f8" stroke="#007cff" cx="899.25" cy="-584.25" rx="27.81" ry="18"/>
<text text-anchor="middle" x="899.25" y="-579.2" font-family="Times New Roman,serif" font-size="14.00"> null</text>
</g>
<!-- node_0000021f89359650&#45;&gt;node_l_null_0000021f89359650 -->
<g id="edge46" class="edge">
<title>node_0000021f89359650&#45;&gt;node_l_null_0000021f89359650</title>
<path fill="none" stroke="#007cff" d="M922.26,-678.23C916.79,-656.12 910.76,-631.74 906.24,-613.49"/>
<polygon fill="#007cff" stroke="#007cff" points="909.68,-612.81 903.88,-603.94 902.88,-614.49 909.68,-612.81"/>
</g>
<!-- node_r_null_0000021f89359650 -->
<g id="node32" class="node">
<title>node_r_null_0000021f89359650</title>
<ellipse fill="#a2f0f8" stroke="#007cff" cx="973.25" cy="-584.25" rx="27.81" ry="18"/>
<text text-anchor="middle" x="973.25" y="-579.2" font-family="Times New Roman,serif" font-size="14.00"> null</text>
</g>
<!-- node_0000021f89359650&#45;&gt;node_r_null_0000021f89359650 -->
<g id="edge47" class="edge">
<title>node_0000021f89359650&#45;&gt;node_r_null_0000021f89359650</title>
<path fill="none" stroke="#007cff" d="M950.24,-678.23C955.71,-656.12 961.74,-631.74 966.26,-613.49"/>
<polygon fill="#007cff" stroke="#007cff" points="969.62,-614.49 968.62,-603.94 962.82,-612.81 969.62,-614.49"/>
</g>
<!-- 4 -->
<g id="node9" class="node">
<title>4</title>
<ellipse fill="#fe5656" stroke="#581845" cx="1189.25" cy="-432.75" rx="18" ry="18"/>
<text text-anchor="middle" x="1189.25" y="-427.7" font-family="Times New Roman,serif" font-size="14.00">4</text>
</g>
<!-- 3&#45;&gt;4 -->
<g id="edge9" class="edge">
<title>3&#45;&gt;4</title>
<path fill="none" stroke="white" d="M1177.21,-570.24C1167.46,-545.05 1166.4,-489.26 1174,-457.35"/>
<polygon fill="white" stroke="white" points="1177.33,-458.44 1176.9,-447.86 1170.64,-456.4 1177.33,-458.44"/>
</g>
<!-- 3&#45;&gt;4 -->
<g id="edge12" class="edge">
<title>3&#45;&gt;4</title>
<path fill="none" stroke="white" d="M1184.79,-566.39C1182.09,-540.91 1181.78,-492.3 1183.86,-461.53"/>
<polygon fill="white" stroke="white" points="1187.33,-462.09 1184.69,-451.83 1180.35,-461.49 1187.33,-462.09"/>
</g>
<!-- 3&#45;&gt;4 -->
<g id="edge13" class="edge">
<title>3&#45;&gt;4</title>
<path fill="none" stroke="white" d="M1193.71,-566.39C1196.41,-540.91 1196.72,-492.3 1194.64,-461.53"/>
<polygon fill="white" stroke="white" points="1198.15,-461.49 1193.81,-451.83 1191.17,-462.09 1198.15,-461.49"/>
</g>
<!-- 3&#45;&gt;4 -->
<g id="edge16" class="edge">
<title>3&#45;&gt;4</title>
<path fill="none" stroke="white" d="M1201.29,-570.24C1211.04,-545.05 1212.1,-489.26 1204.5,-457.35"/>
<polygon fill="white" stroke="white" points="1207.86,-456.4 1201.6,-447.86 1201.17,-458.44 1207.86,-456.4"/>
</g>
<!-- node_l_null_0000021f893596e0 -->
<g id="node10" class="node">
<title>node_l_null_0000021f893596e0</title>
<ellipse fill="#a2f0f8" stroke="#007cff" cx="231.25" cy="-432.75" rx="27.81" ry="18"/>
<text text-anchor="middle" x="231.25" y="-427.7" font-family="Times New Roman,serif" font-size="14.00"> null</text>
</g>
<!-- node_0000021f893596e0&#45;&gt;node_l_null_0000021f893596e0 -->
<g id="edge10" class="edge">
<title>node_0000021f893596e0&#45;&gt;node_l_null_0000021f893596e0</title>
<path fill="none" stroke="#007cff" d="M266.08,-526.73C257.71,-504.38 248.46,-479.71 241.61,-461.4"/>
<polygon fill="#007cff" stroke="#007cff" points="244.89,-460.19 238.11,-452.05 238.34,-462.65 244.89,-460.19"/>
</g>
<!-- node_r_null_0000021f893596e0 -->
<g id="node11" class="node">
<title>node_r_null_0000021f893596e0</title>
<ellipse fill="#a2f0f8" stroke="#007cff" cx="305.25" cy="-432.75" rx="27.81" ry="18"/>
<text text-anchor="middle" x="305.25" y="-427.7" font-family="Times New Roman,serif" font-size="14.00"> null</text>
</g>
<!-- node_0000021f893596e0&#45;&gt;node_r_null_0000021f893596e0 -->
<g id="edge11" class="edge">
<title>node_0000021f893596e0&#45;&gt;node_r_null_0000021f893596e0</title>
<path fill="none" stroke="#007cff" d="M294.06,-526.73C296.7,-504.72 299.62,-480.47 301.82,-462.25"/>
<polygon fill="#007cff" stroke="#007cff" points="305.27,-462.82 303,-452.48 298.32,-461.99 305.27,-462.82"/>
</g>
<!-- node_0000021f89359740 -->
<g id="node12" class="node">
<title>node_0000021f89359740</title>
<path fill="#ecfd74" stroke="#ffc500" d="M398.62,-375.5C398.62,-375.5 687.88,-375.5 687.88,-375.5 693.88,-375.5 699.88,-381.5 699.88,-387.5 699.88,-387.5 699.88,-478 699.88,-478 699.88,-484 693.88,-490 687.88,-490 687.88,-490 398.62,-490 398.62,-490 392.62,-490 386.62,-484 386.62,-478 386.62,-478 386.62,-387.5 386.62,-387.5 386.62,-381.5 392.62,-375.5 398.62,-375.5"/>
<text text-anchor="middle" x="543.25" y="-472.7" font-family="Times New Roman,serif" font-size="14.00">addr: 0000021f89359740</text>
<polyline fill="none" stroke="#ffc500" points="386.62,-465.5 699.88,-465.5"/>
<text text-anchor="middle" x="543.25" y="-448.2" font-family="Times New Roman,serif" font-size="14.00">val = &#39;*&#39;</text>
<polyline fill="none" stroke="#ffc500" points="386.62,-441 699.88,-441"/>
<text text-anchor="middle" x="543.25" y="-423.7" font-family="Times New Roman,serif" font-size="14.00">type = OP</text>
<polyline fill="none" stroke="#ffc500" points="386.62,-416.5 699.88,-416.5"/>
<text text-anchor="middle" x="464.75" y="-399.2" font-family="Times New Roman,serif" font-size="14.00">L:</text>
<text text-anchor="middle" x="464.75" y="-382.7" font-family="Times New Roman,serif" font-size="14.00"> addr: 0000021f893597a0</text>
<polyline fill="none" stroke="#ffc500" points="542.88,-375.5 542.88,-416.5"/>
<text text-anchor="middle" x="621.38" y="-399.2" font-family="Times New Roman,serif" font-size="14.00">R: </text>
<text text-anchor="middle" x="621.38" y="-382.7" font-family="Times New Roman,serif" font-size="14.00"> addr: 0000021f89359860</text>
</g>
<!-- node_0000021f89359800&#45;&gt;node_0000021f89359740 -->
<g id="edge14" class="edge">
<title>node_0000021f89359800&#45;&gt;node_0000021f89359740</title>
<path fill="none" stroke="#ff0000" d="M591.76,-526.73C587.3,-518.17 582.65,-509.27 578.09,-500.52"/>
<polygon fill="#ff0000" stroke="#ff0000" points="581.21,-498.94 573.48,-491.69 575,-502.18 581.21,-498.94"/>
</g>
<!-- node_0000021f893595c0 -->
<g id="node13" class="node">
<title>node_0000021f893595c0</title>
<path fill="#ecfd74" stroke="#ffc500" d="M760.12,-375.5C760.12,-375.5 1052.38,-375.5 1052.38,-375.5 1058.38,-375.5 1064.38,-381.5 1064.38,-387.5 1064.38,-387.5 1064.38,-478 1064.38,-478 1064.38,-484 1058.38,-490 1052.38,-490 1052.38,-490 760.12,-490 760.12,-490 754.12,-490 748.12,-484 748.12,-478 748.12,-478 748.12,-387.5 748.12,-387.5 748.12,-381.5 754.12,-375.5 760.12,-375.5"/>
<text text-anchor="middle" x="906.25" y="-472.7" font-family="Times New Roman,serif" font-size="14.00">addr: 0000021f893595c0</text>
<polyline fill="none" stroke="#ffc500" points="748.12,-465.5 1064.38,-465.5"/>
<text text-anchor="middle" x="906.25" y="-448.2" font-family="Times New Roman,serif" font-size="14.00">val = &#39;*&#39;</text>
<polyline fill="none" stroke="#ffc500" points="748.12,-441 1064.38,-441"/>
<text text-anchor="middle" x="906.25" y="-423.7" font-family="Times New Roman,serif" font-size="14.00">type = OP</text>
<polyline fill="none" stroke="#ffc500" points="748.12,-416.5 1064.38,-416.5"/>
<text text-anchor="middle" x="826.62" y="-399.2" font-family="Times New Roman,serif" font-size="14.00">L:</text>
<text text-anchor="middle" x="826.62" y="-382.7" font-family="Times New Roman,serif" font-size="14.00"> addr: 0000021f89359530</text>
<polyline fill="none" stroke="#ffc500" points="905.12,-375.5 905.12,-416.5"/>
<text text-anchor="middle" x="984.75" y="-399.2" font-family="Times New Roman,serif" font-size="14.00">R: </text>
<text text-anchor="middle" x="984.75" y="-382.7" font-family="Times New Roman,serif" font-size="14.00"> addr: 0000000000000000</text>
</g>
<!-- node_0000021f89359800&#45;&gt;node_0000021f893595c0 -->
<g id="edge15" class="edge">
<title>node_0000021f89359800&#45;&gt;node_0000021f893595c0</title>
<path fill="none" stroke="#ff0000" d="M729.4,-526.52C748.58,-516.46 768.64,-505.94 788.07,-495.74"/>
<polygon fill="#ff0000" stroke="#ff0000" points="789.6,-498.89 796.83,-491.15 786.35,-492.69 789.6,-498.89"/>
</g>
<!-- 5 -->
<g id="node14" class="node">
<title>5</title>
<ellipse fill="#fe5656" stroke="#581845" cx="1189.25" cy="-281.25" rx="18" ry="18"/>
<text text-anchor="middle" x="1189.25" y="-276.2" font-family="Times New Roman,serif" font-size="14.00">5</text>
</g>
<!-- 4&#45;&gt;5 -->
<g id="edge17" class="edge">
<title>4&#45;&gt;5</title>
<path fill="none" stroke="white" d="M1177.21,-418.74C1167.46,-393.55 1166.4,-337.76 1174,-305.85"/>
<polygon fill="white" stroke="white" points="1177.33,-306.94 1176.9,-296.36 1170.64,-304.9 1177.33,-306.94"/>
</g>
<!-- 4&#45;&gt;5 -->
<g id="edge20" class="edge">
<title>4&#45;&gt;5</title>
<path fill="none" stroke="white" d="M1184.79,-414.89C1182.09,-389.41 1181.78,-340.8 1183.86,-310.03"/>
<polygon fill="white" stroke="white" points="1187.33,-310.59 1184.69,-300.33 1180.35,-309.99 1187.33,-310.59"/>
</g>
<!-- 4&#45;&gt;5 -->
<g id="edge37" class="edge">
<title>4&#45;&gt;5</title>
<path fill="none" stroke="white" d="M1193.71,-414.89C1196.41,-389.41 1196.72,-340.8 1194.64,-310.03"/>
<polygon fill="white" stroke="white" points="1198.15,-309.99 1193.81,-300.33 1191.17,-310.59 1198.15,-309.99"/>
</g>
<!-- 4&#45;&gt;5 -->
<g id="edge40" class="edge">
<title>4&#45;&gt;5</title>
<path fill="none" stroke="white" d="M1201.29,-418.74C1211.04,-393.55 1212.1,-337.76 1204.5,-305.85"/>
<polygon fill="white" stroke="white" points="1207.86,-304.9 1201.6,-296.36 1201.17,-306.94 1207.86,-304.9"/>
</g>
<!-- node_0000021f893597a0 -->
<g id="node15" class="node">
<title>node_0000021f893597a0</title>
<path fill="#a2f8a4" stroke="#18ca1c" d="M12,-224C12,-224 306.5,-224 306.5,-224 312.5,-224 318.5,-230 318.5,-236 318.5,-236 318.5,-326.5 318.5,-326.5 318.5,-332.5 312.5,-338.5 306.5,-338.5 306.5,-338.5 12,-338.5 12,-338.5 6,-338.5 0,-332.5 0,-326.5 0,-326.5 0,-236 0,-236 0,-230 6,-224 12,-224"/>
<text text-anchor="middle" x="159.25" y="-321.2" font-family="Times New Roman,serif" font-size="14.00">addr: 0000021f893597a0</text>
<polyline fill="none" stroke="#18ca1c" points="0,-314 318.5,-314"/>
<text text-anchor="middle" x="159.25" y="-296.7" font-family="Times New Roman,serif" font-size="14.00">val = 0</text>
<polyline fill="none" stroke="#18ca1c" points="0,-289.5 318.5,-289.5"/>
<text text-anchor="middle" x="159.25" y="-272.2" font-family="Times New Roman,serif" font-size="14.00">type = NUM</text>
<polyline fill="none" stroke="#18ca1c" points="0,-265 318.5,-265"/>
<text text-anchor="middle" x="79.62" y="-247.7" font-family="Times New Roman,serif" font-size="14.00">L:</text>
<text text-anchor="middle" x="79.62" y="-231.2" font-family="Times New Roman,serif" font-size="14.00"> addr: 0000000000000000</text>
<polyline fill="none" stroke="#18ca1c" points="159.25,-224 159.25,-265"/>
<text text-anchor="middle" x="238.88" y="-247.7" font-family="Times New Roman,serif" font-size="14.00">R: </text>
<text text-anchor="middle" x="238.88" y="-231.2" font-family="Times New Roman,serif" font-size="14.00"> addr: 0000000000000000</text>
</g>
<!-- node_0000021f89359740&#45;&gt;node_0000021f893597a0 -->
<g id="edge18" class="edge">
<title>node_0000021f89359740&#45;&gt;node_0000021f893597a0</title>
<path fill="none" stroke="#ff0000" d="M397.53,-375.02C370.74,-364.59 342.68,-353.66 315.6,-343.12"/>
<polygon fill="#ff0000" stroke="#ff0000" points="316.87,-339.86 306.28,-339.49 314.33,-346.38 316.87,-339.86"/>
</g>
<!-- node_0000021f89359860 -->
<g id="node16" class="node">
<title>node_0000021f89359860</title>
<path fill="#ecfd74" stroke="#ffc500" d="M398.25,-224C398.25,-224 688.25,-224 688.25,-224 694.25,-224 700.25,-230 700.25,-236 700.25,-236 700.25,-326.5 700.25,-326.5 700.25,-332.5 694.25,-338.5 688.25,-338.5 688.25,-338.5 398.25,-338.5 398.25,-338.5 392.25,-338.5 386.25,-332.5 386.25,-326.5 386.25,-326.5 386.25,-236 386.25,-236 386.25,-230 392.25,-224 398.25,-224"/>
<text text-anchor="middle" x="543.25" y="-321.2" font-family="Times New Roman,serif" font-size="14.00">addr: 0000021f89359860</text>
<polyline fill="none" stroke="#ffc500" points="386.25,-314 700.25,-314"/>
<text text-anchor="middle" x="543.25" y="-296.7" font-family="Times New Roman,serif" font-size="14.00">val = &#39;^&#39;</text>
<polyline fill="none" stroke="#ffc500" points="386.25,-289.5 700.25,-289.5"/>
<text text-anchor="middle" x="543.25" y="-272.2" font-family="Times New Roman,serif" font-size="14.00">type = OP</text>
<polyline fill="none" stroke="#ffc500" points="386.25,-265 700.25,-265"/>
<text text-anchor="middle" x="464.75" y="-247.7" font-family="Times New Roman,serif" font-size="14.00">L:</text>
<text text-anchor="middle" x="464.75" y="-231.2" font-family="Times New Roman,serif" font-size="14.00"> addr: 0000021f87b86040</text>
<polyline fill="none" stroke="#ffc500" points="543.25,-224 543.25,-265"/>
<text text-anchor="middle" x="621.75" y="-247.7" font-family="Times New Roman,serif" font-size="14.00">R: </text>
<text text-anchor="middle" x="621.75" y="-231.2" font-family="Times New Roman,serif" font-size="14.00"> addr: 0000021f87b86070</text>
</g>
<!-- node_0000021f89359740&#45;&gt;node_0000021f89359860 -->
<g id="edge19" class="edge">
<title>node_0000021f89359740&#45;&gt;node_0000021f89359860</title>
<path fill="none" stroke="#ff0000" d="M543.25,-375.23C543.25,-367.04 543.25,-358.55 543.25,-350.17"/>
<polygon fill="#ff0000" stroke="#ff0000" points="546.75,-350.36 543.25,-340.36 539.75,-350.36 546.75,-350.36"/>
</g>
<!-- node_0000021f89359530 -->
<g id="node27" class="node">
<title>node_0000021f89359530</title>
<path fill="#a2f8a4" stroke="#18ca1c" d="M759,-224C759,-224 1053.5,-224 1053.5,-224 1059.5,-224 1065.5,-230 1065.5,-236 1065.5,-236 1065.5,-326.5 1065.5,-326.5 1065.5,-332.5 1059.5,-338.5 1053.5,-338.5 1053.5,-338.5 759,-338.5 759,-338.5 753,-338.5 747,-332.5 747,-326.5 747,-326.5 747,-236 747,-236 747,-230 753,-224 759,-224"/>
<text text-anchor="middle" x="906.25" y="-321.2" font-family="Times New Roman,serif" font-size="14.00">addr: 0000021f89359530</text>
<polyline fill="none" stroke="#18ca1c" points="747,-314 1065.5,-314"/>
<text text-anchor="middle" x="906.25" y="-296.7" font-family="Times New Roman,serif" font-size="14.00">val = 3</text>
<polyline fill="none" stroke="#18ca1c" points="747,-289.5 1065.5,-289.5"/>
<text text-anchor="middle" x="906.25" y="-272.2" font-family="Times New Roman,serif" font-size="14.00">type = NUM</text>
<polyline fill="none" stroke="#18ca1c" points="747,-265 1065.5,-265"/>
<text text-anchor="middle" x="826.62" y="-247.7" font-family="Times New Roman,serif" font-size="14.00">L:</text>
<text text-anchor="middle" x="826.62" y="-231.2" font-family="Times New Roman,serif" font-size="14.00"> addr: 0000000000000000</text>
<polyline fill="none" stroke="#18ca1c" points="906.25,-224 906.25,-265"/>
<text text-anchor="middle" x="985.88" y="-247.7" font-family="Times New Roman,serif" font-size="14.00">R: </text>
<text text-anchor="middle" x="985.88" y="-231.2" font-family="Times New Roman,serif" font-size="14.00"> addr: 0000000000000000</text>
</g>
<!-- node_0000021f893595c0&#45;&gt;node_0000021f89359530 -->
<g id="edge38" class="edge">
<title>node_0000021f893595c0&#45;&gt;node_0000021f89359530</title>
<path fill="none" stroke="#ff0000" d="M906.25,-375.23C906.25,-367.04 906.25,-358.55 906.25,-350.17"/>
<polygon fill="#ff0000" stroke="#ff0000" points="909.75,-350.36 906.25,-340.36 902.75,-350.36 909.75,-350.36"/>
</g>
<!-- node_r_null_0000021f893595c0 -->
<g id="node28" class="node">
<title>node_r_null_0000021f893595c0</title>
<ellipse fill="#a2f0f8" stroke="#007cff" cx="1111.25" cy="-281.25" rx="27.81" ry="18"/>
<text text-anchor="middle" x="1111.25" y="-276.2" font-family="Times New Roman,serif" font-size="14.00"> null</text>
</g>
<!-- node_0000021f893595c0&#45;&gt;node_r_null_0000021f893595c0 -->
<g id="edge39" class="edge">
<title>node_0000021f893595c0&#45;&gt;node_r_null_0000021f893595c0</title>
<path fill="none" stroke="#007cff" d="M1026.45,-375.01C1043.45,-364.31 1059.97,-352.27 1074.25,-339 1083.49,-330.41 1091.48,-319.06 1097.65,-308.77"/>
<polygon fill="#007cff" stroke="#007cff" points="1100.57,-310.71 1102.44,-300.29 1094.48,-307.27 1100.57,-310.71"/>
</g>
<!-- 6 -->
<g id="node17" class="node">
<title>6</title>
<ellipse fill="#fe5656" stroke="#581845" cx="1189.25" cy="-129.75" rx="18" ry="18"/>
<text text-anchor="middle" x="1189.25" y="-124.7" font-family="Times New Roman,serif" font-size="14.00">6</text>
</g>
<!-- 5&#45;&gt;6 -->
<g id="edge21" class="edge">
<title>5&#45;&gt;6</title>
<path fill="none" stroke="white" d="M1173.32,-272.63C1152.02,-249.64 1149.82,-180.57 1166.71,-148.04"/>
<polygon fill="white" stroke="white" points="1169.59,-150.02 1172.32,-139.79 1163.8,-146.09 1169.59,-150.02"/>
</g>
<!-- 5&#45;&gt;6 -->
<g id="edge24" class="edge">
<title>5&#45;&gt;6</title>
<path fill="none" stroke="white" d="M1177.21,-267.24C1167.46,-242.05 1166.4,-186.26 1174,-154.35"/>
<polygon fill="white" stroke="white" points="1177.33,-155.44 1176.9,-144.86 1170.64,-153.4 1177.33,-155.44"/>
</g>
<!-- 5&#45;&gt;6 -->
<g id="edge25" class="edge">
<title>5&#45;&gt;6</title>
<path fill="none" stroke="white" d="M1184.79,-263.39C1182.09,-237.91 1181.78,-189.3 1183.86,-158.53"/>
<polygon fill="white" stroke="white" points="1187.33,-159.09 1184.69,-148.83 1180.35,-158.49 1187.33,-159.09"/>
</g>
<!-- 5&#45;&gt;6 -->
<g id="edge28" class="edge">
<title>5&#45;&gt;6</title>
<path fill="none" stroke="white" d="M1193.71,-263.39C1196.41,-237.91 1196.72,-189.3 1194.64,-158.53"/>
<polygon fill="white" stroke="white" points="1198.15,-158.49 1193.81,-148.83 1191.17,-159.09 1198.15,-158.49"/>
</g>
<!-- 5&#45;&gt;6 -->
<g id="edge41" class="edge">
<title>5&#45;&gt;6</title>
<path fill="none" stroke="white" d="M1201.29,-267.24C1211.04,-242.05 1212.1,-186.26 1204.5,-154.35"/>
<polygon fill="white" stroke="white" points="1207.86,-153.4 1201.6,-144.86 1201.17,-155.44 1207.86,-153.4"/>
</g>
<!-- 5&#45;&gt;6 -->
<g id="edge44" class="edge">
<title>5&#45;&gt;6</title>
<path fill="none" stroke="white" d="M1205.18,-272.63C1226.48,-249.64 1228.68,-180.57 1211.79,-148.04"/>
<polygon fill="white" stroke="white" points="1214.7,-146.09 1206.18,-139.79 1208.91,-150.02 1214.7,-146.09"/>
</g>
<!-- node_l_null_0000021f893597a0 -->
<g id="node18" class="node">
<title>node_l_null_0000021f893597a0</title>
<ellipse fill="#a2f0f8" stroke="#007cff" cx="85.25" cy="-129.75" rx="27.81" ry="18"/>
<text text-anchor="middle" x="85.25" y="-124.7" font-family="Times New Roman,serif" font-size="14.00"> null</text>
</g>
<!-- node_0000021f893597a0&#45;&gt;node_l_null_0000021f893597a0 -->
<g id="edge22" class="edge">
<title>node_0000021f893597a0&#45;&gt;node_l_null_0000021f893597a0</title>
<path fill="none" stroke="#007cff" d="M131.27,-223.73C120.04,-201.03 107.62,-175.93 98.51,-157.54"/>
<polygon fill="#007cff" stroke="#007cff" points="101.69,-156.07 94.11,-148.66 95.41,-159.17 101.69,-156.07"/>
</g>
<!-- node_r_null_0000021f893597a0 -->
<g id="node19" class="node">
<title>node_r_null_0000021f893597a0</title>
<ellipse fill="#a2f0f8" stroke="#007cff" cx="159.25" cy="-129.75" rx="27.81" ry="18"/>
<text text-anchor="middle" x="159.25" y="-124.7" font-family="Times New Roman,serif" font-size="14.00"> null</text>
</g>
<!-- node_0000021f893597a0&#45;&gt;node_r_null_0000021f893597a0 -->
<g id="edge23" class="edge">
<title>node_0000021f893597a0&#45;&gt;node_r_null_0000021f893597a0</title>
<path fill="none" stroke="#007cff" d="M159.25,-223.73C159.25,-201.72 159.25,-177.47 159.25,-159.25"/>
<polygon fill="#007cff" stroke="#007cff" points="162.75,-159.49 159.25,-149.49 155.75,-159.49 162.75,-159.49"/>
</g>
<!-- node_0000021f87b86040 -->
<g id="node20" class="node">
<title>node_0000021f87b86040</title>
<path fill="#a2f8a4" stroke="#18ca1c" d="M217,-72.5C217,-72.5 511.5,-72.5 511.5,-72.5 517.5,-72.5 523.5,-78.5 523.5,-84.5 523.5,-84.5 523.5,-175 523.5,-175 523.5,-181 517.5,-187 511.5,-187 511.5,-187 217,-187 217,-187 211,-187 205,-181 205,-175 205,-175 205,-84.5 205,-84.5 205,-78.5 211,-72.5 217,-72.5"/>
<text text-anchor="middle" x="364.25" y="-169.7" font-family="Times New Roman,serif" font-size="14.00">addr: 0000021f87b86040</text>
<polyline fill="none" stroke="#18ca1c" points="205,-162.5 523.5,-162.5"/>
<text text-anchor="middle" x="364.25" y="-145.2" font-family="Times New Roman,serif" font-size="14.00">val = 2</text>
<polyline fill="none" stroke="#18ca1c" points="205,-138 523.5,-138"/>
<text text-anchor="middle" x="364.25" y="-120.7" font-family="Times New Roman,serif" font-size="14.00">type = NUM</text>
<polyline fill="none" stroke="#18ca1c" points="205,-113.5 523.5,-113.5"/>
<text text-anchor="middle" x="284.62" y="-96.2" font-family="Times New Roman,serif" font-size="14.00">L:</text>
<text text-anchor="middle" x="284.62" y="-79.7" font-family="Times New Roman,serif" font-size="14.00"> addr: 0000000000000000</text>
<polyline fill="none" stroke="#18ca1c" points="364.25,-72.5 364.25,-113.5"/>
<text text-anchor="middle" x="443.88" y="-96.2" font-family="Times New Roman,serif" font-size="14.00">R: </text>
<text text-anchor="middle" x="443.88" y="-79.7" font-family="Times New Roman,serif" font-size="14.00"> addr: 0000000000000000</text>
</g>
<!-- node_0000021f89359860&#45;&gt;node_0000021f87b86040 -->
<g id="edge26" class="edge">
<title>node_0000021f89359860&#45;&gt;node_0000021f87b86040</title>
<path fill="none" stroke="#ff0000" d="M475.32,-223.52C464.05,-214.1 452.3,-204.29 440.83,-194.71"/>
<polygon fill="#ff0000" stroke="#ff0000" points="443.21,-192.14 433.29,-188.41 438.72,-197.51 443.21,-192.14"/>
</g>
<!-- node_0000021f87b86070 -->
<g id="node21" class="node">
<title>node_0000021f87b86070</title>
<path fill="#a2f8a4" stroke="#18ca1c" d="M554,-72.5C554,-72.5 848.5,-72.5 848.5,-72.5 854.5,-72.5 860.5,-78.5 860.5,-84.5 860.5,-84.5 860.5,-175 860.5,-175 860.5,-181 854.5,-187 848.5,-187 848.5,-187 554,-187 554,-187 548,-187 542,-181 542,-175 542,-175 542,-84.5 542,-84.5 542,-78.5 548,-72.5 554,-72.5"/>
<text text-anchor="middle" x="701.25" y="-169.7" font-family="Times New Roman,serif" font-size="14.00">addr: 0000021f87b86070</text>
<polyline fill="none" stroke="#18ca1c" points="542,-162.5 860.5,-162.5"/>
<text text-anchor="middle" x="701.25" y="-145.2" font-family="Times New Roman,serif" font-size="14.00">val = 4</text>
<polyline fill="none" stroke="#18ca1c" points="542,-138 860.5,-138"/>
<text text-anchor="middle" x="701.25" y="-120.7" font-family="Times New Roman,serif" font-size="14.00">type = NUM</text>
<polyline fill="none" stroke="#18ca1c" points="542,-113.5 860.5,-113.5"/>
<text text-anchor="middle" x="621.62" y="-96.2" font-family="Times New Roman,serif" font-size="14.00">L:</text>
<text text-anchor="middle" x="621.62" y="-79.7" font-family="Times New Roman,serif" font-size="14.00"> addr: 0000000000000000</text>
<polyline fill="none" stroke="#18ca1c" points="701.25,-72.5 701.25,-113.5"/>
<text text-anchor="middle" x="780.88" y="-96.2" font-family="Times New Roman,serif" font-size="14.00">R: </text>
<text text-anchor="middle" x="780.88" y="-79.7" font-family="Times New Roman,serif" font-size="14.00"> addr: 0000000000000000</text>
</g>
<!-- node_0000021f89359860&#45;&gt;node_0000021f87b86070 -->
<g id="edge27" class="edge">
<title>node_0000021f89359860&#45;&gt;node_0000021f87b86070</title>
<path fill="none" stroke="#ff0000" d="M602.98,-223.73C612.81,-214.43 623.07,-204.72 633.09,-195.25"/>
<polygon fill="#ff0000" stroke="#ff0000" points="635.47,-197.81 640.33,-188.39 630.66,-192.72 635.47,-197.81"/>
</g>
<!-- 7 -->
<g id="node22" class="node">
<title>7</title>
<ellipse fill="#fe5656" stroke="#581845" cx="1189.25" cy="-18" rx="18" ry="18"/>
<text text-anchor="middle" x="1189.25" y="-12.95" font-family="Times New Roman,serif" font-size="14.00">7</text>
</g>
<!-- 6&#45;&gt;7 -->
<g id="edge29" class="edge">
<title>6&#45;&gt;7</title>
<path fill="none" stroke="white" d="M1176.14,-117C1168.02,-99.02 1166.83,-64.32 1172.55,-41.42"/>
<polygon fill="white" stroke="white" points="1175.82,-42.69 1175.69,-32.09 1169.18,-40.45 1175.82,-42.69"/>
</g>
<!-- 6&#45;&gt;7 -->
<g id="edge32" class="edge">
<title>6&#45;&gt;7</title>
<path fill="none" stroke="white" d="M1184.24,-112.08C1182.29,-94.74 1181.98,-67.28 1183.3,-46.68"/>
<polygon fill="white" stroke="white" points="1186.76,-47.24 1184.13,-36.97 1179.79,-46.64 1186.76,-47.24"/>
</g>
<!-- 6&#45;&gt;7 -->
<g id="edge33" class="edge">
<title>6&#45;&gt;7</title>
<path fill="none" stroke="white" d="M1194.26,-112.08C1196.21,-94.74 1196.52,-67.28 1195.2,-46.68"/>
<polygon fill="white" stroke="white" points="1198.71,-46.64 1194.37,-36.97 1191.74,-47.24 1198.71,-46.64"/>
</g>
<!-- 6&#45;&gt;7 -->
<g id="edge36" class="edge">
<title>6&#45;&gt;7</title>
<path fill="none" stroke="white" d="M1202.36,-117C1210.48,-99.02 1211.67,-64.32 1205.95,-41.42"/>
<polygon fill="white" stroke="white" points="1209.32,-40.45 1202.81,-32.09 1202.68,-42.69 1209.32,-40.45"/>
</g>
<!-- node_l_null_0000021f87b86040 -->
<g id="node23" class="node">
<title>node_l_null_0000021f87b86040</title>
<ellipse fill="#a2f0f8" stroke="#007cff" cx="327.25" cy="-18" rx="27.81" ry="18"/>
<text text-anchor="middle" x="327.25" y="-12.95" font-family="Times New Roman,serif" font-size="14.00"> null</text>
</g>
<!-- node_0000021f87b86040&#45;&gt;node_l_null_0000021f87b86040 -->
<g id="edge30" class="edge">
<title>node_0000021f87b86040&#45;&gt;node_l_null_0000021f87b86040</title>
<path fill="none" stroke="#007cff" d="M345.21,-72.27C342.21,-63.37 339.23,-54.54 336.59,-46.69"/>
<polygon fill="#007cff" stroke="#007cff" points="339.98,-45.81 333.47,-37.45 333.35,-48.05 339.98,-45.81"/>
</g>
<!-- node_r_null_0000021f87b86040 -->
<g id="node24" class="node">
<title>node_r_null_0000021f87b86040</title>
<ellipse fill="#a2f0f8" stroke="#007cff" cx="401.25" cy="-18" rx="27.81" ry="18"/>
<text text-anchor="middle" x="401.25" y="-12.95" font-family="Times New Roman,serif" font-size="14.00"> null</text>
</g>
<!-- node_0000021f87b86040&#45;&gt;node_r_null_0000021f87b86040 -->
<g id="edge31" class="edge">
<title>node_0000021f87b86040&#45;&gt;node_r_null_0000021f87b86040</title>
<path fill="none" stroke="#007cff" d="M383.29,-72.27C386.29,-63.37 389.27,-54.54 391.91,-46.69"/>
<polygon fill="#007cff" stroke="#007cff" points="395.15,-48.05 395.03,-37.45 388.52,-45.81 395.15,-48.05"/>
</g>
<!-- node_l_null_0000021f87b86070 -->
<g id="node25" class="node">
<title>node_l_null_0000021f87b86070</title>
<ellipse fill="#a2f0f8" stroke="#007cff" cx="664.25" cy="-18" rx="27.81" ry="18"/>
<text text-anchor="middle" x="664.25" y="-12.95" font-family="Times New Roman,serif" font-size="14.00"> null</text>
</g>
<!-- node_0000021f87b86070&#45;&gt;node_l_null_0000021f87b86070 -->
<g id="edge34" class="edge">
<title>node_0000021f87b86070&#45;&gt;node_l_null_0000021f87b86070</title>
<path fill="none" stroke="#007cff" d="M682.21,-72.27C679.21,-63.37 676.23,-54.54 673.59,-46.69"/>
<polygon fill="#007cff" stroke="#007cff" points="676.98,-45.81 670.47,-37.45 670.35,-48.05 676.98,-45.81"/>
</g>
<!-- node_r_null_0000021f87b86070 -->
<g id="node26" class="node">
<title>node_r_null_0000021f87b86070</title>
<ellipse fill="#a2f0f8" stroke="#007cff" cx="738.25" cy="-18" rx="27.81" ry="18"/>
<text text-anchor="middle" x="738.25" y="-12.95" font-family="Times New Roman,serif" font-size="14.00"> null</text>
</g>
<!-- node_0000021f87b86070&#45;&gt;node_r_null_0000021f87b86070 -->
<g id="edge35" class="edge">
<title>node_0000021f87b86070&#45;&gt;node_r_null_0000021f87b86070</title>
<path fill="none" stroke="#007cff" d="M720.29,-72.27C723.29,-63.37 726.27,-54.54 728.91,-46.69"/>
<polygon fill="#007cff" stroke="#007cff" points="732.15,-48.05 732.03,-37.45 725.52,-45.81 732.15,-48.05"/>
</g>
<!-- node_l_null_0000021f89359530 -->
<g id="node29" class="node">
<title>node_l_null_0000021f89359530</title>
<ellipse fill="#a2f0f8" stroke="#007cff" cx="906.25" cy="-129.75" rx="27.81" ry="18"/>
<text text-anchor="middle" x="906.25" y="-124.7" font-family="Times New Roman,serif" font-size="14.00"> null</text>
</g>
<!-- node_0000021f89359530&#45;&gt;node_l_null_0000021f89359530 -->
<g id="edge42" class="edge">
<title>node_0000021f89359530&#45;&gt;node_l_null_0000021f89359530</title>
<path fill="none" stroke="#007cff" d="M906.25,-223.73C906.25,-201.72 906.25,-177.47 906.25,-159.25"/>
<polygon fill="#007cff" stroke="#007cff" points="909.75,-159.49 906.25,-149.49 902.75,-159.49 909.75,-159.49"/>
</g>
<!-- node_r_null_0000021f89359530 -->
<g id="node30" class="node">
<title>node_r_null_0000021f89359530</title>
<ellipse fill="#a2f0f8" stroke="#007cff" cx="980.25" cy="-129.75" rx="27.81" ry="18"/>
<text text-anchor="middle" x="980.25" y="-124.7" font-family="Times New Roman,serif" font-size="14.00"> null</text>
</g>
<!-- node_0000021f89359530&#45;&gt;node_r_null_0000021f89359530 -->
<g id="edge43" class="edge">
<title>node_0000021f89359530&#45;&gt;node_r_null_0000021f89359530</title>
<path fill="none" stroke="#007cff" d="M934.23,-223.73C945.46,-201.03 957.88,-175.93 966.99,-157.54"/>
<polygon fill="#007cff" stroke="#007cff" points="970.09,-159.17 971.39,-148.66 963.81,-156.07 970.09,-159.17"/>
</g>
</g>
</svg>
