<?xml version="1.0" encoding="UTF-8" standalone="no"?>
<!DOCTYPE svg PUBLIC "-//W3C//DTD SVG 1.1//EN"
 "http://www.w3.org/Graphics/SVG/1.1/DTD/svg11.dtd">
<!-- Generated by graphviz version 12.2.0 (20241103.1931)
 -->
<!-- Pages: 1 -->
<svg width="1309pt" height="802pt"
 viewBox="0.00 0.00 1308.94 801.50" xmlns="http://www.w3.org/2000/svg" xmlns:xlink="http://www.w3.org/1999/xlink">
<g id="graph0" class="graph" transform="scale(1 1) rotate(0) translate(4 797.5)">
<polygon fill="white" stroke="none" points="-4,4 -4,-797.5 1304.94,-797.5 1304.94,4 -4,4"/>
<!-- node_0000021f89359430 -->
<g id="node1" class="node">
<title>node_0000021f89359430</title>
<path fill="#ecfd74" stroke="#ffc500" d="M468.25,-678.5C468.25,-678.5 758.25,-678.5 758.25,-678.5 764.25,-678.5 770.25,-684.5 770.25,-690.5 770.25,-690.5 770.25,-781 770.25,-781 770.25,-787 764.25,-793 758.25,-793 758.25,-793 468.25,-793 468.25,-793 462.25,-793 456.25,-787 456.25,-781 456.25,-781 456.25,-690.5 456.25,-690.5 456.25,-684.5 462.25,-678.5 468.25,-678.5"/>
<text text-anchor="middle" x="613.25" y="-775.7" font-family="Times New Roman,serif" font-size="14.00">addr: 0000021f89359430</text>
<polyline fill="none" stroke="#ffc500" points="456.25,-768.5 770.25,-768.5"/>
<text text-anchor="middle" x="613.25" y="-751.2" font-family="Times New Roman,serif" font-size="14.00">val = &#39;&#45;&#39;</text>
<polyline fill="none" stroke="#ffc500" points="456.25,-744 770.25,-744"/>
<text text-anchor="middle" x="613.25" y="-726.7" font-family="Times New Roman,serif" font-size="14.00">type = OP</text>
<polyline fill="none" stroke="#ffc500" points="456.25,-719.5 770.25,-719.5"/>
<text text-anchor="middle" x="534.75" y="-702.2" font-family="Times New Roman,serif" font-size="14.00">L:</text>
<text text-anchor="middle" x="534.75" y="-685.7" font-family="Times New Roman,serif" font-size="14.00"> addr: 0000021f87b86100</text>
<polyline fill="none" stroke="#ffc500" points="613.25,-678.5 613.25,-719.5"/>
<text text-anchor="middle" x="691.75" y="-702.2" font-family="Times New Roman,serif" font-size="14.00">R: </text>
<text text-anchor="middle" x="691.75" y="-685.7" font-family="Times New Roman,serif" font-size="14.00"> addr: 0000021f87b86130</text>
</g>
<!-- node_0000021f87b86100 -->
<g id="node4" class="node">
<title>node_0000021f87b86100</title>
<path fill="#ecfd74" stroke="#ffc500" d="M301.62,-527C301.62,-527 590.88,-527 590.88,-527 596.88,-527 602.88,-533 602.88,-539 602.88,-539 602.88,-629.5 602.88,-629.5 602.88,-635.5 596.88,-641.5 590.88,-641.5 590.88,-641.5 301.62,-641.5 301.62,-641.5 295.62,-641.5 289.62,-635.5 289.62,-629.5 289.62,-629.5 289.62,-539 289.62,-539 289.62,-533 295.62,-527 301.62,-527"/>
<text text-anchor="middle" x="446.25" y="-624.2" font-family="Times New Roman,serif" font-size="14.00">addr: 0000021f87b86100</text>
<polyline fill="none" stroke="#ffc500" points="289.62,-617 602.88,-617"/>
<text text-anchor="middle" x="446.25" y="-599.7" font-family="Times New Roman,serif" font-size="14.00">val = &#39;+&#39;</text>
<polyline fill="none" stroke="#ffc500" points="289.62,-592.5 602.88,-592.5"/>
<text text-anchor="middle" x="446.25" y="-575.2" font-family="Times New Roman,serif" font-size="14.00">type = OP</text>
<polyline fill="none" stroke="#ffc500" points="289.62,-568 602.88,-568"/>
<text text-anchor="middle" x="367.75" y="-550.7" font-family="Times New Roman,serif" font-size="14.00">L:</text>
<text text-anchor="middle" x="367.75" y="-534.2" font-family="Times New Roman,serif" font-size="14.00"> addr: 0000021f87b86ad0</text>
<polyline fill="none" stroke="#ffc500" points="445.88,-527 445.88,-568"/>
<text text-anchor="middle" x="524.38" y="-550.7" font-family="Times New Roman,serif" font-size="14.00">R: </text>
<text text-anchor="middle" x="524.38" y="-534.2" font-family="Times New Roman,serif" font-size="14.00"> addr: 0000021f87b860d0</text>
</g>
<!-- node_0000021f89359430&#45;&gt;node_0000021f87b86100 -->
<g id="edge2" class="edge">
<title>node_0000021f89359430&#45;&gt;node_0000021f87b86100</title>
<path fill="none" stroke="#ff0000" d="M550.11,-678.23C539.62,-668.84 528.67,-659.03 517.98,-649.46"/>
<polygon fill="#ff0000" stroke="#ff0000" points="520.39,-646.92 510.6,-642.86 515.72,-652.14 520.39,-646.92"/>
</g>
<!-- node_0000021f87b86130 -->
<g id="node5" class="node">
<title>node_0000021f87b86130</title>
<path fill="#a2f8a4" stroke="#18ca1c" d="M633,-527C633,-527 927.5,-527 927.5,-527 933.5,-527 939.5,-533 939.5,-539 939.5,-539 939.5,-629.5 939.5,-629.5 939.5,-635.5 933.5,-641.5 927.5,-641.5 927.5,-641.5 633,-641.5 633,-641.5 627,-641.5 621,-635.5 621,-629.5 621,-629.5 621,-539 621,-539 621,-533 627,-527 633,-527"/>
<text text-anchor="middle" x="780.25" y="-624.2" font-family="Times New Roman,serif" font-size="14.00">addr: 0000021f87b86130</text>
<polyline fill="none" stroke="#18ca1c" points="621,-617 939.5,-617"/>
<text text-anchor="middle" x="780.25" y="-599.7" font-family="Times New Roman,serif" font-size="14.00">val = 5</text>
<polyline fill="none" stroke="#18ca1c" points="621,-592.5 939.5,-592.5"/>
<text text-anchor="middle" x="780.25" y="-575.2" font-family="Times New Roman,serif" font-size="14.00">type = NUM</text>
<polyline fill="none" stroke="#18ca1c" points="621,-568 939.5,-568"/>
<text text-anchor="middle" x="700.62" y="-550.7" font-family="Times New Roman,serif" font-size="14.00">L:</text>
<text text-anchor="middle" x="700.62" y="-534.2" font-family="Times New Roman,serif" font-size="14.00"> addr: 0000000000000000</text>
<polyline fill="none" stroke="#18ca1c" points="780.25,-527 780.25,-568"/>
<text text-anchor="middle" x="859.88" y="-550.7" font-family="Times New Roman,serif" font-size="14.00">R: </text>
<text text-anchor="middle" x="859.88" y="-534.2" font-family="Times New Roman,serif" font-size="14.00"> addr: 0000000000000000</text>
</g>
<!-- node_0000021f89359430&#45;&gt;node_0000021f87b86130 -->
<g id="edge3" class="edge">
<title>node_0000021f89359430&#45;&gt;node_0000021f87b86130</title>
<path fill="none" stroke="#ff0000" d="M676.39,-678.23C686.88,-668.84 697.83,-659.03 708.52,-649.46"/>
<polygon fill="#ff0000" stroke="#ff0000" points="710.78,-652.14 715.9,-642.86 706.11,-646.92 710.78,-652.14"/>
</g>
<!-- 1 -->
<g id="node2" class="node">
<title>1</title>
<ellipse fill="#fe5656" stroke="#581845" cx="1280.25" cy="-735.75" rx="18" ry="18"/>
<text text-anchor="middle" x="1280.25" y="-730.7" font-family="Times New Roman,serif" font-size="14.00">1</text>
</g>
<!-- 2 -->
<g id="node3" class="node">
<title>2</title>
<ellipse fill="#fe5656" stroke="#581845" cx="1280.25" cy="-584.25" rx="18" ry="18"/>
<text text-anchor="middle" x="1280.25" y="-579.2" font-family="Times New Roman,serif" font-size="14.00">2</text>
</g>
<!-- 1&#45;&gt;2 -->
<g id="edge1" class="edge">
<title>1&#45;&gt;2</title>
<path fill="none" stroke="white" d="M1275.79,-717.89C1273.09,-692.41 1272.78,-643.8 1274.86,-613.03"/>
<polygon fill="white" stroke="white" points="1278.33,-613.59 1275.69,-603.33 1271.35,-612.99 1278.33,-613.59"/>
</g>
<!-- 1&#45;&gt;2 -->
<g id="edge4" class="edge">
<title>1&#45;&gt;2</title>
<path fill="none" stroke="white" d="M1284.71,-717.89C1287.41,-692.41 1287.72,-643.8 1285.64,-613.03"/>
<polygon fill="white" stroke="white" points="1289.15,-612.99 1284.81,-603.33 1282.17,-613.59 1289.15,-612.99"/>
</g>
<!-- 3 -->
<g id="node6" class="node">
<title>3</title>
<ellipse fill="#fe5656" stroke="#581845" cx="1280.25" cy="-432.75" rx="18" ry="18"/>
<text text-anchor="middle" x="1280.25" y="-427.7" font-family="Times New Roman,serif" font-size="14.00">3</text>
</g>
<!-- 2&#45;&gt;3 -->
<g id="edge5" class="edge">
<title>2&#45;&gt;3</title>
<path fill="none" stroke="white" d="M1268.21,-570.24C1258.46,-545.05 1257.4,-489.26 1265,-457.35"/>
<polygon fill="white" stroke="white" points="1268.33,-458.44 1267.9,-447.86 1261.64,-456.4 1268.33,-458.44"/>
</g>
<!-- 2&#45;&gt;3 -->
<g id="edge8" class="edge">
<title>2&#45;&gt;3</title>
<path fill="none" stroke="white" d="M1275.79,-566.39C1273.09,-540.91 1272.78,-492.3 1274.86,-461.53"/>
<polygon fill="white" stroke="white" points="1278.33,-462.09 1275.69,-451.83 1271.35,-461.49 1278.33,-462.09"/>
</g>
<!-- 2&#45;&gt;3 -->
<g id="edge33" class="edge">
<title>2&#45;&gt;3</title>
<path fill="none" stroke="white" d="M1284.71,-566.39C1287.41,-540.91 1287.72,-492.3 1285.64,-461.53"/>
<polygon fill="white" stroke="white" points="1289.15,-461.49 1284.81,-451.83 1282.17,-462.09 1289.15,-461.49"/>
</g>
<!-- 2&#45;&gt;3 -->
<g id="edge36" class="edge">
<title>2&#45;&gt;3</title>
<path fill="none" stroke="white" d="M1292.29,-570.24C1302.04,-545.05 1303.1,-489.26 1295.5,-457.35"/>
<polygon fill="white" stroke="white" points="1298.86,-456.4 1292.6,-447.86 1292.17,-458.44 1298.86,-456.4"/>
</g>
<!-- node_0000021f87b86ad0 -->
<g id="node7" class="node">
<title>node_0000021f87b86ad0</title>
<path fill="#a2f8a4" stroke="#18ca1c" d="M12,-375.5C12,-375.5 306.5,-375.5 306.5,-375.5 312.5,-375.5 318.5,-381.5 318.5,-387.5 318.5,-387.5 318.5,-478 318.5,-478 318.5,-484 312.5,-490 306.5,-490 306.5,-490 12,-490 12,-490 6,-490 0,-484 0,-478 0,-478 0,-387.5 0,-387.5 0,-381.5 6,-375.5 12,-375.5"/>
<text text-anchor="middle" x="159.25" y="-472.7" font-family="Times New Roman,serif" font-size="14.00">addr: 0000021f87b86ad0</text>
<polyline fill="none" stroke="#18ca1c" points="0,-465.5 318.5,-465.5"/>
<text text-anchor="middle" x="159.25" y="-448.2" font-family="Times New Roman,serif" font-size="14.00">val = 7</text>
<polyline fill="none" stroke="#18ca1c" points="0,-441 318.5,-441"/>
<text text-anchor="middle" x="159.25" y="-423.7" font-family="Times New Roman,serif" font-size="14.00">type = NUM</text>
<polyline fill="none" stroke="#18ca1c" points="0,-416.5 318.5,-416.5"/>
<text text-anchor="middle" x="79.62" y="-399.2" font-family="Times New Roman,serif" font-size="14.00">L:</text>
<text text-anchor="middle" x="79.62" y="-382.7" font-family="Times New Roman,serif" font-size="14.00"> addr: 0000000000000000</text>
<polyline fill="none" stroke="#18ca1c" points="159.25,-375.5 159.25,-416.5"/>
<text text-anchor="middle" x="238.88" y="-399.2" font-family="Times New Roman,serif" font-size="14.00">R: </text>
<text text-anchor="middle" x="238.88" y="-382.7" font-family="Times New Roman,serif" font-size="14.00"> addr: 0000000000000000</text>
</g>
<!-- node_0000021f87b86100&#45;&gt;node_0000021f87b86ad0 -->
<g id="edge6" class="edge">
<title>node_0000021f87b86100&#45;&gt;node_0000021f87b86ad0</title>
<path fill="none" stroke="#ff0000" d="M337.34,-526.52C318.03,-516.46 297.83,-505.94 278.26,-495.74"/>
<polygon fill="#ff0000" stroke="#ff0000" points="279.92,-492.66 269.43,-491.14 276.68,-498.87 279.92,-492.66"/>
</g>
<!-- node_0000021f87b860d0 -->
<g id="node8" class="node">
<title>node_0000021f87b860d0</title>
<path fill="#ecfd74" stroke="#ffc500" d="M348.62,-375.5C348.62,-375.5 637.88,-375.5 637.88,-375.5 643.88,-375.5 649.88,-381.5 649.88,-387.5 649.88,-387.5 649.88,-478 649.88,-478 649.88,-484 643.88,-490 637.88,-490 637.88,-490 348.62,-490 348.62,-490 342.62,-490 336.62,-484 336.62,-478 336.62,-478 336.62,-387.5 336.62,-387.5 336.62,-381.5 342.62,-375.5 348.62,-375.5"/>
<text text-anchor="middle" x="493.25" y="-472.7" font-family="Times New Roman,serif" font-size="14.00">addr: 0000021f87b860d0</text>
<polyline fill="none" stroke="#ffc500" points="336.62,-465.5 649.88,-465.5"/>
<text text-anchor="middle" x="493.25" y="-448.2" font-family="Times New Roman,serif" font-size="14.00">val = &#39;*&#39;</text>
<polyline fill="none" stroke="#ffc500" points="336.62,-441 649.88,-441"/>
<text text-anchor="middle" x="493.25" y="-423.7" font-family="Times New Roman,serif" font-size="14.00">type = OP</text>
<polyline fill="none" stroke="#ffc500" points="336.62,-416.5 649.88,-416.5"/>
<text text-anchor="middle" x="415.12" y="-399.2" font-family="Times New Roman,serif" font-size="14.00">L:</text>
<text text-anchor="middle" x="415.12" y="-382.7" font-family="Times New Roman,serif" font-size="14.00"> addr: 0000021f87b86010</text>
<polyline fill="none" stroke="#ffc500" points="493.62,-375.5 493.62,-416.5"/>
<text text-anchor="middle" x="571.75" y="-399.2" font-family="Times New Roman,serif" font-size="14.00">R: </text>
<text text-anchor="middle" x="571.75" y="-382.7" font-family="Times New Roman,serif" font-size="14.00"> addr: 0000021f87b860a0</text>
</g>
<!-- node_0000021f87b86100&#45;&gt;node_0000021f87b860d0 -->
<g id="edge7" class="edge">
<title>node_0000021f87b86100&#45;&gt;node_0000021f87b860d0</title>
<path fill="none" stroke="#ff0000" d="M464.02,-526.73C466.65,-518.36 469.38,-509.66 472.08,-501.1"/>
<polygon fill="#ff0000" stroke="#ff0000" points="475.34,-502.38 475,-491.79 468.66,-500.28 475.34,-502.38"/>
</g>
<!-- node_l_null_0000021f87b86130 -->
<g id="node24" class="node">
<title>node_l_null_0000021f87b86130</title>
<ellipse fill="#a2f0f8" stroke="#007cff" cx="743.25" cy="-432.75" rx="27.81" ry="18"/>
<text text-anchor="middle" x="743.25" y="-427.7" font-family="Times New Roman,serif" font-size="14.00"> null</text>
</g>
<!-- node_0000021f87b86130&#45;&gt;node_l_null_0000021f87b86130 -->
<g id="edge34" class="edge">
<title>node_0000021f87b86130&#45;&gt;node_l_null_0000021f87b86130</title>
<path fill="none" stroke="#007cff" d="M766.26,-526.73C760.79,-504.62 754.76,-480.24 750.24,-461.99"/>
<polygon fill="#007cff" stroke="#007cff" points="753.68,-461.31 747.88,-452.44 746.88,-462.99 753.68,-461.31"/>
</g>
<!-- node_r_null_0000021f87b86130 -->
<g id="node25" class="node">
<title>node_r_null_0000021f87b86130</title>
<ellipse fill="#a2f0f8" stroke="#007cff" cx="817.25" cy="-432.75" rx="27.81" ry="18"/>
<text text-anchor="middle" x="817.25" y="-427.7" font-family="Times New Roman,serif" font-size="14.00"> null</text>
</g>
<!-- node_0000021f87b86130&#45;&gt;node_r_null_0000021f87b86130 -->
<g id="edge35" class="edge">
<title>node_0000021f87b86130&#45;&gt;node_r_null_0000021f87b86130</title>
<path fill="none" stroke="#007cff" d="M794.24,-526.73C799.71,-504.62 805.74,-480.24 810.26,-461.99"/>
<polygon fill="#007cff" stroke="#007cff" points="813.62,-462.99 812.62,-452.44 806.82,-461.31 813.62,-462.99"/>
</g>
<!-- 4 -->
<g id="node9" class="node">
<title>4</title>
<ellipse fill="#fe5656" stroke="#581845" cx="1280.25" cy="-281.25" rx="18" ry="18"/>
<text text-anchor="middle" x="1280.25" y="-276.2" font-family="Times New Roman,serif" font-size="14.00">4</text>
</g>
<!-- 3&#45;&gt;4 -->
<g id="edge9" class="edge">
<title>3&#45;&gt;4</title>
<path fill="none" stroke="white" d="M1268.21,-418.74C1258.46,-393.55 1257.4,-337.76 1265,-305.85"/>
<polygon fill="white" stroke="white" points="1268.33,-306.94 1267.9,-296.36 1261.64,-304.9 1268.33,-306.94"/>
</g>
<!-- 3&#45;&gt;4 -->
<g id="edge12" class="edge">
<title>3&#45;&gt;4</title>
<path fill="none" stroke="white" d="M1275.79,-414.89C1273.09,-389.41 1272.78,-340.8 1274.86,-310.03"/>
<polygon fill="white" stroke="white" points="1278.33,-310.59 1275.69,-300.33 1271.35,-309.99 1278.33,-310.59"/>
</g>
<!-- 3&#45;&gt;4 -->
<g id="edge13" class="edge">
<title>3&#45;&gt;4</title>
<path fill="none" stroke="white" d="M1284.71,-414.89C1287.41,-389.41 1287.72,-340.8 1285.64,-310.03"/>
<polygon fill="white" stroke="white" points="1289.15,-309.99 1284.81,-300.33 1282.17,-310.59 1289.15,-309.99"/>
</g>
<!-- 3&#45;&gt;4 -->
<g id="edge16" class="edge">
<title>3&#45;&gt;4</title>
<path fill="none" stroke="white" d="M1292.29,-418.74C1302.04,-393.55 1303.1,-337.76 1295.5,-305.85"/>
<polygon fill="white" stroke="white" points="1298.86,-304.9 1292.6,-296.36 1292.17,-306.94 1298.86,-304.9"/>
</g>
<!-- node_l_null_0000021f87b86ad0 -->
<g id="node10" class="node">
<title>node_l_null_0000021f87b86ad0</title>
<ellipse fill="#a2f0f8" stroke="#007cff" cx="122.25" cy="-281.25" rx="27.81" ry="18"/>
<text text-anchor="middle" x="122.25" y="-276.2" font-family="Times New Roman,serif" font-size="14.00"> null</text>
</g>
<!-- node_0000021f87b86ad0&#45;&gt;node_l_null_0000021f87b86ad0 -->
<g id="edge10" class="edge">
<title>node_0000021f87b86ad0&#45;&gt;node_l_null_0000021f87b86ad0</title>
<path fill="none" stroke="#007cff" d="M145.26,-375.23C139.79,-353.12 133.76,-328.74 129.24,-310.49"/>
<polygon fill="#007cff" stroke="#007cff" points="132.68,-309.81 126.88,-300.94 125.88,-311.49 132.68,-309.81"/>
</g>
<!-- node_r_null_0000021f87b86ad0 -->
<g id="node11" class="node">
<title>node_r_null_0000021f87b86ad0</title>
<ellipse fill="#a2f0f8" stroke="#007cff" cx="196.25" cy="-281.25" rx="27.81" ry="18"/>
<text text-anchor="middle" x="196.25" y="-276.2" font-family="Times New Roman,serif" font-size="14.00"> null</text>
</g>
<!-- node_0000021f87b86ad0&#45;&gt;node_r_null_0000021f87b86ad0 -->
<g id="edge11" class="edge">
<title>node_0000021f87b86ad0&#45;&gt;node_r_null_0000021f87b86ad0</title>
<path fill="none" stroke="#007cff" d="M173.24,-375.23C178.71,-353.12 184.74,-328.74 189.26,-310.49"/>
<polygon fill="#007cff" stroke="#007cff" points="192.62,-311.49 191.62,-300.94 185.82,-309.81 192.62,-311.49"/>
</g>
<!-- node_0000021f87b86010 -->
<g id="node12" class="node">
<title>node_0000021f87b86010</title>
<path fill="#a2f8a4" stroke="#18ca1c" d="M300,-224C300,-224 594.5,-224 594.5,-224 600.5,-224 606.5,-230 606.5,-236 606.5,-236 606.5,-326.5 606.5,-326.5 606.5,-332.5 600.5,-338.5 594.5,-338.5 594.5,-338.5 300,-338.5 300,-338.5 294,-338.5 288,-332.5 288,-326.5 288,-326.5 288,-236 288,-236 288,-230 294,-224 300,-224"/>
<text text-anchor="middle" x="447.25" y="-321.2" font-family="Times New Roman,serif" font-size="14.00">addr: 0000021f87b86010</text>
<polyline fill="none" stroke="#18ca1c" points="288,-314 606.5,-314"/>
<text text-anchor="middle" x="447.25" y="-296.7" font-family="Times New Roman,serif" font-size="14.00">val = 3</text>
<polyline fill="none" stroke="#18ca1c" points="288,-289.5 606.5,-289.5"/>
<text text-anchor="middle" x="447.25" y="-272.2" font-family="Times New Roman,serif" font-size="14.00">type = NUM</text>
<polyline fill="none" stroke="#18ca1c" points="288,-265 606.5,-265"/>
<text text-anchor="middle" x="367.62" y="-247.7" font-family="Times New Roman,serif" font-size="14.00">L:</text>
<text text-anchor="middle" x="367.62" y="-231.2" font-family="Times New Roman,serif" font-size="14.00"> addr: 0000000000000000</text>
<polyline fill="none" stroke="#18ca1c" points="447.25,-224 447.25,-265"/>
<text text-anchor="middle" x="526.88" y="-247.7" font-family="Times New Roman,serif" font-size="14.00">R: </text>
<text text-anchor="middle" x="526.88" y="-231.2" font-family="Times New Roman,serif" font-size="14.00"> addr: 0000000000000000</text>
</g>
<!-- node_0000021f87b860d0&#45;&gt;node_0000021f87b86010 -->
<g id="edge14" class="edge">
<title>node_0000021f87b860d0&#45;&gt;node_0000021f87b86010</title>
<path fill="none" stroke="#ff0000" d="M475.86,-375.23C473.28,-366.86 470.61,-358.16 467.97,-349.6"/>
<polygon fill="#ff0000" stroke="#ff0000" points="471.4,-348.82 465.11,-340.3 464.71,-350.88 471.4,-348.82"/>
</g>
<!-- node_0000021f87b860a0 -->
<g id="node13" class="node">
<title>node_0000021f87b860a0</title>
<path fill="#ecfd74" stroke="#ffc500" d="M636.25,-224C636.25,-224 926.25,-224 926.25,-224 932.25,-224 938.25,-230 938.25,-236 938.25,-236 938.25,-326.5 938.25,-326.5 938.25,-332.5 932.25,-338.5 926.25,-338.5 926.25,-338.5 636.25,-338.5 636.25,-338.5 630.25,-338.5 624.25,-332.5 624.25,-326.5 624.25,-326.5 624.25,-236 624.25,-236 624.25,-230 630.25,-224 636.25,-224"/>
<text text-anchor="middle" x="781.25" y="-321.2" font-family="Times New Roman,serif" font-size="14.00">addr: 0000021f87b860a0</text>
<polyline fill="none" stroke="#ffc500" points="624.25,-314 938.25,-314"/>
<text text-anchor="middle" x="781.25" y="-296.7" font-family="Times New Roman,serif" font-size="14.00">val = &#39;^&#39;</text>
<polyline fill="none" stroke="#ffc500" points="624.25,-289.5 938.25,-289.5"/>
<text text-anchor="middle" x="781.25" y="-272.2" font-family="Times New Roman,serif" font-size="14.00">type = OP</text>
<polyline fill="none" stroke="#ffc500" points="624.25,-265 938.25,-265"/>
<text text-anchor="middle" x="702.75" y="-247.7" font-family="Times New Roman,serif" font-size="14.00">L:</text>
<text text-anchor="middle" x="702.75" y="-231.2" font-family="Times New Roman,serif" font-size="14.00"> addr: 0000021f87b86040</text>
<polyline fill="none" stroke="#ffc500" points="781.25,-224 781.25,-265"/>
<text text-anchor="middle" x="859.75" y="-247.7" font-family="Times New Roman,serif" font-size="14.00">R: </text>
<text text-anchor="middle" x="859.75" y="-231.2" font-family="Times New Roman,serif" font-size="14.00"> addr: 0000021f87b86070</text>
</g>
<!-- node_0000021f87b860d0&#45;&gt;node_0000021f87b860a0 -->
<g id="edge15" class="edge">
<title>node_0000021f87b860d0&#45;&gt;node_0000021f87b860a0</title>
<path fill="none" stroke="#ff0000" d="M602.54,-375.02C621.92,-364.96 642.19,-354.44 661.83,-344.24"/>
<polygon fill="#ff0000" stroke="#ff0000" points="663.43,-347.35 670.69,-339.64 660.2,-341.14 663.43,-347.35"/>
</g>
<!-- 5 -->
<g id="node14" class="node">
<title>5</title>
<ellipse fill="#fe5656" stroke="#581845" cx="1280.25" cy="-129.75" rx="18" ry="18"/>
<text text-anchor="middle" x="1280.25" y="-124.7" font-family="Times New Roman,serif" font-size="14.00">5</text>
</g>
<!-- 4&#45;&gt;5 -->
<g id="edge17" class="edge">
<title>4&#45;&gt;5</title>
<path fill="none" stroke="white" d="M1268.21,-267.24C1258.46,-242.05 1257.4,-186.26 1265,-154.35"/>
<polygon fill="white" stroke="white" points="1268.33,-155.44 1267.9,-144.86 1261.64,-153.4 1268.33,-155.44"/>
</g>
<!-- 4&#45;&gt;5 -->
<g id="edge20" class="edge">
<title>4&#45;&gt;5</title>
<path fill="none" stroke="white" d="M1275.79,-263.39C1273.09,-237.91 1272.78,-189.3 1274.86,-158.53"/>
<polygon fill="white" stroke="white" points="1278.33,-159.09 1275.69,-148.83 1271.35,-158.49 1278.33,-159.09"/>
</g>
<!-- 4&#45;&gt;5 -->
<g id="edge21" class="edge">
<title>4&#45;&gt;5</title>
<path fill="none" stroke="white" d="M1284.71,-263.39C1287.41,-237.91 1287.72,-189.3 1285.64,-158.53"/>
<polygon fill="white" stroke="white" points="1289.15,-158.49 1284.81,-148.83 1282.17,-159.09 1289.15,-158.49"/>
</g>
<!-- 4&#45;&gt;5 -->
<g id="edge24" class="edge">
<title>4&#45;&gt;5</title>
<path fill="none" stroke="white" d="M1292.29,-267.24C1302.04,-242.05 1303.1,-186.26 1295.5,-154.35"/>
<polygon fill="white" stroke="white" points="1298.86,-153.4 1292.6,-144.86 1292.17,-155.44 1298.86,-153.4"/>
</g>
<!-- node_l_null_0000021f87b86010 -->
<g id="node15" class="node">
<title>node_l_null_0000021f87b86010</title>
<ellipse fill="#a2f0f8" stroke="#007cff" cx="405.25" cy="-129.75" rx="27.81" ry="18"/>
<text text-anchor="middle" x="405.25" y="-124.7" font-family="Times New Roman,serif" font-size="14.00"> null</text>
</g>
<!-- node_0000021f87b86010&#45;&gt;node_l_null_0000021f87b86010 -->
<g id="edge18" class="edge">
<title>node_0000021f87b86010&#45;&gt;node_l_null_0000021f87b86010</title>
<path fill="none" stroke="#007cff" d="M431.37,-223.73C425.16,-201.62 418.31,-177.24 413.18,-158.99"/>
<polygon fill="#007cff" stroke="#007cff" points="416.57,-158.11 410.5,-149.43 409.83,-160.01 416.57,-158.11"/>
</g>
<!-- node_r_null_0000021f87b86010 -->
<g id="node16" class="node">
<title>node_r_null_0000021f87b86010</title>
<ellipse fill="#a2f0f8" stroke="#007cff" cx="479.25" cy="-129.75" rx="27.81" ry="18"/>
<text text-anchor="middle" x="479.25" y="-124.7" font-family="Times New Roman,serif" font-size="14.00"> null</text>
</g>
<!-- node_0000021f87b86010&#45;&gt;node_r_null_0000021f87b86010 -->
<g id="edge19" class="edge">
<title>node_0000021f87b86010&#45;&gt;node_r_null_0000021f87b86010</title>
<path fill="none" stroke="#007cff" d="M459.35,-223.73C464.08,-201.62 469.3,-177.24 473.2,-158.99"/>
<polygon fill="#007cff" stroke="#007cff" points="476.58,-159.97 475.25,-149.45 469.73,-158.5 476.58,-159.97"/>
</g>
<!-- node_0000021f87b86040 -->
<g id="node17" class="node">
<title>node_0000021f87b86040</title>
<path fill="#a2f8a4" stroke="#18ca1c" d="M601,-72.5C601,-72.5 895.5,-72.5 895.5,-72.5 901.5,-72.5 907.5,-78.5 907.5,-84.5 907.5,-84.5 907.5,-175 907.5,-175 907.5,-181 901.5,-187 895.5,-187 895.5,-187 601,-187 601,-187 595,-187 589,-181 589,-175 589,-175 589,-84.5 589,-84.5 589,-78.5 595,-72.5 601,-72.5"/>
<text text-anchor="middle" x="748.25" y="-169.7" font-family="Times New Roman,serif" font-size="14.00">addr: 0000021f87b86040</text>
<polyline fill="none" stroke="#18ca1c" points="589,-162.5 907.5,-162.5"/>
<text text-anchor="middle" x="748.25" y="-145.2" font-family="Times New Roman,serif" font-size="14.00">val = 2</text>
<polyline fill="none" stroke="#18ca1c" points="589,-138 907.5,-138"/>
<text text-anchor="middle" x="748.25" y="-120.7" font-family="Times New Roman,serif" font-size="14.00">type = NUM</text>
<polyline fill="none" stroke="#18ca1c" points="589,-113.5 907.5,-113.5"/>
<text text-anchor="middle" x="668.62" y="-96.2" font-family="Times New Roman,serif" font-size="14.00">L:</text>
<text text-anchor="middle" x="668.62" y="-79.7" font-family="Times New Roman,serif" font-size="14.00"> addr: 0000000000000000</text>
<polyline fill="none" stroke="#18ca1c" points="748.25,-72.5 748.25,-113.5"/>
<text text-anchor="middle" x="827.88" y="-96.2" font-family="Times New Roman,serif" font-size="14.00">R: </text>
<text text-anchor="middle" x="827.88" y="-79.7" font-family="Times New Roman,serif" font-size="14.00"> addr: 0000000000000000</text>
</g>
<!-- node_0000021f87b860a0&#45;&gt;node_0000021f87b86040 -->
<g id="edge22" class="edge">
<title>node_0000021f87b860a0&#45;&gt;node_0000021f87b86040</title>
<path fill="none" stroke="#ff0000" d="M768.77,-223.73C766.95,-215.45 765.05,-206.85 763.18,-198.38"/>
<polygon fill="#ff0000" stroke="#ff0000" points="766.64,-197.84 761.07,-188.83 759.81,-199.35 766.64,-197.84"/>
</g>
<!-- node_0000021f87b86070 -->
<g id="node18" class="node">
<title>node_0000021f87b86070</title>
<path fill="#a2f8a4" stroke="#18ca1c" d="M938,-72.5C938,-72.5 1232.5,-72.5 1232.5,-72.5 1238.5,-72.5 1244.5,-78.5 1244.5,-84.5 1244.5,-84.5 1244.5,-175 1244.5,-175 1244.5,-181 1238.5,-187 1232.5,-187 1232.5,-187 938,-187 938,-187 932,-187 926,-181 926,-175 926,-175 926,-84.5 926,-84.5 926,-78.5 932,-72.5 938,-72.5"/>
<text text-anchor="middle" x="1085.25" y="-169.7" font-family="Times New Roman,serif" font-size="14.00">addr: 0000021f87b86070</text>
<polyline fill="none" stroke="#18ca1c" points="926,-162.5 1244.5,-162.5"/>
<text text-anchor="middle" x="1085.25" y="-145.2" font-family="Times New Roman,serif" font-size="14.00">val = 4</text>
<polyline fill="none" stroke="#18ca1c" points="926,-138 1244.5,-138"/>
<text text-anchor="middle" x="1085.25" y="-120.7" font-family="Times New Roman,serif" font-size="14.00">type = NUM</text>
<polyline fill="none" stroke="#18ca1c" points="926,-113.5 1244.5,-113.5"/>
<text text-anchor="middle" x="1005.62" y="-96.2" font-family="Times New Roman,serif" font-size="14.00">L:</text>
<text text-anchor="middle" x="1005.62" y="-79.7" font-family="Times New Roman,serif" font-size="14.00"> addr: 0000000000000000</text>
<polyline fill="none" stroke="#18ca1c" points="1085.25,-72.5 1085.25,-113.5"/>
<text text-anchor="middle" x="1164.88" y="-96.2" font-family="Times New Roman,serif" font-size="14.00">R: </text>
<text text-anchor="middle" x="1164.88" y="-79.7" font-family="Times New Roman,serif" font-size="14.00"> addr: 0000000000000000</text>
</g>
<!-- node_0000021f87b860a0&#45;&gt;node_0000021f87b86070 -->
<g id="edge23" class="edge">
<title>node_0000021f87b860a0&#45;&gt;node_0000021f87b86070</title>
<path fill="none" stroke="#ff0000" d="M896.61,-223.52C917.25,-213.37 938.85,-202.74 959.76,-192.46"/>
<polygon fill="#ff0000" stroke="#ff0000" points="961.18,-195.67 968.61,-188.11 958.09,-189.38 961.18,-195.67"/>
</g>
<!-- 6 -->
<g id="node19" class="node">
<title>6</title>
<ellipse fill="#fe5656" stroke="#581845" cx="1280.25" cy="-18" rx="18" ry="18"/>
<text text-anchor="middle" x="1280.25" y="-12.95" font-family="Times New Roman,serif" font-size="14.00">6</text>
</g>
<!-- 5&#45;&gt;6 -->
<g id="edge25" class="edge">
<title>5&#45;&gt;6</title>
<path fill="none" stroke="white" d="M1267.14,-117C1259.02,-99.02 1257.83,-64.32 1263.55,-41.42"/>
<polygon fill="white" stroke="white" points="1266.82,-42.69 1266.69,-32.09 1260.18,-40.45 1266.82,-42.69"/>
</g>
<!-- 5&#45;&gt;6 -->
<g id="edge28" class="edge">
<title>5&#45;&gt;6</title>
<path fill="none" stroke="white" d="M1275.24,-112.08C1273.29,-94.74 1272.98,-67.28 1274.3,-46.68"/>
<polygon fill="white" stroke="white" points="1277.76,-47.24 1275.13,-36.97 1270.79,-46.64 1277.76,-47.24"/>
</g>
<!-- 5&#45;&gt;6 -->
<g id="edge29" class="edge">
<title>5&#45;&gt;6</title>
<path fill="none" stroke="white" d="M1285.26,-112.08C1287.21,-94.74 1287.52,-67.28 1286.2,-46.68"/>
<polygon fill="white" stroke="white" points="1289.71,-46.64 1285.37,-36.97 1282.74,-47.24 1289.71,-46.64"/>
</g>
<!-- 5&#45;&gt;6 -->
<g id="edge32" class="edge">
<title>5&#45;&gt;6</title>
<path fill="none" stroke="white" d="M1293.36,-117C1301.48,-99.02 1302.67,-64.32 1296.95,-41.42"/>
<polygon fill="white" stroke="white" points="1300.32,-40.45 1293.81,-32.09 1293.68,-42.69 1300.32,-40.45"/>
</g>
<!-- node_l_null_0000021f87b86040 -->
<g id="node20" class="node">
<title>node_l_null_0000021f87b86040</title>
<ellipse fill="#a2f0f8" stroke="#007cff" cx="711.25" cy="-18" rx="27.81" ry="18"/>
<text text-anchor="middle" x="711.25" y="-12.95" font-family="Times New Roman,serif" font-size="14.00"> null</text>
</g>
<!-- node_0000021f87b86040&#45;&gt;node_l_null_0000021f87b86040 -->
<g id="edge26" class="edge">
<title>node_0000021f87b86040&#45;&gt;node_l_null_0000021f87b86040</title>
<path fill="none" stroke="#007cff" d="M729.21,-72.27C726.21,-63.37 723.23,-54.54 720.59,-46.69"/>
<polygon fill="#007cff" stroke="#007cff" points="723.98,-45.81 717.47,-37.45 717.35,-48.05 723.98,-45.81"/>
</g>
<!-- node_r_null_0000021f87b86040 -->
<g id="node21" class="node">
<title>node_r_null_0000021f87b86040</title>
<ellipse fill="#a2f0f8" stroke="#007cff" cx="785.25" cy="-18" rx="27.81" ry="18"/>
<text text-anchor="middle" x="785.25" y="-12.95" font-family="Times New Roman,serif" font-size="14.00"> null</text>
</g>
<!-- node_0000021f87b86040&#45;&gt;node_r_null_0000021f87b86040 -->
<g id="edge27" class="edge">
<title>node_0000021f87b86040&#45;&gt;node_r_null_0000021f87b86040</title>
<path fill="none" stroke="#007cff" d="M767.29,-72.27C770.29,-63.37 773.27,-54.54 775.91,-46.69"/>
<polygon fill="#007cff" stroke="#007cff" points="779.15,-48.05 779.03,-37.45 772.52,-45.81 779.15,-48.05"/>
</g>
<!-- node_l_null_0000021f87b86070 -->
<g id="node22" class="node">
<title>node_l_null_0000021f87b86070</title>
<ellipse fill="#a2f0f8" stroke="#007cff" cx="1048.25" cy="-18" rx="27.81" ry="18"/>
<text text-anchor="middle" x="1048.25" y="-12.95" font-family="Times New Roman,serif" font-size="14.00"> null</text>
</g>
<!-- node_0000021f87b86070&#45;&gt;node_l_null_0000021f87b86070 -->
<g id="edge30" class="edge">
<title>node_0000021f87b86070&#45;&gt;node_l_null_0000021f87b86070</title>
<path fill="none" stroke="#007cff" d="M1066.21,-72.27C1063.21,-63.37 1060.23,-54.54 1057.59,-46.69"/>
<polygon fill="#007cff" stroke="#007cff" points="1060.98,-45.81 1054.47,-37.45 1054.35,-48.05 1060.98,-45.81"/>
</g>
<!-- node_r_null_0000021f87b86070 -->
<g id="node23" class="node">
<title>node_r_null_0000021f87b86070</title>
<ellipse fill="#a2f0f8" stroke="#007cff" cx="1122.25" cy="-18" rx="27.81" ry="18"/>
<text text-anchor="middle" x="1122.25" y="-12.95" font-family="Times New Roman,serif" font-size="14.00"> null</text>
</g>
<!-- node_0000021f87b86070&#45;&gt;node_r_null_0000021f87b86070 -->
<g id="edge31" class="edge">
<title>node_0000021f87b86070&#45;&gt;node_r_null_0000021f87b86070</title>
<path fill="none" stroke="#007cff" d="M1104.29,-72.27C1107.29,-63.37 1110.27,-54.54 1112.91,-46.69"/>
<polygon fill="#007cff" stroke="#007cff" points="1116.15,-48.05 1116.03,-37.45 1109.52,-45.81 1116.15,-48.05"/>
</g>
</g>
</svg>
