<?xml version="1.0" encoding="UTF-8" standalone="no"?>
<!DOCTYPE svg PUBLIC "-//W3C//DTD SVG 1.1//EN"
 "http://www.w3.org/Graphics/SVG/1.1/DTD/svg11.dtd">
<!-- Generated by graphviz version 12.2.0 (20241103.1931)
 -->
<!-- Pages: 1 -->
<svg width="804pt" height="347pt"
 viewBox="0.00 0.00 803.94 347.00" xmlns="http://www.w3.org/2000/svg" xmlns:xlink="http://www.w3.org/1999/xlink">
<g id="graph0" class="graph" transform="scale(1 1) rotate(0) translate(4 343)">
<polygon fill="white" stroke="none" points="-4,4 -4,-343 799.94,-343 799.94,4 -4,4"/>
<!-- node_000002546d6b60e0 -->
<g id="node1" class="node">
<title>node_000002546d6b60e0</title>
<path fill="#ecfd74" stroke="#ffc500" d="M265,-224C265,-224 559.5,-224 559.5,-224 565.5,-224 571.5,-230 571.5,-236 571.5,-236 571.5,-326.5 571.5,-326.5 571.5,-332.5 565.5,-338.5 559.5,-338.5 559.5,-338.5 265,-338.5 265,-338.5 259,-338.5 253,-332.5 253,-326.5 253,-326.5 253,-236 253,-236 253,-230 259,-224 265,-224"/>
<text text-anchor="middle" x="412.25" y="-321.2" font-family="Times New Roman,serif" font-size="14.00">addr: 000002546d6b60e0</text>
<polyline fill="none" stroke="#ffc500" points="253,-314 571.5,-314"/>
<text text-anchor="middle" x="412.25" y="-296.7" font-family="Times New Roman,serif" font-size="14.00">val = &#39;+&#39;</text>
<polyline fill="none" stroke="#ffc500" points="253,-289.5 571.5,-289.5"/>
<text text-anchor="middle" x="412.25" y="-272.2" font-family="Times New Roman,serif" font-size="14.00">type = OP</text>
<polyline fill="none" stroke="#ffc500" points="253,-265 571.5,-265"/>
<text text-anchor="middle" x="332.62" y="-247.7" font-family="Times New Roman,serif" font-size="14.00">L:</text>
<text text-anchor="middle" x="332.62" y="-231.2" font-family="Times New Roman,serif" font-size="14.00"> addr: 000002546d6b6080</text>
<polyline fill="none" stroke="#ffc500" points="412.25,-224 412.25,-265"/>
<text text-anchor="middle" x="491.88" y="-247.7" font-family="Times New Roman,serif" font-size="14.00">R: </text>
<text text-anchor="middle" x="491.88" y="-231.2" font-family="Times New Roman,serif" font-size="14.00"> addr: 000002546d6b60b0</text>
</g>
<!-- node_000002546d6b6080 -->
<g id="node4" class="node">
<title>node_000002546d6b6080</title>
<path fill="#ff5fe0" stroke="#d408ac" d="M12,-72.5C12,-72.5 306.5,-72.5 306.5,-72.5 312.5,-72.5 318.5,-78.5 318.5,-84.5 318.5,-84.5 318.5,-175 318.5,-175 318.5,-181 312.5,-187 306.5,-187 306.5,-187 12,-187 12,-187 6,-187 0,-181 0,-175 0,-175 0,-84.5 0,-84.5 0,-78.5 6,-72.5 12,-72.5"/>
<text text-anchor="middle" x="159.25" y="-169.7" font-family="Times New Roman,serif" font-size="14.00">addr: 000002546d6b6080</text>
<polyline fill="none" stroke="#d408ac" points="0,-162.5 318.5,-162.5"/>
<text text-anchor="middle" x="159.25" y="-145.2" font-family="Times New Roman,serif" font-size="14.00">val = &#39;x&#39;</text>
<polyline fill="none" stroke="#d408ac" points="0,-138 318.5,-138"/>
<text text-anchor="middle" x="159.25" y="-120.7" font-family="Times New Roman,serif" font-size="14.00">type = VAR</text>
<polyline fill="none" stroke="#d408ac" points="0,-113.5 318.5,-113.5"/>
<text text-anchor="middle" x="79.62" y="-96.2" font-family="Times New Roman,serif" font-size="14.00">L:</text>
<text text-anchor="middle" x="79.62" y="-79.7" font-family="Times New Roman,serif" font-size="14.00"> addr: 0000000000000000</text>
<polyline fill="none" stroke="#d408ac" points="159.25,-72.5 159.25,-113.5"/>
<text text-anchor="middle" x="238.88" y="-96.2" font-family="Times New Roman,serif" font-size="14.00">R: </text>
<text text-anchor="middle" x="238.88" y="-79.7" font-family="Times New Roman,serif" font-size="14.00"> addr: 0000000000000000</text>
</g>
<!-- node_000002546d6b60e0&#45;&gt;node_000002546d6b6080 -->
<g id="edge2" class="edge">
<title>node_000002546d6b60e0&#45;&gt;node_000002546d6b6080</title>
<path fill="none" stroke="#ff0000" d="M316.24,-223.52C299.37,-213.55 281.74,-203.13 264.63,-193.02"/>
<polygon fill="#ff0000" stroke="#ff0000" points="266.89,-190.29 256.5,-188.21 263.33,-196.31 266.89,-190.29"/>
</g>
<!-- node_000002546d6b60b0 -->
<g id="node5" class="node">
<title>node_000002546d6b60b0</title>
<path fill="#ff5fe0" stroke="#d408ac" d="M349,-72.5C349,-72.5 643.5,-72.5 643.5,-72.5 649.5,-72.5 655.5,-78.5 655.5,-84.5 655.5,-84.5 655.5,-175 655.5,-175 655.5,-181 649.5,-187 643.5,-187 643.5,-187 349,-187 349,-187 343,-187 337,-181 337,-175 337,-175 337,-84.5 337,-84.5 337,-78.5 343,-72.5 349,-72.5"/>
<text text-anchor="middle" x="496.25" y="-169.7" font-family="Times New Roman,serif" font-size="14.00">addr: 000002546d6b60b0</text>
<polyline fill="none" stroke="#d408ac" points="337,-162.5 655.5,-162.5"/>
<text text-anchor="middle" x="496.25" y="-145.2" font-family="Times New Roman,serif" font-size="14.00">val = &#39;x&#39;</text>
<polyline fill="none" stroke="#d408ac" points="337,-138 655.5,-138"/>
<text text-anchor="middle" x="496.25" y="-120.7" font-family="Times New Roman,serif" font-size="14.00">type = VAR</text>
<polyline fill="none" stroke="#d408ac" points="337,-113.5 655.5,-113.5"/>
<text text-anchor="middle" x="416.62" y="-96.2" font-family="Times New Roman,serif" font-size="14.00">L:</text>
<text text-anchor="middle" x="416.62" y="-79.7" font-family="Times New Roman,serif" font-size="14.00"> addr: 0000000000000000</text>
<polyline fill="none" stroke="#d408ac" points="496.25,-72.5 496.25,-113.5"/>
<text text-anchor="middle" x="575.88" y="-96.2" font-family="Times New Roman,serif" font-size="14.00">R: </text>
<text text-anchor="middle" x="575.88" y="-79.7" font-family="Times New Roman,serif" font-size="14.00"> addr: 0000000000000000</text>
</g>
<!-- node_000002546d6b60e0&#45;&gt;node_000002546d6b60b0 -->
<g id="edge3" class="edge">
<title>node_000002546d6b60e0&#45;&gt;node_000002546d6b60b0</title>
<path fill="none" stroke="#ff0000" d="M444.01,-223.73C448.87,-215.08 453.92,-206.08 458.89,-197.24"/>
<polygon fill="#ff0000" stroke="#ff0000" points="461.86,-199.1 463.71,-188.67 455.76,-195.67 461.86,-199.1"/>
</g>
<!-- 1 -->
<g id="node2" class="node">
<title>1</title>
<ellipse fill="#fe5656" stroke="#581845" cx="775.25" cy="-281.25" rx="18" ry="18"/>
<text text-anchor="middle" x="775.25" y="-276.2" font-family="Times New Roman,serif" font-size="14.00">1</text>
</g>
<!-- 2 -->
<g id="node3" class="node">
<title>2</title>
<ellipse fill="#fe5656" stroke="#581845" cx="775.25" cy="-129.75" rx="18" ry="18"/>
<text text-anchor="middle" x="775.25" y="-124.7" font-family="Times New Roman,serif" font-size="14.00">2</text>
</g>
<!-- 1&#45;&gt;2 -->
<g id="edge1" class="edge">
<title>1&#45;&gt;2</title>
<path fill="none" stroke="white" d="M770.79,-263.39C768.09,-237.91 767.78,-189.3 769.86,-158.53"/>
<polygon fill="white" stroke="white" points="773.33,-159.09 770.69,-148.83 766.35,-158.49 773.33,-159.09"/>
</g>
<!-- 1&#45;&gt;2 -->
<g id="edge4" class="edge">
<title>1&#45;&gt;2</title>
<path fill="none" stroke="white" d="M779.71,-263.39C782.41,-237.91 782.72,-189.3 780.64,-158.53"/>
<polygon fill="white" stroke="white" points="784.15,-158.49 779.81,-148.83 777.17,-159.09 784.15,-158.49"/>
</g>
<!-- 3 -->
<g id="node6" class="node">
<title>3</title>
<ellipse fill="#fe5656" stroke="#581845" cx="775.25" cy="-18" rx="18" ry="18"/>
<text text-anchor="middle" x="775.25" y="-12.95" font-family="Times New Roman,serif" font-size="14.00">3</text>
</g>
<!-- 2&#45;&gt;3 -->
<g id="edge5" class="edge">
<title>2&#45;&gt;3</title>
<path fill="none" stroke="white" d="M762.14,-117C754.02,-99.02 752.83,-64.32 758.55,-41.42"/>
<polygon fill="white" stroke="white" points="761.82,-42.69 761.69,-32.09 755.18,-40.45 761.82,-42.69"/>
</g>
<!-- 2&#45;&gt;3 -->
<g id="edge8" class="edge">
<title>2&#45;&gt;3</title>
<path fill="none" stroke="white" d="M770.24,-112.08C768.29,-94.74 767.98,-67.28 769.3,-46.68"/>
<polygon fill="white" stroke="white" points="772.76,-47.24 770.13,-36.97 765.79,-46.64 772.76,-47.24"/>
</g>
<!-- 2&#45;&gt;3 -->
<g id="edge9" class="edge">
<title>2&#45;&gt;3</title>
<path fill="none" stroke="white" d="M780.26,-112.08C782.21,-94.74 782.52,-67.28 781.2,-46.68"/>
<polygon fill="white" stroke="white" points="784.71,-46.64 780.37,-36.97 777.74,-47.24 784.71,-46.64"/>
</g>
<!-- 2&#45;&gt;3 -->
<g id="edge12" class="edge">
<title>2&#45;&gt;3</title>
<path fill="none" stroke="white" d="M788.36,-117C796.48,-99.02 797.67,-64.32 791.95,-41.42"/>
<polygon fill="white" stroke="white" points="795.32,-40.45 788.81,-32.09 788.68,-42.69 795.32,-40.45"/>
</g>
<!-- node_l_null_000002546d6b6080 -->
<g id="node7" class="node">
<title>node_l_null_000002546d6b6080</title>
<ellipse fill="#a2f0f8" stroke="#007cff" cx="122.25" cy="-18" rx="27.81" ry="18"/>
<text text-anchor="middle" x="122.25" y="-12.95" font-family="Times New Roman,serif" font-size="14.00"> null</text>
</g>
<!-- node_000002546d6b6080&#45;&gt;node_l_null_000002546d6b6080 -->
<g id="edge6" class="edge">
<title>node_000002546d6b6080&#45;&gt;node_l_null_000002546d6b6080</title>
<path fill="none" stroke="#007cff" d="M140.21,-72.27C137.21,-63.37 134.23,-54.54 131.59,-46.69"/>
<polygon fill="#007cff" stroke="#007cff" points="134.98,-45.81 128.47,-37.45 128.35,-48.05 134.98,-45.81"/>
</g>
<!-- node_r_null_000002546d6b6080 -->
<g id="node8" class="node">
<title>node_r_null_000002546d6b6080</title>
<ellipse fill="#a2f0f8" stroke="#007cff" cx="196.25" cy="-18" rx="27.81" ry="18"/>
<text text-anchor="middle" x="196.25" y="-12.95" font-family="Times New Roman,serif" font-size="14.00"> null</text>
</g>
<!-- node_000002546d6b6080&#45;&gt;node_r_null_000002546d6b6080 -->
<g id="edge7" class="edge">
<title>node_000002546d6b6080&#45;&gt;node_r_null_000002546d6b6080</title>
<path fill="none" stroke="#007cff" d="M178.29,-72.27C181.29,-63.37 184.27,-54.54 186.91,-46.69"/>
<polygon fill="#007cff" stroke="#007cff" points="190.15,-48.05 190.03,-37.45 183.52,-45.81 190.15,-48.05"/>
</g>
<!-- node_l_null_000002546d6b60b0 -->
<g id="node9" class="node">
<title>node_l_null_000002546d6b60b0</title>
<ellipse fill="#a2f0f8" stroke="#007cff" cx="459.25" cy="-18" rx="27.81" ry="18"/>
<text text-anchor="middle" x="459.25" y="-12.95" font-family="Times New Roman,serif" font-size="14.00"> null</text>
</g>
<!-- node_000002546d6b60b0&#45;&gt;node_l_null_000002546d6b60b0 -->
<g id="edge10" class="edge">
<title>node_000002546d6b60b0&#45;&gt;node_l_null_000002546d6b60b0</title>
<path fill="none" stroke="#007cff" d="M477.21,-72.27C474.21,-63.37 471.23,-54.54 468.59,-46.69"/>
<polygon fill="#007cff" stroke="#007cff" points="471.98,-45.81 465.47,-37.45 465.35,-48.05 471.98,-45.81"/>
</g>
<!-- node_r_null_000002546d6b60b0 -->
<g id="node10" class="node">
<title>node_r_null_000002546d6b60b0</title>
<ellipse fill="#a2f0f8" stroke="#007cff" cx="533.25" cy="-18" rx="27.81" ry="18"/>
<text text-anchor="middle" x="533.25" y="-12.95" font-family="Times New Roman,serif" font-size="14.00"> null</text>
</g>
<!-- node_000002546d6b60b0&#45;&gt;node_r_null_000002546d6b60b0 -->
<g id="edge11" class="edge">
<title>node_000002546d6b60b0&#45;&gt;node_r_null_000002546d6b60b0</title>
<path fill="none" stroke="#007cff" d="M515.29,-72.27C518.29,-63.37 521.27,-54.54 523.91,-46.69"/>
<polygon fill="#007cff" stroke="#007cff" points="527.15,-48.05 527.03,-37.45 520.52,-45.81 527.15,-48.05"/>
</g>
</g>
</svg>
