<?xml version="1.0" encoding="UTF-8" standalone="no"?>
<!DOCTYPE svg PUBLIC "-//W3C//DTD SVG 1.1//EN"
 "http://www.w3.org/Graphics/SVG/1.1/DTD/svg11.dtd">
<!-- Generated by graphviz version 12.2.0 (20241103.1931)
 -->
<!-- Pages: 1 -->
<svg width="1488pt" height="650pt"
 viewBox="0.00 0.00 1487.66 650.00" xmlns="http://www.w3.org/2000/svg" xmlns:xlink="http://www.w3.org/1999/xlink">
<g id="graph0" class="graph" transform="scale(1 1) rotate(0) translate(4 646)">
<polygon fill="white" stroke="none" points="-4,4 -4,-646 1483.66,-646 1483.66,4 -4,4"/>
<!-- node_000001c05ebe9940 -->
<g id="node1" class="node">
<title>node_000001c05ebe9940</title>
<path fill="#ecfd74" stroke="#ffc500" d="M657,-527C657,-527 945.5,-527 945.5,-527 951.5,-527 957.5,-533 957.5,-539 957.5,-539 957.5,-629.5 957.5,-629.5 957.5,-635.5 951.5,-641.5 945.5,-641.5 945.5,-641.5 657,-641.5 657,-641.5 651,-641.5 645,-635.5 645,-629.5 645,-629.5 645,-539 645,-539 645,-533 651,-527 657,-527"/>
<text text-anchor="middle" x="801.25" y="-624.2" font-family="Times New Roman,serif" font-size="14.00">addr: 000001c05ebe9940</text>
<polyline fill="none" stroke="#ffc500" points="645,-617 957.5,-617"/>
<text text-anchor="middle" x="801.25" y="-599.7" font-family="Times New Roman,serif" font-size="14.00">val = &#39;/&#39;</text>
<polyline fill="none" stroke="#ffc500" points="645,-592.5 957.5,-592.5"/>
<text text-anchor="middle" x="801.25" y="-575.2" font-family="Times New Roman,serif" font-size="14.00">type = OP</text>
<polyline fill="none" stroke="#ffc500" points="645,-568 957.5,-568"/>
<text text-anchor="middle" x="723.12" y="-550.7" font-family="Times New Roman,serif" font-size="14.00">L:</text>
<text text-anchor="middle" x="723.12" y="-534.2" font-family="Times New Roman,serif" font-size="14.00"> addr: 000001c05ebea030</text>
<polyline fill="none" stroke="#ffc500" points="801.25,-527 801.25,-568"/>
<text text-anchor="middle" x="879.38" y="-550.7" font-family="Times New Roman,serif" font-size="14.00">R: </text>
<text text-anchor="middle" x="879.38" y="-534.2" font-family="Times New Roman,serif" font-size="14.00"> addr: 000001c05ebe9be0</text>
</g>
<!-- node_000001c05ebea030 -->
<g id="node4" class="node">
<title>node_000001c05ebea030</title>
<path fill="#ecfd74" stroke="#ffc500" d="M488.5,-375.5C488.5,-375.5 780,-375.5 780,-375.5 786,-375.5 792,-381.5 792,-387.5 792,-387.5 792,-478 792,-478 792,-484 786,-490 780,-490 780,-490 488.5,-490 488.5,-490 482.5,-490 476.5,-484 476.5,-478 476.5,-478 476.5,-387.5 476.5,-387.5 476.5,-381.5 482.5,-375.5 488.5,-375.5"/>
<text text-anchor="middle" x="634.25" y="-472.7" font-family="Times New Roman,serif" font-size="14.00">addr: 000001c05ebea030</text>
<polyline fill="none" stroke="#ffc500" points="476.5,-465.5 792,-465.5"/>
<text text-anchor="middle" x="634.25" y="-448.2" font-family="Times New Roman,serif" font-size="14.00">val = &#39;l&#39;</text>
<polyline fill="none" stroke="#ffc500" points="476.5,-441 792,-441"/>
<text text-anchor="middle" x="634.25" y="-423.7" font-family="Times New Roman,serif" font-size="14.00">type = OP</text>
<polyline fill="none" stroke="#ffc500" points="476.5,-416.5 792,-416.5"/>
<text text-anchor="middle" x="554.62" y="-399.2" font-family="Times New Roman,serif" font-size="14.00">L:</text>
<text text-anchor="middle" x="554.62" y="-382.7" font-family="Times New Roman,serif" font-size="14.00"> addr: 000001c05ebe9e50</text>
<polyline fill="none" stroke="#ffc500" points="632.75,-375.5 632.75,-416.5"/>
<text text-anchor="middle" x="712.38" y="-399.2" font-family="Times New Roman,serif" font-size="14.00">R: </text>
<text text-anchor="middle" x="712.38" y="-382.7" font-family="Times New Roman,serif" font-size="14.00"> addr: 0000000000000000</text>
</g>
<!-- node_000001c05ebe9940&#45;&gt;node_000001c05ebea030 -->
<g id="edge2" class="edge">
<title>node_000001c05ebe9940&#45;&gt;node_000001c05ebea030</title>
<path fill="none" stroke="#ff0000" d="M738.11,-526.73C727.62,-517.34 716.67,-507.53 705.98,-497.96"/>
<polygon fill="#ff0000" stroke="#ff0000" points="708.39,-495.42 698.6,-491.36 703.72,-500.64 708.39,-495.42"/>
</g>
<!-- node_000001c05ebe9be0 -->
<g id="node5" class="node">
<title>node_000001c05ebe9be0</title>
<path fill="#ecfd74" stroke="#ffc500" d="M822.25,-375.5C822.25,-375.5 1112.25,-375.5 1112.25,-375.5 1118.25,-375.5 1124.25,-381.5 1124.25,-387.5 1124.25,-387.5 1124.25,-478 1124.25,-478 1124.25,-484 1118.25,-490 1112.25,-490 1112.25,-490 822.25,-490 822.25,-490 816.25,-490 810.25,-484 810.25,-478 810.25,-478 810.25,-387.5 810.25,-387.5 810.25,-381.5 816.25,-375.5 822.25,-375.5"/>
<text text-anchor="middle" x="967.25" y="-472.7" font-family="Times New Roman,serif" font-size="14.00">addr: 000001c05ebe9be0</text>
<polyline fill="none" stroke="#ffc500" points="810.25,-465.5 1124.25,-465.5"/>
<text text-anchor="middle" x="967.25" y="-448.2" font-family="Times New Roman,serif" font-size="14.00">val = &#39;l&#39;</text>
<polyline fill="none" stroke="#ffc500" points="810.25,-441 1124.25,-441"/>
<text text-anchor="middle" x="967.25" y="-423.7" font-family="Times New Roman,serif" font-size="14.00">type = OP</text>
<polyline fill="none" stroke="#ffc500" points="810.25,-416.5 1124.25,-416.5"/>
<text text-anchor="middle" x="887.62" y="-399.2" font-family="Times New Roman,serif" font-size="14.00">L:</text>
<text text-anchor="middle" x="887.62" y="-382.7" font-family="Times New Roman,serif" font-size="14.00"> addr: 000001c05ebe9df0</text>
<polyline fill="none" stroke="#ffc500" points="965,-375.5 965,-416.5"/>
<text text-anchor="middle" x="1044.62" y="-399.2" font-family="Times New Roman,serif" font-size="14.00">R: </text>
<text text-anchor="middle" x="1044.62" y="-382.7" font-family="Times New Roman,serif" font-size="14.00"> addr: 0000000000000000</text>
</g>
<!-- node_000001c05ebe9940&#45;&gt;node_000001c05ebe9be0 -->
<g id="edge3" class="edge">
<title>node_000001c05ebe9940&#45;&gt;node_000001c05ebe9be0</title>
<path fill="none" stroke="#ff0000" d="M864.01,-526.73C874.44,-517.34 885.33,-507.53 895.95,-497.96"/>
<polygon fill="#ff0000" stroke="#ff0000" points="898.19,-500.66 903.28,-491.36 893.51,-495.45 898.19,-500.66"/>
</g>
<!-- 1 -->
<g id="node2" class="node">
<title>1</title>
<ellipse fill="#fe5656" stroke="#581845" cx="1432.25" cy="-584.25" rx="18" ry="18"/>
<text text-anchor="middle" x="1432.25" y="-579.2" font-family="Times New Roman,serif" font-size="14.00">1</text>
</g>
<!-- 2 -->
<g id="node3" class="node">
<title>2</title>
<ellipse fill="#fe5656" stroke="#581845" cx="1432.25" cy="-432.75" rx="18" ry="18"/>
<text text-anchor="middle" x="1432.25" y="-427.7" font-family="Times New Roman,serif" font-size="14.00">2</text>
</g>
<!-- 1&#45;&gt;2 -->
<g id="edge1" class="edge">
<title>1&#45;&gt;2</title>
<path fill="none" stroke="white" d="M1427.79,-566.39C1425.09,-540.91 1424.78,-492.3 1426.86,-461.53"/>
<polygon fill="white" stroke="white" points="1430.33,-462.09 1427.69,-451.83 1423.35,-461.49 1430.33,-462.09"/>
</g>
<!-- 1&#45;&gt;2 -->
<g id="edge4" class="edge">
<title>1&#45;&gt;2</title>
<path fill="none" stroke="white" d="M1436.71,-566.39C1439.41,-540.91 1439.72,-492.3 1437.64,-461.53"/>
<polygon fill="white" stroke="white" points="1441.15,-461.49 1436.81,-451.83 1434.17,-462.09 1441.15,-461.49"/>
</g>
<!-- 3 -->
<g id="node6" class="node">
<title>3</title>
<ellipse fill="#fe5656" stroke="#581845" cx="1432.25" cy="-281.25" rx="18" ry="18"/>
<text text-anchor="middle" x="1432.25" y="-276.2" font-family="Times New Roman,serif" font-size="14.00">3</text>
</g>
<!-- 2&#45;&gt;3 -->
<g id="edge5" class="edge">
<title>2&#45;&gt;3</title>
<path fill="none" stroke="white" d="M1420.21,-418.74C1410.46,-393.55 1409.4,-337.76 1417,-305.85"/>
<polygon fill="white" stroke="white" points="1420.33,-306.94 1419.9,-296.36 1413.64,-304.9 1420.33,-306.94"/>
</g>
<!-- 2&#45;&gt;3 -->
<g id="edge8" class="edge">
<title>2&#45;&gt;3</title>
<path fill="none" stroke="white" d="M1427.79,-414.89C1425.09,-389.41 1424.78,-340.8 1426.86,-310.03"/>
<polygon fill="white" stroke="white" points="1430.33,-310.59 1427.69,-300.33 1423.35,-309.99 1430.33,-310.59"/>
</g>
<!-- 2&#45;&gt;3 -->
<g id="edge21" class="edge">
<title>2&#45;&gt;3</title>
<path fill="none" stroke="white" d="M1436.71,-414.89C1439.41,-389.41 1439.72,-340.8 1437.64,-310.03"/>
<polygon fill="white" stroke="white" points="1441.15,-309.99 1436.81,-300.33 1434.17,-310.59 1441.15,-309.99"/>
</g>
<!-- 2&#45;&gt;3 -->
<g id="edge24" class="edge">
<title>2&#45;&gt;3</title>
<path fill="none" stroke="white" d="M1444.29,-418.74C1454.04,-393.55 1455.1,-337.76 1447.5,-305.85"/>
<polygon fill="white" stroke="white" points="1450.86,-304.9 1444.6,-296.36 1444.17,-306.94 1450.86,-304.9"/>
</g>
<!-- node_000001c05ebe9e50 -->
<g id="node7" class="node">
<title>node_000001c05ebe9e50</title>
<path fill="#ecfd74" stroke="#ffc500" d="M315.75,-224C315.75,-224 608.75,-224 608.75,-224 614.75,-224 620.75,-230 620.75,-236 620.75,-236 620.75,-326.5 620.75,-326.5 620.75,-332.5 614.75,-338.5 608.75,-338.5 608.75,-338.5 315.75,-338.5 315.75,-338.5 309.75,-338.5 303.75,-332.5 303.75,-326.5 303.75,-326.5 303.75,-236 303.75,-236 303.75,-230 309.75,-224 315.75,-224"/>
<text text-anchor="middle" x="462.25" y="-321.2" font-family="Times New Roman,serif" font-size="14.00">addr: 000001c05ebe9e50</text>
<polyline fill="none" stroke="#ffc500" points="303.75,-314 620.75,-314"/>
<text text-anchor="middle" x="462.25" y="-296.7" font-family="Times New Roman,serif" font-size="14.00">val = &#39;*&#39;</text>
<polyline fill="none" stroke="#ffc500" points="303.75,-289.5 620.75,-289.5"/>
<text text-anchor="middle" x="462.25" y="-272.2" font-family="Times New Roman,serif" font-size="14.00">type = OP</text>
<polyline fill="none" stroke="#ffc500" points="303.75,-265 620.75,-265"/>
<text text-anchor="middle" x="383" y="-247.7" font-family="Times New Roman,serif" font-size="14.00">L:</text>
<text text-anchor="middle" x="383" y="-231.2" font-family="Times New Roman,serif" font-size="14.00"> addr: 000001c05d416100</text>
<polyline fill="none" stroke="#ffc500" points="462.25,-224 462.25,-265"/>
<text text-anchor="middle" x="541.5" y="-247.7" font-family="Times New Roman,serif" font-size="14.00">R: </text>
<text text-anchor="middle" x="541.5" y="-231.2" font-family="Times New Roman,serif" font-size="14.00"> addr: 000001c05d416130</text>
</g>
<!-- node_000001c05ebea030&#45;&gt;node_000001c05ebe9e50 -->
<g id="edge6" class="edge">
<title>node_000001c05ebea030&#45;&gt;node_000001c05ebe9e50</title>
<path fill="none" stroke="#ff0000" d="M569.22,-375.23C558.31,-365.74 546.91,-355.84 535.8,-346.18"/>
<polygon fill="#ff0000" stroke="#ff0000" points="538.35,-343.76 528.51,-339.84 533.76,-349.04 538.35,-343.76"/>
</g>
<!-- node_r_null_000001c05ebea030 -->
<g id="node8" class="node">
<title>node_r_null_000001c05ebea030</title>
<ellipse fill="#a2f0f8" stroke="#007cff" cx="666.25" cy="-281.25" rx="27.81" ry="18"/>
<text text-anchor="middle" x="666.25" y="-276.2" font-family="Times New Roman,serif" font-size="14.00"> null</text>
</g>
<!-- node_000001c05ebea030&#45;&gt;node_r_null_000001c05ebea030 -->
<g id="edge7" class="edge">
<title>node_000001c05ebea030&#45;&gt;node_r_null_000001c05ebea030</title>
<path fill="none" stroke="#007cff" d="M646.35,-375.23C651.08,-353.12 656.3,-328.74 660.2,-310.49"/>
<polygon fill="#007cff" stroke="#007cff" points="663.58,-311.47 662.25,-300.95 656.73,-310 663.58,-311.47"/>
</g>
<!-- node_000001c05ebe9df0 -->
<g id="node17" class="node">
<title>node_000001c05ebe9df0</title>
<path fill="#ecfd74" stroke="#ffc500" d="M788.12,-224C788.12,-224 1080.38,-224 1080.38,-224 1086.38,-224 1092.38,-230 1092.38,-236 1092.38,-236 1092.38,-326.5 1092.38,-326.5 1092.38,-332.5 1086.38,-338.5 1080.38,-338.5 1080.38,-338.5 788.12,-338.5 788.12,-338.5 782.12,-338.5 776.12,-332.5 776.12,-326.5 776.12,-326.5 776.12,-236 776.12,-236 776.12,-230 782.12,-224 788.12,-224"/>
<text text-anchor="middle" x="934.25" y="-321.2" font-family="Times New Roman,serif" font-size="14.00">addr: 000001c05ebe9df0</text>
<polyline fill="none" stroke="#ffc500" points="776.12,-314 1092.38,-314"/>
<text text-anchor="middle" x="934.25" y="-296.7" font-family="Times New Roman,serif" font-size="14.00">val = &#39;+&#39;</text>
<polyline fill="none" stroke="#ffc500" points="776.12,-289.5 1092.38,-289.5"/>
<text text-anchor="middle" x="934.25" y="-272.2" font-family="Times New Roman,serif" font-size="14.00">type = OP</text>
<polyline fill="none" stroke="#ffc500" points="776.12,-265 1092.38,-265"/>
<text text-anchor="middle" x="855.38" y="-247.7" font-family="Times New Roman,serif" font-size="14.00">L:</text>
<text text-anchor="middle" x="855.38" y="-231.2" font-family="Times New Roman,serif" font-size="14.00"> addr: 000001c05d416070</text>
<polyline fill="none" stroke="#ffc500" points="934.62,-224 934.62,-265"/>
<text text-anchor="middle" x="1013.5" y="-247.7" font-family="Times New Roman,serif" font-size="14.00">R: </text>
<text text-anchor="middle" x="1013.5" y="-231.2" font-family="Times New Roman,serif" font-size="14.00"> addr: 000001c05d4160a0</text>
</g>
<!-- node_000001c05ebe9be0&#45;&gt;node_000001c05ebe9df0 -->
<g id="edge22" class="edge">
<title>node_000001c05ebe9be0&#45;&gt;node_000001c05ebe9df0</title>
<path fill="none" stroke="#ff0000" d="M954.77,-375.23C952.95,-366.95 951.05,-358.35 949.18,-349.88"/>
<polygon fill="#ff0000" stroke="#ff0000" points="952.64,-349.34 947.07,-340.33 945.81,-350.85 952.64,-349.34"/>
</g>
<!-- node_r_null_000001c05ebe9be0 -->
<g id="node18" class="node">
<title>node_r_null_000001c05ebe9be0</title>
<ellipse fill="#a2f0f8" stroke="#007cff" cx="1138.25" cy="-281.25" rx="27.81" ry="18"/>
<text text-anchor="middle" x="1138.25" y="-276.2" font-family="Times New Roman,serif" font-size="14.00"> null</text>
</g>
<!-- node_000001c05ebe9be0&#45;&gt;node_r_null_000001c05ebe9be0 -->
<g id="edge23" class="edge">
<title>node_000001c05ebe9be0&#45;&gt;node_r_null_000001c05ebe9be0</title>
<path fill="none" stroke="#007cff" d="M1059.36,-375.13C1074.17,-364.07 1088.72,-351.88 1101.25,-339 1109.98,-330.02 1117.85,-318.69 1124.07,-308.52"/>
<polygon fill="#007cff" stroke="#007cff" points="1126.92,-310.57 1128.94,-300.17 1120.88,-307.05 1126.92,-310.57"/>
</g>
<!-- 4 -->
<g id="node9" class="node">
<title>4</title>
<ellipse fill="#fe5656" stroke="#581845" cx="1432.25" cy="-129.75" rx="18" ry="18"/>
<text text-anchor="middle" x="1432.25" y="-124.7" font-family="Times New Roman,serif" font-size="14.00">4</text>
</g>
<!-- 3&#45;&gt;4 -->
<g id="edge9" class="edge">
<title>3&#45;&gt;4</title>
<path fill="none" stroke="white" d="M1420.21,-267.24C1410.46,-242.05 1409.4,-186.26 1417,-154.35"/>
<polygon fill="white" stroke="white" points="1420.33,-155.44 1419.9,-144.86 1413.64,-153.4 1420.33,-155.44"/>
</g>
<!-- 3&#45;&gt;4 -->
<g id="edge12" class="edge">
<title>3&#45;&gt;4</title>
<path fill="none" stroke="white" d="M1427.79,-263.39C1425.09,-237.91 1424.78,-189.3 1426.86,-158.53"/>
<polygon fill="white" stroke="white" points="1430.33,-159.09 1427.69,-148.83 1423.35,-158.49 1430.33,-159.09"/>
</g>
<!-- 3&#45;&gt;4 -->
<g id="edge25" class="edge">
<title>3&#45;&gt;4</title>
<path fill="none" stroke="white" d="M1436.71,-263.39C1439.41,-237.91 1439.72,-189.3 1437.64,-158.53"/>
<polygon fill="white" stroke="white" points="1441.15,-158.49 1436.81,-148.83 1434.17,-159.09 1441.15,-158.49"/>
</g>
<!-- 3&#45;&gt;4 -->
<g id="edge28" class="edge">
<title>3&#45;&gt;4</title>
<path fill="none" stroke="white" d="M1444.29,-267.24C1454.04,-242.05 1455.1,-186.26 1447.5,-154.35"/>
<polygon fill="white" stroke="white" points="1450.86,-153.4 1444.6,-144.86 1444.17,-155.44 1450.86,-153.4"/>
</g>
<!-- node_000001c05d416100 -->
<g id="node10" class="node">
<title>node_000001c05d416100</title>
<path fill="#a2f8a4" stroke="#18ca1c" d="M12,-72.5C12,-72.5 306.5,-72.5 306.5,-72.5 312.5,-72.5 318.5,-78.5 318.5,-84.5 318.5,-84.5 318.5,-175 318.5,-175 318.5,-181 312.5,-187 306.5,-187 306.5,-187 12,-187 12,-187 6,-187 0,-181 0,-175 0,-175 0,-84.5 0,-84.5 0,-78.5 6,-72.5 12,-72.5"/>
<text text-anchor="middle" x="159.25" y="-169.7" font-family="Times New Roman,serif" font-size="14.00">addr: 000001c05d416100</text>
<polyline fill="none" stroke="#18ca1c" points="0,-162.5 318.5,-162.5"/>
<text text-anchor="middle" x="159.25" y="-145.2" font-family="Times New Roman,serif" font-size="14.00">val = 17</text>
<polyline fill="none" stroke="#18ca1c" points="0,-138 318.5,-138"/>
<text text-anchor="middle" x="159.25" y="-120.7" font-family="Times New Roman,serif" font-size="14.00">type = NUM</text>
<polyline fill="none" stroke="#18ca1c" points="0,-113.5 318.5,-113.5"/>
<text text-anchor="middle" x="79.62" y="-96.2" font-family="Times New Roman,serif" font-size="14.00">L:</text>
<text text-anchor="middle" x="79.62" y="-79.7" font-family="Times New Roman,serif" font-size="14.00"> addr: 0000000000000000</text>
<polyline fill="none" stroke="#18ca1c" points="159.25,-72.5 159.25,-113.5"/>
<text text-anchor="middle" x="238.88" y="-96.2" font-family="Times New Roman,serif" font-size="14.00">R: </text>
<text text-anchor="middle" x="238.88" y="-79.7" font-family="Times New Roman,serif" font-size="14.00"> addr: 0000000000000000</text>
</g>
<!-- node_000001c05ebe9e50&#45;&gt;node_000001c05d416100 -->
<g id="edge10" class="edge">
<title>node_000001c05ebe9e50&#45;&gt;node_000001c05d416100</title>
<path fill="none" stroke="#ff0000" d="M347.27,-223.52C326.69,-213.37 305.16,-202.74 284.32,-192.46"/>
<polygon fill="#ff0000" stroke="#ff0000" points="286.03,-189.4 275.51,-188.11 282.93,-195.68 286.03,-189.4"/>
</g>
<!-- node_000001c05d416130 -->
<g id="node11" class="node">
<title>node_000001c05d416130</title>
<path fill="#ff5fe0" stroke="#d408ac" d="M349,-72.5C349,-72.5 643.5,-72.5 643.5,-72.5 649.5,-72.5 655.5,-78.5 655.5,-84.5 655.5,-84.5 655.5,-175 655.5,-175 655.5,-181 649.5,-187 643.5,-187 643.5,-187 349,-187 349,-187 343,-187 337,-181 337,-175 337,-175 337,-84.5 337,-84.5 337,-78.5 343,-72.5 349,-72.5"/>
<text text-anchor="middle" x="496.25" y="-169.7" font-family="Times New Roman,serif" font-size="14.00">addr: 000001c05d416130</text>
<polyline fill="none" stroke="#d408ac" points="337,-162.5 655.5,-162.5"/>
<text text-anchor="middle" x="496.25" y="-145.2" font-family="Times New Roman,serif" font-size="14.00">val = &#39;x&#39;</text>
<polyline fill="none" stroke="#d408ac" points="337,-138 655.5,-138"/>
<text text-anchor="middle" x="496.25" y="-120.7" font-family="Times New Roman,serif" font-size="14.00">type = VAR</text>
<polyline fill="none" stroke="#d408ac" points="337,-113.5 655.5,-113.5"/>
<text text-anchor="middle" x="416.62" y="-96.2" font-family="Times New Roman,serif" font-size="14.00">L:</text>
<text text-anchor="middle" x="416.62" y="-79.7" font-family="Times New Roman,serif" font-size="14.00"> addr: 0000000000000000</text>
<polyline fill="none" stroke="#d408ac" points="496.25,-72.5 496.25,-113.5"/>
<text text-anchor="middle" x="575.88" y="-96.2" font-family="Times New Roman,serif" font-size="14.00">R: </text>
<text text-anchor="middle" x="575.88" y="-79.7" font-family="Times New Roman,serif" font-size="14.00"> addr: 0000000000000000</text>
</g>
<!-- node_000001c05ebe9e50&#45;&gt;node_000001c05d416130 -->
<g id="edge11" class="edge">
<title>node_000001c05ebe9e50&#45;&gt;node_000001c05d416130</title>
<path fill="none" stroke="#ff0000" d="M475.1,-223.73C476.99,-215.45 478.94,-206.85 480.87,-198.38"/>
<polygon fill="#ff0000" stroke="#ff0000" points="484.24,-199.35 483.04,-188.83 477.41,-197.8 484.24,-199.35"/>
</g>
<!-- 5 -->
<g id="node12" class="node">
<title>5</title>
<ellipse fill="#fe5656" stroke="#581845" cx="1432.25" cy="-18" rx="18" ry="18"/>
<text text-anchor="middle" x="1432.25" y="-12.95" font-family="Times New Roman,serif" font-size="14.00">5</text>
</g>
<!-- 4&#45;&gt;5 -->
<g id="edge13" class="edge">
<title>4&#45;&gt;5</title>
<path fill="none" stroke="white" d="M1414.42,-125.35C1378.69,-110.46 1375.51,-50.84 1404.87,-27.98"/>
<polygon fill="white" stroke="white" points="1406.32,-31.18 1413.21,-23.13 1402.8,-25.13 1406.32,-31.18"/>
</g>
<!-- 4&#45;&gt;5 -->
<g id="edge16" class="edge">
<title>4&#45;&gt;5</title>
<path fill="none" stroke="white" d="M1415.56,-122.53C1395.64,-105.64 1393.16,-58.49 1408.14,-34.08"/>
<polygon fill="white" stroke="white" points="1410.66,-36.52 1414.35,-26.59 1405.27,-32.05 1410.66,-36.52"/>
</g>
<!-- 4&#45;&gt;5 -->
<g id="edge17" class="edge">
<title>4&#45;&gt;5</title>
<path fill="none" stroke="white" d="M1419.14,-117C1411.02,-99.02 1409.83,-64.32 1415.55,-41.42"/>
<polygon fill="white" stroke="white" points="1418.82,-42.69 1418.69,-32.09 1412.18,-40.45 1418.82,-42.69"/>
</g>
<!-- 4&#45;&gt;5 -->
<g id="edge20" class="edge">
<title>4&#45;&gt;5</title>
<path fill="none" stroke="white" d="M1427.24,-112.08C1425.29,-94.74 1424.98,-67.28 1426.3,-46.68"/>
<polygon fill="white" stroke="white" points="1429.76,-47.24 1427.13,-36.97 1422.79,-46.64 1429.76,-47.24"/>
</g>
<!-- 4&#45;&gt;5 -->
<g id="edge29" class="edge">
<title>4&#45;&gt;5</title>
<path fill="none" stroke="white" d="M1437.26,-112.08C1439.21,-94.74 1439.52,-67.28 1438.2,-46.68"/>
<polygon fill="white" stroke="white" points="1441.71,-46.64 1437.37,-36.97 1434.74,-47.24 1441.71,-46.64"/>
</g>
<!-- 4&#45;&gt;5 -->
<g id="edge32" class="edge">
<title>4&#45;&gt;5</title>
<path fill="none" stroke="white" d="M1445.36,-117C1453.48,-99.02 1454.67,-64.32 1448.95,-41.42"/>
<polygon fill="white" stroke="white" points="1452.32,-40.45 1445.81,-32.09 1445.68,-42.69 1452.32,-40.45"/>
</g>
<!-- 4&#45;&gt;5 -->
<g id="edge33" class="edge">
<title>4&#45;&gt;5</title>
<path fill="none" stroke="white" d="M1448.94,-122.53C1468.86,-105.64 1471.34,-58.49 1456.36,-34.08"/>
<polygon fill="white" stroke="white" points="1459.23,-32.05 1450.15,-26.59 1453.84,-36.52 1459.23,-32.05"/>
</g>
<!-- 4&#45;&gt;5 -->
<g id="edge36" class="edge">
<title>4&#45;&gt;5</title>
<path fill="none" stroke="white" d="M1450.08,-125.35C1485.81,-110.46 1488.99,-50.84 1459.63,-27.98"/>
<polygon fill="white" stroke="white" points="1461.7,-25.13 1451.29,-23.13 1458.18,-31.18 1461.7,-25.13"/>
</g>
<!-- node_l_null_000001c05d416100 -->
<g id="node13" class="node">
<title>node_l_null_000001c05d416100</title>
<ellipse fill="#a2f0f8" stroke="#007cff" cx="122.25" cy="-18" rx="27.81" ry="18"/>
<text text-anchor="middle" x="122.25" y="-12.95" font-family="Times New Roman,serif" font-size="14.00"> null</text>
</g>
<!-- node_000001c05d416100&#45;&gt;node_l_null_000001c05d416100 -->
<g id="edge14" class="edge">
<title>node_000001c05d416100&#45;&gt;node_l_null_000001c05d416100</title>
<path fill="none" stroke="#007cff" d="M140.21,-72.27C137.21,-63.37 134.23,-54.54 131.59,-46.69"/>
<polygon fill="#007cff" stroke="#007cff" points="134.98,-45.81 128.47,-37.45 128.35,-48.05 134.98,-45.81"/>
</g>
<!-- node_r_null_000001c05d416100 -->
<g id="node14" class="node">
<title>node_r_null_000001c05d416100</title>
<ellipse fill="#a2f0f8" stroke="#007cff" cx="196.25" cy="-18" rx="27.81" ry="18"/>
<text text-anchor="middle" x="196.25" y="-12.95" font-family="Times New Roman,serif" font-size="14.00"> null</text>
</g>
<!-- node_000001c05d416100&#45;&gt;node_r_null_000001c05d416100 -->
<g id="edge15" class="edge">
<title>node_000001c05d416100&#45;&gt;node_r_null_000001c05d416100</title>
<path fill="none" stroke="#007cff" d="M178.29,-72.27C181.29,-63.37 184.27,-54.54 186.91,-46.69"/>
<polygon fill="#007cff" stroke="#007cff" points="190.15,-48.05 190.03,-37.45 183.52,-45.81 190.15,-48.05"/>
</g>
<!-- node_l_null_000001c05d416130 -->
<g id="node15" class="node">
<title>node_l_null_000001c05d416130</title>
<ellipse fill="#a2f0f8" stroke="#007cff" cx="459.25" cy="-18" rx="27.81" ry="18"/>
<text text-anchor="middle" x="459.25" y="-12.95" font-family="Times New Roman,serif" font-size="14.00"> null</text>
</g>
<!-- node_000001c05d416130&#45;&gt;node_l_null_000001c05d416130 -->
<g id="edge18" class="edge">
<title>node_000001c05d416130&#45;&gt;node_l_null_000001c05d416130</title>
<path fill="none" stroke="#007cff" d="M477.21,-72.27C474.21,-63.37 471.23,-54.54 468.59,-46.69"/>
<polygon fill="#007cff" stroke="#007cff" points="471.98,-45.81 465.47,-37.45 465.35,-48.05 471.98,-45.81"/>
</g>
<!-- node_r_null_000001c05d416130 -->
<g id="node16" class="node">
<title>node_r_null_000001c05d416130</title>
<ellipse fill="#a2f0f8" stroke="#007cff" cx="533.25" cy="-18" rx="27.81" ry="18"/>
<text text-anchor="middle" x="533.25" y="-12.95" font-family="Times New Roman,serif" font-size="14.00"> null</text>
</g>
<!-- node_000001c05d416130&#45;&gt;node_r_null_000001c05d416130 -->
<g id="edge19" class="edge">
<title>node_000001c05d416130&#45;&gt;node_r_null_000001c05d416130</title>
<path fill="none" stroke="#007cff" d="M515.29,-72.27C518.29,-63.37 521.27,-54.54 523.91,-46.69"/>
<polygon fill="#007cff" stroke="#007cff" points="527.15,-48.05 527.03,-37.45 520.52,-45.81 527.15,-48.05"/>
</g>
<!-- node_000001c05d416070 -->
<g id="node19" class="node">
<title>node_000001c05d416070</title>
<path fill="#ff5fe0" stroke="#d408ac" d="M753,-72.5C753,-72.5 1047.5,-72.5 1047.5,-72.5 1053.5,-72.5 1059.5,-78.5 1059.5,-84.5 1059.5,-84.5 1059.5,-175 1059.5,-175 1059.5,-181 1053.5,-187 1047.5,-187 1047.5,-187 753,-187 753,-187 747,-187 741,-181 741,-175 741,-175 741,-84.5 741,-84.5 741,-78.5 747,-72.5 753,-72.5"/>
<text text-anchor="middle" x="900.25" y="-169.7" font-family="Times New Roman,serif" font-size="14.00">addr: 000001c05d416070</text>
<polyline fill="none" stroke="#d408ac" points="741,-162.5 1059.5,-162.5"/>
<text text-anchor="middle" x="900.25" y="-145.2" font-family="Times New Roman,serif" font-size="14.00">val = &#39;x&#39;</text>
<polyline fill="none" stroke="#d408ac" points="741,-138 1059.5,-138"/>
<text text-anchor="middle" x="900.25" y="-120.7" font-family="Times New Roman,serif" font-size="14.00">type = VAR</text>
<polyline fill="none" stroke="#d408ac" points="741,-113.5 1059.5,-113.5"/>
<text text-anchor="middle" x="820.62" y="-96.2" font-family="Times New Roman,serif" font-size="14.00">L:</text>
<text text-anchor="middle" x="820.62" y="-79.7" font-family="Times New Roman,serif" font-size="14.00"> addr: 0000000000000000</text>
<polyline fill="none" stroke="#d408ac" points="900.25,-72.5 900.25,-113.5"/>
<text text-anchor="middle" x="979.88" y="-96.2" font-family="Times New Roman,serif" font-size="14.00">R: </text>
<text text-anchor="middle" x="979.88" y="-79.7" font-family="Times New Roman,serif" font-size="14.00"> addr: 0000000000000000</text>
</g>
<!-- node_000001c05ebe9df0&#45;&gt;node_000001c05d416070 -->
<g id="edge26" class="edge">
<title>node_000001c05ebe9df0&#45;&gt;node_000001c05d416070</title>
<path fill="none" stroke="#ff0000" d="M921.4,-223.73C919.51,-215.45 917.56,-206.85 915.63,-198.38"/>
<polygon fill="#ff0000" stroke="#ff0000" points="919.09,-197.8 913.46,-188.83 912.26,-199.35 919.09,-197.8"/>
</g>
<!-- node_000001c05d4160a0 -->
<g id="node20" class="node">
<title>node_000001c05d4160a0</title>
<path fill="#a2f8a4" stroke="#18ca1c" d="M1090,-72.5C1090,-72.5 1384.5,-72.5 1384.5,-72.5 1390.5,-72.5 1396.5,-78.5 1396.5,-84.5 1396.5,-84.5 1396.5,-175 1396.5,-175 1396.5,-181 1390.5,-187 1384.5,-187 1384.5,-187 1090,-187 1090,-187 1084,-187 1078,-181 1078,-175 1078,-175 1078,-84.5 1078,-84.5 1078,-78.5 1084,-72.5 1090,-72.5"/>
<text text-anchor="middle" x="1237.25" y="-169.7" font-family="Times New Roman,serif" font-size="14.00">addr: 000001c05d4160a0</text>
<polyline fill="none" stroke="#18ca1c" points="1078,-162.5 1396.5,-162.5"/>
<text text-anchor="middle" x="1237.25" y="-145.2" font-family="Times New Roman,serif" font-size="14.00">val = 5</text>
<polyline fill="none" stroke="#18ca1c" points="1078,-138 1396.5,-138"/>
<text text-anchor="middle" x="1237.25" y="-120.7" font-family="Times New Roman,serif" font-size="14.00">type = NUM</text>
<polyline fill="none" stroke="#18ca1c" points="1078,-113.5 1396.5,-113.5"/>
<text text-anchor="middle" x="1157.62" y="-96.2" font-family="Times New Roman,serif" font-size="14.00">L:</text>
<text text-anchor="middle" x="1157.62" y="-79.7" font-family="Times New Roman,serif" font-size="14.00"> addr: 0000000000000000</text>
<polyline fill="none" stroke="#18ca1c" points="1237.25,-72.5 1237.25,-113.5"/>
<text text-anchor="middle" x="1316.88" y="-96.2" font-family="Times New Roman,serif" font-size="14.00">R: </text>
<text text-anchor="middle" x="1316.88" y="-79.7" font-family="Times New Roman,serif" font-size="14.00"> addr: 0000000000000000</text>
</g>
<!-- node_000001c05ebe9df0&#45;&gt;node_000001c05d4160a0 -->
<g id="edge27" class="edge">
<title>node_000001c05ebe9df0&#45;&gt;node_000001c05d4160a0</title>
<path fill="none" stroke="#ff0000" d="M1049.23,-223.52C1069.81,-213.37 1091.34,-202.74 1112.18,-192.46"/>
<polygon fill="#ff0000" stroke="#ff0000" points="1113.57,-195.68 1120.99,-188.11 1110.47,-189.4 1113.57,-195.68"/>
</g>
<!-- node_l_null_000001c05d416070 -->
<g id="node21" class="node">
<title>node_l_null_000001c05d416070</title>
<ellipse fill="#a2f0f8" stroke="#007cff" cx="863.25" cy="-18" rx="27.81" ry="18"/>
<text text-anchor="middle" x="863.25" y="-12.95" font-family="Times New Roman,serif" font-size="14.00"> null</text>
</g>
<!-- node_000001c05d416070&#45;&gt;node_l_null_000001c05d416070 -->
<g id="edge30" class="edge">
<title>node_000001c05d416070&#45;&gt;node_l_null_000001c05d416070</title>
<path fill="none" stroke="#007cff" d="M881.21,-72.27C878.21,-63.37 875.23,-54.54 872.59,-46.69"/>
<polygon fill="#007cff" stroke="#007cff" points="875.98,-45.81 869.47,-37.45 869.35,-48.05 875.98,-45.81"/>
</g>
<!-- node_r_null_000001c05d416070 -->
<g id="node22" class="node">
<title>node_r_null_000001c05d416070</title>
<ellipse fill="#a2f0f8" stroke="#007cff" cx="937.25" cy="-18" rx="27.81" ry="18"/>
<text text-anchor="middle" x="937.25" y="-12.95" font-family="Times New Roman,serif" font-size="14.00"> null</text>
</g>
<!-- node_000001c05d416070&#45;&gt;node_r_null_000001c05d416070 -->
<g id="edge31" class="edge">
<title>node_000001c05d416070&#45;&gt;node_r_null_000001c05d416070</title>
<path fill="none" stroke="#007cff" d="M919.29,-72.27C922.29,-63.37 925.27,-54.54 927.91,-46.69"/>
<polygon fill="#007cff" stroke="#007cff" points="931.15,-48.05 931.03,-37.45 924.52,-45.81 931.15,-48.05"/>
</g>
<!-- node_l_null_000001c05d4160a0 -->
<g id="node23" class="node">
<title>node_l_null_000001c05d4160a0</title>
<ellipse fill="#a2f0f8" stroke="#007cff" cx="1200.25" cy="-18" rx="27.81" ry="18"/>
<text text-anchor="middle" x="1200.25" y="-12.95" font-family="Times New Roman,serif" font-size="14.00"> null</text>
</g>
<!-- node_000001c05d4160a0&#45;&gt;node_l_null_000001c05d4160a0 -->
<g id="edge34" class="edge">
<title>node_000001c05d4160a0&#45;&gt;node_l_null_000001c05d4160a0</title>
<path fill="none" stroke="#007cff" d="M1218.21,-72.27C1215.21,-63.37 1212.23,-54.54 1209.59,-46.69"/>
<polygon fill="#007cff" stroke="#007cff" points="1212.98,-45.81 1206.47,-37.45 1206.35,-48.05 1212.98,-45.81"/>
</g>
<!-- node_r_null_000001c05d4160a0 -->
<g id="node24" class="node">
<title>node_r_null_000001c05d4160a0</title>
<ellipse fill="#a2f0f8" stroke="#007cff" cx="1274.25" cy="-18" rx="27.81" ry="18"/>
<text text-anchor="middle" x="1274.25" y="-12.95" font-family="Times New Roman,serif" font-size="14.00"> null</text>
</g>
<!-- node_000001c05d4160a0&#45;&gt;node_r_null_000001c05d4160a0 -->
<g id="edge35" class="edge">
<title>node_000001c05d4160a0&#45;&gt;node_r_null_000001c05d4160a0</title>
<path fill="none" stroke="#007cff" d="M1256.29,-72.27C1259.29,-63.37 1262.27,-54.54 1264.91,-46.69"/>
<polygon fill="#007cff" stroke="#007cff" points="1268.15,-48.05 1268.03,-37.45 1261.52,-45.81 1268.15,-48.05"/>
</g>
</g>
</svg>
