<?xml version="1.0" encoding="UTF-8" standalone="no"?>
<!DOCTYPE svg PUBLIC "-//W3C//DTD SVG 1.1//EN"
 "http://www.w3.org/Graphics/SVG/1.1/DTD/svg11.dtd">
<!-- Generated by graphviz version 12.2.0 (20241103.1931)
 -->
<!-- Pages: 1 -->
<svg width="1246pt" height="953pt"
 viewBox="0.00 0.00 1246.36 953.00" xmlns="http://www.w3.org/2000/svg" xmlns:xlink="http://www.w3.org/1999/xlink">
<g id="graph0" class="graph" transform="scale(1 1) rotate(0) translate(4 949)">
<polygon fill="white" stroke="none" points="-4,4 -4,-949 1242.36,-949 1242.36,4 -4,4"/>
<!-- node_000001596b6597d0 -->
<g id="node1" class="node">
<title>node_000001596b6597d0</title>
<path fill="#ecfd74" stroke="#ffc500" d="M694,-830C694,-830 988.5,-830 988.5,-830 994.5,-830 1000.5,-836 1000.5,-842 1000.5,-842 1000.5,-932.5 1000.5,-932.5 1000.5,-938.5 994.5,-944.5 988.5,-944.5 988.5,-944.5 694,-944.5 694,-944.5 688,-944.5 682,-938.5 682,-932.5 682,-932.5 682,-842 682,-842 682,-836 688,-830 694,-830"/>
<text text-anchor="middle" x="841.25" y="-927.2" font-family="Times New Roman,serif" font-size="14.00">addr: 000001596b6597d0</text>
<polyline fill="none" stroke="#ffc500" points="682,-920 1000.5,-920"/>
<text text-anchor="middle" x="841.25" y="-902.7" font-family="Times New Roman,serif" font-size="14.00">val = &#39;&#45;&#39;</text>
<polyline fill="none" stroke="#ffc500" points="682,-895.5 1000.5,-895.5"/>
<text text-anchor="middle" x="841.25" y="-878.2" font-family="Times New Roman,serif" font-size="14.00">type = OP</text>
<polyline fill="none" stroke="#ffc500" points="682,-871 1000.5,-871"/>
<text text-anchor="middle" x="761.62" y="-853.7" font-family="Times New Roman,serif" font-size="14.00">L:</text>
<text text-anchor="middle" x="761.62" y="-837.2" font-family="Times New Roman,serif" font-size="14.00"> addr: 000001596b659680</text>
<polyline fill="none" stroke="#ffc500" points="841.25,-830 841.25,-871"/>
<text text-anchor="middle" x="920.88" y="-853.7" font-family="Times New Roman,serif" font-size="14.00">R: </text>
<text text-anchor="middle" x="920.88" y="-837.2" font-family="Times New Roman,serif" font-size="14.00"> addr: 000001596b659740</text>
</g>
<!-- node_000001596b659680 -->
<g id="node4" class="node">
<title>node_000001596b659680</title>
<path fill="#ecfd74" stroke="#ffc500" d="M474,-678.5C474,-678.5 768.5,-678.5 768.5,-678.5 774.5,-678.5 780.5,-684.5 780.5,-690.5 780.5,-690.5 780.5,-781 780.5,-781 780.5,-787 774.5,-793 768.5,-793 768.5,-793 474,-793 474,-793 468,-793 462,-787 462,-781 462,-781 462,-690.5 462,-690.5 462,-684.5 468,-678.5 474,-678.5"/>
<text text-anchor="middle" x="621.25" y="-775.7" font-family="Times New Roman,serif" font-size="14.00">addr: 000001596b659680</text>
<polyline fill="none" stroke="#ffc500" points="462,-768.5 780.5,-768.5"/>
<text text-anchor="middle" x="621.25" y="-751.2" font-family="Times New Roman,serif" font-size="14.00">val = &#39;+&#39;</text>
<polyline fill="none" stroke="#ffc500" points="462,-744 780.5,-744"/>
<text text-anchor="middle" x="621.25" y="-726.7" font-family="Times New Roman,serif" font-size="14.00">type = OP</text>
<polyline fill="none" stroke="#ffc500" points="462,-719.5 780.5,-719.5"/>
<text text-anchor="middle" x="541.62" y="-702.2" font-family="Times New Roman,serif" font-size="14.00">L:</text>
<text text-anchor="middle" x="541.62" y="-685.7" font-family="Times New Roman,serif" font-size="14.00"> addr: 000001596b659650</text>
<polyline fill="none" stroke="#ffc500" points="621.25,-678.5 621.25,-719.5"/>
<text text-anchor="middle" x="700.88" y="-702.2" font-family="Times New Roman,serif" font-size="14.00">R: </text>
<text text-anchor="middle" x="700.88" y="-685.7" font-family="Times New Roman,serif" font-size="14.00"> addr: 000001596b659710</text>
</g>
<!-- node_000001596b6597d0&#45;&gt;node_000001596b659680 -->
<g id="edge2" class="edge">
<title>node_000001596b6597d0&#45;&gt;node_000001596b659680</title>
<path fill="none" stroke="#ff0000" d="M757.76,-829.52C743.5,-819.83 728.61,-809.71 714.13,-799.87"/>
<polygon fill="#ff0000" stroke="#ff0000" points="716.17,-797.02 705.93,-794.29 712.23,-802.81 716.17,-797.02"/>
</g>
<!-- node_000001596b659740 -->
<g id="node5" class="node">
<title>node_000001596b659740</title>
<path fill="#a2f8a4" stroke="#18ca1c" d="M811,-678.5C811,-678.5 1105.5,-678.5 1105.5,-678.5 1111.5,-678.5 1117.5,-684.5 1117.5,-690.5 1117.5,-690.5 1117.5,-781 1117.5,-781 1117.5,-787 1111.5,-793 1105.5,-793 1105.5,-793 811,-793 811,-793 805,-793 799,-787 799,-781 799,-781 799,-690.5 799,-690.5 799,-684.5 805,-678.5 811,-678.5"/>
<text text-anchor="middle" x="958.25" y="-775.7" font-family="Times New Roman,serif" font-size="14.00">addr: 000001596b659740</text>
<polyline fill="none" stroke="#18ca1c" points="799,-768.5 1117.5,-768.5"/>
<text text-anchor="middle" x="958.25" y="-751.2" font-family="Times New Roman,serif" font-size="14.00">val = 0</text>
<polyline fill="none" stroke="#18ca1c" points="799,-744 1117.5,-744"/>
<text text-anchor="middle" x="958.25" y="-726.7" font-family="Times New Roman,serif" font-size="14.00">type = NUM</text>
<polyline fill="none" stroke="#18ca1c" points="799,-719.5 1117.5,-719.5"/>
<text text-anchor="middle" x="878.62" y="-702.2" font-family="Times New Roman,serif" font-size="14.00">L:</text>
<text text-anchor="middle" x="878.62" y="-685.7" font-family="Times New Roman,serif" font-size="14.00"> addr: 0000000000000000</text>
<polyline fill="none" stroke="#18ca1c" points="958.25,-678.5 958.25,-719.5"/>
<text text-anchor="middle" x="1037.88" y="-702.2" font-family="Times New Roman,serif" font-size="14.00">R: </text>
<text text-anchor="middle" x="1037.88" y="-685.7" font-family="Times New Roman,serif" font-size="14.00"> addr: 0000000000000000</text>
</g>
<!-- node_000001596b6597d0&#45;&gt;node_000001596b659740 -->
<g id="edge3" class="edge">
<title>node_000001596b6597d0&#45;&gt;node_000001596b659740</title>
<path fill="none" stroke="#ff0000" d="M885.48,-829.73C892.47,-820.8 899.75,-811.5 906.88,-802.38"/>
<polygon fill="#ff0000" stroke="#ff0000" points="909.62,-804.57 913.02,-794.54 904.1,-800.26 909.62,-804.57"/>
</g>
<!-- 1 -->
<g id="node2" class="node">
<title>1</title>
<ellipse fill="#fe5656" stroke="#581845" cx="1204.25" cy="-887.25" rx="18" ry="18"/>
<text text-anchor="middle" x="1204.25" y="-882.2" font-family="Times New Roman,serif" font-size="14.00">1</text>
</g>
<!-- 2 -->
<g id="node3" class="node">
<title>2</title>
<ellipse fill="#fe5656" stroke="#581845" cx="1204.25" cy="-735.75" rx="18" ry="18"/>
<text text-anchor="middle" x="1204.25" y="-730.7" font-family="Times New Roman,serif" font-size="14.00">2</text>
</g>
<!-- 1&#45;&gt;2 -->
<g id="edge1" class="edge">
<title>1&#45;&gt;2</title>
<path fill="none" stroke="white" d="M1199.79,-869.39C1197.09,-843.91 1196.78,-795.3 1198.86,-764.53"/>
<polygon fill="white" stroke="white" points="1202.33,-765.09 1199.69,-754.83 1195.35,-764.49 1202.33,-765.09"/>
</g>
<!-- 1&#45;&gt;2 -->
<g id="edge4" class="edge">
<title>1&#45;&gt;2</title>
<path fill="none" stroke="white" d="M1208.71,-869.39C1211.41,-843.91 1211.72,-795.3 1209.64,-764.53"/>
<polygon fill="white" stroke="white" points="1213.15,-764.49 1208.81,-754.83 1206.17,-765.09 1213.15,-764.49"/>
</g>
<!-- 3 -->
<g id="node6" class="node">
<title>3</title>
<ellipse fill="#fe5656" stroke="#581845" cx="1204.25" cy="-584.25" rx="18" ry="18"/>
<text text-anchor="middle" x="1204.25" y="-579.2" font-family="Times New Roman,serif" font-size="14.00">3</text>
</g>
<!-- 2&#45;&gt;3 -->
<g id="edge5" class="edge">
<title>2&#45;&gt;3</title>
<path fill="none" stroke="white" d="M1192.21,-721.74C1182.46,-696.55 1181.4,-640.76 1189,-608.85"/>
<polygon fill="white" stroke="white" points="1192.33,-609.94 1191.9,-599.36 1185.64,-607.9 1192.33,-609.94"/>
</g>
<!-- 2&#45;&gt;3 -->
<g id="edge8" class="edge">
<title>2&#45;&gt;3</title>
<path fill="none" stroke="white" d="M1199.79,-717.89C1197.09,-692.41 1196.78,-643.8 1198.86,-613.03"/>
<polygon fill="white" stroke="white" points="1202.33,-613.59 1199.69,-603.33 1195.35,-612.99 1202.33,-613.59"/>
</g>
<!-- 2&#45;&gt;3 -->
<g id="edge45" class="edge">
<title>2&#45;&gt;3</title>
<path fill="none" stroke="white" d="M1208.71,-717.89C1211.41,-692.41 1211.72,-643.8 1209.64,-613.03"/>
<polygon fill="white" stroke="white" points="1213.15,-612.99 1208.81,-603.33 1206.17,-613.59 1213.15,-612.99"/>
</g>
<!-- 2&#45;&gt;3 -->
<g id="edge48" class="edge">
<title>2&#45;&gt;3</title>
<path fill="none" stroke="white" d="M1216.29,-721.74C1226.04,-696.55 1227.1,-640.76 1219.5,-608.85"/>
<polygon fill="white" stroke="white" points="1222.86,-607.9 1216.6,-599.36 1216.17,-609.94 1222.86,-607.9"/>
</g>
<!-- node_000001596b659650 -->
<g id="node7" class="node">
<title>node_000001596b659650</title>
<path fill="#a2f8a4" stroke="#18ca1c" d="M147,-527C147,-527 441.5,-527 441.5,-527 447.5,-527 453.5,-533 453.5,-539 453.5,-539 453.5,-629.5 453.5,-629.5 453.5,-635.5 447.5,-641.5 441.5,-641.5 441.5,-641.5 147,-641.5 147,-641.5 141,-641.5 135,-635.5 135,-629.5 135,-629.5 135,-539 135,-539 135,-533 141,-527 147,-527"/>
<text text-anchor="middle" x="294.25" y="-624.2" font-family="Times New Roman,serif" font-size="14.00">addr: 000001596b659650</text>
<polyline fill="none" stroke="#18ca1c" points="135,-617 453.5,-617"/>
<text text-anchor="middle" x="294.25" y="-599.7" font-family="Times New Roman,serif" font-size="14.00">val = 0</text>
<polyline fill="none" stroke="#18ca1c" points="135,-592.5 453.5,-592.5"/>
<text text-anchor="middle" x="294.25" y="-575.2" font-family="Times New Roman,serif" font-size="14.00">type = NUM</text>
<polyline fill="none" stroke="#18ca1c" points="135,-568 453.5,-568"/>
<text text-anchor="middle" x="214.62" y="-550.7" font-family="Times New Roman,serif" font-size="14.00">L:</text>
<text text-anchor="middle" x="214.62" y="-534.2" font-family="Times New Roman,serif" font-size="14.00"> addr: 0000000000000000</text>
<polyline fill="none" stroke="#18ca1c" points="294.25,-527 294.25,-568"/>
<text text-anchor="middle" x="373.88" y="-550.7" font-family="Times New Roman,serif" font-size="14.00">R: </text>
<text text-anchor="middle" x="373.88" y="-534.2" font-family="Times New Roman,serif" font-size="14.00"> addr: 0000000000000000</text>
</g>
<!-- node_000001596b659680&#45;&gt;node_000001596b659650 -->
<g id="edge6" class="edge">
<title>node_000001596b659680&#45;&gt;node_000001596b659650</title>
<path fill="none" stroke="#ff0000" d="M497.16,-678.02C474.75,-667.77 451.3,-657.05 428.62,-646.68"/>
<polygon fill="#ff0000" stroke="#ff0000" points="430.18,-643.55 419.63,-642.57 427.27,-649.91 430.18,-643.55"/>
</g>
<!-- node_000001596b659710 -->
<g id="node8" class="node">
<title>node_000001596b659710</title>
<path fill="#ecfd74" stroke="#ffc500" d="M484,-527C484,-527 778.5,-527 778.5,-527 784.5,-527 790.5,-533 790.5,-539 790.5,-539 790.5,-629.5 790.5,-629.5 790.5,-635.5 784.5,-641.5 778.5,-641.5 778.5,-641.5 484,-641.5 484,-641.5 478,-641.5 472,-635.5 472,-629.5 472,-629.5 472,-539 472,-539 472,-533 478,-527 484,-527"/>
<text text-anchor="middle" x="631.25" y="-624.2" font-family="Times New Roman,serif" font-size="14.00">addr: 000001596b659710</text>
<polyline fill="none" stroke="#ffc500" points="472,-617 790.5,-617"/>
<text text-anchor="middle" x="631.25" y="-599.7" font-family="Times New Roman,serif" font-size="14.00">val = &#39;+&#39;</text>
<polyline fill="none" stroke="#ffc500" points="472,-592.5 790.5,-592.5"/>
<text text-anchor="middle" x="631.25" y="-575.2" font-family="Times New Roman,serif" font-size="14.00">type = OP</text>
<polyline fill="none" stroke="#ffc500" points="472,-568 790.5,-568"/>
<text text-anchor="middle" x="551.62" y="-550.7" font-family="Times New Roman,serif" font-size="14.00">L:</text>
<text text-anchor="middle" x="551.62" y="-534.2" font-family="Times New Roman,serif" font-size="14.00"> addr: 000001596b659620</text>
<polyline fill="none" stroke="#ffc500" points="631.25,-527 631.25,-568"/>
<text text-anchor="middle" x="710.88" y="-550.7" font-family="Times New Roman,serif" font-size="14.00">R: </text>
<text text-anchor="middle" x="710.88" y="-534.2" font-family="Times New Roman,serif" font-size="14.00"> addr: 000001596b659590</text>
</g>
<!-- node_000001596b659680&#45;&gt;node_000001596b659710 -->
<g id="edge7" class="edge">
<title>node_000001596b659680&#45;&gt;node_000001596b659710</title>
<path fill="none" stroke="#ff0000" d="M625.03,-678.23C625.58,-670.04 626.15,-661.55 626.71,-653.17"/>
<polygon fill="#ff0000" stroke="#ff0000" points="630.19,-653.57 627.36,-643.36 623.2,-653.1 630.19,-653.57"/>
</g>
<!-- node_l_null_000001596b659740 -->
<g id="node31" class="node">
<title>node_l_null_000001596b659740</title>
<ellipse fill="#a2f0f8" stroke="#007cff" cx="921.25" cy="-584.25" rx="27.81" ry="18"/>
<text text-anchor="middle" x="921.25" y="-579.2" font-family="Times New Roman,serif" font-size="14.00"> null</text>
</g>
<!-- node_000001596b659740&#45;&gt;node_l_null_000001596b659740 -->
<g id="edge46" class="edge">
<title>node_000001596b659740&#45;&gt;node_l_null_000001596b659740</title>
<path fill="none" stroke="#007cff" d="M944.26,-678.23C938.79,-656.12 932.76,-631.74 928.24,-613.49"/>
<polygon fill="#007cff" stroke="#007cff" points="931.68,-612.81 925.88,-603.94 924.88,-614.49 931.68,-612.81"/>
</g>
<!-- node_r_null_000001596b659740 -->
<g id="node32" class="node">
<title>node_r_null_000001596b659740</title>
<ellipse fill="#a2f0f8" stroke="#007cff" cx="995.25" cy="-584.25" rx="27.81" ry="18"/>
<text text-anchor="middle" x="995.25" y="-579.2" font-family="Times New Roman,serif" font-size="14.00"> null</text>
</g>
<!-- node_000001596b659740&#45;&gt;node_r_null_000001596b659740 -->
<g id="edge47" class="edge">
<title>node_000001596b659740&#45;&gt;node_r_null_000001596b659740</title>
<path fill="none" stroke="#007cff" d="M972.24,-678.23C977.71,-656.12 983.74,-631.74 988.26,-613.49"/>
<polygon fill="#007cff" stroke="#007cff" points="991.62,-614.49 990.62,-603.94 984.82,-612.81 991.62,-614.49"/>
</g>
<!-- 4 -->
<g id="node9" class="node">
<title>4</title>
<ellipse fill="#fe5656" stroke="#581845" cx="1204.25" cy="-432.75" rx="18" ry="18"/>
<text text-anchor="middle" x="1204.25" y="-427.7" font-family="Times New Roman,serif" font-size="14.00">4</text>
</g>
<!-- 3&#45;&gt;4 -->
<g id="edge9" class="edge">
<title>3&#45;&gt;4</title>
<path fill="none" stroke="white" d="M1192.21,-570.24C1182.46,-545.05 1181.4,-489.26 1189,-457.35"/>
<polygon fill="white" stroke="white" points="1192.33,-458.44 1191.9,-447.86 1185.64,-456.4 1192.33,-458.44"/>
</g>
<!-- 3&#45;&gt;4 -->
<g id="edge12" class="edge">
<title>3&#45;&gt;4</title>
<path fill="none" stroke="white" d="M1199.79,-566.39C1197.09,-540.91 1196.78,-492.3 1198.86,-461.53"/>
<polygon fill="white" stroke="white" points="1202.33,-462.09 1199.69,-451.83 1195.35,-461.49 1202.33,-462.09"/>
</g>
<!-- 3&#45;&gt;4 -->
<g id="edge13" class="edge">
<title>3&#45;&gt;4</title>
<path fill="none" stroke="white" d="M1208.71,-566.39C1211.41,-540.91 1211.72,-492.3 1209.64,-461.53"/>
<polygon fill="white" stroke="white" points="1213.15,-461.49 1208.81,-451.83 1206.17,-462.09 1213.15,-461.49"/>
</g>
<!-- 3&#45;&gt;4 -->
<g id="edge16" class="edge">
<title>3&#45;&gt;4</title>
<path fill="none" stroke="white" d="M1216.29,-570.24C1226.04,-545.05 1227.1,-489.26 1219.5,-457.35"/>
<polygon fill="white" stroke="white" points="1222.86,-456.4 1216.6,-447.86 1216.17,-458.44 1222.86,-456.4"/>
</g>
<!-- node_l_null_000001596b659650 -->
<g id="node10" class="node">
<title>node_l_null_000001596b659650</title>
<ellipse fill="#a2f0f8" stroke="#007cff" cx="230.25" cy="-432.75" rx="27.81" ry="18"/>
<text text-anchor="middle" x="230.25" y="-427.7" font-family="Times New Roman,serif" font-size="14.00"> null</text>
</g>
<!-- node_000001596b659650&#45;&gt;node_l_null_000001596b659650 -->
<g id="edge10" class="edge">
<title>node_000001596b659650&#45;&gt;node_l_null_000001596b659650</title>
<path fill="none" stroke="#007cff" d="M270.05,-526.73C260.44,-504.27 249.82,-479.47 241.97,-461.14"/>
<polygon fill="#007cff" stroke="#007cff" points="245.23,-459.84 238.07,-452.03 238.79,-462.6 245.23,-459.84"/>
</g>
<!-- node_r_null_000001596b659650 -->
<g id="node11" class="node">
<title>node_r_null_000001596b659650</title>
<ellipse fill="#a2f0f8" stroke="#007cff" cx="304.25" cy="-432.75" rx="27.81" ry="18"/>
<text text-anchor="middle" x="304.25" y="-427.7" font-family="Times New Roman,serif" font-size="14.00"> null</text>
</g>
<!-- node_000001596b659650&#45;&gt;node_r_null_000001596b659650 -->
<g id="edge11" class="edge">
<title>node_000001596b659650&#45;&gt;node_r_null_000001596b659650</title>
<path fill="none" stroke="#007cff" d="M298.03,-526.73C299.5,-504.72 301.12,-480.47 302.34,-462.25"/>
<polygon fill="#007cff" stroke="#007cff" points="305.82,-462.7 303,-452.48 298.84,-462.23 305.82,-462.7"/>
</g>
<!-- node_000001596b659620 -->
<g id="node12" class="node">
<title>node_000001596b659620</title>
<path fill="#ecfd74" stroke="#ffc500" d="M402,-375.5C402,-375.5 696.5,-375.5 696.5,-375.5 702.5,-375.5 708.5,-381.5 708.5,-387.5 708.5,-387.5 708.5,-478 708.5,-478 708.5,-484 702.5,-490 696.5,-490 696.5,-490 402,-490 402,-490 396,-490 390,-484 390,-478 390,-478 390,-387.5 390,-387.5 390,-381.5 396,-375.5 402,-375.5"/>
<text text-anchor="middle" x="549.25" y="-472.7" font-family="Times New Roman,serif" font-size="14.00">addr: 000001596b659620</text>
<polyline fill="none" stroke="#ffc500" points="390,-465.5 708.5,-465.5"/>
<text text-anchor="middle" x="549.25" y="-448.2" font-family="Times New Roman,serif" font-size="14.00">val = &#39;*&#39;</text>
<polyline fill="none" stroke="#ffc500" points="390,-441 708.5,-441"/>
<text text-anchor="middle" x="549.25" y="-423.7" font-family="Times New Roman,serif" font-size="14.00">type = OP</text>
<polyline fill="none" stroke="#ffc500" points="390,-416.5 708.5,-416.5"/>
<text text-anchor="middle" x="469.62" y="-399.2" font-family="Times New Roman,serif" font-size="14.00">L:</text>
<text text-anchor="middle" x="469.62" y="-382.7" font-family="Times New Roman,serif" font-size="14.00"> addr: 000001596b659890</text>
<polyline fill="none" stroke="#ffc500" points="549.25,-375.5 549.25,-416.5"/>
<text text-anchor="middle" x="628.88" y="-399.2" font-family="Times New Roman,serif" font-size="14.00">R: </text>
<text text-anchor="middle" x="628.88" y="-382.7" font-family="Times New Roman,serif" font-size="14.00"> addr: 000001596b659560</text>
</g>
<!-- node_000001596b659710&#45;&gt;node_000001596b659620 -->
<g id="edge14" class="edge">
<title>node_000001596b659710&#45;&gt;node_000001596b659620</title>
<path fill="none" stroke="#ff0000" d="M600.25,-526.73C595.5,-518.08 590.57,-509.08 585.72,-500.24"/>
<polygon fill="#ff0000" stroke="#ff0000" points="588.9,-498.76 581.02,-491.68 582.76,-502.13 588.9,-498.76"/>
</g>
<!-- node_000001596b659590 -->
<g id="node13" class="node">
<title>node_000001596b659590</title>
<path fill="#ecfd74" stroke="#ffc500" d="M759,-375.5C759,-375.5 1053.5,-375.5 1053.5,-375.5 1059.5,-375.5 1065.5,-381.5 1065.5,-387.5 1065.5,-387.5 1065.5,-478 1065.5,-478 1065.5,-484 1059.5,-490 1053.5,-490 1053.5,-490 759,-490 759,-490 753,-490 747,-484 747,-478 747,-478 747,-387.5 747,-387.5 747,-381.5 753,-375.5 759,-375.5"/>
<text text-anchor="middle" x="906.25" y="-472.7" font-family="Times New Roman,serif" font-size="14.00">addr: 000001596b659590</text>
<polyline fill="none" stroke="#ffc500" points="747,-465.5 1065.5,-465.5"/>
<text text-anchor="middle" x="906.25" y="-448.2" font-family="Times New Roman,serif" font-size="14.00">val = &#39;*&#39;</text>
<polyline fill="none" stroke="#ffc500" points="747,-441 1065.5,-441"/>
<text text-anchor="middle" x="906.25" y="-423.7" font-family="Times New Roman,serif" font-size="14.00">type = OP</text>
<polyline fill="none" stroke="#ffc500" points="747,-416.5 1065.5,-416.5"/>
<text text-anchor="middle" x="826.62" y="-399.2" font-family="Times New Roman,serif" font-size="14.00">L:</text>
<text text-anchor="middle" x="826.62" y="-382.7" font-family="Times New Roman,serif" font-size="14.00"> addr: 000001596b659800</text>
<polyline fill="none" stroke="#ffc500" points="906.25,-375.5 906.25,-416.5"/>
<text text-anchor="middle" x="985.88" y="-399.2" font-family="Times New Roman,serif" font-size="14.00">R: </text>
<text text-anchor="middle" x="985.88" y="-382.7" font-family="Times New Roman,serif" font-size="14.00"> addr: 0000000000000000</text>
</g>
<!-- node_000001596b659710&#45;&gt;node_000001596b659590 -->
<g id="edge15" class="edge">
<title>node_000001596b659710&#45;&gt;node_000001596b659590</title>
<path fill="none" stroke="#ff0000" d="M735.61,-526.52C754.03,-516.5 773.29,-506.03 791.96,-495.88"/>
<polygon fill="#ff0000" stroke="#ff0000" points="793.52,-499.02 800.63,-491.17 790.18,-492.87 793.52,-499.02"/>
</g>
<!-- 5 -->
<g id="node14" class="node">
<title>5</title>
<ellipse fill="#fe5656" stroke="#581845" cx="1204.25" cy="-281.25" rx="18" ry="18"/>
<text text-anchor="middle" x="1204.25" y="-276.2" font-family="Times New Roman,serif" font-size="14.00">5</text>
</g>
<!-- 4&#45;&gt;5 -->
<g id="edge17" class="edge">
<title>4&#45;&gt;5</title>
<path fill="none" stroke="white" d="M1192.21,-418.74C1182.46,-393.55 1181.4,-337.76 1189,-305.85"/>
<polygon fill="white" stroke="white" points="1192.33,-306.94 1191.9,-296.36 1185.64,-304.9 1192.33,-306.94"/>
</g>
<!-- 4&#45;&gt;5 -->
<g id="edge20" class="edge">
<title>4&#45;&gt;5</title>
<path fill="none" stroke="white" d="M1199.79,-414.89C1197.09,-389.41 1196.78,-340.8 1198.86,-310.03"/>
<polygon fill="white" stroke="white" points="1202.33,-310.59 1199.69,-300.33 1195.35,-309.99 1202.33,-310.59"/>
</g>
<!-- 4&#45;&gt;5 -->
<g id="edge37" class="edge">
<title>4&#45;&gt;5</title>
<path fill="none" stroke="white" d="M1208.71,-414.89C1211.41,-389.41 1211.72,-340.8 1209.64,-310.03"/>
<polygon fill="white" stroke="white" points="1213.15,-309.99 1208.81,-300.33 1206.17,-310.59 1213.15,-309.99"/>
</g>
<!-- 4&#45;&gt;5 -->
<g id="edge40" class="edge">
<title>4&#45;&gt;5</title>
<path fill="none" stroke="white" d="M1216.29,-418.74C1226.04,-393.55 1227.1,-337.76 1219.5,-305.85"/>
<polygon fill="white" stroke="white" points="1222.86,-304.9 1216.6,-296.36 1216.17,-306.94 1222.86,-304.9"/>
</g>
<!-- node_000001596b659890 -->
<g id="node15" class="node">
<title>node_000001596b659890</title>
<path fill="#a2f8a4" stroke="#18ca1c" d="M12,-224C12,-224 306.5,-224 306.5,-224 312.5,-224 318.5,-230 318.5,-236 318.5,-236 318.5,-326.5 318.5,-326.5 318.5,-332.5 312.5,-338.5 306.5,-338.5 306.5,-338.5 12,-338.5 12,-338.5 6,-338.5 0,-332.5 0,-326.5 0,-326.5 0,-236 0,-236 0,-230 6,-224 12,-224"/>
<text text-anchor="middle" x="159.25" y="-321.2" font-family="Times New Roman,serif" font-size="14.00">addr: 000001596b659890</text>
<polyline fill="none" stroke="#18ca1c" points="0,-314 318.5,-314"/>
<text text-anchor="middle" x="159.25" y="-296.7" font-family="Times New Roman,serif" font-size="14.00">val = 0</text>
<polyline fill="none" stroke="#18ca1c" points="0,-289.5 318.5,-289.5"/>
<text text-anchor="middle" x="159.25" y="-272.2" font-family="Times New Roman,serif" font-size="14.00">type = NUM</text>
<polyline fill="none" stroke="#18ca1c" points="0,-265 318.5,-265"/>
<text text-anchor="middle" x="79.62" y="-247.7" font-family="Times New Roman,serif" font-size="14.00">L:</text>
<text text-anchor="middle" x="79.62" y="-231.2" font-family="Times New Roman,serif" font-size="14.00"> addr: 0000000000000000</text>
<polyline fill="none" stroke="#18ca1c" points="159.25,-224 159.25,-265"/>
<text text-anchor="middle" x="238.88" y="-247.7" font-family="Times New Roman,serif" font-size="14.00">R: </text>
<text text-anchor="middle" x="238.88" y="-231.2" font-family="Times New Roman,serif" font-size="14.00"> addr: 0000000000000000</text>
</g>
<!-- node_000001596b659620&#45;&gt;node_000001596b659890 -->
<g id="edge18" class="edge">
<title>node_000001596b659620&#45;&gt;node_000001596b659890</title>
<path fill="none" stroke="#ff0000" d="M401.25,-375.02C373.93,-364.54 345.3,-353.57 317.68,-342.98"/>
<polygon fill="#ff0000" stroke="#ff0000" points="319.15,-339.8 308.56,-339.49 316.65,-346.33 319.15,-339.8"/>
</g>
<!-- node_000001596b659560 -->
<g id="node16" class="node">
<title>node_000001596b659560</title>
<path fill="#ecfd74" stroke="#ffc500" d="M402,-224C402,-224 696.5,-224 696.5,-224 702.5,-224 708.5,-230 708.5,-236 708.5,-236 708.5,-326.5 708.5,-326.5 708.5,-332.5 702.5,-338.5 696.5,-338.5 696.5,-338.5 402,-338.5 402,-338.5 396,-338.5 390,-332.5 390,-326.5 390,-326.5 390,-236 390,-236 390,-230 396,-224 402,-224"/>
<text text-anchor="middle" x="549.25" y="-321.2" font-family="Times New Roman,serif" font-size="14.00">addr: 000001596b659560</text>
<polyline fill="none" stroke="#ffc500" points="390,-314 708.5,-314"/>
<text text-anchor="middle" x="549.25" y="-296.7" font-family="Times New Roman,serif" font-size="14.00">val = &#39;^&#39;</text>
<polyline fill="none" stroke="#ffc500" points="390,-289.5 708.5,-289.5"/>
<text text-anchor="middle" x="549.25" y="-272.2" font-family="Times New Roman,serif" font-size="14.00">type = OP</text>
<polyline fill="none" stroke="#ffc500" points="390,-265 708.5,-265"/>
<text text-anchor="middle" x="469.62" y="-247.7" font-family="Times New Roman,serif" font-size="14.00">L:</text>
<text text-anchor="middle" x="469.62" y="-231.2" font-family="Times New Roman,serif" font-size="14.00"> addr: 0000015969d66040</text>
<polyline fill="none" stroke="#ffc500" points="549.25,-224 549.25,-265"/>
<text text-anchor="middle" x="628.88" y="-247.7" font-family="Times New Roman,serif" font-size="14.00">R: </text>
<text text-anchor="middle" x="628.88" y="-231.2" font-family="Times New Roman,serif" font-size="14.00"> addr: 0000015969d66070</text>
</g>
<!-- node_000001596b659620&#45;&gt;node_000001596b659560 -->
<g id="edge19" class="edge">
<title>node_000001596b659620&#45;&gt;node_000001596b659560</title>
<path fill="none" stroke="#ff0000" d="M549.25,-375.23C549.25,-367.04 549.25,-358.55 549.25,-350.17"/>
<polygon fill="#ff0000" stroke="#ff0000" points="552.75,-350.36 549.25,-340.36 545.75,-350.36 552.75,-350.36"/>
</g>
<!-- node_000001596b659800 -->
<g id="node27" class="node">
<title>node_000001596b659800</title>
<path fill="#a2f8a4" stroke="#18ca1c" d="M759,-224C759,-224 1053.5,-224 1053.5,-224 1059.5,-224 1065.5,-230 1065.5,-236 1065.5,-236 1065.5,-326.5 1065.5,-326.5 1065.5,-332.5 1059.5,-338.5 1053.5,-338.5 1053.5,-338.5 759,-338.5 759,-338.5 753,-338.5 747,-332.5 747,-326.5 747,-326.5 747,-236 747,-236 747,-230 753,-224 759,-224"/>
<text text-anchor="middle" x="906.25" y="-321.2" font-family="Times New Roman,serif" font-size="14.00">addr: 000001596b659800</text>
<polyline fill="none" stroke="#18ca1c" points="747,-314 1065.5,-314"/>
<text text-anchor="middle" x="906.25" y="-296.7" font-family="Times New Roman,serif" font-size="14.00">val = 3</text>
<polyline fill="none" stroke="#18ca1c" points="747,-289.5 1065.5,-289.5"/>
<text text-anchor="middle" x="906.25" y="-272.2" font-family="Times New Roman,serif" font-size="14.00">type = NUM</text>
<polyline fill="none" stroke="#18ca1c" points="747,-265 1065.5,-265"/>
<text text-anchor="middle" x="826.62" y="-247.7" font-family="Times New Roman,serif" font-size="14.00">L:</text>
<text text-anchor="middle" x="826.62" y="-231.2" font-family="Times New Roman,serif" font-size="14.00"> addr: 0000000000000000</text>
<polyline fill="none" stroke="#18ca1c" points="906.25,-224 906.25,-265"/>
<text text-anchor="middle" x="985.88" y="-247.7" font-family="Times New Roman,serif" font-size="14.00">R: </text>
<text text-anchor="middle" x="985.88" y="-231.2" font-family="Times New Roman,serif" font-size="14.00"> addr: 0000000000000000</text>
</g>
<!-- node_000001596b659590&#45;&gt;node_000001596b659800 -->
<g id="edge38" class="edge">
<title>node_000001596b659590&#45;&gt;node_000001596b659800</title>
<path fill="none" stroke="#ff0000" d="M906.25,-375.23C906.25,-367.04 906.25,-358.55 906.25,-350.17"/>
<polygon fill="#ff0000" stroke="#ff0000" points="909.75,-350.36 906.25,-340.36 902.75,-350.36 909.75,-350.36"/>
</g>
<!-- node_r_null_000001596b659590 -->
<g id="node28" class="node">
<title>node_r_null_000001596b659590</title>
<ellipse fill="#a2f0f8" stroke="#007cff" cx="1111.25" cy="-281.25" rx="27.81" ry="18"/>
<text text-anchor="middle" x="1111.25" y="-276.2" font-family="Times New Roman,serif" font-size="14.00"> null</text>
</g>
<!-- node_000001596b659590&#45;&gt;node_r_null_000001596b659590 -->
<g id="edge39" class="edge">
<title>node_000001596b659590&#45;&gt;node_r_null_000001596b659590</title>
<path fill="none" stroke="#007cff" d="M1026.45,-375.01C1043.45,-364.31 1059.97,-352.27 1074.25,-339 1083.49,-330.41 1091.48,-319.06 1097.65,-308.77"/>
<polygon fill="#007cff" stroke="#007cff" points="1100.57,-310.71 1102.44,-300.29 1094.48,-307.27 1100.57,-310.71"/>
</g>
<!-- 6 -->
<g id="node17" class="node">
<title>6</title>
<ellipse fill="#fe5656" stroke="#581845" cx="1204.25" cy="-129.75" rx="18" ry="18"/>
<text text-anchor="middle" x="1204.25" y="-124.7" font-family="Times New Roman,serif" font-size="14.00">6</text>
</g>
<!-- 5&#45;&gt;6 -->
<g id="edge21" class="edge">
<title>5&#45;&gt;6</title>
<path fill="none" stroke="white" d="M1188.32,-272.63C1167.02,-249.64 1164.82,-180.57 1181.71,-148.04"/>
<polygon fill="white" stroke="white" points="1184.59,-150.02 1187.32,-139.79 1178.8,-146.09 1184.59,-150.02"/>
</g>
<!-- 5&#45;&gt;6 -->
<g id="edge24" class="edge">
<title>5&#45;&gt;6</title>
<path fill="none" stroke="white" d="M1192.21,-267.24C1182.46,-242.05 1181.4,-186.26 1189,-154.35"/>
<polygon fill="white" stroke="white" points="1192.33,-155.44 1191.9,-144.86 1185.64,-153.4 1192.33,-155.44"/>
</g>
<!-- 5&#45;&gt;6 -->
<g id="edge25" class="edge">
<title>5&#45;&gt;6</title>
<path fill="none" stroke="white" d="M1199.79,-263.39C1197.09,-237.91 1196.78,-189.3 1198.86,-158.53"/>
<polygon fill="white" stroke="white" points="1202.33,-159.09 1199.69,-148.83 1195.35,-158.49 1202.33,-159.09"/>
</g>
<!-- 5&#45;&gt;6 -->
<g id="edge28" class="edge">
<title>5&#45;&gt;6</title>
<path fill="none" stroke="white" d="M1208.71,-263.39C1211.41,-237.91 1211.72,-189.3 1209.64,-158.53"/>
<polygon fill="white" stroke="white" points="1213.15,-158.49 1208.81,-148.83 1206.17,-159.09 1213.15,-158.49"/>
</g>
<!-- 5&#45;&gt;6 -->
<g id="edge41" class="edge">
<title>5&#45;&gt;6</title>
<path fill="none" stroke="white" d="M1216.29,-267.24C1226.04,-242.05 1227.1,-186.26 1219.5,-154.35"/>
<polygon fill="white" stroke="white" points="1222.86,-153.4 1216.6,-144.86 1216.17,-155.44 1222.86,-153.4"/>
</g>
<!-- 5&#45;&gt;6 -->
<g id="edge44" class="edge">
<title>5&#45;&gt;6</title>
<path fill="none" stroke="white" d="M1220.18,-272.63C1241.48,-249.64 1243.68,-180.57 1226.79,-148.04"/>
<polygon fill="white" stroke="white" points="1229.7,-146.09 1221.18,-139.79 1223.91,-150.02 1229.7,-146.09"/>
</g>
<!-- node_l_null_000001596b659890 -->
<g id="node18" class="node">
<title>node_l_null_000001596b659890</title>
<ellipse fill="#a2f0f8" stroke="#007cff" cx="85.25" cy="-129.75" rx="27.81" ry="18"/>
<text text-anchor="middle" x="85.25" y="-124.7" font-family="Times New Roman,serif" font-size="14.00"> null</text>
</g>
<!-- node_000001596b659890&#45;&gt;node_l_null_000001596b659890 -->
<g id="edge22" class="edge">
<title>node_000001596b659890&#45;&gt;node_l_null_000001596b659890</title>
<path fill="none" stroke="#007cff" d="M131.27,-223.73C120.04,-201.03 107.62,-175.93 98.51,-157.54"/>
<polygon fill="#007cff" stroke="#007cff" points="101.69,-156.07 94.11,-148.66 95.41,-159.17 101.69,-156.07"/>
</g>
<!-- node_r_null_000001596b659890 -->
<g id="node19" class="node">
<title>node_r_null_000001596b659890</title>
<ellipse fill="#a2f0f8" stroke="#007cff" cx="159.25" cy="-129.75" rx="27.81" ry="18"/>
<text text-anchor="middle" x="159.25" y="-124.7" font-family="Times New Roman,serif" font-size="14.00"> null</text>
</g>
<!-- node_000001596b659890&#45;&gt;node_r_null_000001596b659890 -->
<g id="edge23" class="edge">
<title>node_000001596b659890&#45;&gt;node_r_null_000001596b659890</title>
<path fill="none" stroke="#007cff" d="M159.25,-223.73C159.25,-201.72 159.25,-177.47 159.25,-159.25"/>
<polygon fill="#007cff" stroke="#007cff" points="162.75,-159.49 159.25,-149.49 155.75,-159.49 162.75,-159.49"/>
</g>
<!-- node_0000015969d66040 -->
<g id="node20" class="node">
<title>node_0000015969d66040</title>
<path fill="#a2f8a4" stroke="#18ca1c" d="M217,-72.5C217,-72.5 511.5,-72.5 511.5,-72.5 517.5,-72.5 523.5,-78.5 523.5,-84.5 523.5,-84.5 523.5,-175 523.5,-175 523.5,-181 517.5,-187 511.5,-187 511.5,-187 217,-187 217,-187 211,-187 205,-181 205,-175 205,-175 205,-84.5 205,-84.5 205,-78.5 211,-72.5 217,-72.5"/>
<text text-anchor="middle" x="364.25" y="-169.7" font-family="Times New Roman,serif" font-size="14.00">addr: 0000015969d66040</text>
<polyline fill="none" stroke="#18ca1c" points="205,-162.5 523.5,-162.5"/>
<text text-anchor="middle" x="364.25" y="-145.2" font-family="Times New Roman,serif" font-size="14.00">val = 2</text>
<polyline fill="none" stroke="#18ca1c" points="205,-138 523.5,-138"/>
<text text-anchor="middle" x="364.25" y="-120.7" font-family="Times New Roman,serif" font-size="14.00">type = NUM</text>
<polyline fill="none" stroke="#18ca1c" points="205,-113.5 523.5,-113.5"/>
<text text-anchor="middle" x="284.62" y="-96.2" font-family="Times New Roman,serif" font-size="14.00">L:</text>
<text text-anchor="middle" x="284.62" y="-79.7" font-family="Times New Roman,serif" font-size="14.00"> addr: 0000000000000000</text>
<polyline fill="none" stroke="#18ca1c" points="364.25,-72.5 364.25,-113.5"/>
<text text-anchor="middle" x="443.88" y="-96.2" font-family="Times New Roman,serif" font-size="14.00">R: </text>
<text text-anchor="middle" x="443.88" y="-79.7" font-family="Times New Roman,serif" font-size="14.00"> addr: 0000000000000000</text>
</g>
<!-- node_000001596b659560&#45;&gt;node_0000015969d66040 -->
<g id="edge26" class="edge">
<title>node_000001596b659560&#45;&gt;node_0000015969d66040</title>
<path fill="none" stroke="#ff0000" d="M479.05,-223.52C467.28,-214.01 455.01,-204.09 443.05,-194.43"/>
<polygon fill="#ff0000" stroke="#ff0000" points="445.56,-191.96 435.58,-188.4 441.16,-197.4 445.56,-191.96"/>
</g>
<!-- node_0000015969d66070 -->
<g id="node21" class="node">
<title>node_0000015969d66070</title>
<path fill="#a2f8a4" stroke="#18ca1c" d="M554,-72.5C554,-72.5 848.5,-72.5 848.5,-72.5 854.5,-72.5 860.5,-78.5 860.5,-84.5 860.5,-84.5 860.5,-175 860.5,-175 860.5,-181 854.5,-187 848.5,-187 848.5,-187 554,-187 554,-187 548,-187 542,-181 542,-175 542,-175 542,-84.5 542,-84.5 542,-78.5 548,-72.5 554,-72.5"/>
<text text-anchor="middle" x="701.25" y="-169.7" font-family="Times New Roman,serif" font-size="14.00">addr: 0000015969d66070</text>
<polyline fill="none" stroke="#18ca1c" points="542,-162.5 860.5,-162.5"/>
<text text-anchor="middle" x="701.25" y="-145.2" font-family="Times New Roman,serif" font-size="14.00">val = 4</text>
<polyline fill="none" stroke="#18ca1c" points="542,-138 860.5,-138"/>
<text text-anchor="middle" x="701.25" y="-120.7" font-family="Times New Roman,serif" font-size="14.00">type = NUM</text>
<polyline fill="none" stroke="#18ca1c" points="542,-113.5 860.5,-113.5"/>
<text text-anchor="middle" x="621.62" y="-96.2" font-family="Times New Roman,serif" font-size="14.00">L:</text>
<text text-anchor="middle" x="621.62" y="-79.7" font-family="Times New Roman,serif" font-size="14.00"> addr: 0000000000000000</text>
<polyline fill="none" stroke="#18ca1c" points="701.25,-72.5 701.25,-113.5"/>
<text text-anchor="middle" x="780.88" y="-96.2" font-family="Times New Roman,serif" font-size="14.00">R: </text>
<text text-anchor="middle" x="780.88" y="-79.7" font-family="Times New Roman,serif" font-size="14.00"> addr: 0000000000000000</text>
</g>
<!-- node_000001596b659560&#45;&gt;node_0000015969d66070 -->
<g id="edge27" class="edge">
<title>node_000001596b659560&#45;&gt;node_0000015969d66070</title>
<path fill="none" stroke="#ff0000" d="M606.71,-223.73C616.17,-214.43 626.04,-204.72 635.68,-195.25"/>
<polygon fill="#ff0000" stroke="#ff0000" points="637.95,-197.92 642.62,-188.41 633.04,-192.93 637.95,-197.92"/>
</g>
<!-- 7 -->
<g id="node22" class="node">
<title>7</title>
<ellipse fill="#fe5656" stroke="#581845" cx="1204.25" cy="-18" rx="18" ry="18"/>
<text text-anchor="middle" x="1204.25" y="-12.95" font-family="Times New Roman,serif" font-size="14.00">7</text>
</g>
<!-- 6&#45;&gt;7 -->
<g id="edge29" class="edge">
<title>6&#45;&gt;7</title>
<path fill="none" stroke="white" d="M1191.14,-117C1183.02,-99.02 1181.83,-64.32 1187.55,-41.42"/>
<polygon fill="white" stroke="white" points="1190.82,-42.69 1190.69,-32.09 1184.18,-40.45 1190.82,-42.69"/>
</g>
<!-- 6&#45;&gt;7 -->
<g id="edge32" class="edge">
<title>6&#45;&gt;7</title>
<path fill="none" stroke="white" d="M1199.24,-112.08C1197.29,-94.74 1196.98,-67.28 1198.3,-46.68"/>
<polygon fill="white" stroke="white" points="1201.76,-47.24 1199.13,-36.97 1194.79,-46.64 1201.76,-47.24"/>
</g>
<!-- 6&#45;&gt;7 -->
<g id="edge33" class="edge">
<title>6&#45;&gt;7</title>
<path fill="none" stroke="white" d="M1209.26,-112.08C1211.21,-94.74 1211.52,-67.28 1210.2,-46.68"/>
<polygon fill="white" stroke="white" points="1213.71,-46.64 1209.37,-36.97 1206.74,-47.24 1213.71,-46.64"/>
</g>
<!-- 6&#45;&gt;7 -->
<g id="edge36" class="edge">
<title>6&#45;&gt;7</title>
<path fill="none" stroke="white" d="M1217.36,-117C1225.48,-99.02 1226.67,-64.32 1220.95,-41.42"/>
<polygon fill="white" stroke="white" points="1224.32,-40.45 1217.81,-32.09 1217.68,-42.69 1224.32,-40.45"/>
</g>
<!-- node_l_null_0000015969d66040 -->
<g id="node23" class="node">
<title>node_l_null_0000015969d66040</title>
<ellipse fill="#a2f0f8" stroke="#007cff" cx="327.25" cy="-18" rx="27.81" ry="18"/>
<text text-anchor="middle" x="327.25" y="-12.95" font-family="Times New Roman,serif" font-size="14.00"> null</text>
</g>
<!-- node_0000015969d66040&#45;&gt;node_l_null_0000015969d66040 -->
<g id="edge30" class="edge">
<title>node_0000015969d66040&#45;&gt;node_l_null_0000015969d66040</title>
<path fill="none" stroke="#007cff" d="M345.21,-72.27C342.21,-63.37 339.23,-54.54 336.59,-46.69"/>
<polygon fill="#007cff" stroke="#007cff" points="339.98,-45.81 333.47,-37.45 333.35,-48.05 339.98,-45.81"/>
</g>
<!-- node_r_null_0000015969d66040 -->
<g id="node24" class="node">
<title>node_r_null_0000015969d66040</title>
<ellipse fill="#a2f0f8" stroke="#007cff" cx="401.25" cy="-18" rx="27.81" ry="18"/>
<text text-anchor="middle" x="401.25" y="-12.95" font-family="Times New Roman,serif" font-size="14.00"> null</text>
</g>
<!-- node_0000015969d66040&#45;&gt;node_r_null_0000015969d66040 -->
<g id="edge31" class="edge">
<title>node_0000015969d66040&#45;&gt;node_r_null_0000015969d66040</title>
<path fill="none" stroke="#007cff" d="M383.29,-72.27C386.29,-63.37 389.27,-54.54 391.91,-46.69"/>
<polygon fill="#007cff" stroke="#007cff" points="395.15,-48.05 395.03,-37.45 388.52,-45.81 395.15,-48.05"/>
</g>
<!-- node_l_null_0000015969d66070 -->
<g id="node25" class="node">
<title>node_l_null_0000015969d66070</title>
<ellipse fill="#a2f0f8" stroke="#007cff" cx="664.25" cy="-18" rx="27.81" ry="18"/>
<text text-anchor="middle" x="664.25" y="-12.95" font-family="Times New Roman,serif" font-size="14.00"> null</text>
</g>
<!-- node_0000015969d66070&#45;&gt;node_l_null_0000015969d66070 -->
<g id="edge34" class="edge">
<title>node_0000015969d66070&#45;&gt;node_l_null_0000015969d66070</title>
<path fill="none" stroke="#007cff" d="M682.21,-72.27C679.21,-63.37 676.23,-54.54 673.59,-46.69"/>
<polygon fill="#007cff" stroke="#007cff" points="676.98,-45.81 670.47,-37.45 670.35,-48.05 676.98,-45.81"/>
</g>
<!-- node_r_null_0000015969d66070 -->
<g id="node26" class="node">
<title>node_r_null_0000015969d66070</title>
<ellipse fill="#a2f0f8" stroke="#007cff" cx="738.25" cy="-18" rx="27.81" ry="18"/>
<text text-anchor="middle" x="738.25" y="-12.95" font-family="Times New Roman,serif" font-size="14.00"> null</text>
</g>
<!-- node_0000015969d66070&#45;&gt;node_r_null_0000015969d66070 -->
<g id="edge35" class="edge">
<title>node_0000015969d66070&#45;&gt;node_r_null_0000015969d66070</title>
<path fill="none" stroke="#007cff" d="M720.29,-72.27C723.29,-63.37 726.27,-54.54 728.91,-46.69"/>
<polygon fill="#007cff" stroke="#007cff" points="732.15,-48.05 732.03,-37.45 725.52,-45.81 732.15,-48.05"/>
</g>
<!-- node_l_null_000001596b659800 -->
<g id="node29" class="node">
<title>node_l_null_000001596b659800</title>
<ellipse fill="#a2f0f8" stroke="#007cff" cx="906.25" cy="-129.75" rx="27.81" ry="18"/>
<text text-anchor="middle" x="906.25" y="-124.7" font-family="Times New Roman,serif" font-size="14.00"> null</text>
</g>
<!-- node_000001596b659800&#45;&gt;node_l_null_000001596b659800 -->
<g id="edge42" class="edge">
<title>node_000001596b659800&#45;&gt;node_l_null_000001596b659800</title>
<path fill="none" stroke="#007cff" d="M906.25,-223.73C906.25,-201.72 906.25,-177.47 906.25,-159.25"/>
<polygon fill="#007cff" stroke="#007cff" points="909.75,-159.49 906.25,-149.49 902.75,-159.49 909.75,-159.49"/>
</g>
<!-- node_r_null_000001596b659800 -->
<g id="node30" class="node">
<title>node_r_null_000001596b659800</title>
<ellipse fill="#a2f0f8" stroke="#007cff" cx="980.25" cy="-129.75" rx="27.81" ry="18"/>
<text text-anchor="middle" x="980.25" y="-124.7" font-family="Times New Roman,serif" font-size="14.00"> null</text>
</g>
<!-- node_000001596b659800&#45;&gt;node_r_null_000001596b659800 -->
<g id="edge43" class="edge">
<title>node_000001596b659800&#45;&gt;node_r_null_000001596b659800</title>
<path fill="none" stroke="#007cff" d="M934.23,-223.73C945.46,-201.03 957.88,-175.93 966.99,-157.54"/>
<polygon fill="#007cff" stroke="#007cff" points="970.09,-159.17 971.39,-148.66 963.81,-156.07 970.09,-159.17"/>
</g>
</g>
</svg>
